<?xml version="1.0" encoding="utf-8"?>
<!-- Generator: Adobe Illustrator 19.0.0, SVG Export Plug-In . SVG Version: 6.00 Build 0)  -->
<svg version="1.1" id="OBJECTS" xmlns="http://www.w3.org/2000/svg" xmlns:xlink="http://www.w3.org/1999/xlink" x="0px" y="0px"
	 viewBox="0 0 335.1 377.4" style="enable-background:new 0 0 335.1 377.4;" xml:space="preserve">
<style type="text/css">
	.st0{fill:#553BB7;}
	.st1{fill:#DFD1FF;}
	.st2{enable-background:new    ;}
	.st3{fill:#C7D8F2;}
	.st4{fill:#7BAEFF;}
	.st5{fill:#4DA5DC;}
	.st6{fill:#FFFFFF;}
	.st7{fill:#E16B40;}
	.st8{fill:#FF8654;}
	.st9{fill:#F99848;}
	.st10{fill:#D37D3D;}
	.st11{fill:#FCE0E9;}
	.st12{fill:#343996;}
	.st13{fill:#303030;}
	.st14{fill:#382747;}
	.st15{fill:#94A3C0;}
	.st16{fill:#3D2E93;}
	.st17{fill:#8E5CFF;}
	.st18{fill:#ADCDFC;}
	.st19{fill:#D4D9DF;}
	.st20{fill:#F2F8FD;}
	.st21{fill:url(#SVGID_1_);}
	.st22{fill:url(#SVGID_2_);}
	.st23{fill:#9E5728;}
	.st24{fill:#BC6C31;}
	.st25{fill:#3E2F96;}
	.st26{fill:#CC096A;}
	.st27{fill:none;}
	.st28{fill:#FF5668;}
	.st29{fill:#3278CC;}
	.st30{fill:#58AFFB;}
	.st31{fill:#E2A029;}
	.st32{fill:#FFBE3D;}
	.st33{fill:#7974F5;}
	.st34{fill:#B391FF;}
	.st35{fill:none;stroke:#343996;stroke-width:2;stroke-miterlimit:10;}
	.st36{fill:#F1F1F1;}
	.st37{fill:#C47139;}
	.st38{fill:#14347C;}
	.st39{fill:#18388F;}
	.st40{fill:#2D2D2D;}
	.st41{fill:#6957D3;}
</style>
<path class="st0" d="M87.9,244.9c-0.6,6.3-6.5,10.5-11.8,12.8c-5.8,2.5-12.2,3.5-18.5,3.4c-6.4-0.1-13-1.3-18.8-4.2
	c-5.1-2.5-10.4-7-10.4-13.2c0,4.5,0.3,8.2,3.5,11.7c4.2,4.5,10.4,6.9,16.3,8.1c11.5,2.4,27.1,1.2,35.8-7.6c3.5-3.6,4-7.3,4-12
	C88,244.3,87.9,244.6,87.9,244.9z"/>
<g>
	<path class="st1" d="M79.2,231.7c11.7,6.7,11.7,17.7,0.2,24.4c-11.6,6.7-30.5,6.7-42.2,0c-11.7-6.7-11.7-17.7-0.1-24.4
		C48.6,225,67.5,225,79.2,231.7z"/>
</g>
<g>
	<g class="st2">
		<g>
			<polygon class="st3" points="63.5,218.1 63.4,244.1 58.9,246.8 58.9,220.7 			"/>
		</g>
		<g>
			<polygon class="st4" points="58.9,220.7 58.9,246.8 54.3,244.1 54.3,218.1 			"/>
		</g>
		<g>
			<polygon class="st5" points="63.5,218.1 58.9,220.7 54.3,218.1 58.9,215.4 			"/>
		</g>
	</g>
</g>
<path class="st0" d="M29.3,133.6c0,0-9.3,2.5-11.8,8.1c-2.5,5.6-1.9,47.9,11.2,65.4c13.1,17.4,37.4,19.9,43,17.4
	c5.6-2.5,38-18.7,40.5-26.8c2.5-8.1-10-14.3-16.8-17.4c-6.8-3.1-11.2-7.5-14.9-18.7c-3.7-11.2-5.6-30.5-10-33.6
	C66,124.9,55.4,119.9,29.3,133.6z"/>
<path class="st6" d="M85.1,122.4c0,0-15.3-12.7-18.4-13c-3.7-0.3-8.4,1-9.6,6.3c-1.2,5.3,1.6,9.3,4.4,10.9
	c2.8,1.5,27.5,13.2,31.8,13.2c4.4,0,7.1-3.8,4.3-8.4C94.8,126.7,85.1,122.4,85.1,122.4z"/>
<g>
	<g>
		<g>
			<g>
				<path class="st7" d="M58.6,106.5c0,0,0,0.2,0,0.5c0.2,1.1,0.9,4,1.1,5.3c0.2,1.2-1.1,3.3-4.2,3.4c-3.2,0.1-8.6-1-10.6-4.7
					c0.1-0.7-0.5-7.7-1.1-11.1L58.6,106.5z"/>
				<g>
					<g>
						<path class="st8" d="M65.4,83.4c-2.3-9.6-10.2-14.7-18.8-12.3c0,0-9.4,1.4-13.1,9.9c-3.8,8.5,2.7,15.1,6.9,19.3
							c1.7,1.7,3.1,3,3.9,3.9c0.3,0.3,0.6,0.6,0.9,0.9c0.1,0.1,0.1,0.1,0.1,0.1l0,0c2.8,2.6,6,3.9,8.3,4.5c3.8,0.9,8.3,0.1,10.6-2.6
							C66.4,104.4,67.7,93,65.4,83.4z"/>
					</g>
				</g>
			</g>
		</g>
	</g>
</g>
<path class="st9" d="M45.7,107.3c0,0-15.1,11.9-16.4,15.7c-1.4,3.8-1.2,14.2,2.4,20.9c3.6,6.7,3.6,32.2,5,37.1
	c1.4,4.9,14.9,5.8,23.1,3.8c8.2-2,21.2-8.9,18.6-18.2c-3.9-13.7-2.9-27.6-2.6-32c0.3-4.4-0.8-15.3-3.2-22.5
	c-0.5-1.5-5.9-3.7-5.9-3.7S61,105.8,45.7,107.3z"/>
<path class="st10" d="M48.4,164.2c-6.2-7.9,2.9-34.9-7.9-42.3c-3.3-2.3-6.1-2.9-8.5-2.6c-1.4,1.5-2.5,2.9-2.8,3.7
	c-1.4,3.8-1.2,14.2,2.4,20.9c3.6,6.7,3.6,32.2,5,37.1c1.3,4.5,12.5,5.6,20.7,4.3l11.8-12.3C69.1,172.9,54.6,172,48.4,164.2z"/>
<path class="st6" d="M45.1,109.3c13.1-1.2,19.1,1.1,20.6,1.7c0.2,2.6,0.3,6.1-0.2,9.3c-1,6.2-3.5,23.2-3.5,23.2s-8.1-14-13.4-19.7
	c-3.7-4.1-7.4-7.9-9.3-9.8C42.5,111.4,45.1,109.3,45.1,109.3z"/>
<path class="st11" d="M58.6,106.5c0,0,0,0.2,0,0.5c0.2,1.1,0.9,4,1.1,5.3c0.2,1.2-1.1,3.3-4.2,3.4c-3.2,0.1-8.6-1-10.6-4.7
	c0.1-0.7-0.5-7.7-1.1-11.1L58.6,106.5z"/>
<g>
	<g>
		<path class="st11" d="M65.4,83.4c-2.3-9.6-10.2-14.7-18.8-12.3c0,0-9.4,1.4-13.1,9.9c-3.8,8.5,2.7,15.1,6.9,19.3
			c1.7,1.7,3.1,3,3.9,3.9c0.3,0.3,0.6,0.6,0.9,0.9c0.1,0.1,0.1,0.1,0.1,0.1l0,0c2.8,2.6,6,3.9,8.3,4.5c3.8,0.9,8.3,0.1,10.6-2.6
			C66.4,104.4,67.7,93,65.4,83.4z"/>
	</g>
</g>
<path class="st6" d="M63.9,123.8l-5.8-5.2l-4.7,8.2l-4.7-3c5.3,5.8,13.4,19.7,13.4,19.7s2.1-14.2,3.2-21.4L63.9,123.8z"/>
<path class="st12" d="M63.5,133.8l-2.6-9.2l0.4-3.1l-3.2-2.9l-2.3,4l2.6,2.4l0.7,13.6c1.8,2.9,3,4.9,3,4.9S62.8,139.1,63.5,133.8z"
	/>
<path class="st13" d="M32.4,80.1c0,0-3.7,6.8,0.9,14c4.7,7.2,9.7,10.3,10.9,10.2c1.2-0.2,1.9-0.5,1.5-1.4c-0.3-0.9-1.9-4-1.9-4
	s-5.3-0.6-5.3-4c0-3.4,1.9-4,4-3.1c2.2,0.9,2.5,2.5,3.7,3.7c1.2,1.2,1.6,4.4,2.5,4c0.9-0.3,1.6-1.2,1.6-2.8c0-1.6,0-3.4-1.9-5.3
	c-1.9-1.9,0.3-5-1.6-7.5c-1.9-2.5-3.1-3.4-3.1-3.4s1.2,1.9,7.5,0.6c6.2-1.2,9-0.9,11.5-2.5c2.5-1.6,1.9-5,0.3-6.2
	c-1.6-1.2-5.3-1.9-9.7-3.4s-6.8-0.6-12.1,0.6C36.1,70.8,31.2,76.4,32.4,80.1z"/>
<path class="st14" d="M120.2,267.5c0,0-0.2,3.1,3.1,5.4c3.3,2.3,3.9,3.7,6.6,4.8c2.7,1,5.2,4.6,3.9,7.1c-1.2,2.5-7.1,2.9-10.8,1.9
	c-3.7-1-4.4-4.4-7.9-5.6s-4.8-2.7-5.8-3.7c-1-1-0.6-5.2-0.6-5.2l12.7-4.2"/>
<path class="st14" d="M136.4,255.5c0,0-0.2,3.1,3.1,5.4c3.3,2.3,3.9,3.7,6.6,4.8c2.7,1,5.2,4.6,3.9,7.1s-7.1,2.9-10.8,1.9
	c-3.7-1-4.4-4.4-7.9-5.6c-3.5-1.2-4.8-2.7-5.8-3.7c-1-1-0.6-5.2-0.6-5.2l12.7-4.2"/>
<path class="st15" d="M37.6,181.1c0,0,0.6,2.5,0.6,4.7c0,2.2-1.6,8.4,1.6,15.9c3.1,7.5,24,9,30.8,12.1c6.8,3.1,10.9,5.9,12.1,6.8
	c1.2,0.9,3,14.1,8.4,22c5.4,7.9,14.5,23.7,16.6,30.3c0,0,5.9,1.4,11.2-2.1c2.8-1.8,2.5-2.9,2.5-2.9s-10.8-23.7-13.3-33.6
	s-5.4-21.6-10-24.5s-19.1-13.3-22.4-15.4c-3.3-2.1-12.3-8.6-14-12.6C60,177.9,43,171.4,37.6,181.1z"/>
<path class="st15" d="M54.7,170.8c0,0,0.6,2.5,0.6,4.7c0,2.2-1.6,8.4,1.6,15.9c3.1,7.5,24,9,30.8,12.1c6.8,3.1,10.9,5.9,12.1,6.8
	c1.2,0.9,3,14.1,8.4,22c5.4,7.9,14.5,23.7,16.6,30.3c0,0,5.9,1.4,11.2-2.1c2.8-1.8,2.5-2.9,2.5-2.9S127.8,234,125.3,224
	c-2.5-10-5.4-21.6-10-24.5c-4.6-2.9-19.1-13.3-22.4-15.4s-12.3-8.6-14-12.6C77.1,167.6,60.1,161.1,54.7,170.8z"/>
<g>
	<polygon class="st16" points="138.8,249.5 138.6,312.8 127.5,319.3 127.7,256 	"/>
</g>
<g>
	<polygon class="st17" points="127.7,256 127.5,319.3 116.4,312.8 116.5,249.5 	"/>
</g>
<g>
	<polygon class="st5" points="138.8,249.5 127.7,256 116.5,249.5 127.6,243.1 	"/>
</g>
<path class="st0" d="M320.9,206.1c0,0.2,0,0.4-0.1,0.6c0,0.2-0.1,0.3-0.1,0.5c0,0.2-0.1,0.4-0.2,0.5c-0.1,0.1-0.1,0.3-0.2,0.4
	c-0.1,0.2-0.2,0.4-0.3,0.5c-0.1,0.1-0.2,0.3-0.2,0.4c-0.1,0.2-0.3,0.4-0.4,0.6c-0.1,0.2-0.3,0.4-0.5,0.6c0,0-0.1,0.1-0.1,0.1
	c-0.2,0.2-0.5,0.5-0.7,0.7c-0.2,0.2-0.4,0.3-0.5,0.4c-0.2,0.1-0.3,0.3-0.5,0.4c-0.2,0.1-0.4,0.3-0.6,0.4c-0.2,0.1-0.4,0.3-0.7,0.4
	l-142.4,82.8c-1.2,0.7-2.5,1.2-3.9,1.7c-1.1,0.3-2.2,0.6-3.3,0.8c-0.7,0.1-1.5,0.2-2.2,0.3c-0.6,0.1-1.3,0.1-1.9,0.1
	c-0.6,0-1.2,0-1.8,0c-0.6,0-1.2,0-1.7-0.1l0,10.2c0.6,0,1.2,0.1,1.7,0.1c0.6,0,1.2,0,1.8,0c0.7,0,1.3-0.1,1.9-0.1
	c0.8-0.1,1.5-0.2,2.2-0.3c1.1-0.2,2.3-0.5,3.3-0.8c1.4-0.4,2.7-1,3.9-1.7l142.4-82.8c0.1,0,0.1-0.1,0.2-0.1c0.2-0.1,0.3-0.2,0.4-0.3
	c0.2-0.1,0.4-0.3,0.6-0.4c0.2-0.1,0.3-0.3,0.5-0.4c0.2-0.1,0.4-0.3,0.5-0.4c0,0,0.1-0.1,0.1-0.1c0.2-0.2,0.4-0.4,0.6-0.6
	c0,0,0.1-0.1,0.1-0.1c0.1-0.1,0.2-0.3,0.3-0.4c0-0.1,0.1-0.1,0.1-0.2c0.2-0.2,0.3-0.4,0.4-0.6c0.1-0.1,0.1-0.2,0.2-0.3
	c0,0,0-0.1,0.1-0.1c0.1-0.2,0.2-0.4,0.3-0.5c0-0.1,0.1-0.2,0.1-0.3c0,0,0-0.1,0-0.1c0.1-0.2,0.1-0.3,0.2-0.5c0-0.1,0.1-0.2,0.1-0.4
	c0,0,0-0.1,0-0.1c0-0.2,0-0.4,0.1-0.6c0-0.1,0-0.2,0-0.4c0-0.1,0-0.1,0-0.2l0-10.2C320.9,205.8,320.9,206,320.9,206.1z"/>
<path class="st0" d="M156.8,298.2c-0.6-0.1-1.2-0.2-1.7-0.3c-0.6-0.1-1.2-0.3-1.8-0.4c-0.7-0.2-1.4-0.4-2.1-0.7
	c-0.9-0.4-1.7-0.8-2.5-1.2L5.2,212.8c-3.5-2-5.2-4.6-5.2-7.2l0,10.2c0,2.6,1.7,5.2,5.2,7.2l143.4,82.8c0.8,0.5,1.6,0.9,2.5,1.2
	c0.7,0.3,1.4,0.5,2.1,0.7c0.6,0.2,1.2,0.3,1.8,0.4c0.6,0.1,1.2,0.2,1.7,0.3c0.6,0.1,1.1,0.1,1.7,0.2l0-10.2
	C157.9,298.4,157.4,298.3,156.8,298.2z"/>
<g>
	<path class="st17" d="M315.8,198.8c6.9,4,6.9,10.4,0.1,14.4l-142.4,82.8c-6.8,4-18,4-24.9,0L5.2,213.2c-6.9-4-6.9-10.4-0.1-14.4
		L147.6,116c6.8-4,18-4,24.9,0L315.8,198.8z"/>
</g>
<g>
	<polygon class="st6" points="161.7,228.8 200.9,251.6 228.5,235.6 189.3,212.8 	"/>
</g>
<g>
	<g>
		<path class="st12" d="M195,223.1l-6.2,3.6l-7.8-2.3c2.2-2.5,7.5-3.5,11.8-2.2C193.7,222.4,194.4,222.7,195,223.1z"/>
	</g>
	<g>
		<path class="st12" d="M196.5,223.5c4.1,2.4,4.2,6.3,0,8.7c-4.1,2.4-10.8,2.4-15,0c-3.3-1.9-4.1-4.7-2-7.1l9.5,2.8L196.5,223.5z"/>
	</g>
</g>
<g>
	<g>
		<g>
			<path class="st18" d="M190.8,240.6c-0.3,0.2-0.3,0.5,0,0.7c0.3,0.2,0.9,0.2,1.2,0l17.5-10.1c0.3-0.2,0.3-0.5,0-0.7
				c-0.3-0.2-0.9-0.2-1.2,0L190.8,240.6z"/>
		</g>
	</g>
	<g>
		<path class="st19" d="M202.9,236c-0.3,0.2-0.3,0.5,0,0.7c0.3,0.2,0.9,0.2,1.2,0l7.4-4.3c0.3-0.2,0.3-0.5,0-0.7
			c-0.3-0.2-0.9-0.2-1.2,0L202.9,236z"/>
	</g>
	<g>
		<path class="st19" d="M200.6,239.5c-0.3,0.2-0.4,0.5,0,0.7c0.3,0.2,0.9,0.2,1.2,0l11.6-6.7c0.3-0.2,0.3-0.5,0-0.7
			c-0.3-0.2-0.9-0.2-1.2,0L200.6,239.5z"/>
	</g>
</g>
<g>
	<g>
		<path class="st20" d="M207.9,261.2c1,0.6,1,1.4,0,2l-28,16.3c-0.9,0.6-2.5,0.6-3.4,0l-19.6-11.3c-1-0.6-1-1.4,0-2l28-16.3
			c0.9-0.6,2.5-0.6,3.4,0L207.9,261.2z"/>
	</g>
	<g>
		
			<linearGradient id="SVGID_1_" gradientUnits="userSpaceOnUse" x1="200.6732" y1="203.0624" x2="194.1061" y2="253.6007" gradientTransform="matrix(-1 0 0 1 374.979 0)">
			<stop  offset="0" style="stop-color:#C6E6FF"/>
			<stop  offset="1" style="stop-color:#8D9FFF"/>
		</linearGradient>
		<path class="st21" d="M208.6,262.3C208.6,262.3,208.6,262.4,208.6,262.3c0,0.1,0,0.1,0,0.1c0,0,0,0,0,0.1c0,0,0,0,0,0.1
			c0,0,0,0.1,0,0.1c0,0,0,0,0,0.1c0,0,0,0.1-0.1,0.1c0,0,0,0,0,0c0,0-0.1,0.1-0.1,0.1c0,0,0,0,0,0c0,0,0,0-0.1,0.1c0,0,0,0-0.1,0.1
			c0,0-0.1,0-0.1,0.1c0,0-0.1,0-0.1,0.1l-28,16.3c-0.1,0.1-0.2,0.1-0.3,0.2c0,0-0.1,0-0.1,0c-0.1,0-0.2,0-0.2,0.1
			c-0.1,0-0.2,0-0.2,0.1c-0.1,0-0.2,0-0.3,0.1c0,0,0,0-0.1,0c-0.1,0-0.3,0-0.4,0c0,0,0,0-0.1,0c-0.1,0-0.3,0-0.4,0c0,0,0,0-0.1,0
			c-0.1,0-0.3,0-0.4-0.1c0,0,0,0-0.1,0c-0.1,0-0.2-0.1-0.3-0.1c0,0,0,0-0.1,0c-0.1-0.1-0.3-0.1-0.4-0.2l-19.6-11.3
			c-0.4-0.2-0.6-0.5-0.7-0.7c0-0.1,0-0.2,0-0.3l0,1.1c0,0,0,0.1,0,0.1c0.1,0.3,0.3,0.6,0.7,0.9l19.6,11.3c0.1,0.1,0.2,0.1,0.4,0.2
			c0,0,0,0,0,0c0,0,0,0,0.1,0c0.1,0,0.1,0.1,0.2,0.1c0,0,0.1,0,0.1,0c0,0,0,0,0.1,0c0,0,0,0,0.1,0c0.1,0,0.2,0,0.2,0
			c0,0,0.1,0,0.1,0c0,0,0,0,0.1,0c0,0,0.1,0,0.1,0c0.1,0,0.2,0,0.2,0c0,0,0.1,0,0.1,0c0,0,0,0,0.1,0c0,0,0.1,0,0.1,0
			c0.1,0,0.2,0,0.3,0c0,0,0,0,0,0c0,0,0,0,0.1,0c0.1,0,0.1,0,0.2,0c0,0,0.1,0,0.1,0c0.1,0,0.2,0,0.2-0.1c0,0,0.1,0,0.1,0
			c0,0,0.1,0,0.1,0c0,0,0.1,0,0.1,0c0.1,0,0.2-0.1,0.3-0.2l28-16.3c0,0,0,0,0,0c0,0,0,0,0.1,0c0,0,0.1,0,0.1-0.1c0,0,0,0,0.1-0.1
			c0,0,0.1,0,0.1-0.1c0,0,0,0,0,0c0,0,0,0,0,0c0,0,0.1-0.1,0.1-0.1c0,0,0,0,0,0c0,0,0,0,0,0c0,0,0-0.1,0.1-0.1c0,0,0,0,0,0
			c0,0,0,0,0,0c0,0,0-0.1,0-0.1c0,0,0,0,0,0c0,0,0,0,0,0c0,0,0,0,0-0.1c0,0,0,0,0,0c0,0,0,0,0,0c0,0,0-0.1,0-0.1c0,0,0,0,0,0
			c0,0,0,0,0,0L208.6,262.3C208.6,262.3,208.6,262.3,208.6,262.3z"/>
		<g>
			
				<linearGradient id="SVGID_2_" gradientUnits="userSpaceOnUse" x1="335.7021" y1="291.7783" x2="354.4387" y2="249.8083" gradientTransform="matrix(1 0 0 1 -165.5001 0)">
				<stop  offset="0" style="stop-color:#1AE5FF"/>
				<stop  offset="1" style="stop-color:#EAEEEE"/>
			</linearGradient>
			<path class="st22" d="M205,261.6c0.3,0.2,0.3,0.5,0,0.6l-26.6,15.5c-0.3,0.2-0.8,0.2-1.1,0l-17.6-10.2c-0.3-0.2-0.3-0.5,0-0.6
				l26.6-15.5c0.3-0.2,0.8-0.2,1.1,0L205,261.6z"/>
		</g>
	</g>
</g>
<g>
	<polygon class="st6" points="74.5,169 113.8,191.8 141.4,175.9 102.1,153 	"/>
</g>
<g>
	<g>
		<path class="st12" d="M107.9,163.3l-6.2,3.6l-7.8-2.3c2.2-2.5,7.5-3.5,11.8-2.2C106.5,162.6,107.2,162.9,107.9,163.3z"/>
	</g>
	<g>
		<path class="st12" d="M109.3,163.8c4.1,2.4,4.2,6.3,0,8.7c-4.1,2.4-10.8,2.4-15,0c-3.3-1.9-4.1-4.7-2-7.1l9.5,2.8L109.3,163.8z"/>
	</g>
</g>
<g>
	<g>
		<g>
			<path class="st12" d="M103.6,180.8c-0.3,0.2-0.3,0.5,0,0.7c0.3,0.2,0.9,0.2,1.2,0l17.5-10.1c0.3-0.2,0.3-0.5,0-0.7
				c-0.3-0.2-0.9-0.2-1.2,0L103.6,180.8z"/>
		</g>
	</g>
	<g>
		<path class="st12" d="M115.7,176.2c-0.3,0.2-0.3,0.5,0,0.7c0.3,0.2,0.9,0.2,1.2,0l7.4-4.3c0.3-0.2,0.3-0.5,0-0.7
			c-0.3-0.2-0.9-0.2-1.2,0L115.7,176.2z"/>
	</g>
	<g>
		<path class="st12" d="M113.4,179.7c-0.3,0.2-0.4,0.5,0,0.7c0.3,0.2,0.9,0.2,1.2,0l11.6-6.7c0.3-0.2,0.3-0.5,0-0.7
			c-0.3-0.2-0.9-0.2-1.2,0L113.4,179.7z"/>
	</g>
</g>
<g>
	<polygon class="st23" points="137.6,239.3 137.6,241.6 132.2,244.8 132.2,242.4 	"/>
</g>
<g>
	<polygon class="st24" points="132.2,242.4 132.2,244.8 86,218.1 86,215.7 	"/>
</g>
<g>
	<polygon class="st9" points="137.6,239.3 132.2,242.4 86,215.7 91.4,212.6 	"/>
</g>
<g>
	<polygon class="st23" points="117.1,239.7 117.1,242.1 111.6,245.2 111.6,242.9 	"/>
</g>
<g>
	<polygon class="st24" points="111.6,242.9 111.6,245.2 75.3,224.3 75.3,221.9 	"/>
</g>
<g>
	<polygon class="st9" points="117.1,239.7 111.6,242.9 75.3,221.9 80.8,218.8 	"/>
</g>
<g>
	<polygon class="st23" points="86.8,234.5 86.7,236.9 81.3,240.1 81.3,237.7 	"/>
</g>
<g>
	<polygon class="st24" points="81.3,237.7 81.3,240.1 64.7,230.5 64.7,228.1 	"/>
</g>
<g>
	<polygon class="st9" points="86.8,234.5 81.3,237.7 64.7,228.1 70.1,224.9 	"/>
</g>
<g>
	<g>
		<path class="st25" d="M50.1,221.5c-0.5,0.3-0.5,0.8,0,1.1c0.5,0.3,1.4,0.3,1.9,0l27.6-15.9c0.5-0.3,0.5-0.8,0-1.1
			c-0.5-0.3-1.4-0.3-1.9,0L50.1,221.5z"/>
	</g>
	<g>
		<path class="st25" d="M69.2,214.2c-0.5,0.3-0.5,0.8,0,1.1c0.5,0.3,1.4,0.3,2,0l11.7-6.8c0.5-0.3,0.5-0.8,0-1.1
			c-0.5-0.3-1.4-0.3-1.9,0L69.2,214.2z"/>
	</g>
	<g>
		<path class="st25" d="M65.5,219.7c-0.5,0.3-0.6,0.8,0,1.1c0.5,0.3,1.4,0.3,2,0l18.3-10.6c0.5-0.3,0.5-0.8,0-1.1
			c-0.5-0.3-1.4-0.3-1.9,0L65.5,219.7z"/>
	</g>
</g>
<g>
	<g class="st2">
		<g>
			<path class="st6" d="M63.9,194.2l-4.4,2.6c-4-2.2-10.2-2.1-14.1,0.1c-0.1,0-0.2,0.1-0.2,0.1l-4.4-2.6c0.1,0,0.2-0.1,0.2-0.1
				C47.2,190.7,57.4,190.6,63.9,194.2z"/>
		</g>
		<g>
			<path class="st6" d="M64.5,194.6c5.2,3.3,5.8,8.1,1.6,11.7l-4.6-2.6c1.8-2.1,1.3-4.7-1.4-6.5L64.5,194.6z"/>
		</g>
		<g>
			<path class="st6" d="M65.6,206.8c-0.4,0.3-0.9,0.6-1.4,0.9c-6.2,3.6-16.2,3.7-22.6,0.3l4.4-2.6c4,2,10,1.9,13.8-0.3
				c0.5-0.3,1-0.6,1.4-1L65.6,206.8z"/>
		</g>
	</g>
	<g>
		<path class="st6" d="M44.5,197.4c-3,2.3-2.8,5.5,0.7,7.6l-4.4,2.6c-5.9-3.5-6.2-9-0.8-12.7L44.5,197.4z"/>
	</g>
</g>
<g>
	<path class="st12" d="M150.8,76.4c2,1.2,3.7,4,3.6,6.3l0,35.3c0,2.3-1.7,3.3-3.7,2.1l-9.8-5.7l-0.5,0.7l-1.9,2.7l-1.9-4.9l-0.5-1.2
		l-9.8-5.7c-2-1.2-3.6-4-3.6-6.3l0-35.3c0-2.3,1.6-3.3,3.7-2.1L150.8,76.4z"/>
</g>
<g>
	<g>
		<path class="st6" d="M133.7,76.7l0,1c0,0.6-0.6,0.9-1.1,0.7l-4.7-2.7c-0.2-0.1-0.4-0.4-0.4-0.7l0-1c0-0.6,0.6-0.9,1.1-0.7l4.7,2.7
			C133.6,76.2,133.7,76.5,133.7,76.7z"/>
	</g>
	<g>
		<path class="st18" d="M148.5,90.2l0,1c0,0.6-0.6,0.9-1.1,0.7l-19.5-11.3c-0.2-0.1-0.4-0.4-0.4-0.7l0-1c0-0.6,0.6-0.9,1.1-0.7
			l19.5,11.3C148.4,89.7,148.5,90,148.5,90.2z"/>
	</g>
</g>
<g>
	<g>
		<polygon class="st6" points="132.5,89.8 132.5,91 129.9,100 128.8,99.3 131.4,90.3 127.9,88.3 128,87.2 		"/>
	</g>
	<g>
		<path class="st6" d="M137.9,92.9l0,1.2l-3-1.7l-0.2,3.5c0.3-0.4,0.8-0.5,1.5-0.1c1.3,0.8,1.9,2.2,1.9,3.9l0,2.3
			c0,1.8-0.7,2.5-2.3,1.6c-1.6-0.9-2.3-2.5-2.3-4.3l0-0.8l1.1,0.6l0,0.9c0,1.1,0.4,1.9,1.2,2.4c0.8,0.5,1.2,0,1.2-1l0-2.3
			c0-1.1-0.4-1.9-1.2-2.4c-0.6-0.4-1-0.2-1.1,0.6l0,0.3l-1.1-0.6l0.3-6.3L137.9,92.9z"/>
	</g>
	<g>
		<path class="st6" d="M145.6,101.7c1,0.6,1.4,1.6,1.4,2.7l0,3.7c0,1.1-0.5,1.6-1.5,1.1c-1-0.6-1.5-1.6-1.5-2.7l0-3.7
			C144.2,101.6,144.6,101.1,145.6,101.7z M146.3,107.7l0-3.8c0-0.6-0.2-1.2-0.7-1.5c-0.5-0.3-0.7,0-0.7,0.6l0,3.8
			c0,0.6,0.2,1.2,0.7,1.5C146.1,108.7,146.3,108.3,146.3,107.7"/>
	</g>
	<g>
		<path class="st6" d="M142.1,100.9c0,1.1-0.5,1.6-1.5,1c-1-0.6-1.4-1.6-1.4-2.7l0-3.7c0-1.1,0.5-1.6,1.5-1c1,0.6,1.5,1.6,1.5,2.7
			L142.1,100.9z M141.4,100.5l0-3.8c0-0.6-0.2-1.2-0.7-1.5c-0.5-0.3-0.7,0-0.7,0.6l0,3.8c0,0.6,0.2,1.2,0.7,1.5
			C141.1,101.4,141.4,101.1,141.4,100.5"/>
	</g>
	<g>
		<polygon class="st6" points="144.8,96.9 145.4,97.3 141.4,106.7 140.7,106.3 		"/>
	</g>
</g>
<g>
	<g>
		<g>
			<path class="st18" d="M195.4,149.5c11.7,6.7,11.7,17.7,0.2,24.4c-11.6,6.7-30.5,6.7-42.2,0c-11.7-6.7-11.7-17.7-0.1-24.4
				C164.9,142.8,183.7,142.8,195.4,149.5z"/>
		</g>
	</g>
	<g>
		<g>
			<polygon class="st26" points="195.7,142.3 195.7,146.6 188.2,150.9 188.3,146.6 			"/>
		</g>
		<path class="st26" d="M165.8,149.6c0.1,0,0.1,0,0.2-0.1c0.4-0.2,0.8-0.3,1.3-0.4c0.3-0.1,0.6-0.2,0.9-0.3c0.2-0.1,0.5-0.1,0.7-0.2
			c0.3-0.1,0.6-0.1,1-0.2c0.2,0,0.5-0.1,0.7-0.1c0.1,0,0.2,0,0.3,0c0.4-0.1,0.8-0.1,1.2-0.2c0.1,0,0.2,0,0.4,0
			c0.5-0.1,1-0.1,1.4-0.1c0.1,0,0.2,0,0.3,0c0.3,0,0.6,0,1,0c0.3,0,0.6,0,1,0c0.3,0,0.5,0,0.8,0c0.3,0,0.6,0,0.9,0
			c0.3,0,0.5,0,0.8,0.1c0.3,0,0.6,0.1,0.9,0.1c0.3,0,0.5,0.1,0.8,0.1c0.3,0,0.6,0.1,0.9,0.2c0.3,0.1,0.7,0.1,1,0.2
			c0.1,0,0.2,0,0.2,0.1c0.5,0.1,0.9,0.2,1.3,0.4c0.1,0,0.2,0.1,0.4,0.1c0.4,0.1,0.7,0.2,1.1,0.4c0.1,0,0.2,0.1,0.3,0.1
			c0.3,0.1,0.6,0.3,0.9,0.4c0.2,0.1,0.3,0.1,0.5,0.2c0.4,0.2,0.9,0.4,1.3,0.7l0-5c-0.4-0.2-0.9-0.5-1.3-0.7
			c-0.1-0.1-0.3-0.1-0.5-0.2c-0.3-0.1-0.5-0.2-0.8-0.3c0,0-0.1,0-0.1-0.1c-0.1,0-0.2-0.1-0.3-0.1c-0.4-0.1-0.7-0.3-1.1-0.4
			c-0.1,0-0.2-0.1-0.4-0.1c-0.1,0-0.2-0.1-0.3-0.1c-0.4-0.1-0.7-0.2-1.1-0.3c-0.1,0-0.2,0-0.2-0.1c-0.2,0-0.4-0.1-0.5-0.1
			c-0.1,0-0.3,0-0.4-0.1c-0.3-0.1-0.6-0.1-0.9-0.2c-0.1,0-0.2,0-0.4-0.1c-0.1,0-0.3,0-0.4,0c-0.3,0-0.6-0.1-0.9-0.1
			c-0.1,0-0.3,0-0.4,0c-0.1,0-0.3,0-0.4,0c-0.3,0-0.6,0-0.9,0c-0.2,0-0.3,0-0.5,0c-0.1,0-0.2,0-0.4,0c-0.3,0-0.6,0-1,0
			c-0.2,0-0.3,0-0.5,0c-0.2,0-0.3,0-0.5,0c-0.1,0-0.2,0-0.3,0c-0.4,0-0.8,0.1-1.2,0.1c-0.1,0-0.2,0-0.2,0c-0.1,0-0.2,0-0.4,0
			c-0.4,0-0.8,0.1-1.2,0.2c-0.1,0-0.2,0-0.3,0c0,0-0.1,0-0.1,0c-0.2,0-0.4,0.1-0.6,0.1c-0.3,0.1-0.7,0.1-1,0.2
			c-0.2,0.1-0.5,0.1-0.7,0.2c-0.3,0.1-0.6,0.2-0.9,0.3c-0.1,0-0.1,0-0.2,0.1c-0.4,0.1-0.7,0.2-1.1,0.4c-0.1,0-0.1,0-0.2,0.1
			c-0.4,0.2-0.8,0.3-1.1,0.5c-0.1,0.1-0.2,0.1-0.3,0.2c-0.4,0.2-0.8,0.4-1.2,0.6c-0.1,0-0.1,0.1-0.2,0.1c-0.1,0-0.1,0.1-0.2,0.1
			c-0.1,0.1-0.2,0.1-0.3,0.2c-0.1,0.1-0.2,0.1-0.3,0.2c-0.1,0.1-0.2,0.1-0.3,0.2c-0.1,0.1-0.2,0.1-0.3,0.2c-0.1,0.1-0.2,0.1-0.3,0.2
			c-0.1,0.1-0.2,0.1-0.2,0.2c-0.1,0.1-0.2,0.1-0.3,0.2c0,0-0.1,0.1-0.1,0.1c0,0-0.1,0.1-0.1,0.1c-0.1,0.1-0.3,0.3-0.4,0.4
			c0,0-0.1,0.1-0.1,0.1c-0.2,0.2-0.3,0.4-0.5,0.5c0,0,0,0,0,0c0,0-0.1,0.1-0.1,0.1c-0.1,0.1-0.2,0.2-0.2,0.3c0,0.1-0.1,0.1-0.1,0.2
			c-0.1,0.1-0.1,0.2-0.2,0.3c0,0,0,0.1-0.1,0.1c0,0,0,0.1-0.1,0.1c0,0.1-0.1,0.2-0.1,0.3c0,0.1-0.1,0.1-0.1,0.2
			c0,0.1-0.1,0.2-0.1,0.3c0,0,0,0.1-0.1,0.1c0,0,0,0.1,0,0.1c0,0.1-0.1,0.2-0.1,0.3c0,0.1,0,0.2-0.1,0.2c0,0.1,0,0.2-0.1,0.3
			c0,0,0,0.1,0,0.1c0,0,0,0.1,0,0.1c0,0.1,0,0.2,0,0.3c0,0.1,0,0.2,0,0.2c0,0.1,0,0.2,0,0.3c0,0.1,0,0.1,0,0.2c0,0.1,0,0.8,0,0.9
			l0,4.3c0-0.1,0-0.2,0-0.3c0-0.1,0-0.2,0-0.3c0-0.1,0-0.2,0-0.2c0-0.1,0-0.2,0-0.3c0-0.1,0-0.2,0-0.2c0-0.1,0-0.2,0.1-0.3
			c0-0.1,0-0.2,0.1-0.2c0-0.1,0.1-0.2,0.1-0.3c0-0.1,0.1-0.2,0.1-0.2c0-0.1,0.1-0.2,0.1-0.3c0-0.1,0.1-0.1,0.1-0.2
			c0-0.1,0.1-0.2,0.1-0.3c0-0.1,0.1-0.1,0.1-0.2c0.1-0.1,0.1-0.2,0.2-0.3c0-0.1,0.1-0.1,0.1-0.2c0.1-0.1,0.2-0.2,0.2-0.3
			c0,0,0.1-0.1,0.1-0.1c0.1-0.2,0.3-0.4,0.5-0.5c0,0,0.1-0.1,0.1-0.1c0.1-0.1,0.3-0.3,0.4-0.4c0.1-0.1,0.1-0.1,0.2-0.2
			c0.1-0.1,0.2-0.1,0.3-0.2c0.1-0.1,0.2-0.1,0.2-0.2c0.1-0.1,0.2-0.1,0.3-0.2c0.1-0.1,0.2-0.1,0.3-0.2c0.1-0.1,0.2-0.1,0.3-0.2
			c0.1-0.1,0.2-0.1,0.3-0.2c0.1-0.1,0.2-0.1,0.3-0.2c0.1-0.1,0.3-0.2,0.4-0.3c0.4-0.2,0.8-0.4,1.2-0.6c0.1-0.1,0.2-0.1,0.3-0.2
			C165.1,150,165.4,149.8,165.8,149.6z"/>
		<g>
			<polygon class="st26" points="163.3,161.1 163.3,165.4 155.8,169.7 155.9,165.5 			"/>
		</g>
		<path class="st27" d="M147.5,158.1l0-4.3c0,4.2,2.8,8.4,8.3,11.7l0,4.3C150.3,166.5,147.5,162.3,147.5,158.1z"/>
		<g>
			<path class="st26" d="M155.9,165.5l0,4.3c-5.6-3.2-8.4-7.4-8.3-11.7l0-4.3C147.5,158,150.3,162.2,155.9,165.5"/>
		</g>
		<g>
			<path class="st28" d="M195.7,142.3l-7.4,4.3c-6.9-4-18.2-4-25.1,0c-6.9,4-6.9,10.5,0.1,14.5l-7.4,4.3
				c-11.1-6.4-11.1-16.8-0.1-23.1C166.7,135.9,184.6,135.9,195.7,142.3z"/>
		</g>
		<path class="st29" d="M188.3,147.9l0,3c3.5,2,5.2,4.7,5.2,7.3l0-4.3C193.5,151.3,191.7,150,188.3,147.9z"/>
		<g>
			<polygon class="st29" points="195.6,166.9 195.6,169.9 188.1,165.6 188.1,162.6 			"/>
		</g>
		<path class="st29" d="M204,154.5c0,0.1,0,0.3,0,0.4c0,0.1,0,0.2,0,0.4c0,0.1,0,0.3-0.1,0.4c0,0.1-0.1,0.2-0.1,0.4
			c0,0.1-0.1,0.3-0.1,0.4c0,0.1-0.1,0.2-0.1,0.4c0,0.1-0.1,0.3-0.1,0.4c0,0.1-0.1,0.2-0.1,0.4c-0.1,0.1-0.1,0.3-0.2,0.4
			c-0.1,0.1-0.1,0.2-0.2,0.4c-0.1,0.1-0.1,0.3-0.2,0.4c-0.1,0.1-0.1,0.2-0.2,0.3c-0.1,0.2-0.2,0.3-0.3,0.5c-0.1,0.1-0.1,0.2-0.2,0.3
			c-0.1,0.2-0.3,0.4-0.4,0.5c-0.1,0.1-0.1,0.2-0.2,0.2c-0.2,0.3-0.5,0.6-0.7,0.9c-0.1,0.1-0.1,0.1-0.2,0.2c-0.2,0.2-0.4,0.4-0.6,0.6
			c-0.1,0.1-0.2,0.2-0.3,0.3c-0.1,0.1-0.3,0.2-0.4,0.4c-0.1,0.1-0.3,0.2-0.4,0.3c-0.1,0.1-0.3,0.2-0.4,0.3c-0.1,0.1-0.3,0.2-0.4,0.3
			c-0.2,0.1-0.3,0.2-0.5,0.3c-0.1,0.1-0.3,0.2-0.5,0.3c-0.2,0.1-0.3,0.2-0.5,0.3c-0.2,0.1-0.4,0.3-0.7,0.4c-0.1,0-0.1,0.1-0.2,0.1
			l0,4.3c0.1,0,0.1-0.1,0.2-0.1c0.1-0.1,0.2-0.1,0.3-0.2c0.1-0.1,0.2-0.1,0.3-0.2c0.2-0.1,0.3-0.2,0.5-0.3c0.2-0.1,0.3-0.2,0.4-0.3
			c0.2-0.1,0.3-0.2,0.5-0.3c0.1-0.1,0.3-0.2,0.4-0.3c0.2-0.1,0.3-0.2,0.4-0.3c0.1-0.1,0.3-0.2,0.4-0.3c0.1-0.1,0.3-0.2,0.4-0.4
			c0.1,0,0.1-0.1,0.2-0.1c0,0,0.1-0.1,0.1-0.1c0.2-0.2,0.4-0.4,0.6-0.6c0.1-0.1,0.1-0.1,0.2-0.2c0.3-0.3,0.5-0.6,0.7-0.9
			c0,0,0,0,0,0c0.1-0.1,0.1-0.1,0.1-0.2c0.1-0.2,0.3-0.4,0.4-0.5c0.1-0.1,0.1-0.2,0.2-0.3c0.1-0.2,0.2-0.3,0.3-0.5
			c0,0,0.1-0.1,0.1-0.1c0-0.1,0.1-0.1,0.1-0.2c0.1-0.1,0.1-0.3,0.2-0.4c0.1-0.1,0.1-0.2,0.2-0.4c0.1-0.1,0.1-0.3,0.2-0.4
			c0-0.1,0.1-0.1,0.1-0.2c0-0.1,0-0.1,0.1-0.2c0-0.1,0.1-0.3,0.1-0.4c0-0.1,0.1-0.2,0.1-0.4c0-0.1,0.1-0.3,0.1-0.4
			c0-0.1,0-0.1,0.1-0.2c0-0.1,0-0.1,0-0.2c0-0.1,0-0.3,0.1-0.4c0-0.1,0-0.2,0-0.4c0-0.1,0-0.3,0-0.4c0-0.1,0-0.2,0-0.3
			c0-0.1,0-0.2,0-0.2l0-4.3C204,154.1,204,154.3,204,154.5z"/>
		<g>
			<path class="st30" d="M195.7,143.6c11.1,6.4,11.1,16.8,0.1,23.1c-0.1,0-0.1,0.1-0.2,0.1l-7.5-4.3c0.1,0,0.1-0.1,0.2-0.1
				c6.9-4,6.9-10.5-0.1-14.5L195.7,143.6z"/>
		</g>
		<path class="st31" d="M191.4,171.8c0.3-0.1,0.6-0.2,0.9-0.4c0.2-0.1,0.4-0.2,0.5-0.2c0.3-0.1,0.6-0.3,0.9-0.4
			c0.1-0.1,0.3-0.1,0.4-0.2c0.5-0.2,0.9-0.5,1.3-0.7l0-1c-0.4,0.2-0.9,0.5-1.3,0.7c-0.1,0.1-0.3,0.1-0.4,0.2
			c-0.3,0.1-0.6,0.3-0.9,0.4c-0.2,0.1-0.4,0.2-0.5,0.2c-0.3,0.1-0.6,0.2-0.9,0.4c-0.2,0.1-0.4,0.1-0.6,0.2c-0.3,0.1-0.6,0.2-1,0.3
			c-0.2,0.1-0.4,0.1-0.6,0.2c-0.2,0-0.3,0.1-0.5,0.1c-0.3,0.1-0.6,0.2-0.9,0.2c-0.2,0-0.3,0.1-0.5,0.1c-0.3,0.1-0.6,0.2-0.9,0.2
			c-0.1,0-0.3,0.1-0.4,0.1c-0.4,0.1-0.9,0.2-1.4,0.3v1c0.5-0.1,0.9-0.2,1.4-0.3c0.1,0,0.3-0.1,0.4-0.1c0.3-0.1,0.6-0.1,0.9-0.2
			c0.2,0,0.3-0.1,0.5-0.1c0.3-0.1,0.6-0.2,0.9-0.2c0.2,0,0.3-0.1,0.5-0.1c0.1,0,0.2,0,0.2-0.1c0.1,0,0.2-0.1,0.4-0.1
			c0.3-0.1,0.6-0.2,1-0.3C191,172,191.2,171.9,191.4,171.8z"/>
		<g>
			<path class="st32" d="M195.6,168.9c-3.2,1.8-6.9,3.1-10.8,3.8l-3.5-5.8c2.5-0.5,4.8-1.3,6.8-2.4L195.6,168.9z"/>
		</g>
		<path class="st33" d="M183.5,172.1c-0.3,0-0.6,0.1-0.9,0.1c-0.3,0-0.7,0.1-1,0.1c-0.3,0-0.6,0.1-0.9,0.1c-0.5,0.1-1.1,0.1-1.6,0.1
			c0,0-0.1,0-0.1,0c-0.6,0-1.2,0.1-1.8,0.1c-0.2,0-0.3,0-0.5,0c-0.4,0-0.9,0-1.3,0c-0.2,0-0.4,0-0.5,0c-0.5,0-1,0-1.4,0
			c-0.1,0-0.2,0-0.3,0c-0.6,0-1.1-0.1-1.7-0.1c-0.1,0-0.3,0-0.4,0c-0.4,0-0.9-0.1-1.3-0.1c-0.2,0-0.3,0-0.5-0.1
			c-0.6-0.1-1.1-0.2-1.7-0.3c0,0,0,0,0,0c-0.6-0.1-1.1-0.2-1.6-0.3c-0.2,0-0.4-0.1-0.6-0.1c-0.4-0.1-0.7-0.2-1.1-0.3
			c-0.2-0.1-0.4-0.1-0.6-0.2c-0.3-0.1-0.6-0.2-0.9-0.3c-0.3-0.1-0.6-0.2-0.9-0.3c-0.3-0.1-0.6-0.2-0.9-0.3c-0.3-0.1-0.6-0.2-0.8-0.3
			c-0.4-0.2-0.8-0.3-1.2-0.5c0,0-0.1,0-0.1-0.1c-0.5-0.2-0.9-0.4-1.4-0.6c-0.1-0.1-0.2-0.1-0.3-0.2c-0.5-0.2-0.9-0.5-1.3-0.7l0,1.8
			c0.4,0.3,0.9,0.5,1.3,0.7c0.1,0.1,0.2,0.1,0.3,0.2c0.5,0.2,0.9,0.4,1.4,0.6c0,0,0.1,0,0.1,0c0.3,0.1,0.6,0.3,0.9,0.4
			c0.1,0,0.2,0.1,0.3,0.1c0.3,0.1,0.6,0.2,0.8,0.3c0.3,0.1,0.6,0.2,0.9,0.3c0.3,0.1,0.6,0.2,0.9,0.3c0.2,0.1,0.3,0.1,0.5,0.2
			c0.1,0,0.3,0.1,0.4,0.1c0.2,0.1,0.4,0.1,0.6,0.2c0.4,0.1,0.7,0.2,1.1,0.3c0.2,0,0.4,0.1,0.6,0.1c0.1,0,0.2,0,0.3,0.1
			c0.5,0.1,0.9,0.2,1.4,0.3c0,0,0,0,0,0c0.5,0.1,0.9,0.2,1.4,0.2c0.1,0,0.2,0,0.3,0c0.2,0,0.3,0,0.5,0.1c0.4,0.1,0.9,0.1,1.3,0.1
			c0.1,0,0.3,0,0.4,0c0.1,0,0.2,0,0.2,0c0.5,0,1,0.1,1.5,0.1c0.1,0,0.2,0,0.3,0c0.3,0,0.7,0,1,0c0.1,0,0.3,0,0.4,0
			c0.2,0,0.4,0,0.5,0c0.4,0,0.9,0,1.3,0c0.2,0,0.3,0,0.5,0c0.1,0,0.1,0,0.2,0c0.5,0,1.1,0,1.6-0.1c0,0,0.1,0,0.1,0
			c0.5,0,0.9-0.1,1.4-0.1c0.1,0,0.1,0,0.2,0c0.3,0,0.6-0.1,0.9-0.1c0.3,0,0.7-0.1,1-0.1c0.3,0,0.6-0.1,0.9-0.1
			c0.2,0,0.5-0.1,0.7-0.1c0.2,0,0.3-0.1,0.5-0.1l0-1.8C184.4,172,183.9,172.1,183.5,172.1z"/>
		<g>
			<path class="st34" d="M181.3,166.1l3.5,5.8c-9.8,1.9-21.1,0.6-28.9-4l7.4-4.3C168.2,166.5,175.2,167.3,181.3,166.1z"/>
		</g>
	</g>
</g>
<path class="st0" d="M197.3,1c-0.1,0-0.2-0.1-0.2-0.1c-0.1-0.1-0.2-0.1-0.3-0.2c-0.1,0-0.2-0.1-0.3-0.1c-0.1,0-0.2-0.1-0.3-0.1
	c-0.1,0-0.2-0.1-0.3-0.1c0,0,0,0-0.1,0c0,0,0,0,0,0c-0.1,0-0.1,0-0.2-0.1c-0.1,0-0.2-0.1-0.3-0.1c-0.1,0-0.2,0-0.3-0.1
	c-0.1,0-0.2,0-0.3-0.1c-0.1,0-0.1,0-0.2,0c0,0,0,0,0,0c0,0-0.1,0-0.1,0c-0.1,0-0.2,0-0.3,0c-0.1,0-0.2,0-0.4,0c-0.1,0-0.3,0-0.4,0.1
	c0,0,0,0,0,0c0,0,0,0,0,0c-0.2,0-0.3,0.1-0.5,0.1c-0.2,0.1-0.4,0.2-0.6,0.3l-4.7,2.7c0.3-0.2,0.7-0.3,1-0.4c0,0,0,0,0,0
	c0.4-0.1,0.8-0.1,1.2-0.1c0,0,0,0,0,0c0.4,0,0.9,0.1,1.3,0.3c0,0,0,0,0,0c0.5,0.2,0.9,0.4,1.4,0.7l130.8,75.5l4.7-2.7L197.3,1z"/>
<path class="st0" d="M335.1,88.4c0-0.1,0-0.2,0-0.3c0-0.1,0-0.2,0-0.3c0-0.1,0-0.2,0-0.3c0-0.1,0-0.2-0.1-0.4c0,0,0,0,0,0
	c0,0,0,0,0,0c0-0.1,0-0.2-0.1-0.3c0-0.1,0-0.2-0.1-0.4c0-0.1-0.1-0.2-0.1-0.4c0-0.1-0.1-0.3-0.1-0.4c0-0.1-0.1-0.2-0.1-0.3
	c0,0,0,0,0,0c0,0,0,0,0-0.1c0-0.1-0.1-0.2-0.1-0.4c0-0.1-0.1-0.2-0.1-0.4c0-0.1-0.1-0.2-0.1-0.3c0-0.1-0.1-0.2-0.1-0.3
	c0-0.1-0.1-0.2-0.1-0.3c0,0,0,0,0,0c0,0,0,0,0-0.1c-0.1-0.1-0.1-0.2-0.2-0.3c-0.1-0.1-0.1-0.2-0.2-0.4c-0.1-0.1-0.1-0.3-0.2-0.4
	c-0.1-0.2-0.2-0.3-0.3-0.4c0,0,0-0.1,0-0.1c0,0,0-0.1-0.1-0.1c-0.2-0.3-0.3-0.6-0.5-0.8c-0.1-0.2-0.3-0.4-0.4-0.6
	c-0.1-0.1-0.2-0.3-0.3-0.4c-0.1-0.1-0.2-0.2-0.3-0.3c-0.1-0.1-0.2-0.2-0.3-0.3c-0.1-0.1-0.2-0.2-0.3-0.3c0,0,0,0-0.1-0.1
	c0,0,0,0,0,0c-0.1-0.1-0.1-0.1-0.2-0.2c-0.1-0.1-0.2-0.2-0.3-0.3c-0.1-0.1-0.2-0.2-0.3-0.3c-0.1-0.1-0.2-0.2-0.3-0.3
	c-0.1,0-0.1-0.1-0.2-0.1c0,0,0,0,0,0c0,0-0.1-0.1-0.1-0.1c-0.1-0.1-0.2-0.2-0.3-0.2c-0.1-0.1-0.2-0.1-0.3-0.2
	c-0.1-0.1-0.2-0.1-0.3-0.2c-0.1-0.1-0.2-0.1-0.3-0.2c0,0,0,0-0.1,0l-4.7,2.7c0.5,0.3,1,0.6,1.4,1c0,0,0,0,0,0
	c0.4,0.4,0.9,0.8,1.3,1.2c0,0,0,0,0,0c0.8,0.9,1.6,1.9,2.2,3c0,0,0,0.1,0,0.1c0.3,0.5,0.6,1.1,0.8,1.6c0,0,0,0,0,0
	c0.2,0.6,0.5,1.2,0.6,1.7c0,0,0,0,0,0c0.2,0.6,0.3,1.2,0.4,1.7c0,0,0,0,0,0c0.1,0.6,0.1,1.2,0.1,1.7l-0.3,89.4
	c0,0.5-0.1,1.1-0.1,1.5c0,0,0,0,0,0c-0.1,0.5-0.2,0.9-0.4,1.2c0,0,0,0,0,0c-0.1,0.3-0.3,0.6-0.5,0.8c-0.1,0.1-0.1,0.2-0.2,0.2
	c-0.2,0.2-0.5,0.5-0.8,0.6l4.7-2.7c0.3-0.2,0.5-0.4,0.8-0.6c0.1-0.1,0.1-0.2,0.2-0.2c0.1-0.1,0.2-0.2,0.3-0.3
	c0.1-0.2,0.2-0.3,0.3-0.5c0,0,0,0,0,0c0,0,0,0,0,0c0.1-0.1,0.1-0.2,0.2-0.4c0-0.1,0.1-0.2,0.1-0.4c0-0.1,0.1-0.2,0.1-0.4
	c0-0.1,0-0.1,0-0.2c0,0,0,0,0,0c0,0,0-0.1,0-0.1c0-0.1,0-0.2,0.1-0.3c0-0.1,0-0.2,0-0.3c0-0.1,0-0.2,0-0.3c0-0.1,0-0.2,0-0.3
	c0,0,0,0,0,0l0.3-89.4C335.1,88.6,335.1,88.5,335.1,88.4z"/>
<g>
	<g>
		<path class="st1" d="M323.4,79.2c3.9,2.3,7.1,7.7,7,12.2l-0.3,89.4c0,4.5-3.2,6.3-7.1,4l-130.8-75.5c-3.9-2.3-7.1-7.7-7-12.2
			l0.3-89.4c0-4.5,3.2-6.3,7.1-4L323.4,79.2z"/>
	</g>
</g>
<g>
	<path class="st9" d="M285.5,42.6c1.2,0.7,2.2,2.4,2.2,3.8l-0.1,28.1c0,1.4-1,2-2.2,1.3L244.3,52c-1.2-0.7-2.2-2.4-2.2-3.8l0.1-28.1
		c0-1.4,1-2,2.2-1.3L285.5,42.6z"/>
</g>
<g>
	<g>
		<path class="st12" d="M207.7,30.1l0,1.3c0,0.8-0.8,1.2-1.5,0.8l-6-3.5c-0.3-0.2-0.5-0.5-0.5-0.8l0-1.3c0-0.8,0.8-1.2,1.5-0.8
			l6,3.5C207.5,29.4,207.7,29.7,207.7,30.1z"/>
	</g>
	<g>
		<path class="st12" d="M226.7,47.4l0,1.3c0,0.8-0.8,1.2-1.5,0.8l-25.1-14.5c-0.3-0.2-0.5-0.5-0.5-0.8l0-1.3c0-0.8,0.8-1.2,1.5-0.8
			l25.1,14.5C226.5,46.7,226.7,47.1,226.7,47.4z"/>
	</g>
</g>
<polyline class="st35" points="196.1,89.2 206.1,84.1 212.6,94.6 219.9,102 227.2,97.6 242.7,92.6 249.8,102.7 256.8,108.4 
	263.2,117.9 271.9,99.7 282.4,104.7 287.9,100.2 299.3,103.2 316.3,101.7 "/>
<g>
	<path class="st36" d="M255.1,31.7c-3.8-2.2-7.4-1.6-8.9,1.8c-1.9,4.3,0.3,11.6,4.7,16.6l1-2.4c-3-3.5-4.4-8.5-3.1-11.5
		c1-2.4,3.6-2.8,6.2-1.3c0.7,0.4,1.3,0.9,2,1.5l1-2.4C257.1,33.1,256.1,32.3,255.1,31.7z"/>
</g>
<g>
	<path class="st12" d="M258.1,34l-1,2.4c0.2,0.2,0.3,0.3,0.5,0.5c3.4,3.5,5.1,9,3.8,12.2c-0.1,0.1-0.1,0.2-0.2,0.3
		c0,0,0,0.1-0.1,0.1c-1,1.7-2.9,2.2-5,1.3c-0.3-0.1-0.7-0.3-1-0.5c-0.1-0.1-0.2-0.1-0.3-0.2c-0.2-0.1-0.3-0.2-0.4-0.3l-0.1,0
		c-0.3-0.2-0.5-0.4-0.8-0.6c0,0-0.1-0.1-0.1-0.1c-0.1-0.1-0.2-0.2-0.3-0.3c0,0-0.1-0.1-0.1-0.1c-0.1-0.1-0.3-0.3-0.4-0.4
		c-0.2-0.2-0.4-0.4-0.6-0.7l-1,2.4c0.2,0.2,0.4,0.4,0.6,0.7c0.2,0.2,0.4,0.4,0.6,0.5c0.1,0.1,0.1,0.1,0.2,0.1
		c0.1,0.1,0.3,0.3,0.4,0.4c0,0,0.1,0.1,0.1,0.1c0.4,0.3,0.8,0.6,1.2,0.9c0,0,0.1,0,0.1,0.1c0.2,0.1,0.4,0.2,0.5,0.3l0.1,0
		c0.1,0.1,0.2,0.1,0.4,0.2c0.3,0.2,0.6,0.3,0.8,0.4c0.2,0.1,0.4,0.2,0.6,0.3c3.2,1.3,6.1,0.5,7.4-2.5c1.9-4.5-0.4-12.2-5.3-17.2
		C258.4,34.3,258.3,34.2,258.1,34z"/>
</g>
<g>
	<path class="st6" d="M272.9,47.3l0,0.7c0,0.4-0.5,0.7-0.8,0.5l-3.5-2c-0.2-0.1-0.3-0.3-0.3-0.5l0-0.7c0-0.4,0.5-0.7,0.8-0.5l3.5,2
		C272.8,46.9,272.9,47.1,272.9,47.3z"/>
</g>
<g>
	<path class="st6" d="M283.9,57.3l0,0.7c0,0.4-0.5,0.7-0.8,0.5l-14.5-8.4c-0.2-0.1-0.3-0.3-0.3-0.5l0-0.7c0-0.4,0.5-0.7,0.8-0.5
		l14.5,8.4C283.8,56.9,283.9,57.1,283.9,57.3z"/>
</g>
<g>
	<path class="st6" d="M277.9,61.2l0,0.7c0,0.4-0.5,0.7-0.8,0.5l-8.5-4.9c-0.2-0.1-0.3-0.3-0.3-0.5l0-0.7c0-0.4,0.5-0.7,0.8-0.5
		l8.5,4.9C277.8,60.8,277.9,61,277.9,61.2z"/>
</g>
<g>
	<path class="st6" d="M281.6,59.7l0,0.7c0,0.4-0.5,0.7-0.8,0.5l-12.2-7.1c-0.2-0.1-0.3-0.3-0.3-0.5l0-0.7c0-0.4,0.5-0.7,0.8-0.5
		l12.2,7.1C281.5,59.3,281.6,59.5,281.6,59.7z"/>
</g>
<g>
	<path class="st12" d="M316.3,92.4c-4.2-2.4-7.7-0.5-7.7,4.4c0,4.8,3.4,10.8,7.6,13.2c4.2,2.4,7.6,0.5,7.7-4.4
		C323.9,100.7,320.5,94.8,316.3,92.4z"/>
</g>
<g>
	<path class="st1" d="M316.3,97.2c-1.9-1.1-3.5-0.2-3.5,2c0,2.2,1.5,4.9,3.4,6c1.9,1.1,3.5,0.2,3.5-2
		C319.7,101,318.2,98.3,316.3,97.2z"/>
</g>
<g>
	<path class="st12" d="M208.2,46.6l0,1.3c0,0.8-0.8,1.3-1.5,0.9l-6.2-3.6c-0.3-0.2-0.5-0.5-0.5-0.9l0-1.3c0-0.8,0.8-1.3,1.5-0.9
		l6.2,3.6C208,45.9,208.2,46.3,208.2,46.6z"/>
</g>
<g>
	<path class="st12" d="M227.9,64.4l0,1.3c0,0.8-0.8,1.3-1.5,0.9l-25.9-14.8c-0.3-0.2-0.5-0.5-0.5-0.9l0-1.3c0-0.8,0.8-1.3,1.5-0.9
		l25.9,14.8C227.7,63.7,227.9,64.1,227.9,64.4z"/>
</g>
<g>
	<path class="st12" d="M217.2,71.4l0,1.3c0,0.8-0.8,1.3-1.5,0.9l-15.2-8.7c-0.3-0.2-0.5-0.5-0.5-0.9v-1.3c0-0.8,0.8-1.3,1.5-0.9
		l15.2,8.7C217,70.7,217.2,71,217.2,71.4z"/>
</g>
<g>
	<path class="st12" d="M223.8,68.7l0,1.3c0,0.8-0.8,1.3-1.5,0.9l-21.9-12.5c-0.3-0.2-0.5-0.5-0.5-0.9l0-1.3c0-0.8,0.8-1.3,1.5-0.9
		l21.9,12.5C223.7,68,223.8,68.3,223.8,68.7z"/>
</g>
<g>
	<g>
		<polygon class="st37" points="297.5,158 301.1,156 301,180 297.5,182 		"/>
	</g>
	<path class="st10" d="M304.7,157.4C304.7,157.4,304.7,157.4,304.7,157.4C304.7,157.4,304.7,157.3,304.7,157.4
		C304.7,157.3,304.7,157.3,304.7,157.4c0-0.1,0-0.1,0-0.1c0,0,0,0,0,0c0,0,0,0,0,0c0,0,0,0,0,0c0,0,0,0,0,0c0,0,0,0,0,0c0,0,0,0,0,0
		c0,0,0,0,0,0c0,0,0,0,0,0c0,0,0,0,0,0c0,0,0,0,0,0c0,0,0,0,0,0c0,0,0,0,0,0c0,0,0,0,0,0c0,0,0,0,0,0c0,0,0,0,0,0l0,0l-11-21.9
		c0,0,0,0,0,0c0,0,0,0,0-0.1c0,0,0-0.1-0.1-0.1c0,0,0,0,0,0c0,0,0,0,0,0c0,0,0,0,0,0c0,0,0,0,0,0c0,0,0,0,0,0l0,0c0,0,0,0,0,0
		c0,0,0,0,0,0c0,0,0,0,0,0c0,0,0,0,0,0c0,0,0,0,0,0c0,0,0,0,0,0c0,0,0,0,0,0c0,0,0,0,0,0c0,0,0,0,0,0c0,0,0,0,0,0c0,0,0,0,0,0
		c0,0,0,0,0,0c0,0,0,0,0,0c0,0,0,0,0,0c0,0,0,0,0,0c0,0,0,0,0,0c0,0,0,0,0,0c0,0,0,0,0,0c0,0,0,0,0,0c0,0,0,0,0,0c0,0,0,0,0,0
		c0,0,0,0,0,0c0,0,0,0,0,0c0,0,0,0,0,0c0,0,0,0,0,0c0,0,0,0,0,0c0,0,0,0,0,0c0,0,0,0-0.1,0l-3.5,2.1c0.1,0,0.1,0,0.2,0h0
		c0.1,0,0.2,0,0.2,0.1c0.1,0.1,0.2,0.1,0.3,0.2c0,0,0,0,0,0c0.1,0.1,0.2,0.2,0.2,0.3l11,21.9c0.1,0.1,0.1,0.2,0.1,0.3l0,0
		c0,0.1,0,0.2,0,0.3v0c0,0.1,0,0.1-0.1,0.2c0,0,0,0,0,0c0,0.1-0.1,0.1-0.1,0.1l3.5-2.1c0,0,0.1-0.1,0.1-0.1c0,0,0,0,0,0c0,0,0,0,0,0
		c0,0,0,0,0,0c0,0,0,0,0,0c0,0,0,0,0,0c0,0,0,0,0,0c0,0,0,0,0,0C304.7,157.5,304.7,157.5,304.7,157.4
		C304.7,157.5,304.7,157.5,304.7,157.4C304.7,157.5,304.7,157.5,304.7,157.4L304.7,157.4C304.7,157.4,304.7,157.4,304.7,157.4
		C304.7,157.4,304.7,157.4,304.7,157.4z"/>
	<g>
		<path class="st9" d="M289.6,136.5c0.2,0.1,0.4,0.3,0.5,0.5l11,21.9c0.3,0.7,0,1.2-0.5,0.9l-3.1-1.8l-0.1,24l-16.1-9.3l0.1-24
			l-3-1.7c-0.5-0.3-0.8-1.2-0.5-1.4l11.1-9.1C289.2,136.4,289.4,136.4,289.6,136.5z"/>
	</g>
</g>
<g>
	<polygon class="st6" points="175.6,187.6 207.4,220 238.3,212 206.5,179.6 	"/>
</g>
<g>
	<g class="st2">
		<g>
			<path class="st9" d="M209.7,189.6l-3,1.1c-2.3-1.8-6.2-2.4-8.9-1.4c-0.1,0-0.1,0-0.2,0.1l-2.5-2.1c0.1,0,0.1,0,0.2-0.1
				C199.6,185.6,206.1,186.7,209.7,189.6z"/>
		</g>
		<g>
			<path class="st9" d="M210.1,189.9c3,2.6,2.8,5.7-0.2,7.6l-2.6-2.1c1.4-1.1,1.3-2.8-0.2-4.3L210.1,189.9z"/>
		</g>
		<g>
			<path class="st9" d="M209.5,197.7c-0.3,0.2-0.6,0.3-1,0.4c-4.3,1.6-10.6,0.6-14.3-2.2l3-1.2c2.3,1.7,6.1,2.3,8.8,1.3
				c0.4-0.1,0.7-0.3,1-0.5L209.5,197.7z"/>
		</g>
	</g>
	<g>
		<path class="st9" d="M197.2,189.6c-2.1,1.1-2.3,3.2-0.4,4.9l-3,1.1c-3.4-2.8-2.9-6.4,0.9-8.1L197.2,189.6z"/>
	</g>
</g>
<g>
	<g>
		<path class="st15" d="M206.6,348c0,0-2.5,1.7-0.2,5.8c2.3,4,4.4,1.6,9.7,5.6c5.3,4,7.2,4.8,10,4.5c2.8-0.3,4.5-1.7,5-3.3
			c0.5-1.6-0.9-4.2-0.9-4.2L206.6,348z"/>
		<path class="st14" d="M229,348.1c0,0,1.1,5.3,1.7,9.3c0.2,1.9-2.3,4.4-5.9,4.3c-3.6-0.2-5.6-1.2-6.8-2.8c-1.2-1.6-9-4.6-10.4-5.8
			c-1.4-1.2-1.7-5-1.1-5.9c0.6-0.9,3-2.5,5.4-1.4c2.5,1.1,4.5,3.1,9.5,3.4C226.4,349.5,229,348.1,229,348.1z"/>
	</g>
	<g>
		<g>
			<path class="st15" d="M231.3,334.5c0,0-2.5,1.7-0.2,5.8c2.3,4,4.4,1.6,9.7,5.6c5.3,4,7.2,4.8,10,4.5c2.8-0.3,4.5-1.7,5-3.3
				c0.5-1.6-0.9-4.2-0.9-4.2L231.3,334.5z"/>
			<path class="st14" d="M253.7,334.7c0,0,1.1,5.3,1.7,9.3c0.2,1.9-2.3,4.4-5.9,4.3c-3.6-0.2-5.6-1.2-6.8-2.8
				c-1.2-1.6-9-4.6-10.4-5.8c-1.4-1.2-1.7-5-1.1-5.9c0.6-0.9,3-2.5,5.4-1.4c2.5,1.1,4.5,3.1,9.5,3.4
				C251.1,336.1,253.7,334.7,253.7,334.7z"/>
		</g>
		<path class="st38" d="M234.3,291.6c1.2,10,6.2,36.1,7.1,45.2c0,0,2.1,3.3,8.3,2.5l3-1.2c1.2-0.5,1.9-1.7,1.7-3
			c-0.6-5-2-17.7-1.4-25.2c0.8-9.5-1.7-15.4-1.7-15.4c0.2-3.1,0.6-13.9-5.6-16.8C245.8,277.7,230.5,274.9,234.3,291.6"/>
	</g>
	<path class="st39" d="M247,282.2l-1.7,3.3c0,0-25.5,1.2-32.4,8.7c0,0-4.6,0.8-3.3,10.8c1.2,10,6.2,36.1,7.1,45.2
		c0,0,2.1,3.3,8.3,2.5l3-1.2c1.2-0.5,1.9-1.7,1.7-3c-0.6-5-2-17.7-1.4-25.2c0.8-9.5-1.7-15.4-1.7-15.4s11.2,2.1,23.2,7.1
		c12,5,22.4-0.8,27-3.3s6.2-4.2,6.2-4.2s5.8,0,11.2-4.6s6.2-16.6,0.4-23.7C288.9,272.3,247,282.2,247,282.2z"/>
</g>
<path class="st11" d="M256.1,219.2c0,0,4.1-1.5,3.9-7c-1.3-5.4-2.8-5.8-2.8-5.8s5.8-5.3,12.7-3.7c0,0,4.3,8.7,9.2,12.5
	C279.1,215.1,275.2,225.4,256.1,219.2z"/>
<path class="st10" d="M265.2,222.3c0,0,15.3-12.8,18.4-13.1c3.7-0.3,8.4,0.9,9.7,6.2c1.2,5.3-1.6,9.3-4.4,10.9
	c-2.8,1.6-27.4,13.4-31.8,13.4c-4.4,0-7.2-3.7-4.4-8.4C255.5,226.6,265.2,222.3,265.2,222.3z"/>
<path class="st10" d="M269.8,213.8c0,0-16.2,5.4-20.8,12.9s-3.7,15.8-0.4,27.4c3.3,11.6-3.3,22-1.7,28.2c1.7,6.2,13.3,12,30.3,9.1
	c17-2.9,18.3-9.5,19.5-13.3c1.2-3.7-3.3-21.6,0.8-36.1c4.2-14.5-4.2-24.5-7.5-27C286.9,212.5,280.2,209.2,269.8,213.8z"/>
<path class="st9" d="M290.2,215c-3.3-2.5-10-5.8-20.3-1.2c0,0-16.2,5.4-20.8,12.9c-1.1,1.8-1.9,3.7-2.4,5.6
	c6.6-8.5,15.9-12.3,21.9,2.3c5.7,13.6-8.7,53.4-21.3,40.9c-0.5,2.6-0.8,4.9-0.3,6.8c1.7,6.2,13.3,12,30.3,9.1
	c17-2.9,18.3-9.5,19.5-13.3c1.2-3.7-3.3-21.6,0.8-36.1C301.8,227.5,293.5,217.5,290.2,215z"/>
<path class="st6" d="M254.4,220.8c0,0,4.4,2.8,15.3,1.2c10.9-1.6,11.5-9.3,10.6-10c-0.9-0.6-2.8-3.1-2.8-3.1s-11.5,5.3-15.6,6.8
	c-4,1.6-6.2,2.5-6.2,2.5L254.4,220.8z"/>
<path class="st11" d="M247.2,186.9c0,0-0.9,11.2,5,18.7c5.9,7.5,11.8,3.1,15.6,1.2c3.7-1.9,5.3-5,6.5-14c1.2-9,1.2-17.7-5.3-20.5
	c-6.5-2.8-13.7-3.4-17.7,3.4C247.2,182.5,247.2,186.9,247.2,186.9z"/>
<path class="st40" d="M251.6,173.5c0,0-5.3,4-5,10c0.3,5.9-1.6,6.8-0.9,10c0.6,3.1,5.6,4,5.9,8.4c0.3,4.4,6.8,5.9,10.3,7.2
	c3.4,1.2,9-2.8,10.6-5c1.6-2.2,1.2-7.8,3.1-12.8c1.9-5,0.9-11.2-0.6-15.6c-1.6-4.4-4.7-5.3-4.7-5.3s-1.6-3.4-5.3-4
	C261.2,165.7,249.7,166.3,251.6,173.5z"/>
<path class="st0" d="M301.5,357.6c-0.6,6.3-6.5,10.5-11.8,12.8c-5.8,2.5-12.2,3.5-18.5,3.4c-6.4-0.1-13-1.3-18.8-4.2
	c-5.1-2.5-10.4-7-10.4-13.2c0,4.5,0.3,8.2,3.5,11.7c4.2,4.5,10.4,6.9,16.3,8.1c11.5,2.4,27.1,1.2,35.8-7.6c3.5-3.6,4-7.3,4-12
	C301.5,357,301.5,357.3,301.5,357.6z"/>
<g>
	<path class="st1" d="M292.7,344.4c11.7,6.7,11.7,17.7,0.2,24.4c-11.6,6.7-30.5,6.7-42.2,0c-11.7-6.7-11.7-17.7-0.1-24.4
		C262.2,337.7,281.1,337.7,292.7,344.4z"/>
</g>
<g>
	<polygon class="st41" points="277.1,330.8 277,356.8 272.4,359.5 272.5,333.4 	"/>
</g>
<g>
	<polygon class="st0" points="272.5,333.4 272.4,359.5 267.8,356.8 267.9,330.8 	"/>
</g>
<g>
	<polygon class="st5" points="277.1,330.8 272.5,333.4 267.9,330.8 272.5,328.1 	"/>
</g>
<path class="st0" d="M330.2,241.9c-0.1-3.6-3.7-6.1-7.1-4.9c-14.9,5.2-49,17.6-51.2,22c-2.1,4.2-8.8,27.5-12.2,39.2
	c-1,3.4-4.9,4.9-7.9,3.1l-20.6-12.2c-3.9-2.3-8.8,1-8,5.5l3.3,19.9c0.3,1.6,1.2,3,2.6,3.8l22.1,12.7c12.3,7.1,27.4,7.5,40.1,1.2
	l17-8.5c14.9-7.4,24-22.9,23.4-39.5L330.2,241.9z"/>
<path class="st41" d="M271.8,259c-2.1,4.2-8.8,27.5-12.2,39.2c-1,3.4-4.9,4.9-7.9,3.1l-20.6-12.2c-3.9-2.3-8.8,1-8,5.5l3.3,19.9
	c0.1,0.5,0.2,0.9,0.4,1.3c0.3,0.4,0.5,0.8,0.8,1.2c0.4,0.5,0.9,0.9,1.4,1.2l22.1,12.7c4.7,2.7,9.7,4.4,14.9,5.2
	c17.9-13.9,15.6-71.9,9.2-76.7c-1-0.7-1.8-1.2-2.6-1.4C272.3,258.4,272,258.7,271.8,259z"/>
<path class="st9" d="M232,241.4c0,0,15.3-12.8,18.4-13.1c3.7-0.3,8.4,0.9,9.7,6.2c1.2,5.3-1.6,9.3-4.4,10.9
	c-2.8,1.6-27.4,13.4-31.8,13.4c-4.4,0-7.2-3.7-4.4-8.4C222.3,245.7,232,241.4,232,241.4z"/>
<path class="st11" d="M210.5,221.1c0,0-0.8-1.6-0.9-2.6c-0.2-1.1,0.5-2.5-0.2-5c-0.6-2.5-1.7-4.7-2.2-6.4c-1.2-1.6-2.3,1.2-1.4,3.6
	s0.6,3.7-0.3,3.9c-0.9,0.2-4.8-2.2-5.9-3.4c-1.1-1.2-7.3-7.3-7.9-6.5c-0.6,0.8-0.6,1.6,1.6,3.9c2.2,2.3,3,3.4,3.1,4
	c0.2,0.6,0,1.2,0.8,3.1c0.8,1.9,0.2,3.1,1.6,4.8c1.4,1.7,4,2,5.3,3.1c1.2,1.1,1.2,1.1,1.2,1.1L210.5,221.1z"/>
<path class="st9" d="M223.9,258.8c0,0-6.5,1.2-10.1-6c-3.5-7.3-9.5-26.8-10.4-28.6c0,0,2.1-4.6,7.3-4.4c0,0,5.8,11.4,9.1,16.6
	C223.1,241.6,235,256.7,223.9,258.8z"/>
<path class="st11" d="M127.7,135c0,0,2-1.3,3.2-0.9c1.2,0.4,5.3,1,6.6,1.1c1.3,0.1,3.9-2.2,4.3-2.6c0.5-0.4,0.7-1.2,1.3-1.8
	c0.6-0.6,0.8-0.5,0.8-1.5c0-1,1-1.9,1.5-2.4c0.5-0.5,2.3-1.6,2.1-2.4c-0.2-0.8-1.1-0.4-1.7-0.2c-0.6,0.2-2.7,2.1-3.6,2.7
	c-0.9,0.6-3.1,1.4-4.2,1.4c-1.1,0-2.1-0.3-2.1-0.3s-0.3,0,0.8-0.4c1.1-0.4,1.8-0.1,2.7-0.3c0.9-0.2,1.4-0.7,1.3-1.2
	c-0.1-0.5-1.3-0.5-1.8-0.5c-0.5,0-3.2,0.1-4.3-0.1c-1.1-0.2-3,1.7-3.3,2c-0.4,0.4-2.3,0.9-3.3,1C127,129,127.7,135,127.7,135z"/>
<path class="st6" d="M88,134.1c0,0,1.9,6.4,10,6.1c8.1-0.2,28.1-4,30.2-4.1c0,0,3.1-4,0.5-8.5c0,0-12.8,0.1-18.9-0.4
	C103.6,126.7,84.7,123.3,88,134.1z"/>
<path class="st6" d="M45.2,146.8c0,0-3.4-19.6-5.5-21.9c-2.6-2.7-7-4.7-11.4-1.5c-4.4,3.2-4.9,8.1-3.7,11.1
	c1.1,3,12.2,27.9,15.6,30.8s7.9,1.8,8.8-3.6C49.8,156.4,45.2,146.8,45.2,146.8z"/>
<path class="st11" d="M79.3,157.3c0,0,2.6,0.2,3.6,0.2c0.9,0,8.1-0.6,9.3-0.6c1.2,0,1.2,1.4,1.2,1.4s1.2,2,1.2,2.8
	c0,0.8,0,1.9,0.3,2.6c0.3,0.8-0.2,1.4-0.5,2c-0.3,0.6-1.1,0.9-1.9,1.4c-0.8,0.5-1.7,0.5-2.3,0.2c-0.6-0.3-0.6-0.5,0.2-0.9
	c0.8-0.5,1.4-1.1,1.4-1.1s-0.9,0.9-2.3,1.1c-1.4,0.2-3.6,0.2-4.8-0.5c-1.2-0.6-3.4-1.7-3.4-1.7l-2.5-0.3L79.3,157.3z"/>
<path class="st6" d="M39.6,162.7c0,0,1.9,6.4,10,6.1c8.1-0.2,28.1-4,30.2-4.1c0,0,3.1-4,0.5-8.5c0,0-12.8,0.1-18.9-0.4
	C55.2,155.4,36.3,151.9,39.6,162.7z"/>
</svg>
