<svg id="_ÎÓÈ_1" data-name="—ÎÓÈ_1" xmlns="http://www.w3.org/2000/svg" viewBox="0 0 1040 740"><defs><style>.cls-1{fill:#f8f7ff;opacity:.39}.cls-2{fill:#40327a}.cls-3{fill:#c4b8ff}.cls-4{fill:#fff}.cls-5{fill:#ddd6ff}.cls-6{fill:#a796f2}.cls-7{fill:#ff809f}.cls-8{fill:#ff95a9}.cls-9{fill:#7760db}.cls-10{fill:#0078e3}.cls-11{fill:none}.cls-12{fill:#ffc359}.cls-13{fill:#e5659b}</style></defs><path class="cls-1" d="M136.67 609H847.4c117.33-68.24 96.17-207.9 63.65-231.39-44.46-32.12-114.22 88.78-157.72 66.7-124.27-63.1 134.13-240.82 30-282-67.76-26.79-114.82 178.21-197.44 106.62-43-37.25-3.94-91.48-12.17-135.48-13.05-69.82-125.64-34-224.46 140.7-41.66 73.64-98.76-63.9-145.33-80.06-43.24-15-173.75 52.78-38.76 205.43 42.98 48.59-168.91 69.05-28.5 209.48z"/><path class="cls-2" d="M788 557.16a14.6 14.6 0 1 1 14.61-14.6 14.62 14.62 0 0 1-14.61 14.6zm0-27.2a12.6 12.6 0 1 0 12.61 12.6A12.61 12.61 0 0 0 788 530z"/><path class="cls-3" d="M740.04 542.56h96v66h-96z"/><path class="cls-2" d="M826.04 542.56h10v66h-10zm-86 32h86v2h-86z"/><path class="cls-4" d="M776.04 574.56h14v9h-14z"/><path class="cls-1" d="M374.55 138c-.66-6-2.4-10.05-6.54-12.29-12.27-6.66-43.07 4.14-55.87 20.8-17.85 23.22-1.57 58.94 15.77 61.22 20.19 2.68 50.09-38.85 46.64-69.73z"/><path class="cls-3" d="M340.83 623.99h213.14v2H340.83zm-81.18 15.24h133.64v2H259.65zm189.76 0h176.33v2H449.41zm-232.48-15h63.84v2h-63.84zm370.58-.24h129.25v2H587.51zm-504.45-16h898.39v2H83.06z"/><path class="cls-5" d="M339.25 502.08l48.67 105.91h4.71l-30.97-105.91h-22.41zm-52.76 0l-48.68 105.91h-4.71l30.97-105.91h22.42z"/><path class="cls-6" d="M390.21 495a13 13 0 0 1-13 13H246.49l-3.39-26h134.12a13 13 0 0 1 12.99 13z"/><path class="cls-6" d="M272.71 508h-26.22l-3.39-26-14.7-112.8a13 13 0 0 1 11.21-14.57 13 13 0 0 1 14.57 11.21L269.32 482z"/><path class="cls-5" d="M672.51 502.08l-48.68 105.91h-4.71l30.98-105.91h22.41zm52.76 0l48.67 105.91h4.71l-30.97-105.91h-22.41z"/><path class="cls-7" d="M621.54 495a13 13 0 0 0 13 13h130.72l3.39-26H634.54a13 13 0 0 0-13 13z"/><path class="cls-7" d="M739 508h26.22l3.39-26 14.75-112.8a13 13 0 0 0-11.21-14.57 13 13 0 0 0-14.57 11.21L742.43 482z"/><circle class="cls-8" cx="559.29" cy="410.23" r="6"/><path class="cls-8" d="M547.54 400.55l13.43 3.92-1.68 11.76H545.3l2.24-15.68z"/><path class="cls-3" d="M527.58 598v10h-86v-10h28a10 10 0 0 0 10-10V426h10v162a10 10 0 0 0 10 10z"/><path class="cls-9" d="M350.72 454.72a36.24 36.24 0 0 1-2.65 13.65h-67.62a36.46 36.46 0 1 1 70.27-13.65z"/><circle class="cls-10" cx="314.26" cy="454.72" r="10"/><path class="cls-8" d="M456.23 328.76a8 8 0 1 1-9.89-5.5 8 8 0 0 1 9.89 5.5z"/><path class="cls-8" d="M441.4 335.07a6 6 0 1 0-4.11 7.42 6 6 0 0 0 4.11-7.42z"/><path class="cls-8" d="M444.27 324.19l-11.84 7.46 4.86 10.84 13.45-3.84-6.47-14.46zm-45.98 66.36a13.64 13.64 0 1 0 5.62 18.45 13.65 13.65 0 0 0-5.62-18.45z"/><path class="cls-8" d="M330.04 376.88l54.14 36.97 17.42-20.83-46.02-46.68-25.54 30.54z"/><path class="cls-8" d="M430.98 332.93l9.94 6.62-37.02 69.46-22.61-15.05 43.34-53.23 3.79-4.65 2.56-3.15z"/><path class="cls-8" d="M430.98 332.93l9.95 6.62-2.49 4.68-10.02-8.15 2.56-3.15z"/><circle class="cls-7" cx="341.32" cy="360.37" r="20" transform="rotate(-27.56 341.26 360.324)"/><path class="cls-8" d="M303.8 371.5l-36.49 54.46-23.92-12.85 25.34-60.46 35.07 18.85z"/><path class="cls-7" d="M303.8 371.5l-25.31 37.78-27.34-14.69 17.58-41.94 35.07 18.85zm26.24 5.38l37.56 25.65 19.91-23.8-31.92-32.39-25.55 30.54z"/><circle class="cls-7" cx="287.19" cy="360.37" r="20" transform="rotate(-45 287.187 360.363)"/><circle class="cls-9" cx="292.11" cy="468.37" r="13.65"/><circle class="cls-9" cx="388.92" cy="597.98" r="8.44" transform="rotate(-45 388.92 597.974)"/><circle class="cls-9" cx="415.81" cy="470.45" r="11.57"/><path class="cls-9" d="M380.72 596.05l23.92-128.77 22.51 5.31-30 127.33-16.43-3.87z"/><path class="cls-2" d="M405.86 608h-25.38v-10h16.89l9.69 5.29a2.5 2.5 0 0 1 1.31 2.2 2.51 2.51 0 0 1-2.51 2.51z"/><circle class="cls-9" cx="336.39" cy="468.37" r="13.65"/><circle class="cls-9" cx="444.64" cy="597.98" r="8.44" transform="rotate(-45 444.64 597.974)"/><circle class="cls-9" cx="371.22" cy="470.53" r="11.57" transform="rotate(-76.72 371.204 470.527)"/><path class="cls-9" d="M437.26 602.05l-75.48-124.32 20.27-11.14 70 127.33-14.79 8.13z"/><path class="cls-2" d="M461.58 608H436.2v-10h16.89l9.69 5.29a2.5 2.5 0 0 1 1.31 2.2 2.51 2.51 0 0 1-2.51 2.51z"/><circle class="cls-9" cx="292.11" cy="468.37" r="13.65"/><path class="cls-7" d="M355.61 355.05l-4.89 99.67H277.8l-4.89-99.67a14 14 0 0 1 14-14.68h54.73a14 14 0 0 1 13.97 14.68z"/><path class="cls-9" d="M350.72 454.72l-.67 13.65v.67a13.64 13.64 0 0 1-13.63 13h-44.29a13.65 13.65 0 0 1-13.63-13v-.67l-.67-13.65z"/><path class="cls-2" d="M337.94 290.11l-3.62.25-1.68-24.48 3.63-.25A12.28 12.28 0 0 1 349.35 277a12.27 12.27 0 0 1-11.41 13.11z"/><path class="cls-2" d="M290.9 296.88h18.18v19H300a9.09 9.09 0 0 1-9.09-9.09v-10l-.01.09z" transform="rotate(-3.91 299.714 306.17)"/><path class="cls-8" transform="rotate(-3.91 314.561 326.622)" d="M302.33 313.31h25v27.09h-25z"/><path class="cls-2" d="M324.5 258.11h8.82A10.91 10.91 0 0 1 344.23 269v10.81a9.86 9.86 0 0 1-9.86 9.86h-9.87v-31.56z" transform="rotate(-3.91 334.11 273.762)"/><path class="cls-8" d="M334.37 322.85l-32.19 2.2-2.48-36.25a20 20 0 0 1 18.6-21.33 20 20 0 0 1 21.24 17.64l3.24 27.62a9.09 9.09 0 0 1-8.41 10.12z"/><path class="cls-11" d="M341.55 302.27l-2-17.17z"/><path class="cls-2" d="M307.45 265.35h2.72v34.21h-20.9v-16a18.18 18.18 0 0 1 18.18-18.21z" transform="rotate(-3.91 299.504 282.26)"/><path class="cls-8" d="M300.66 303l5.44-.38-.37-5.44a5.44 5.44 0 0 0-5.81-5.06 5.45 5.45 0 0 0-5.07 5.81 5.46 5.46 0 0 0 5.81 5.07z"/><path class="cls-2" d="M342 279.41l-20.66 1.42a15.33 15.33 0 0 1-16.31-14.23 7.27 7.27 0 1 1 14.51-1 .76.76 0 0 0 .81.71l20.65-1.4z"/><path class="cls-2" d="M333.81 272.69l-10.27.7a7.27 7.27 0 1 1-1-14.51l10.27-.7a7.27 7.27 0 0 1 1 14.51z"/><path class="cls-8" d="M328.23 339.51a12.5 12.5 0 1 1-13.33-11.61 12.51 12.51 0 0 1 13.33 11.61z"/><path class="cls-2" d="M343.63 320a7.29 7.29 0 0 1-6.73 8.11l-14.41 1A14.54 14.54 0 0 1 307 315.62l-1.16-17 5.44-.38a6.07 6.07 0 0 0 6.46 5.64l23.82-1.63z"/><path class="cls-9" d="M337.12 454.74l79.31 4.16-.62 23.12h-79.42l.73-27.28z"/><path class="cls-8" d="M347.47 460.81a8 8 0 1 0-10.82 3.29 8 8 0 0 0 10.82-3.29z"/><path class="cls-8" d="M334.31 451.51a6 6 0 1 1-2.47-8.11 6 6 0 0 1 2.47 8.11z"/><path class="cls-8" d="M334.82 462.76l-10-9.78 7.02-9.58 12.34 6.58-9.36 12.78z"/><circle class="cls-8" cx="255.98" cy="418.37" r="13.64" transform="matrix(.33 -.94 .94 .33 -223.11 523.37)"/><path class="cls-8" d="M262.39 406.33l69.44 37.07-4.57 11.03-3.88-1.18-5.73-1.76L252 431.42l10.39-25.09z"/><path class="cls-8" d="M327.26 454.43l4.58-11.04-4.68-2.49-3.78 12.34 3.88 1.19z"/><path class="cls-9" d="M658.56 454.72a36.24 36.24 0 0 0 2.65 13.65h67.62a36.46 36.46 0 1 0-70.27-13.65z"/><circle class="cls-10" cx="695.02" cy="454.72" r="10"/><circle class="cls-8" cx="617.41" cy="402.59" r="13.64" transform="rotate(-73.06 617.403 402.588)"/><path class="cls-8" d="M679.24 376.88l-54.14 36.97-17.42-20.83 46.02-46.68 25.54 30.54z"/><path class="cls-12" d="M651.44 371.65a20 20 0 1 0 5.24-27.8 20 20 0 0 0-5.24 27.8z"/><path class="cls-12" d="M679.24 376.88l-37.56 25.65-19.92-23.8 31.93-32.39 25.55 30.54z"/><circle class="cls-13" cx="620.36" cy="597.98" r="8.44" transform="rotate(-45 620.352 597.982)"/><circle class="cls-13" cx="593.47" cy="470.45" r="11.57"/><path class="cls-13" d="M612.13 599.92l-30-127.33 22.51-5.31 23.92 128.77-16.43 3.87z"/><path class="cls-2" d="M603.42 608h25.38v-10h-16.89l-9.7 5.29a2.51 2.51 0 0 0-1.3 2.2 2.51 2.51 0 0 0 2.51 2.51z"/><circle class="cls-13" cx="664.94" cy="597.98" r="8.44" transform="rotate(-45 664.942 597.982)"/><circle class="cls-13" cx="638.05" cy="470.45" r="11.57"/><path d="M626.85 470.43v.82a6.05 6.05 0 0 0 .11.94 8.13 8.13 0 0 0 .27 1.25 10.75 10.75 0 0 0 1.42 3.14 11.25 11.25 0 0 0 3.14 3.18 11.19 11.19 0 0 0 6.37 1.88 12 12 0 0 0 1.49-.12 11.37 11.37 0 0 0 2.9-.83 11.26 11.26 0 0 0 6.18-7 12.28 12.28 0 0 0 .48-3.25 12.64 12.64 0 0 0-.48-3.25 11.66 11.66 0 0 0-1.39-2.94 11.89 11.89 0 0 0-2.14-2.39 11.61 11.61 0 0 0-2.65-1.65 11.29 11.29 0 0 0-5.82-.89 11.49 11.49 0 0 0-4.94 1.81 11.25 11.25 0 0 0-3.14 3.18 10.79 10.79 0 0 0-1.42 3.15 7.89 7.89 0 0 0-.27 1.25 6.33 6.33 0 0 0-.11.94v.79zm-1 0v-.86a6.29 6.29 0 0 1 .12-1 9.68 9.68 0 0 1 .29-1.37 11.92 11.92 0 0 1 1.56-3.42 12.14 12.14 0 0 1 8.83-5.39 12.39 12.39 0 0 1 6.26 1 12.62 12.62 0 0 1 2.86 1.8 12.38 12.38 0 0 1 2.3 2.59 12.85 12.85 0 0 1 1.49 3.18 13.11 13.11 0 0 1 .51 3.5 13.36 13.36 0 0 1-.53 3.5 12.94 12.94 0 0 1-1.51 3.16 13.37 13.37 0 0 1-2.3 2.56 12.32 12.32 0 0 1-2.86 1.76 11.63 11.63 0 0 1-3.13.89 12.08 12.08 0 0 1-1.55.12 15.25 15.25 0 0 1-1.54-.08 11.93 11.93 0 0 1-8.64-5.36 11.57 11.57 0 0 1-1.51-3.37 10.41 10.41 0 0 1-.28-1.34 7.65 7.65 0 0 1-.11-1v-.81z" fill="#008ad1"/><path class="cls-13" d="M656.72 599.92l-30.01-127.33 22.52-5.31 23.91 128.77-16.42 3.87z"/><path class="cls-2" d="M648 608h25.38v-10h-16.89l-9.69 5.29a2.5 2.5 0 0 0-1.31 2.2A2.51 2.51 0 0 0 648 608z"/><circle class="cls-9" cx="672.89" cy="468.37" r="13.65"/><circle class="cls-13" cx="638.05" cy="470.53" r="11.57" transform="rotate(-13.28 638.175 470.617)"/><path class="cls-12" d="M653.67 355.05l4.89 99.67h72.92l4.89-99.67a14 14 0 0 0-14-14.68h-54.72a14 14 0 0 0-13.98 14.68z"/><path class="cls-13" d="M658.56 454.72l.67 13.65v.67a13.66 13.66 0 0 0 13.64 13h44.24a13.66 13.66 0 0 0 13.64-13v-.67l.67-13.65z"/><path class="cls-13" d="M672.16 454.74l-79.31 4.16.62 23.12h79.42l-.73-27.28z"/><path class="cls-5" d="M337.66 416.22h293.85v10H337.66z"/><path class="cls-2" d="M670.57 290.47l3.63.19 1.29-24.51-3.63-.19A12.28 12.28 0 0 0 659 277.57a12.28 12.28 0 0 0 11.57 12.9z"/><path class="cls-2" d="M708.77 296.63h9.09v19h-18.17v-10a9.09 9.09 0 0 1 9.08-9z" transform="rotate(-176.99 708.777 306.147)"/><path class="cls-8" transform="rotate(-176.99 694.26 326.833)" d="M681.76 313.3h25v27.09h-25z"/><path class="cls-2" d="M664 258.41h9.87a9.86 9.86 0 0 1 9.86 9.86v10.81A10.91 10.91 0 0 1 672.85 290H664v-31.59z" transform="rotate(-176.99 673.894 274.191)"/><path class="cls-8" d="M678.76 323.36l28.12 1.48 1.91-36.29a20 20 0 0 0-18.94-21 20 20 0 0 0-21 18l-2.38 23.58a13 13 0 0 0 12.29 14.23z"/><path class="cls-11" d="M667.15 302.68l1.74-17.2z"/><path class="cls-2" d="M698.22 265.11h20.9v34.21h-2.72a18.18 18.18 0 0 1-18.18-18.18v-16.03z" transform="rotate(-176.99 708.668 282.213)"/><path class="cls-8" d="M708.05 302.72l-5.45-.28.29-5.45a5.46 5.46 0 0 1 5.73-5.16 5.46 5.46 0 0 1 5.16 5.74 5.45 5.45 0 0 1-5.73 5.15z"/><path class="cls-2" d="M666.33 279.83l20.67 1.09a15.32 15.32 0 0 0 16.08-14.48 7.27 7.27 0 1 0-14.52-.76.76.76 0 0 1-.8.72l-20.67-1.09z"/><path class="cls-2" d="M674.43 273l10.28.54a7.27 7.27 0 1 0 .77-14.52l-10.29-.54a7.27 7.27 0 1 0-.76 14.52z"/><circle class="cls-8" cx="693.54" cy="340.37" r="12.5" transform="rotate(-62.85 693.538 340.365)"/><path class="cls-2" d="M699.88 302.3a2.73 2.73 0 0 0 2.86-2.58v-.68l-5.45-.29v.68a2.73 2.73 0 0 0 2.59 2.87z"/><circle class="cls-8" cx="682.21" cy="446.75" r="8"/><circle class="cls-8" cx="696.2" cy="448.75" r="6"/><path class="cls-8" d="M684.46 439.07l13.42 3.92-1.68 11.76h-13.99l2.25-15.68zm20.14-69l31.82 57.32 24.91-10.81-20.2-62.36-36.53 15.85z"/><path class="cls-12" d="M704.6 370.07l22.07 39.76 28.48-12.35-14.02-43.26-36.53 15.85z"/><circle class="cls-12" cx="722.09" cy="360.37" r="20" transform="rotate(-32.5 722.132 360.38)"/><circle class="cls-8" cx="748.35" cy="420.77" r="13.64" transform="rotate(-47.41 748.27 420.76)"/><path class="cls-8" d="M740.38 409.69l-47.67 34.18 5.62 10.49 54.84-20.83-12.79-23.84zm-122.96 6.54h-58.13l-1.56-11.79 56.16-15.03 3.53 26.82z"/><path class="cls-4" d="M683.58 308.7a5.5 5.5 0 0 1-11-.55zm-343.73-.84a5.5 5.5 0 0 1-11 .71z"/><path class="cls-12" d="M557.33 416.23h-14.5l-2-30.79h18.5l-2 30.79z"/><path class="cls-4" d="M558.3 365.45a9.15 9.15 0 0 1-9.15 9.15v-7.55a11.89 11.89 0 1 1 0-23.77v13a9.16 9.16 0 0 1 9.15 9.17z"/><path class="cls-6" d="M549.15 375.6h-1V368a12.88 12.88 0 0 1 1-25.73h1v13.06a10.15 10.15 0 0 1-1 20.26zm-1-31.28a10.89 10.89 0 0 0 1 21.73h1v7.49a8.16 8.16 0 0 0-1-16.25h-1z"/><path class="cls-2" d="M540.83 387.44h10.29v2h-10.29zm13.91 0h4.59v2h-4.59z"/><path class="cls-6" d="M473.63 416.23h-14.5l-2-30.79h18.5l-2 30.79z"/><path class="cls-4" d="M474.6 365.45a9.16 9.16 0 0 1-9.16 9.15v-7.55a11.89 11.89 0 0 1 0-23.77v13a9.17 9.17 0 0 1 9.16 9.17z"/><path class="cls-6" d="M465.44 375.6h-1V368a12.88 12.88 0 0 1 1-25.73h1v13.06a10.15 10.15 0 0 1-1 20.26zm-1-31.28a10.89 10.89 0 0 0 1 21.73h1v7.49a8.16 8.16 0 0 0-1-16.25h-1z"/><path class="cls-2" d="M457.13 387.44h10.29v2h-10.29zm13.91 0h4.59v2h-4.59z"/><circle class="cls-8" cx="545.3" cy="408.23" r="8"/><path class="cls-9" d="M292.11 507.02h9.27v2h-9.27zm16.93 0h68.17v2h-68.17z"/><path class="cls-6" transform="rotate(-28.8 403.97 506.459)" d="M402.97 475.48h2v61.95h-2z"/><path class="cls-6" transform="rotate(-28.8 422.208 539.559)" d="M421.13 536.9h2v5.19h-2z"/><path class="cls-2" transform="rotate(-31.26 409.652 556.504)" d="M408.58 538.52h2v35.88h-2z"/><path class="cls-9" d="M710.21 507.02h55.05v2h-55.05zm-16.17 0h4.67v2h-4.67z"/><path class="cls-4" transform="rotate(-29.04 720.055 398.118)" d="M719.19 384.8h2v26.71h-2z"/><path class="cls-4" transform="rotate(-2.81 654.416 380.77)" d="M653.95 373.31h2v15.65h-2z"/><path class="cls-4" transform="rotate(-87.19 354.146 385.057)" d="M348.98 384.06h10.3v2h-10.3z"/><path class="cls-4" transform="rotate(-56.18 284.17 400.853)" d="M273.98 399.84h20.31v2h-20.31z"/><path class="cls-4" transform="rotate(-16.3 768.263 572.316)" d="M767.22 535.12h2v74.37h-2z"/><path class="cls-3" d="M337.66 425.22h62.61v2h-62.61zm69.25-.26h6.8v2h-6.8zm55.13 0h117v2h-117zm125.54 0h43.94v2h-43.94z"/><path class="cls-2" d="M492.15 607.99h58.22v2h-58.22zm66.39 0h6v2h-6zm197.84 0h54.5v2h-54.5zm61.33 0h34.5v2h-34.5zm-589.44 0h27.77v2h-27.77zm33.61 0h7v2h-7z"/><path class="cls-4" transform="rotate(-13.26 635.34 509.432)" d="M634.41 474.41h2v70.19h-2z"/><path class="cls-3" d="M483.58 96.95h2v110.92h-2z"/><path class="cls-5" d="M484.59 178.67l-52.68 52.67h105.35l-52.67-52.67z"/><path class="cls-5" d="M474.58 170.7h20v25h-20z"/><path class="cls-3" d="M474.58 187.67h10v2h-10zm15.67 0h4.34v2h-4.34zm-58.34 42.67h52.67v2h-52.67zm58.34 0h34.67v2h-34.67zM483.59 79.7h2v9.5h-2z"/><path class="cls-4" d="M447 222.27l-3.25 3.25z"/><path class="cls-4" transform="rotate(-45 445.31 223.896)" d="M443.06 222.89h4.6v2h-4.6z"/><path class="cls-4" d="M475.42 193.83l-25.32 25.31z"/><path class="cls-4" transform="rotate(-45 462.72 206.485)" d="M444.86 205.49h35.8v2h-35.8z"/></svg>