<?xml version="1.0" ?><svg enable-background="new 0 0 24 24" id="Layer_1" version="1.1" viewBox="0 0 24 24" xml:space="preserve" xmlns="http://www.w3.org/2000/svg" xmlns:xlink="http://www.w3.org/1999/xlink"><g><path d="M23.974144,15.3417969l-1-3C22.9062729,12.1376953,22.7153549,12,22.5000229,12h-1.5V8.5   c0-0.2763672-0.2236328-0.5-0.5-0.5s-0.5,0.2236328-0.5,0.5V12h-2.8778687   c-0.0890503-0.7143555-0.3569336-1.8974609-1.1066895-2.9559326c0.3117065-0.4471436,0.6428833-0.8279419,0.838562-1.0240479   c0.0932617-0.09375,0.1459961-0.2211914,0.1459961-0.3535156c0-0.0245361-0.0033569-0.083374-0.0072632-0.140686   l0.3617554-0.3617554h0.3339844c0.7231445,0,1.3115234-0.5883789,1.3115234-1.3115234   c0-0.4936523-0.2719727-0.9316406-0.6972656-1.1552734C18.0791245,4.2719727,17.6411362,4,17.1474838,4   c-0.7231445,0-1.3115225,0.5883789-1.3115225,1.3115234v0.3339844L15.474206,6.0072632   C15.416894,6.0033569,15.3580561,6,15.3335199,6c-0.1323242,0-0.2597656,0.0527344-0.3535156,0.1459961   c-0.2564697,0.2558594-0.8235474,0.7416992-1.4515381,1.1130371C12.9845209,7.0921021,12.4209833,7,11.8042231,7   c-3.8023071,0-7.4117436,2.3148193-8.1566162,5h-1.647583V8.5c0-0.2763672-0.2236328-0.5-0.5-0.5s-0.5,0.2236328-0.5,0.5V12h-0.5   c-0.2763672,0-0.5,0.2236328-0.5,0.5s0.2236328,0.5,0.5,0.5h0.5v9.5c0,0.2763672,0.2236328,0.5,0.5,0.5s0.5-0.2236328,0.5-0.5V13   h1.5c0,1.7944336,1.8696289,3,4.6523442,3h8.5214834c1.4414063,0,2.3261719-0.8735352,2.3261719-1.5   c0-0.21875-0.1420898-0.4121094-0.3505859-0.4770508C17.7834702,13.7521362,17.3606796,13.4539795,17.2267075,13h2.7733154v9.5   c0,0.2763672,0.2236328,0.5,0.5,0.5s0.5-0.2236328,0.5-0.5V13h1.1396484l0.8862305,2.6582031   C23.095726,15.8676758,23.2905502,16,23.5000229,16c0.0522461,0,0.1054688-0.0083008,0.1582031-0.0258789   C23.9199448,15.887207,24.0615463,15.6040039,23.974144,15.3417969z" fill="#303C42"/><path d="M16.689476,6.2060547c0.09375-0.09375,0.1464844-0.2207031,0.1464844-0.3535156V5.3115234   C16.8359604,5.1396484,16.9756088,5,17.1474838,5c0.1572266,0,0.2612305,0.1123047,0.2949219,0.2231445   c0.0483398,0.1606445,0.1738281,0.2861328,0.3344727,0.3344727c0.1108398,0.0336914,0.2231445,0.1376953,0.2231445,0.2949219   c0,0.171875-0.1396484,0.3115234-0.3115234,0.3115234h-0.5410156c-0.1328125,0-0.2597656,0.0527344-0.3535156,0.1464844   l-0.1888428,0.1888428c-0.0166626-0.019104-0.0244141-0.0427246-0.0426064-0.0609131l-0.0004845-0.0004883   c-0.0186768-0.0186768-0.0422974-0.0264282-0.0614014-0.0430908L16.689476,6.2060547z" fill="#F3F3F3"/><path d="M15.5156488,7.0180664c0.1347656,0.0224609,0.2783203,0.0664063,0.3393555,0.1269531   c0.0605469,0.0610352,0.1044922,0.2050781,0.1269531,0.3393555c-0.4780273,0.5161133-1.7319336,2.0014648-1.7319336,3.390625   c0,1.171875-0.953125,2.125-2.125,2.125s-2.125-0.953125-2.125-2.125s0.953125-2.125,2.125-2.125   C13.514184,8.75,14.9995356,7.4960938,15.5156488,7.0180664z" fill="#F9A822"/><path d="M15.5233393,7.0200195C14.9668818,7.7197266,14.2500238,8.8239746,14.2500238,9.875   c0,1.171875-0.953125,2.125-2.125,2.125c-0.9988403,0-1.8329468-0.6948853-2.0592651-1.625   c-0.0391846,0.1611328-0.0657349,0.3269653-0.0657349,0.5c0,1.171875,0.953125,2.125,2.125,2.125s2.125-0.953125,2.125-2.125   c0-1.3891602,1.2539063-2.8745117,1.7319336-3.390625c-0.0224609-0.1342773-0.0664063-0.2783203-0.1269531-0.3393555   C15.7951899,7.0856323,15.6557856,7.0429077,15.5233393,7.0200195z" fill="#010101" opacity="0.1"/><path d="M17.6909409,14.7397461C17.4760971,14.8740234,17.1450424,15,16.673851,15H8.1523676   c-1.8178716,0-3.6523442-0.6186523-3.6523442-2c0-2.2869873,2.9730225-4.5288696,6.2738652-4.9301758   C9.7284784,8.5758057,9.0000238,9.6378174,9.0000238,10.875c0,1.7231445,1.4018555,3.125,3.125,3.125s3.125-1.4018555,3.125-3.125   c0-0.269043,0.0828247-0.5631714,0.2091064-0.8587646c0.6999502,1.25,0.7147207,2.6109619,0.7147207,2.6268311   C16.173851,13.8564453,16.9956284,14.4365234,17.6909409,14.7397461z" fill="#F9A822"/><path d="M16.6055527,13.9430542C16.4719467,13.9697876,16.3420639,14,16.173851,14H7.6523671   c-1.237854,0-2.4688721-0.295166-3.1376953-0.9143677C4.5933461,14.4033203,6.3748403,15,8.1523676,15h8.5214834   c0.4711914,0,0.8022461-0.1259766,1.0170898-0.2602539C17.3147202,14.5756836,16.9056015,14.3256836,16.6055527,13.9430542z" fill="#010101" opacity="0.1"/><path d="M9.4913568,9.2047119c0.3130493-0.4862671,0.7575684-0.8807983,1.2825317-1.1348877   c-3.2594609,0.3963013-6.1937871,2.5874634-6.2670293,4.8443604C5.1198354,11.2648926,7.1324086,9.7888794,9.4913568,9.2047119z" fill="#FFFFFF" opacity="0.2"/><path d="M14.5000238,4.5c0,0.2763672,0.2236328,0.5,0.5,0.5s0.5-0.2236328,0.5-0.5   c0-0.5263672-0.1928711-0.815918-0.3339844-1.0273438C15.0556879,3.3066406,15.0000238,3.2236328,15.0000238,3   s0.0556641-0.3066406,0.1660156-0.4726563C15.3071527,2.315918,15.5000238,2.0263672,15.5000238,1.5   c0-0.2763672-0.2236328-0.5-0.5-0.5s-0.5,0.2236328-0.5,0.5c0,0.2236328-0.0556641,0.3066406-0.1660156,0.4726563   C14.1928949,2.184082,14.0000238,2.4736328,14.0000238,3s0.1928711,0.815918,0.3339844,1.0273438   C14.4443598,4.1933594,14.5000238,4.2763672,14.5000238,4.5z" fill="#303C42"/><path d="M11.0000238,4.5c0,0.2763672,0.2236328,0.5,0.5,0.5s0.5-0.2236328,0.5-0.5   c0-0.5263672-0.1928711-0.815918-0.3339844-1.0273438C11.5556879,3.3066406,11.5000238,3.2236328,11.5000238,3   s0.0556641-0.3066406,0.1660156-0.4726563C11.8071527,2.315918,12.0000238,2.0263672,12.0000238,1.5   c0-0.2763672-0.2236328-0.5-0.5-0.5s-0.5,0.2236328-0.5,0.5c0,0.2236328-0.0556641,0.3066406-0.1660156,0.4726563   C10.6928949,2.184082,10.5000238,2.4736328,10.5000238,3s0.1928711,0.815918,0.3339844,1.0273438   C10.9443598,4.1933594,11.0000238,4.2763672,11.0000238,4.5z" fill="#303C42"/><path d="M7.5000234,4.5c0,0.2763672,0.2236328,0.5,0.5000005,0.5c0.2763672,0,0.5-0.2236328,0.5-0.5   c0-0.5263672-0.1928711-0.815918-0.3339844-1.0273438C8.0556879,3.3066406,8.0000238,3.2236328,8.0000238,3   s0.0556641-0.3066406,0.1660156-0.4726563C8.3071527,2.315918,8.5000238,2.0263672,8.5000238,1.5   c0-0.2763672-0.2236328-0.5-0.5-0.5C7.7236562,1,7.5000234,1.2236328,7.5000234,1.5   c0,0.2236328-0.0556641,0.3066406-0.1660156,0.4726563C7.1928945,2.184082,7.0000234,2.4736328,7.0000234,3   s0.1928711,0.815918,0.3339844,1.0273438C7.4443593,4.1933594,7.5000234,4.2763672,7.5000234,4.5z" fill="#303C42"/><linearGradient gradientUnits="userSpaceOnUse" id="SVGID_1_" x1="0.9117081" x2="22.7871609" y1="8.5780878" y2="18.7787781"><stop offset="0" style="stop-color:#FFFFFF;stop-opacity:0.2"/><stop offset="1" style="stop-color:#FFFFFF;stop-opacity:0"/></linearGradient><path d="M23.974144,15.3417969l-1-3C22.9062729,12.1376953,22.7153549,12,22.5000229,12h-1.5V8.5   c0-0.2763672-0.2236328-0.5-0.5-0.5s-0.5,0.2236328-0.5,0.5V12h-2.8778687   c-0.0890503-0.7143555-0.3569336-1.8974609-1.1066895-2.9559326c0.3117065-0.4471436,0.6428833-0.8279419,0.838562-1.0240479   c0.0932617-0.09375,0.1459961-0.2211914,0.1459961-0.3535156c0-0.0245361-0.0033569-0.083374-0.0072632-0.140686   l0.3617554-0.3617554h0.3339844c0.7231445,0,1.3115234-0.5883789,1.3115234-1.3115234   c0-0.4936523-0.2719727-0.9316406-0.6972656-1.1552734C18.0791245,4.2719727,17.6411362,4,17.1474838,4   c-0.7231445,0-1.3115225,0.5883789-1.3115225,1.3115234v0.3339844L15.474206,6.0072632   C15.416894,6.0033569,15.3580561,6,15.3335199,6c-0.1323242,0-0.2597656,0.0527344-0.3535156,0.1459961   c-0.2564697,0.2558594-0.8235474,0.7416992-1.4515381,1.1130371C12.9845209,7.0921021,12.4209833,7,11.8042231,7   c-3.8023071,0-7.4117436,2.3148193-8.1566162,5h-1.647583V8.5c0-0.2763672-0.2236328-0.5-0.5-0.5s-0.5,0.2236328-0.5,0.5V12h-0.5   c-0.2763672,0-0.5,0.2236328-0.5,0.5s0.2236328,0.5,0.5,0.5h0.5v9.5c0,0.2763672,0.2236328,0.5,0.5,0.5s0.5-0.2236328,0.5-0.5V13   h1.5c0,1.7944336,1.8696289,3,4.6523442,3h8.5214834c1.4414063,0,2.3261719-0.8735352,2.3261719-1.5   c0-0.21875-0.1420898-0.4121094-0.3505859-0.4770508C17.7834702,13.7521362,17.3606796,13.4539795,17.2267075,13h2.7733154v9.5   c0,0.2763672,0.2236328,0.5,0.5,0.5s0.5-0.2236328,0.5-0.5V13h1.1396484l0.8862305,2.6582031   C23.095726,15.8676758,23.2905502,16,23.5000229,16c0.0522461,0,0.1054688-0.0083008,0.1582031-0.0258789   C23.9199448,15.887207,24.0615463,15.6040039,23.974144,15.3417969z M14.5000238,4.5c0,0.2763672,0.2236328,0.5,0.5,0.5   s0.5-0.2236328,0.5-0.5c0-0.5263672-0.1928711-0.815918-0.3339844-1.0273438   C15.0556879,3.3066406,15.0000238,3.2236328,15.0000238,3s0.0556641-0.3066406,0.1660156-0.4726563   C15.3071527,2.315918,15.5000238,2.0263672,15.5000238,1.5c0-0.2763672-0.2236328-0.5-0.5-0.5s-0.5,0.2236328-0.5,0.5   c0,0.2236328-0.0556641,0.3066406-0.1660156,0.4726563C14.1928949,2.184082,14.0000238,2.4736328,14.0000238,3   s0.1928711,0.815918,0.3339844,1.0273438C14.4443598,4.1933594,14.5000238,4.2763672,14.5000238,4.5z M11.0000238,4.5   c0,0.2763672,0.2236328,0.5,0.5,0.5s0.5-0.2236328,0.5-0.5c0-0.5263672-0.1928711-0.815918-0.3339844-1.0273438   C11.5556879,3.3066406,11.5000238,3.2236328,11.5000238,3s0.0556641-0.3066406,0.1660156-0.4726563   C11.8071527,2.315918,12.0000238,2.0263672,12.0000238,1.5c0-0.2763672-0.2236328-0.5-0.5-0.5s-0.5,0.2236328-0.5,0.5   c0,0.2236328-0.0556641,0.3066406-0.1660156,0.4726563C10.6928949,2.184082,10.5000238,2.4736328,10.5000238,3   s0.1928711,0.815918,0.3339844,1.0273438C10.9443598,4.1933594,11.0000238,4.2763672,11.0000238,4.5z M7.5000234,4.5   c0,0.2763672,0.2236328,0.5,0.5000005,0.5c0.2763672,0,0.5-0.2236328,0.5-0.5c0-0.5263672-0.1928711-0.815918-0.3339844-1.0273438   C8.0556879,3.3066406,8.0000238,3.2236328,8.0000238,3s0.0556641-0.3066406,0.1660156-0.4726563   C8.3071527,2.315918,8.5000238,2.0263672,8.5000238,1.5c0-0.2763672-0.2236328-0.5-0.5-0.5   C7.7236562,1,7.5000234,1.2236328,7.5000234,1.5c0,0.2236328-0.0556641,0.3066406-0.1660156,0.4726563   C7.1928945,2.184082,7.0000234,2.4736328,7.0000234,3s0.1928711,0.815918,0.3339844,1.0273438   C7.4443593,4.1933594,7.5000234,4.2763672,7.5000234,4.5z" fill="url(#SVGID_1_)"/></g><g/><g/><g/><g/><g/><g/><g/><g/><g/><g/><g/><g/><g/><g/><g/></svg>