<?xml version="1.0" ?><!DOCTYPE svg  PUBLIC '-//W3C//DTD SVG 1.1//EN'  'http://www.w3.org/Graphics/SVG/1.1/DTD/svg11.dtd'><svg enable-background="new 0 0 512 512" height="512px" id="Calque_1" version="1.1" viewBox="0 0 512 512" width="512px" xml:space="preserve" xmlns="http://www.w3.org/2000/svg" xmlns:xlink="http://www.w3.org/1999/xlink"><g><g><g><polygon fill="#EDEBEB" points="290,126.37 268.25,126.37 268.25,156.062 276.19,156.062 479.799,156.062 487.75,156.062      487.75,126.37 466,126.37    "/><path d="M386.069,242.193c-7.221,0-15.184,3.891-21.303,10.408c-8.264,8.805-11.096,20.493-7.467,27.979     c2.123-4.777,4.979-9.602,6.854-11.916c2.146-2.645,6.465-5.861,12.33-10.117c2.521-1.828,5.377-3.901,6.225-4.747     c1.322-1.324,2.414-4.324,2.732-5.568c0.688-2.67,3.398-4.291,6.072-3.611c2.672,0.676,4.293,3.379,3.625,6.051     c-0.166,0.66-1.719,6.559-5.359,10.2c-1.338,1.338-3.691,3.064-7.424,5.771c-3.564,2.588-8.953,6.492-10.434,8.32     c-2.217,2.732-5.135,8.484-6.566,12.289c1.414,0.398,2.939,0.605,4.578,0.605c7.219,0,15.18-3.893,21.297-10.408     c5.012-5.338,8.184-11.725,8.924-17.986c0.678-5.694-0.777-10.551-4.102-13.668C392.885,242.818,388.875,242.193,386.069,242.193     z" fill="#EDEBEB"/><path d="M276.709,223.87l10.771,82.311H468.51l10.779-82.311H276.709z M410.09,260.642     c-1,8.367-5.1,16.77-11.57,23.648c-7.971,8.5-18.658,13.57-28.588,13.57c-4.77,0-9.27-1.191-13.01-3.432     c-0.131-0.08-0.24-0.172-0.371-0.25c-0.02-0.012-0.039-0.021-0.049-0.029c-1.211-0.771-2.359-1.629-3.4-2.602     c-11.311-10.631-9.35-31.17,4.381-45.792c7.971-8.5,18.66-13.567,28.588-13.567c6.609,0,12.432,2.188,16.83,6.31     C408.59,243.851,411.151,251.71,410.09,260.642z" fill="#66B7E6"/><polygon fill="#CEACA4" points="466.879,213.87 474,166.062 282,166.062 289.129,213.87    "/><polygon fill="#EDEBEB" points="447.08,87.55 308.92,87.55 297.379,116.37 458.621,116.37    "/><path d="M310.522,377.49v0.01l0.92,4.98c1.83,4.791,6.459,7.971,11.59,7.971h109.93     c5.16,0,9.789-3.201,11.609-7.99l0.891-4.881c0.01-0.059,0.021-0.107,0.039-0.17l11.061-61.229H299.44L310.522,377.49z" fill="#CEACA4"/><path d="M402.901,238.499c-4.4-4.119-10.221-6.31-16.83-6.31c-9.93,0-20.619,5.067-28.59,13.567     c-13.729,14.622-15.689,35.161-4.379,45.792c1.039,0.973,2.189,1.83,3.398,2.602c0.01,0.01,0.029,0.02,0.051,0.029     c0.131,0.078,0.24,0.17,0.369,0.25c3.74,2.238,8.24,3.432,13.012,3.432c9.93,0,20.619-5.07,28.588-13.57     c6.471-6.881,10.57-15.281,11.57-23.648C411.151,251.71,408.59,243.851,402.901,238.499z M400.16,259.461     c-0.75,6.262-3.92,12.65-8.93,17.99c-6.109,6.521-14.082,10.41-21.299,10.41c-1.631,0-3.16-0.211-4.57-0.611     c1.43-3.799,4.35-9.559,6.561-12.289c1.479-1.83,6.869-5.729,10.439-8.318c3.73-2.711,6.08-4.432,7.422-5.771     c3.639-3.641,5.188-9.542,5.357-10.202c0.67-2.67-0.949-5.379-3.631-6.049c-2.67-0.68-5.381,0.939-6.068,3.609     c-0.318,1.24-1.408,4.24-2.729,5.568c-0.852,0.842-3.711,2.922-6.23,4.75c-5.859,4.25-10.182,7.473-12.33,10.109     c-1.869,2.32-4.73,7.141-6.852,11.92c-3.629-7.479-0.799-19.17,7.471-27.979c6.109-6.521,14.08-10.408,21.299-10.408     c2.803,0,6.813,0.629,9.98,3.6C399.379,248.909,400.83,253.772,400.16,259.461z" fill="#5E2D18"/><path d="M351.03,400.451h-28c-9.459,0-17.93-5.971-21.109-14.871     c-0.039-0.09-0.068-0.18-0.1-0.27c-0.721-2.063-1.109-4.211-1.199-6.4l-11.352-62.729h-6.18c-2.51,0-4.631-1.859-4.939-4.352     l-12.09-92.31c-0.182-1.433,0.25-2.87,1.199-3.95s2.32-1.699,3.75-1.699h8.01l-7.141-47.811h-8.629c-2.75,0-5-2.24-5-5v-39.69     c0-2.76,2.25-5,5-5h23.359l14.27-35.68c0.771-1.892,2.602-3.142,4.641-3.142h28c-2.039,0-3.869,1.25-4.641,3.142l-2.738,6.858     l-11.531,28.82H291.25c-2.75,0-5,2.24-5,5v39.69c0,2.76,2.25,5,5,5h8.631l7.141,47.811h-8.012c-1.43,0-2.799,0.619-3.75,1.699     c-0.949,1.08-1.379,2.52-1.199,3.95l0.57,4.351l10.779,82.31l0.74,5.648c0.311,2.49,2.43,4.352,4.939,4.352h6.18l11.352,62.729     c0.09,2.189,0.479,4.34,1.199,6.4c0.029,0.09,0.061,0.18,0.1,0.27c0.621,1.74,1.451,3.371,2.451,4.871     C336.459,396.59,343.42,400.451,351.03,400.451z" enable-background="new    " fill="#010101" opacity="0.1"/><path d="M492.75,116.37h-23.369l-14.26-35.68c-0.76-1.892-2.611-3.142-4.65-3.142H305.522     c-2.041,0-3.871,1.25-4.641,3.142l-14.271,35.68H263.25c-2.75,0-5,2.24-5,5v39.69c0,2.76,2.25,5,5,5h8.631l7.141,47.811h-8.012     c-1.43,0-2.799,0.619-3.75,1.699c-0.949,1.08-1.379,2.52-1.199,3.95l12.09,92.309c0.311,2.49,2.432,4.352,4.939,4.352h6.182     l11.35,62.729c0.09,2.189,0.48,4.34,1.199,6.4c0.031,0.09,0.061,0.18,0.102,0.27c3.18,8.9,11.648,14.871,21.109,14.871h109.93     c9.49,0,17.959-5.979,21.119-14.871c0.041-0.09,0.07-0.18,0.111-0.277c0.699-2.063,1.107-4.213,1.188-6.393l11.34-62.729h6.182     c2.521,0,4.641-1.859,4.971-4.352l12.08-92.309c0.17-1.433-0.25-2.87-1.201-3.95c-0.959-1.08-2.328-1.699-3.77-1.699h-8     l7.141-47.811h8.629c2.762,0,5-2.24,5-5v-39.69C497.75,118.61,495.51,116.37,492.75,116.37z M308.92,87.55h138.16l11.539,28.82     h-161.24L308.92,87.55z M445.5,377.41c-0.02,0.063-0.029,0.111-0.039,0.17l-0.891,4.881c-1.82,4.789-6.449,7.99-11.609,7.99     H323.03c-5.129,0-9.76-3.18-11.59-7.971l-0.92-4.98v-0.01l-11.08-61.311h157.121L445.5,377.41z M479.291,223.87l-10.781,82.311     H287.481l-10.77-82.311H479.291z M474,166.062l-7.119,47.811H289.129L282,166.062H474z M487.75,156.062h-219.5v-29.69h219.5     V156.062z" fill="#5E2D18"/></g><g><polygon fill="#EDEBEB" points="46.001,126.37 24.251,126.37 24.251,156.062 32.191,156.062 235.8,156.062 243.751,156.062      243.751,126.37 222.001,126.37    "/><path d="M142.069,242.193c-7.22,0-15.184,3.891-21.302,10.408c-8.265,8.805-11.097,20.493-7.467,27.979     c2.123-4.777,4.979-9.602,6.854-11.916c2.146-2.645,6.464-5.861,12.329-10.117c2.521-1.828,5.378-3.901,6.225-4.747     c1.323-1.324,2.414-4.324,2.733-5.568c0.687-2.67,3.398-4.291,6.072-3.611c2.672,0.676,4.293,3.379,3.625,6.051     c-0.166,0.66-1.719,6.559-5.359,10.2c-1.338,1.338-3.692,3.064-7.424,5.771c-3.565,2.588-8.953,6.492-10.435,8.32     c-2.216,2.732-5.134,8.484-6.565,12.289c1.414,0.398,2.939,0.605,4.577,0.605c7.22,0,15.181-3.893,21.298-10.408     c5.012-5.338,8.183-11.725,8.924-17.986c0.677-5.694-0.778-10.551-4.102-13.668C148.886,242.818,144.876,242.193,142.069,242.193     z" fill="#EDEBEB"/><path d="M32.71,223.87l10.771,82.311h181.03l10.778-82.311H32.71z M166.091,260.642     c-1,8.367-5.101,16.77-11.57,23.648c-7.971,8.5-18.658,13.57-28.588,13.57c-4.771,0-9.271-1.191-13.011-3.432     c-0.13-0.08-0.239-0.172-0.37-0.25c-0.021-0.012-0.04-0.021-0.05-0.029c-1.21-0.771-2.359-1.629-3.399-2.602     c-11.311-10.631-9.351-31.17,4.38-45.792c7.971-8.5,18.66-13.567,28.589-13.567c6.609,0,12.431,2.188,16.83,6.31     C164.591,243.851,167.151,251.71,166.091,260.642z" fill="#E8DF60"/><polygon fill="#CEACA4" points="222.88,213.87 230.001,166.062 38.001,166.062 45.13,213.87    "/><polygon fill="#EDEBEB" points="203.08,87.55 64.92,87.55 53.38,116.37 214.621,116.37    "/><path d="M66.522,377.49v0.01l0.92,4.98c1.83,4.791,6.46,7.971,11.59,7.971h109.931     c5.159,0,9.789-3.201,11.608-7.99l0.892-4.881c0.01-0.059,0.021-0.107,0.039-0.17l11.061-61.229H55.441L66.522,377.49z" fill="#CEACA4"/><path d="M158.901,238.499c-4.399-4.119-10.221-6.31-16.83-6.31c-9.929,0-20.619,5.067-28.589,13.567     c-13.729,14.622-15.689,35.161-4.38,45.792c1.04,0.973,2.189,1.83,3.399,2.602c0.01,0.01,0.029,0.02,0.05,0.029     c0.131,0.078,0.24,0.17,0.37,0.25c3.74,2.238,8.24,3.432,13.011,3.432c9.93,0,20.62-5.07,28.588-13.57     c6.472-6.881,10.57-15.281,11.57-23.648C167.151,251.71,164.591,243.851,158.901,238.499z M156.161,259.461     c-0.75,6.262-3.921,12.65-8.931,17.99c-6.108,6.521-14.081,10.41-21.299,10.41c-1.631,0-3.16-0.211-4.57-0.611     c1.431-3.799,4.351-9.559,6.561-12.289c1.479-1.83,6.87-5.729,10.44-8.318c3.729-2.711,6.08-4.432,7.421-5.771     c3.639-3.641,5.188-9.542,5.358-10.202c0.67-2.67-0.949-5.379-3.631-6.049c-2.67-0.68-5.381,0.939-6.068,3.609     c-0.319,1.24-1.409,4.24-2.729,5.568c-0.851,0.842-3.711,2.922-6.23,4.75c-5.859,4.25-10.181,7.473-12.33,10.109     c-1.869,2.32-4.729,7.141-6.851,11.92c-3.63-7.479-0.8-19.17,7.471-27.979c6.109-6.521,14.08-10.408,21.299-10.408     c2.802,0,6.812,0.629,9.979,3.6C155.38,248.909,156.831,253.772,156.161,259.461z" fill="#5E2D18"/><path d="M107.031,400.451h-28c-9.46,0-17.93-5.971-21.109-14.871     c-0.04-0.09-0.069-0.18-0.101-0.27c-0.72-2.063-1.109-4.211-1.199-6.4l-11.351-62.729H39.09c-2.51,0-4.63-1.859-4.939-4.352     l-12.09-92.31c-0.181-1.433,0.25-2.87,1.199-3.95c0.95-1.08,2.32-1.699,3.75-1.699h8.011L27.88,166.06h-8.63c-2.75,0-5-2.24-5-5     v-39.69c0-2.76,2.25-5,5-5H42.61L56.88,80.69c0.771-1.892,2.601-3.142,4.641-3.142h28c-2.04,0-3.87,1.25-4.641,3.142     l-2.739,6.858l-11.53,28.82H47.251c-2.75,0-5,2.24-5,5v39.69c0,2.76,2.25,5,5,5h8.63l7.141,47.811h-8.011     c-1.43,0-2.8,0.619-3.75,1.699c-0.949,1.08-1.38,2.52-1.199,3.95l0.569,4.351l10.78,82.31l0.739,5.648     c0.311,2.49,2.431,4.352,4.939,4.352h6.181l11.351,62.729c0.09,2.189,0.479,4.34,1.199,6.4c0.03,0.09,0.061,0.18,0.101,0.27     c0.62,1.74,1.45,3.371,2.45,4.871C92.46,396.59,99.42,400.451,107.031,400.451z" enable-background="new    " fill="#010101" opacity="0.1"/><path d="M248.751,116.37h-23.369l-14.261-35.68c-0.76-1.892-2.61-3.142-4.649-3.142H61.522     c-2.04,0-3.87,1.25-4.641,3.142l-14.271,35.68H19.251c-2.75,0-5,2.24-5,5v39.69c0,2.76,2.25,5,5,5h8.63l7.141,47.811h-8.011     c-1.43,0-2.8,0.619-3.75,1.699c-0.949,1.08-1.38,2.52-1.199,3.95l12.09,92.309c0.311,2.49,2.431,4.352,4.939,4.352h6.181     l11.351,62.729c0.09,2.189,0.479,4.34,1.199,6.4c0.03,0.09,0.061,0.18,0.101,0.27c3.181,8.9,11.649,14.871,21.109,14.871h109.931     c9.489,0,17.959-5.979,21.118-14.871c0.041-0.09,0.07-0.18,0.111-0.277c0.699-2.063,1.107-4.213,1.188-6.393l11.34-62.729h6.182     c2.521,0,4.641-1.859,4.971-4.352l12.08-92.309c0.17-1.433-0.25-2.87-1.201-3.95c-0.959-1.08-2.329-1.699-3.77-1.699h-8     l7.141-47.811h8.629c2.761,0,5-2.24,5-5v-39.69C253.751,118.61,251.511,116.37,248.751,116.37z M64.92,87.55h138.16l11.539,28.82     H53.38L64.92,87.55z M201.501,377.41c-0.021,0.063-0.029,0.111-0.039,0.17l-0.892,4.881c-1.819,4.789-6.449,7.99-11.608,7.99     H79.031c-5.13,0-9.76-3.18-11.59-7.971l-0.92-4.98v-0.01l-11.08-61.311h157.121L201.501,377.41z M235.291,223.87l-10.78,82.311     H43.482L32.711,223.87H235.291z M230.001,166.062l-7.119,47.811H45.13l-7.129-47.811H230.001z M243.751,156.062h-219.5v-29.69     h219.5V156.062z" fill="#5E2D18"/></g></g><g><polygon fill="#EDEBEB" points="168,160.37 146.25,160.37 146.25,190.062 154.19,190.062 357.799,190.062 365.75,190.062     365.75,160.37 344,160.37   "/><path d="M264.068,276.193c-7.22,0-15.184,3.891-21.302,10.408c-8.265,8.805-11.097,20.492-7.467,27.979    c2.123-4.777,4.979-9.602,6.854-11.916c2.146-2.645,6.464-5.861,12.329-10.117c2.521-1.828,5.378-3.9,6.225-4.746    c1.323-1.324,2.414-4.324,2.733-5.568c0.687-2.67,3.398-4.291,6.072-3.611c2.672,0.676,4.293,3.379,3.625,6.051    c-0.166,0.66-1.719,6.559-5.359,10.199c-1.338,1.338-3.692,3.064-7.424,5.771c-3.565,2.588-8.953,6.492-10.435,8.32    c-2.216,2.732-5.134,8.484-6.565,12.289c1.414,0.398,2.939,0.605,4.577,0.605c7.22,0,15.181-3.893,21.298-10.408    c5.012-5.338,8.183-11.725,8.924-17.986c0.677-5.693-0.778-10.551-4.102-13.668C270.885,276.818,266.875,276.193,264.068,276.193z    " fill="#EDEBEB"/><path d="M154.709,257.871l10.771,82.311h181.03l10.778-82.311H154.709z M288.09,294.642    c-1,8.367-5.101,16.77-11.57,23.648c-7.971,8.5-18.658,13.57-28.588,13.57c-4.771,0-9.271-1.191-13.011-3.432    c-0.13-0.08-0.239-0.172-0.37-0.25c-0.021-0.012-0.04-0.021-0.05-0.029c-1.21-0.771-2.359-1.629-3.399-2.602    c-11.311-10.631-9.351-31.17,4.38-45.791c7.971-8.5,18.66-13.568,28.589-13.568c6.609,0,12.431,2.189,16.83,6.311    C286.59,277.851,289.15,285.711,288.09,294.642z" fill="#EE6F61"/><polygon fill="#CEACA4" points="344.879,247.87 352,200.062 160,200.062 167.129,247.87   "/><polygon fill="#EDEBEB" points="325.079,121.55 186.919,121.55 175.379,150.37 336.62,150.37   "/><path d="M188.521,411.49v0.01l0.92,4.98c1.83,4.791,6.46,7.971,11.59,7.971h109.931    c5.159,0,9.789-3.201,11.608-7.99l0.892-4.881c0.01-0.059,0.021-0.107,0.039-0.17l11.061-61.229H177.44L188.521,411.49z" fill="#CEACA4"/><path d="M280.9,272.5c-4.399-4.119-10.221-6.311-16.83-6.311c-9.929,0-20.619,5.068-28.589,13.568    c-13.729,14.621-15.689,35.16-4.38,45.791c1.04,0.973,2.189,1.83,3.399,2.602c0.01,0.01,0.029,0.02,0.05,0.029    c0.131,0.078,0.24,0.17,0.37,0.25c3.74,2.238,8.24,3.432,13.011,3.432c9.93,0,20.62-5.07,28.588-13.57    c6.472-6.881,10.57-15.281,11.57-23.648C289.15,285.711,286.59,277.851,280.9,272.5z M278.16,293.461    c-0.75,6.262-3.921,12.65-8.931,17.99c-6.108,6.521-14.081,10.41-21.299,10.41c-1.631,0-3.16-0.211-4.57-0.611    c1.431-3.799,4.351-9.559,6.561-12.289c1.479-1.83,6.87-5.729,10.44-8.318c3.729-2.711,6.08-4.432,7.421-5.771    c3.639-3.641,5.188-9.541,5.358-10.201c0.67-2.67-0.949-5.379-3.631-6.049c-2.67-0.68-5.381,0.939-6.068,3.609    c-0.319,1.24-1.409,4.24-2.729,5.568c-0.851,0.842-3.711,2.922-6.23,4.75c-5.859,4.25-10.181,7.473-12.33,10.109    c-1.869,2.32-4.729,7.141-6.851,11.92c-3.63-7.479-0.8-19.17,7.471-27.979c6.109-6.521,14.08-10.408,21.299-10.408    c2.802,0,6.812,0.629,9.979,3.6C277.379,282.91,278.83,287.771,278.16,293.461z" fill="#5E2D18"/><path d="M229.03,434.451h-28c-9.46,0-17.93-5.971-21.109-14.871    c-0.04-0.09-0.069-0.18-0.101-0.27c-0.72-2.063-1.109-4.211-1.199-6.4l-11.351-62.729h-6.181c-2.51,0-4.63-1.859-4.939-4.352    l-12.09-92.31c-0.181-1.433,0.25-2.87,1.199-3.95c0.95-1.08,2.32-1.699,3.75-1.699h8.011l-7.141-47.811h-8.63c-2.75,0-5-2.24-5-5    v-39.69c0-2.76,2.25-5,5-5h23.359l14.271-35.68c0.771-1.892,2.601-3.142,4.641-3.142h28c-2.04,0-3.87,1.25-4.641,3.142    l-2.739,6.858l-11.53,28.82H169.25c-2.75,0-5,2.24-5,5v39.69c0,2.76,2.25,5,5,5h8.63l7.141,47.811h-8.011    c-1.43,0-2.8,0.619-3.75,1.699c-0.949,1.08-1.38,2.52-1.199,3.95l0.569,4.35l10.78,82.311l0.739,5.648    c0.311,2.49,2.431,4.352,4.939,4.352h6.181l11.351,62.729c0.09,2.189,0.479,4.34,1.199,6.4c0.03,0.09,0.061,0.18,0.101,0.27    c0.62,1.74,1.45,3.371,2.45,4.871C214.459,430.59,221.419,434.451,229.03,434.451z" enable-background="new    " fill="#010101" opacity="0.1"/><path d="M370.75,150.37h-23.369l-14.261-35.68c-0.76-1.892-2.61-3.142-4.649-3.142h-144.95    c-2.04,0-3.87,1.25-4.641,3.142l-14.271,35.68H141.25c-2.75,0-5,2.24-5,5v39.69c0,2.76,2.25,5,5,5h8.63l7.141,47.811h-8.011    c-1.43,0-2.8,0.619-3.75,1.699c-0.949,1.08-1.38,2.52-1.199,3.95l12.09,92.309c0.311,2.49,2.431,4.352,4.939,4.352h6.181    l11.351,62.729c0.09,2.189,0.479,4.34,1.199,6.4c0.03,0.09,0.061,0.18,0.101,0.27c3.181,8.9,11.649,14.871,21.109,14.871h109.931    c9.489,0,17.959-5.979,21.118-14.871c0.041-0.09,0.07-0.18,0.111-0.277c0.699-2.063,1.107-4.213,1.188-6.393l11.34-62.729h6.182    c2.521,0,4.641-1.859,4.971-4.352l12.08-92.309c0.17-1.433-0.25-2.87-1.201-3.95c-0.959-1.08-2.329-1.699-3.77-1.699h-8    l7.141-47.811h8.629c2.761,0,5-2.24,5-5v-39.69C375.75,152.61,373.51,150.37,370.75,150.37z M186.919,121.55h138.16l11.539,28.82    H175.379L186.919,121.55z M323.5,411.41c-0.021,0.063-0.029,0.111-0.039,0.17l-0.892,4.881c-1.819,4.789-6.449,7.99-11.608,7.99    H201.03c-5.13,0-9.76-3.18-11.59-7.971l-0.92-4.98v-0.01l-11.08-61.311h157.121L323.5,411.41z M357.29,257.871l-10.78,82.311    H165.481l-10.771-82.311H357.29z M352,200.062l-7.119,47.811H167.129L160,200.062H352z M365.75,190.062h-219.5v-29.69h219.5    V190.062z" fill="#5E2D18"/></g></g></svg>