<?xml version="1.0" ?><!DOCTYPE svg  PUBLIC '-//W3C//DTD SVG 1.1//EN'  'http://www.w3.org/Graphics/SVG/1.1/DTD/svg11.dtd'><svg enable-background="new 0 0 512 512" height="512px" id="Layer_1" version="1.1" viewBox="0 0 512 512" width="512px" xml:space="preserve" xmlns="http://www.w3.org/2000/svg" xmlns:xlink="http://www.w3.org/1999/xlink"><g><path d="M492.873,271.645l-473.771,0.031c-8.347,0.03-15.65,5.377-18.175,13.279   c-0.605,1.865-0.92,3.822-0.92,5.847v0.408c0,0.32,0.031,0.666,0.062,1.111c0.068,0.346,0.13,0.753,0.222,1.197l0.253,1.136   l0.537,1.044l3.575,6.988l0.759,1.451l0.124,0.253l1.488,1.235c0.031,0.03,0.093,0.062,0.124,0.093   c0.476,0.383,0.981,0.759,1.488,1.111c0.852,0.567,1.772,1.074,2.716,1.481c0.445,0.191,0.852,0.383,1.328,0.537   c0.476,0.16,1.013,0.321,1.519,0.476c0,0,0.031,0,0.062,0c0.506,0.16,1.043,0.253,1.55,0.346c0.537,0.099,1.074,0.191,1.642,0.222   c0.537,0.068,1.074,0.099,1.648,0.099h0.254l467.387-0.067h6.101c1.327,0,2.624-0.124,3.858-0.377c0.76-0.16,1.481-0.346,2.21-0.63   c0.476-0.129,0.92-0.32,1.358-0.506c0.506-0.191,0.981-0.444,1.457-0.697c0.476-0.223,0.914-0.476,1.327-0.76   c0.315-0.154,0.6-0.346,0.883-0.599c0.13-0.063,0.254-0.161,0.383-0.284c0.346-0.223,0.692-0.507,1.044-0.821   c1.229-1.043,2.303-2.247,3.223-3.574c0.253-0.347,0.476-0.729,0.729-1.137c0.186-0.284,0.346-0.599,0.5-0.92   c0.223-0.438,0.444-0.883,0.605-1.327c0.222-0.407,0.376-0.821,0.475-1.229c0.154-0.321,0.254-0.636,0.315-0.981   c0.185-0.507,0.314-1.044,0.407-1.55c0.068-0.284,0.099-0.568,0.13-0.852c0.093-0.383,0.123-0.76,0.154-1.143   c0.067-0.568,0.099-1.136,0.099-1.704C512,280.245,503.399,271.645,492.873,271.645z M502.388,292.253   c-0.031,0.253-0.063,0.476-0.124,0.729c-0.223,1.044-0.636,2.025-1.204,2.908c-0.185,0.284-0.376,0.567-0.599,0.852   c-0.16,0.223-0.346,0.444-0.568,0.667c-0.253,0.284-0.537,0.568-0.852,0.821c-0.253,0.222-0.506,0.413-0.79,0.567   c-0.507,0.353-1.044,0.637-1.648,0.89c-0.284,0.123-0.568,0.216-0.883,0.314c-0.599,0.186-1.204,0.315-1.864,0.377   c-0.315,0.031-0.637,0.062-0.982,0.062c0,0,0,0-0.03,0l-473.741,0.068c-2.278,0-4.364-0.821-6.007-2.186l-0.031-0.031L9.52,291.37   c-0.031-0.16-0.031-0.314-0.031-0.506c0-1.044,0.161-2.057,0.476-3.001c1.234-3.89,4.865-6.674,9.137-6.705l473.771-0.03   c5.279,0,9.644,4.334,9.644,9.674C502.517,291.309,502.486,291.784,502.388,292.253z" fill="#4F3F38"/><path d="M496.571,201.756c-4.896-18.274-14.7-34.962-28.351-48.267c-19.886-19.35-46.125-30.03-73.938-30.03   H111.815c-7.903,0.031-15.651,0.883-23.048,2.525c-17.576,3.858-34.073,12.36-47.668,24.528   c-15.36,13.75-26.301,31.487-31.61,51.306l-3.192,11.915h12.36l465.523-0.062h3.191l12.422,0.093L496.571,201.756z    M484.181,204.188l-465.523,0.063c4.902-18.238,15.046-34.389,28.765-46.656c12.106-10.872,26.998-18.744,43.464-22.35   c6.735-1.513,13.749-2.272,20.93-2.303h67.073l0.03,24.967c0,4.427,3.667,8.255,8.224,8.255c0.031,0,0.031,0,0.031,0h0.03   c4.551,0,8.249-3.828,8.249-8.255v-24.967h48.804v24.967c0,4.427,3.698,8.255,8.286,8.285c4.55,0,8.279-3.827,8.279-8.285   l-0.031-24.967h48.712v24.967c0,4.427,3.828,8.255,8.378,8.255c0.031,0,0.031,0,0.031,0c4.58,0,8.155-3.828,8.155-8.255   l-0.031-24.967h68.246c26.172,0,49.94,10.428,67.326,27.338c12.206,11.885,21.275,26.998,25.795,43.908H484.181z M413.909,167.016   c-4.204,0.031-7.649,3.445-7.68,7.52c0,4.205,3.444,7.687,7.618,7.687c0.031,0,0.031,0,0.031,0c4.234,0,7.557-3.444,7.557-7.687   C421.404,170.492,418.113,167.047,413.909,167.016z M370.1,144.92c-0.031,0-0.062,0-0.062,0c-0.031,0-0.031,0-0.063,0   c-4.271,0-7.841,3.605-7.871,8.032c0,4.297,3.6,7.902,7.934,7.933c4.457-0.03,7.995-3.605,8.025-7.933   C378.063,148.525,374.526,144.92,370.1,144.92z M221.34,178.425c-0.031,0-0.031,0-0.031,0c-0.03,0-0.03,0-0.03,0   c-3.477,0-6.291,2.815-6.291,6.421c-0.031,3.445,2.814,6.285,6.291,6.285c0,0,0,0,0.03,0c3.514,0,6.384-2.778,6.384-6.223   c0-0.031,0-0.031,0-0.063C227.692,181.24,224.884,178.425,221.34,178.425z M115.514,159.113c-3.198,0.031-5.915,2.624-5.915,5.939   c-0.03,3.353,2.686,5.945,5.915,5.945c3.315,0,6.038-2.593,6.068-5.945C121.582,161.737,118.859,159.145,115.514,159.113z    M53.269,180.543c-0.031,0-0.031,0-0.031,0c-3.853,0-6.921,3.1-6.921,6.89c0,3.828,3.1,6.928,6.921,6.928   c3.858,0,6.921-3.1,6.921-6.928C60.158,183.643,57.096,180.543,53.269,180.543z M53.269,180.543c-0.031,0-0.031,0-0.031,0   c-3.853,0-6.921,3.1-6.921,6.89c0,3.828,3.1,6.928,6.921,6.928c3.858,0,6.921-3.1,6.921-6.928   C60.158,183.643,57.096,180.543,53.269,180.543z M221.34,178.425c-0.031,0-0.031,0-0.031,0c-0.03,0-0.03,0-0.03,0   c-3.477,0-6.291,2.815-6.291,6.421c-0.031,3.445,2.814,6.285,6.291,6.285c0,0,0,0,0.03,0c3.514,0,6.384-2.778,6.384-6.223   c0-0.031,0-0.031,0-0.063C227.692,181.24,224.884,178.425,221.34,178.425z M413.909,167.016c-4.204,0.031-7.649,3.445-7.68,7.52   c0,4.205,3.444,7.687,7.618,7.687c0.031,0,0.031,0,0.031,0c4.234,0,7.557-3.444,7.557-7.687   C421.404,170.492,418.113,167.047,413.909,167.016z M115.514,159.113c-3.198,0.031-5.915,2.624-5.915,5.939   c-0.03,3.353,2.686,5.945,5.915,5.945c3.315,0,6.038-2.593,6.068-5.945C121.582,161.737,118.859,159.145,115.514,159.113z    M370.1,144.92c-0.031,0-0.062,0-0.062,0c-0.031,0-0.031,0-0.063,0c-4.271,0-7.841,3.605-7.871,8.032   c0,4.297,3.6,7.902,7.934,7.933c4.457-0.03,7.995-3.605,8.025-7.933C378.063,148.525,374.526,144.92,370.1,144.92z    M413.909,167.016c-4.204,0.031-7.649,3.445-7.68,7.52c0,4.205,3.444,7.687,7.618,7.687c0.031,0,0.031,0,0.031,0   c4.234,0,7.557-3.444,7.557-7.687C421.404,170.492,418.113,167.047,413.909,167.016z M370.1,144.92c-0.031,0-0.062,0-0.062,0   c-0.031,0-0.031,0-0.063,0c-4.271,0-7.841,3.605-7.871,8.032c0,4.297,3.6,7.902,7.934,7.933c4.457-0.03,7.995-3.605,8.025-7.933   C378.063,148.525,374.526,144.92,370.1,144.92z M221.34,178.425c-0.031,0-0.031,0-0.031,0c-0.03,0-0.03,0-0.03,0   c-3.477,0-6.291,2.815-6.291,6.421c-0.031,3.445,2.814,6.285,6.291,6.285c0,0,0,0,0.03,0c3.514,0,6.384-2.778,6.384-6.223   c0-0.031,0-0.031,0-0.063C227.692,181.24,224.884,178.425,221.34,178.425z M115.514,159.113c-3.198,0.031-5.915,2.624-5.915,5.939   c-0.03,3.353,2.686,5.945,5.915,5.945c3.315,0,6.038-2.593,6.068-5.945C121.582,161.737,118.859,159.145,115.514,159.113z    M53.269,180.543c-0.031,0-0.031,0-0.031,0c-3.853,0-6.921,3.1-6.921,6.89c0,3.828,3.1,6.928,6.921,6.928   c3.858,0,6.921-3.1,6.921-6.928C60.158,183.643,57.096,180.543,53.269,180.543z" fill="#4F3F38"/><path d="M461.608,160.28c-17.386-16.91-41.154-27.338-67.326-27.338h-68.246l0.031,24.967   c0,4.427-3.575,8.255-8.155,8.255c0,0,0,0-0.031,0c-4.55,0-8.378-3.828-8.378-8.255v-24.967h-48.712l0.031,24.967   c0,4.458-3.729,8.285-8.279,8.285c-4.588-0.03-8.286-3.858-8.286-8.285v-24.967h-48.804v24.967c0,4.427-3.698,8.255-8.249,8.255   h-0.03c0,0,0,0-0.031,0c-4.557,0-8.224-3.828-8.224-8.255l-0.03-24.967h-67.073c-7.181,0.03-14.194,0.79-20.93,2.303   c-16.466,3.605-31.357,11.478-43.464,22.35c-13.719,12.268-23.862,28.418-28.765,46.656l465.523-0.063h3.223   C482.884,187.278,473.814,172.165,461.608,160.28z M53.237,194.36c-3.821,0-6.921-3.1-6.921-6.928c0-3.79,3.068-6.89,6.921-6.89   c0,0,0,0,0.031,0c3.827,0,6.89,3.1,6.89,6.89C60.158,191.261,57.096,194.36,53.237,194.36z M115.514,170.998   c-3.229,0-5.945-2.593-5.915-5.945c0-3.315,2.717-5.908,5.915-5.939c3.346,0.031,6.068,2.624,6.068,5.939   C121.552,168.405,118.829,170.998,115.514,170.998z M227.692,184.908c0,3.444-2.87,6.223-6.384,6.223c-0.03,0-0.03,0-0.03,0   c-3.477,0-6.322-2.84-6.291-6.285c0-3.605,2.814-6.421,6.291-6.421c0,0,0,0,0.03,0c0,0,0,0,0.031,0   c3.544,0,6.353,2.815,6.353,6.421C227.692,184.877,227.692,184.877,227.692,184.908z M370.038,160.885   c-4.334-0.03-7.934-3.636-7.934-7.933c0.03-4.427,3.6-8.032,7.871-8.032c0.031,0,0.031,0,0.063,0c0,0,0.03,0,0.062,0   c4.427,0,7.964,3.605,7.964,8.032C378.033,157.279,374.495,160.854,370.038,160.885z M413.879,182.222c0,0,0,0-0.031,0   c-4.174,0-7.618-3.481-7.618-7.687c0.03-4.074,3.476-7.488,7.68-7.52c4.204,0.031,7.495,3.477,7.526,7.52   C421.436,178.777,418.113,182.222,413.879,182.222z" fill="#E8C746"/><path d="M496.701,309.546l-0.16,0.599c-12.33,46.15-54.337,78.365-102.228,78.396H111.815   c-33.413,0-64.141-15.206-84.273-41.729c-7.558-9.859-13.219-20.893-16.88-32.777c-0.475-1.389-0.827-2.686-1.111-3.821   l-0.914-3.383c0.852,0.567,1.772,1.074,2.716,1.481c0.445,0.191,0.889,0.383,1.328,0.537c0.506,0.16,1.013,0.321,1.519,0.476   c0,0,0.031,0,0.062,0c0.506,0.16,1.013,0.253,1.55,0.346c0.537,0.099,1.074,0.191,1.642,0.222c0.537,0.068,1.111,0.099,1.648,0.099   h0.254c0.092,0.377,0.185,0.76,0.314,1.137c3.384,10.939,8.631,21.053,15.392,29.968c17.577,23.103,45.428,37.963,76.754,37.963   h282.498c43.779-0.03,80.729-29.146,92.429-69.135h6.101C494.17,309.923,495.467,309.799,496.701,309.546z" fill="#4F3F38"/><path d="M511.994,290.846c0,0.567-0.031,1.136-0.093,1.704c-0.031,0.379-0.068,0.759-0.161,1.139   c-0.03,0.284-0.062,0.568-0.123,0.855c-0.099,0.503-0.223,1.043-0.414,1.546c-0.062,0.349-0.16,0.664-0.314,0.979   c-0.093,0.414-0.253,0.824-0.476,1.235c-0.16,0.444-0.376,0.883-0.599,1.327c-0.16,0.314-0.314,0.633-0.506,0.917   c-0.254,0.41-0.476,0.79-0.729,1.139c-0.914,1.327-1.988,2.528-3.223,3.568c-0.346,0.318-0.698,0.605-1.044,0.824   c-0.13,0.127-0.253,0.22-0.383,0.284c-0.284,0.253-0.567,0.441-0.883,0.603c-0.407,0.283-0.852,0.537-1.327,0.759   c-0.476,0.253-0.951,0.507-1.451,0.691c-0.444,0.191-0.889,0.383-1.364,0.507c-0.723,0.284-1.451,0.475-2.21,0.636   c-1.235,0.253-2.531,0.377-3.859,0.377h-6.1l-467.388,0.062h-0.253c-0.568,0-1.105-0.031-1.643-0.093   c-0.567-0.031-1.111-0.127-1.648-0.223c-0.5-0.093-1.043-0.188-1.543-0.346c-0.037,0-0.068,0-0.068,0   c-0.506-0.16-1.043-0.314-1.513-0.476c-0.476-0.157-0.889-0.346-1.328-0.537c-0.951-0.41-1.871-0.916-2.723-1.487   c-0.506-0.346-1.012-0.726-1.481-1.105c-0.037-0.03-0.099-0.062-0.13-0.093c-0.568-0.476-1.105-0.95-1.611-1.487   c-3.13-3.161-5.025-7.335-5.34-11.823C0.037,291.886,0,291.537,0,291.222v-0.41c0-2.022,0.321-3.982,0.92-5.85   c2.531-7.903,9.829-13.243,18.176-13.274l473.771-0.03C503.394,271.657,511.994,280.254,511.994,290.846z" fill="#4F3F38"/><path d="M486.742,309.923c-11.699,39.988-48.649,69.104-92.429,69.135H111.815   c-31.326,0-59.177-14.86-76.754-37.963c-6.761-8.915-12.008-19.028-15.392-29.968c-0.13-0.377-0.223-0.76-0.314-1.137   L486.742,309.923z" fill="#E8C746"/><path d="M487.058,230.489c-4.458,0-5.655-0.92-10.144-4.334c-6.199-4.741-15.521-11.915-32.469-11.946h-0.031   c-8.439,0-15.015,1.803-20.262,4.204c-5.248,2.371-9.132,5.372-12.23,7.742c-4.458,3.414-5.662,4.334-9.99,4.334   c-4.488,0-5.691-0.92-10.181-4.297c-6.192-4.778-15.552-11.952-32.493-11.952c-16.879,0-26.238,7.174-32.431,11.915   c-4.52,3.451-5.724,4.365-10.15,4.365c-4.39,0-5.594-0.951-10.082-4.365c-6.198-4.741-15.583-11.915-32.462-11.946   c-17.009,0.062-26.332,7.242-32.53,11.983c-4.458,3.414-5.655,4.328-9.989,4.328c-4.458,0-5.655-0.914-10.144-4.328   c-6.199-4.778-15.552-11.922-32.5-11.952c-16.879,0-26.232,7.174-32.431,11.915c-4.52,3.451-5.717,4.365-10.144,4.365   c-4.396,0-5.594-0.914-10.052-4.328c-6.198-4.741-15.552-11.922-32.4-11.922c-17.009,0-26.399,7.181-32.592,11.922   c-4.458,3.414-5.661,4.358-10.082,4.358c-4.427,0-5.6-0.944-10.051-4.327c-6.291-4.841-15.682-11.953-32.53-11.983   c-4.933,0.03-9.576,1.963-13.058,5.438c-3.476,3.507-5.371,8.125-5.371,13.021c0.031,10.149,8.286,18.397,18.398,18.397   c4.427,0.031,5.625,0.951,10.113,4.365c6.322,4.804,15.682,11.946,32.499,11.946c16.88,0,26.264-7.174,32.462-11.915   c4.52-3.445,5.724-4.365,10.021-4.365h0.191c4.297,0,5.501,0.92,9.952,4.303c6.229,4.772,15.589,11.947,32.438,11.947   c16.973,0,26.362-7.175,32.586-11.916c4.488-3.414,5.692-4.334,10.088-4.365c4.39,0.031,5.594,0.951,10.021,4.365h0.031   l0.123,0.093c6.199,4.711,15.583,11.823,32.37,11.854c16.94-0.03,26.301-7.205,32.462-11.946c4.525-3.445,5.724-4.334,9.989-4.334   h0.223c4.334,0,5.531,0.92,9.958,4.303c6.192,4.772,15.552,11.947,32.493,11.947c16.91,0,26.301-7.175,32.499-11.916   c4.489-3.445,5.655-4.365,10.113-4.365c4.365,0,5.563,0.92,10.021,4.297c6.26,4.81,15.645,11.953,32.462,11.953   c16.947,0,26.301-7.144,32.499-11.885c4.52-3.445,5.755-4.365,10.175-4.396c4.396,0.03,5.6,0.95,10.021,4.364   c6.322,4.804,15.712,11.947,32.53,11.947c4.933,0,9.575-1.927,13.051-5.439c3.482-3.477,5.409-8.125,5.409-13.052   C505.425,238.8,497.17,230.551,487.058,230.489z M486.996,257.896c-13.657,0-20.93-5.563-26.745-9.989   c-4.927-3.791-8.218-6.291-15.837-6.322c-7.587,0.031-10.902,2.531-15.866,6.322c-5.785,4.427-13.021,9.958-26.678,9.958   c0,0,0,0-0.03,0c0,0-0.037,0-0.068,0c-13.619,0-20.831-5.501-26.646-9.958c-4.964-3.791-8.248-6.291-15.805-6.291   c-0.031,0-0.031,0-0.063,0c-7.587,0-10.902,2.5-15.836,6.291c-5.784,4.457-13.058,9.989-26.714,9.989c0,0,0,0-0.031,0   c-13.656,0-20.893-5.532-26.708-9.989c-4.933-3.76-8.218-6.261-15.743-6.261h-0.223c-7.52,0-10.811,2.531-15.737,6.291   c-5.822,4.427-13.026,9.959-26.714,9.989c-13.688-0.03-20.893-5.563-26.739-9.989c-4.934-3.821-8.187-6.291-15.843-6.321   c-7.581,0.03-10.872,2.531-15.836,6.321c-5.815,4.427-13.051,9.959-26.708,9.959h-0.093c-13.625,0-20.83-5.532-26.652-9.959   c-4.927-3.76-8.218-6.291-15.737-6.291h-0.191c-7.525,0-10.811,2.531-15.774,6.291c-5.784,4.458-13.021,9.989-26.677,9.989H61.27   c-13.656,0-20.898-5.563-26.714-9.989c-4.964-3.76-8.218-6.291-15.867-6.321c0,0,0,0-0.031,0c-4.902,0-8.915-3.982-8.915-8.946   c0-4.896,4.013-8.915,8.946-8.946c13.688,0.031,20.923,5.563,26.745,9.989c4.958,3.828,8.248,6.292,15.836,6.322   c7.619-0.03,10.903-2.525,15.836-6.322c5.816-4.427,13.052-9.958,26.708-9.958h0.13c13.62,0,20.831,5.531,26.615,9.958   c4.964,3.797,8.218,6.292,15.806,6.292h0.031c7.649,0,10.902-2.495,15.866-6.292c5.816-4.457,13.027-9.989,26.678-9.989h0.03   c13.688,0,20.93,5.532,26.715,9.959c4.964,3.791,8.248,6.322,15.867,6.322c0,0,0,0,0.03,0h0.031c7.557,0,10.811-2.531,15.774-6.292   c5.815-4.457,13.058-9.989,26.714-10.02c13.688,0.03,20.924,5.563,26.739,10.02c4.964,3.797,8.248,6.261,15.836,6.292   c7.649,0,10.909-2.531,15.873-6.292c5.816-4.457,13.021-9.989,26.708-9.989c6.859,0,12.076,1.358,16.312,3.322   c4.235,1.926,7.489,4.426,10.397,6.637c4.963,3.791,8.254,6.291,15.873,6.291h0.092c7.558,0,10.842-2.531,15.744-6.291   c5.815-4.458,13.082-9.989,26.738-9.989c13.688,0.03,20.93,5.531,26.715,9.989c4.958,3.76,8.248,6.291,15.867,6.291c0,0,0,0,0.03,0   c4.934,0.031,8.915,3.982,8.946,8.946C495.973,253.883,491.96,257.896,486.996,257.896z" fill="#4F3F38"/><path d="M495.973,248.919c0,4.964-4.013,8.977-8.977,8.977c-13.657,0-20.93-5.563-26.745-9.989   c-4.927-3.791-8.218-6.291-15.837-6.322c-7.587,0.031-10.902,2.531-15.866,6.322c-5.785,4.427-13.021,9.958-26.678,9.958   c0,0,0,0-0.03,0c0,0-0.037,0-0.068,0c-13.619,0-20.831-5.501-26.646-9.958c-4.964-3.791-8.248-6.291-15.805-6.291   c-0.031,0-0.031,0-0.063,0c-7.587,0-10.902,2.5-15.836,6.291c-5.784,4.457-13.058,9.989-26.714,9.989c0,0,0,0-0.031,0   c-13.656,0-20.893-5.532-26.708-9.989c-4.933-3.76-8.218-6.261-15.743-6.261h-0.223c-7.52,0-10.811,2.531-15.737,6.291   c-5.822,4.427-13.026,9.959-26.714,9.989c-13.688-0.03-20.893-5.563-26.739-9.989c-4.934-3.821-8.187-6.291-15.843-6.321   c-7.581,0.03-10.872,2.531-15.836,6.321c-5.815,4.427-13.051,9.959-26.708,9.959h-0.093c-13.625,0-20.83-5.532-26.652-9.959   c-4.927-3.76-8.218-6.291-15.737-6.291h-0.191c-7.525,0-10.811,2.531-15.774,6.291c-5.784,4.458-13.021,9.989-26.677,9.989H61.27   c-13.656,0-20.898-5.563-26.714-9.989c-4.964-3.76-8.218-6.291-15.867-6.321c0,0,0,0-0.031,0c-4.902,0-8.915-3.982-8.915-8.946   c0-4.896,4.013-8.915,8.946-8.946c13.688,0.031,20.923,5.563,26.745,9.989c4.958,3.828,8.248,6.292,15.836,6.322   c7.619-0.03,10.903-2.525,15.836-6.322c5.816-4.427,13.052-9.958,26.708-9.958h0.13c13.62,0,20.831,5.531,26.615,9.958   c4.964,3.797,8.218,6.292,15.806,6.292h0.031c7.649,0,10.902-2.495,15.866-6.292c5.816-4.457,13.027-9.989,26.678-9.989h0.03   c13.688,0,20.93,5.532,26.715,9.959c4.964,3.791,8.248,6.322,15.867,6.322c0,0,0,0,0.03,0h0.031c7.557,0,10.811-2.531,15.774-6.292   c5.815-4.457,13.058-9.989,26.714-10.02c13.688,0.03,20.924,5.563,26.739,10.02c4.964,3.797,8.248,6.261,15.836,6.292   c7.649,0,10.909-2.531,15.873-6.292c5.816-4.457,13.021-9.989,26.708-9.989c6.859,0,12.076,1.358,16.312,3.322   c4.235,1.926,7.489,4.426,10.397,6.637c4.963,3.791,8.254,6.291,15.873,6.291h0.092c7.558,0,10.842-2.531,15.744-6.291   c5.815-4.458,13.082-9.989,26.738-9.989c13.688,0.03,20.93,5.531,26.715,9.989c4.958,3.76,8.248,6.291,15.867,6.291c0,0,0,0,0.03,0   C491.96,240.004,495.941,243.955,495.973,248.919z" fill="#DE7943"/></g></svg>