<?xml version="1.0" ?><!DOCTYPE svg  PUBLIC '-//W3C//DTD SVG 1.1//EN'  'http://www.w3.org/Graphics/SVG/1.1/DTD/svg11.dtd'><svg enable-background="new 0 0 128 128" height="128px" id="Layer_1" version="1.1" viewBox="0 0 128 128" width="128px" xml:space="preserve" xmlns="http://www.w3.org/2000/svg" xmlns:xlink="http://www.w3.org/1999/xlink"><g><path d="M64.038,27.477c4.509,0,7.751-1.06,8.23-2.101c-0.771-4.715-1.73-7.226-1.752-7.276   c-0.059-0.149-0.064-0.316-0.016-0.47c0.607-1.929,0.408-3.376-0.152-4.842c-0.021,0.015-0.037,0.036-0.061,0.045   c-0.162,0.062-0.332,0.121-0.508,0.177c-0.133,0.041-0.275,0.003-0.369-0.102c-0.148-0.167-0.33-0.24-0.5-0.209   c-0.199,0.039-0.365,0.215-0.447,0.472c-0.039,0.121-0.141,0.213-0.266,0.237c-0.248,0.05-0.504,0.094-0.766,0.133   c-0.129,0.019-0.244-0.028-0.322-0.121c-0.332-0.397-0.932-0.326-1.186,0.134c-0.059,0.104-0.166,0.173-0.285,0.18   c-0.258,0.017-0.518,0.032-0.784,0.04c-0.004,0-0.008,0-0.012,0c-0.102,0-0.2-0.045-0.267-0.122c-0.29-0.339-0.789-0.339-1.078,0   c-0.07,0.08-0.168,0.118-0.278,0.122c-0.268-0.008-0.527-0.023-0.784-0.04c-0.119-0.007-0.227-0.075-0.285-0.18   c-0.253-0.459-0.853-0.532-1.187-0.134c-0.078,0.094-0.196,0.141-0.321,0.121c-0.262-0.039-0.517-0.083-0.764-0.132   c-0.127-0.024-0.229-0.116-0.269-0.237c-0.081-0.258-0.249-0.434-0.447-0.473c-0.167-0.035-0.353,0.043-0.499,0.208   c-0.092,0.104-0.234,0.146-0.369,0.103c-0.177-0.056-0.347-0.115-0.508-0.177c-0.024-0.009-0.038-0.03-0.06-0.044   c-0.562,1.466-0.762,2.912-0.153,4.841c0.049,0.153,0.042,0.32-0.017,0.47c-0.021,0.051-0.98,2.562-1.751,7.276   C56.286,26.417,59.527,27.477,64.038,27.477z" fill="#CE8113"/><path d="M58.022,11.756c0.093,0.14,0.167,0.302,0.207,0.49c0.027,0.01,0.055,0.02,0.083,0.029   c0.29-0.235,0.645-0.337,0.987-0.267c0.39,0.076,0.716,0.35,0.902,0.747c0.121,0.021,0.243,0.043,0.367,0.062   c0.609-0.557,1.602-0.443,2.09,0.226c0.142,0.009,0.284,0.015,0.429,0.021c0.527-0.485,1.372-0.485,1.899,0   c0.144-0.006,0.287-0.012,0.429-0.021c0.486-0.669,1.48-0.782,2.09-0.226c0.125-0.02,0.246-0.041,0.367-0.063   c0.186-0.396,0.512-0.67,0.902-0.746c0.344-0.065,0.697,0.028,0.988,0.266c0.027-0.01,0.055-0.019,0.082-0.028   c0.041-0.193,0.117-0.36,0.215-0.502c0-0.005-0.002-0.01,0-0.016c0.006-0.021,0.016-0.034,0.021-0.054   c0.006-0.017,0.01-0.03,0.018-0.046c0.18-0.572,0.529-0.846,0.893-0.968c-0.066-0.286-0.152-0.643-0.246-1.021   c-1.305,0.914-4.064,1.397-6.708,1.397c-2.645,0-5.403-0.483-6.709-1.397c-0.09,0.361-0.173,0.703-0.238,0.982   c0.18,0.062,0.342,0.153,0.483,0.274C57.833,11.118,57.986,11.427,58.022,11.756z" fill="#D1D3D4"/><path d="M70.562,8.904c-0.02-0.075-0.039-0.15-0.059-0.225c-0.566-1.208-2.625-1.771-6.466-1.771   c-4.11,0-5.875,0.48-6.467,1.769c-0.02,0.075-0.038,0.151-0.058,0.227c0.749,0.698,3.096,1.432,6.524,1.432   C67.465,10.336,69.814,9.603,70.562,8.904z" fill="#D1D3D4"/><path d="M64.038,108.334c-7.863,0-14.313-1.839-16.308-4.415v6.551c0,3.062,0.339,5.095,2.192,7.704   c1.606,2.217,6.973,4.468,14.115,4.468c7.142,0,12.507-2.251,14.119-4.473c1.85-2.604,2.188-4.637,2.188-7.699v-6.551   C78.35,106.495,71.9,108.334,64.038,108.334z" fill="#CE8113"/><path d="M55.002,42.442c0,1.229,3.71,2.597,9.035,2.597c5.324,0,9.035-1.368,9.035-2.597   c0-0.056,0.016-0.105,0.039-0.152C73.424,35.642,73,30.268,72.41,26.288c-1.406,1.234-4.967,1.892-8.373,1.892   c-3.406,0-6.968-0.657-8.373-1.892c-0.591,3.979-1.015,9.354-0.701,16.002C54.987,42.337,55.002,42.387,55.002,42.442z" fill="#F4CB1E"/><path d="M64.038,74.56c-7.863,0-14.313-1.738-16.308-4.171v31.647c0.034,0.055,0.06,0.115,0.06,0.185   c0,2.933,7.44,5.409,16.248,5.409c8.806,0,16.248-2.477,16.248-5.409c0-0.069,0.025-0.13,0.059-0.185V70.389   C78.35,72.821,71.9,74.56,64.038,74.56z" fill="#F4CB1E"/><path d="M72.693,47.877c0.145-1.421,0.254-2.787,0.336-4.113c-1.564,1.291-5.361,1.978-8.992,1.978   c-3.631,0-7.428-0.687-8.992-1.978c0.082,1.326,0.19,2.692,0.336,4.113c0.179,1.748-1,3.338-2.492,5.35   c-2.177,2.937-5.159,6.958-5.159,13.594v1.777c0.034,0.055,0.06,0.116,0.06,0.185c0,2.45,6.528,5.074,16.248,5.074   c9.718,0,16.248-2.624,16.248-5.074c0-0.068,0.025-0.13,0.059-0.185V66.82c0-6.636-2.98-10.657-5.158-13.594   C73.693,51.215,72.514,49.625,72.693,47.877z" fill="#CE8113"/><path d="M69.576,108.011c0,3.286,0,5.724,0,6.624c0,3.014-0.295,5.052-1.756,7.788   c5.223-0.616,9.025-2.444,10.336-4.254c1.85-2.604,2.188-4.637,2.188-7.699v-6.551C78.844,105.857,74.822,107.377,69.576,108.011z" fill="#AF6400"/><path d="M69.576,74.254c0,6.793,0,23.238,0,33.039c6.176-0.771,10.709-2.783,10.709-5.072   c0-0.069,0.025-0.13,0.059-0.185V70.389C78.844,72.219,74.822,73.655,69.576,74.254z" fill="#EAB00F"/><path d="M72.693,47.877c0.145-1.421,0.254-2.787,0.336-4.113c-1.127,0.931-3.414,1.545-5.963,1.817   c-0.527,2.158-1.033,3.844-1.184,4.521c-0.352,1.583,0.527,3.165,1.846,5.627s1.848,11.781,1.848,15.825c0,0.392,0,1.075,0,1.989   c6.574-0.762,10.709-2.813,10.709-4.762c0-0.068,0.025-0.13,0.059-0.185V66.82c0-6.636-2.98-10.657-5.158-13.594   C73.693,51.215,72.514,49.625,72.693,47.877z" fill="#AF6400"/><path d="M73.072,42.442c0-0.056,0.016-0.105,0.039-0.152C73.424,35.642,73,30.268,72.41,26.288   c-0.895,0.785-2.664,1.337-4.707,1.634c0.463,2.541,0.816,5.296,0.816,7.741c0,3.039-0.631,6.429-1.281,9.195   C70.787,44.449,73.072,43.404,73.072,42.442z" fill="#EAB00F"/><path d="M72.268,25.376c-0.771-4.715-1.73-7.226-1.752-7.276c-0.059-0.149-0.064-0.316-0.016-0.47   c0.607-1.929,0.408-3.376-0.152-4.842c-0.021,0.015-0.037,0.036-0.061,0.045c-0.162,0.062-0.332,0.121-0.508,0.177   c-0.133,0.041-0.275,0.003-0.369-0.102c-0.148-0.167-0.33-0.24-0.5-0.209c-0.199,0.039-0.365,0.215-0.447,0.472   c-0.039,0.121-0.141,0.213-0.266,0.237c-0.248,0.05-0.504,0.094-0.766,0.133c-0.129,0.019-0.244-0.028-0.322-0.121   c-0.332-0.397-0.932-0.326-1.186,0.134c-0.059,0.104-0.166,0.173-0.285,0.18c-0.258,0.017-0.518,0.032-0.784,0.04   c-0.004,0-0.008,0-0.012,0c-0.102,0-0.2-0.045-0.267-0.122c-0.29-0.339-0.789-0.339-1.078,0c-0.07,0.08-0.168,0.118-0.278,0.122   c-0.268-0.008-0.527-0.023-0.784-0.04c-0.119-0.007-0.227-0.075-0.285-0.18c-0.253-0.459-0.853-0.532-1.187-0.134   c-0.078,0.094-0.196,0.141-0.321,0.121c-0.262-0.039-0.517-0.083-0.764-0.132c-0.127-0.024-0.229-0.116-0.269-0.237   c-0.081-0.258-0.249-0.434-0.447-0.473c-0.167-0.035-0.353,0.043-0.499,0.208c-0.073,0.082-0.178,0.11-0.284,0.104   c4.171,2.787,9.6,1.651,9.6,1.651s0.129-0.606,0.129,1.504s-2.305,3.89-2.305,3.89c0.4,1.243,1.156,4.001,1.77,7.182   C70.178,26.866,71.926,26.118,72.268,25.376z" fill="#AF6400"/><path d="M72.688,25.464c-0.195,0-0.352-0.157-0.352-0.352c0-1.119-3.408-2.367-8.298-2.367   c-4.891,0-8.299,1.248-8.299,2.367c0,0.194-0.157,0.352-0.351,0.352c-0.195,0-0.353-0.157-0.353-0.352   c0-1.993,4.638-3.069,9.002-3.069c4.363,0,9.001,1.076,9.001,3.069C73.039,25.307,72.881,25.464,72.688,25.464z" fill="#9B5400"/><path d="M80.637,69.135c-0.195,0-0.352-0.158-0.352-0.353c0-2.451-6.529-5.075-16.248-5.075   c-9.72,0-16.248,2.624-16.248,5.075c0,0.194-0.157,0.353-0.352,0.353s-0.352-0.158-0.352-0.353c0-3.24,7.445-5.779,16.951-5.779   c9.505,0,16.951,2.539,16.951,5.779C80.988,68.977,80.83,69.135,80.637,69.135z" fill="#9B5400"/><path d="M69.967,18.03c0,0-0.002,0.052-0.01,0.147c-0.01,0.089-0.059,0.246-0.176,0.389   c-0.227,0.3-0.678,0.607-1.26,0.837c-0.584,0.23-1.287,0.436-2.057,0.56c-0.768,0.13-1.599,0.188-2.427,0.194   c-0.82-0.006-1.664-0.063-2.428-0.193c-0.77-0.124-1.474-0.329-2.057-0.561c-0.583-0.229-1.033-0.537-1.26-0.837   c-0.118-0.145-0.163-0.293-0.177-0.388c-0.006-0.097-0.01-0.148-0.01-0.148c0.01-0.007,0.007,0.229,0.264,0.468   c0.242,0.25,0.711,0.451,1.282,0.627c1.154,0.341,2.772,0.503,4.385,0.504c1.611-0.001,3.23-0.162,4.384-0.503   c0.572-0.176,1.041-0.377,1.283-0.628C69.959,18.264,69.959,18.021,69.967,18.03z" fill="#9B5400"/><g><path d="M63.283,11.021l-0.812,1.815c0.068,0.062,0.132,0.13,0.188,0.207c0.142,0.009,0.284,0.015,0.429,0.021    c0.265-0.243,0.609-0.365,0.955-0.363v-0.01l-0.162-1.656C63.681,11.033,63.482,11.028,63.283,11.021z" fill="#939598"/><path d="M61.326,12.477l0.128-1.598c-0.099-0.013-0.201-0.021-0.3-0.035l-0.794,1.939    c0.069,0.012,0.138,0.024,0.209,0.035C60.786,12.62,61.051,12.511,61.326,12.477z" fill="#939598"/><path d="M59.342,10.487c-0.147-0.039-0.28-0.086-0.419-0.129l-0.918,1.319c0.005,0.026,0.014,0.052,0.017,0.078    c0.093,0.14,0.167,0.302,0.207,0.49c0.027,0.01,0.055,0.02,0.083,0.029c0.183-0.147,0.391-0.235,0.604-0.269L59.342,10.487z" fill="#939598"/><path d="M66.656,10.873c-0.465,0.058-0.939,0.103-1.422,0.13l0.377,1.825c0.289-0.258,0.67-0.378,1.045-0.357    V10.873z" fill="#939598"/><path d="M70.746,9.641c-0.828,0.58-2.246,0.984-3.846,1.203l0.719,1.956c0.084-0.016,0.17-0.029,0.254-0.045    c0.186-0.396,0.512-0.67,0.902-0.746c0.344-0.065,0.697,0.028,0.988,0.266c0.027-0.01,0.055-0.019,0.082-0.028    c0.041-0.193,0.117-0.36,0.215-0.502c0-0.005-0.002-0.01,0-0.016c0.006-0.021,0.016-0.034,0.021-0.054    c0.006-0.017,0.01-0.03,0.018-0.046c0.18-0.572,0.529-0.846,0.893-0.968C70.926,10.375,70.84,10.019,70.746,9.641z" fill="#939598"/></g><g><g><path d="M65.541,92.278c-0.42,0-0.761-0.343-0.761-0.762c0-0.145,0.042-0.286,0.121-0.41     c0.199-0.64,0.179-1.195,0.158-1.784c-0.002-0.12-0.008-0.242-0.01-0.366c-0.165-0.002-0.323-0.062-0.451-0.176     c-0.199,0.403-0.612,0.661-1.062,0.661c-0.433,0-0.824-0.234-1.035-0.616c-0.387,0.267-0.984,0.154-1.249-0.229     c-0.192,0.074-0.391,0.111-0.588,0.111c-0.915,0-1.66-0.745-1.66-1.661c0-0.914,0.745-1.659,1.66-1.659     c0.406,0,0.798,0.152,1.105,0.429c0.211-0.372,0.601-0.603,1.026-0.603c0.48,0,0.903,0.284,1.09,0.727     c0.164-0.122,0.354-0.188,0.552-0.188c0.025,0,0.051,0.002,0.094,0.009c0.252-0.558,0.806-0.917,1.417-0.917     c0.775,0,1.432,0.577,1.535,1.349c0.059-0.008,0.104-0.015,0.148-0.015c0.68,0,1.232,0.554,1.232,1.234s-0.553,1.232-1.232,1.232     c-0.078,0-0.16-0.009-0.25-0.027c-0.182,0.57-0.766,0.931-1.361,0.798c-0.021,0.555-0.027,1.086,0.16,1.691     c0.078,0.124,0.121,0.264,0.121,0.41C66.303,91.936,65.961,92.278,65.541,92.278z M65.424,88.459v0.273     c0,0.198,0.006,0.39,0.014,0.577c0.021,0.629,0.043,1.226-0.184,1.937l-0.025,0.05c-0.045,0.066-0.068,0.144-0.068,0.221     c0,0.212,0.17,0.383,0.381,0.383s0.383-0.171,0.383-0.383c0-0.078-0.025-0.154-0.07-0.219l-0.025-0.052     c-0.225-0.713-0.205-1.309-0.184-1.938l0.016-0.449l0.26,0.124c0.484,0.228,0.975-0.047,1.109-0.501l0.092-0.312l0.318,0.073     c0.072,0.016,0.135,0.024,0.193,0.024c0.471,0,0.854-0.384,0.854-0.854s-0.383-0.854-0.854-0.854     c-0.033,0-0.064,0.005-0.094,0.009l-0.361,0.057l-0.062-0.342c-0.07-0.609-0.572-1.059-1.166-1.059     c-0.469,0-0.893,0.279-1.08,0.711l-0.105,0.238l-0.257-0.033c-0.045-0.006-0.057-0.009-0.069-0.009     c-0.123,0-0.241,0.045-0.343,0.13l-0.372,0.311l-0.174-0.455c-0.121-0.316-0.417-0.521-0.753-0.521     c-0.298,0-0.57,0.166-0.711,0.435l-0.214,0.404l-0.331-0.314c-0.241-0.227-0.553-0.352-0.876-0.352     c-0.707,0-1.281,0.573-1.281,1.279c0,0.708,0.574,1.282,1.281,1.282c0.157,0,0.316-0.031,0.471-0.094L61.4,88.13l0.155,0.237     c0.151,0.235,0.522,0.306,0.75,0.136l0.329-0.246l0.187,0.363c0.141,0.273,0.414,0.442,0.716,0.442     c0.316,0,0.605-0.188,0.736-0.479l0.207-0.46l0.354,0.357c0.06,0.061,0.189,0.127,0.335,0.074L65.424,88.459z" fill="#FFFFFF"/><path d="M60.232,84.198c-0.437,0-0.791-0.354-0.791-0.79c0-0.438,0.354-0.791,0.791-0.791     c0.438,0,0.794,0.354,0.794,0.791C61.026,83.844,60.669,84.198,60.232,84.198z M60.232,82.994c-0.228,0-0.412,0.187-0.412,0.414     c0,0.227,0.185,0.412,0.412,0.412c0.229,0,0.414-0.186,0.414-0.412C60.646,83.181,60.46,82.994,60.232,82.994z" fill="#FFFFFF"/><path d="M61.596,85.223c-0.473,0-0.858-0.384-0.858-0.857s0.386-0.859,0.858-0.859     c0.475,0,0.859,0.386,0.859,0.859S62.071,85.223,61.596,85.223z M61.596,83.885c-0.265,0-0.479,0.215-0.479,0.48     c0,0.265,0.215,0.479,0.479,0.479c0.266,0,0.48-0.214,0.48-0.479C62.077,84.1,61.862,83.885,61.596,83.885z" fill="#FFFFFF"/><path d="M62.109,83.597c-0.596,0-1.08-0.483-1.08-1.08c0-0.595,0.484-1.079,1.08-1.079s1.08,0.484,1.08,1.079     C63.189,83.113,62.705,83.597,62.109,83.597z M62.109,81.816c-0.388,0-0.701,0.314-0.701,0.7c0,0.389,0.313,0.701,0.701,0.701     c0.386,0,0.701-0.312,0.701-0.701C62.81,82.131,62.495,81.816,62.109,81.816z" fill="#FFFFFF"/><path d="M66.209,98.099h-4.52c-0.821,0-1.49-0.667-1.49-1.487l0.286-6.407c-0.308-0.3-0.482-0.705-0.482-1.13     c0-0.23,0.054-0.459,0.158-0.68l0.065-0.138l0.149,0.035c0.289,0.066,0.517,0.039,0.76-0.058L61.4,88.13l0.155,0.237     c0.151,0.235,0.522,0.306,0.75,0.136l0.329-0.246l0.187,0.363c0.141,0.273,0.414,0.442,0.716,0.442     c0.316,0,0.605-0.188,0.736-0.479l0.206-0.46l0.355,0.357c0.06,0.061,0.189,0.127,0.335,0.074l0.254-0.096v0.273     c0,0.198,0.006,0.39,0.014,0.577c0.021,0.629,0.043,1.226-0.184,1.937l-0.025,0.05c-0.045,0.066-0.068,0.144-0.068,0.221     c0,0.212,0.17,0.383,0.381,0.383s0.383-0.171,0.383-0.383c0-0.078-0.025-0.154-0.07-0.219l-0.025-0.052     c-0.225-0.713-0.205-1.309-0.184-1.938l0.016-0.449l0.26,0.124c0.484,0.228,0.975-0.047,1.109-0.501l0.092-0.312l0.318,0.073     c0.033,0.007,0.064,0.01,0.096,0.013l0.105,0.008l0.076,0.096c0.119,0.23,0.178,0.47,0.178,0.716c0,0.307-0.09,0.604-0.256,0.857     h1.23c0.68,0,1.246,0.079,1.332,1.046c0.037,0.437,0.15,1.48,0.252,2.42c0.074,0.694,0.145,1.33,0.172,1.625     c0.035,0.367,0.041,0.826-0.232,1.128c-0.189,0.209-0.477,0.31-0.873,0.31h-1.826l0.006,0.143     C67.699,97.432,67.031,98.099,66.209,98.099z M60.449,88.69c-0.044,0.127-0.066,0.256-0.066,0.384     c0,0.346,0.152,0.676,0.42,0.906l0.069,0.062l-0.004,0.091l-0.29,6.486c0,0.604,0.498,1.102,1.111,1.102h4.52     c0.613,0,1.111-0.498,1.111-1.109l-0.023-0.53h2.223c0.285,0,0.479-0.06,0.592-0.185c0.137-0.15,0.178-0.408,0.137-0.837     c-0.029-0.294-0.096-0.929-0.172-1.621c-0.102-0.942-0.215-1.99-0.254-2.428c-0.053-0.608-0.262-0.699-0.953-0.699h-2.152     l0.383-0.333c0.264-0.231,0.418-0.561,0.418-0.904c0-0.152-0.033-0.304-0.094-0.451c-0.014-0.002-0.027-0.004-0.041-0.006     c-0.182,0.571-0.764,0.931-1.361,0.798c-0.021,0.555-0.027,1.086,0.16,1.691c0.078,0.124,0.121,0.264,0.121,0.41     c0,0.419-0.342,0.762-0.762,0.762s-0.761-0.343-0.761-0.762c0-0.145,0.042-0.286,0.121-0.41c0.199-0.64,0.179-1.195,0.158-1.784     c-0.002-0.12-0.008-0.242-0.01-0.366c-0.165-0.002-0.323-0.062-0.451-0.176c-0.199,0.403-0.612,0.661-1.062,0.661     c-0.433,0-0.824-0.234-1.035-0.616c-0.387,0.267-0.984,0.154-1.249-0.229C60.992,88.696,60.733,88.732,60.449,88.69z      M68.895,95.495H67.27l-0.203-4.597h1.385c0.455,0,0.908,0.059,0.971,0.771c0.025,0.304,0.105,1.039,0.176,1.692     c0.049,0.462,0.096,0.883,0.115,1.08c0.025,0.265,0.027,0.595-0.176,0.819C69.395,95.418,69.186,95.495,68.895,95.495z      M67.633,95.114h1.262c0.176,0,0.299-0.035,0.361-0.107c0.08-0.088,0.105-0.256,0.08-0.528c-0.02-0.195-0.064-0.615-0.113-1.076     c-0.072-0.655-0.152-1.394-0.18-1.699c-0.031-0.362-0.119-0.427-0.592-0.427h-0.99L67.633,95.114z" fill="#FFFFFF"/><path d="M61.863,96.971c-0.152,0-0.325-0.019-0.458-0.157c-0.167-0.174-0.219-0.474-0.194-1.107     c0.04-0.943,0.196-5.156,0.196-5.156l0.38,0.015c0,0-0.156,4.213-0.196,5.156c-0.021,0.471,0.011,0.749,0.088,0.83     c0.019,0.021,0.057,0.041,0.185,0.041V96.971z" fill="#FFFFFF"/><path d="M64.064,97.072c-0.466,0-0.674-0.249-0.674-0.806v-5.709h0.378v5.709c0,0.427,0.112,0.427,0.296,0.427     V97.072z" fill="#FFFFFF"/><path d="M66.332,96.971c-0.588,0-0.654-0.411-0.674-0.906c-0.014-0.337-0.041-1.194-0.07-2.107l-0.047-1.431     l0.381-0.013l0.045,1.432c0.029,0.912,0.055,1.768,0.068,2.104c0.023,0.543,0.086,0.543,0.297,0.543V96.971z" fill="#FFFFFF"/><rect fill="#FFFFFF" height="0.378" width="3.44" x="61.219" y="89.896"/></g><g><g><path clip-rule="evenodd" d="M72.064,89.026c0.652,0.56,1.117,0.864,1.545,1.869      c0.184-0.369,0.354-0.738,0.613-1.029c0.23-0.258,0.465-0.513,0.699-0.768c0.023-0.027,0.049-0.069,0.09-0.039      c0.033,0.027,0.021,0.073,0.02,0.113c-0.033,0.509-0.07,1.019-0.24,1.5c-0.191,0.558-0.482,1.028-0.938,1.346      c-0.248,0.173-0.619,0.162-0.852-0.14c-0.238-0.313-0.412-0.66-0.521-1.063C72.324,90.24,72.186,89.661,72.064,89.026z" fill="#FFFFFF" fill-rule="evenodd"/><path clip-rule="evenodd" d="M72.041,91.354c0.432,0.313,1.193,1.11,1.209,1.863      c0.254-0.41,0.545-0.743,0.852-1.047c0.309-0.305,0.656-0.566,0.982-0.844c0.049,0.057,0.025,0.098,0.018,0.143      c-0.107,0.462-0.299,0.886-0.479,1.317c-0.203,0.491-0.562,0.801-0.895,1.146c-0.24,0.25-0.529,0.395-0.871,0.372      c-0.15-0.011-0.27-0.065-0.359-0.212c-0.215-0.342-0.34-0.716-0.383-1.134c-0.053-0.5-0.08-1.002-0.086-1.505      C72.029,91.424,72.037,91.391,72.041,91.354z" fill="#FFFFFF" fill-rule="evenodd"/><path clip-rule="evenodd" d="M73.475,88.601c0.068-0.243,0.133-0.434,0.211-0.622      c0.172-0.402,0.412-0.748,0.674-1.076c0.027-0.037,0.051-0.112,0.104-0.084c0.027,0.013,0.043,0.079,0.047,0.124      c0.062,0.58,0.154,1.159,0.037,1.741c-0.098,0.492-0.324,0.889-0.703,1.162c-0.189,0.136-0.518,0.037-0.756-0.216      c-0.252-0.273-0.465-0.584-0.639-0.933c-0.301-0.594-0.545-1.217-0.738-1.873C72.355,87.322,73.047,87.76,73.475,88.601z" fill="#FFFFFF" fill-rule="evenodd"/><path clip-rule="evenodd" d="M71.561,93.542c0.439,0.548,0.965,0.979,0.926,1.821      c0.332-0.355,0.664-0.656,1.01-0.929c0.367-0.28,0.754-0.525,1.131-0.785c0.035-0.023,0.07-0.067,0.109-0.018      c0.023,0.028-0.008,0.059-0.021,0.088c-0.504,1.17-1.283,2.031-2.324,2.558c-0.666,0.335-0.959,0.016-1.037-0.75      c-0.045-0.436,0.031-0.871,0.094-1.301C71.479,94.016,71.516,93.806,71.561,93.542z" fill="#FFFFFF" fill-rule="evenodd"/><path clip-rule="evenodd" d="M70.859,84.683c0.357,0.238,0.721,0.466,1.068,0.722      c0.346,0.254,0.672,0.536,0.971,0.93c0.021-0.36,0.082-0.662,0.197-0.947c0.084-0.199,0.17-0.398,0.26-0.593      c0.047-0.102,0.09-0.146,0.162-0.004c0.246,0.491,0.443,1.005,0.445,1.573c0.002,0.422-0.016,0.868-0.348,1.176      c-0.174,0.158-0.369,0.169-0.576,0.065c-0.275-0.14-0.479-0.379-0.695-0.604c-0.393-0.404-0.668-0.914-0.988-1.381      c-0.193-0.283-0.35-0.599-0.521-0.9C70.842,84.706,70.852,84.694,70.859,84.683z" fill="#FFFFFF" fill-rule="evenodd"/><path clip-rule="evenodd" d="M71.275,97.361c0.828-0.681,1.732-1.146,2.664-1.625      c-0.059,0.228-0.191,0.341-0.305,0.469c-0.215,0.244-0.432,0.492-0.668,0.71c-0.498,0.454-1.031,0.841-1.646,1.072      c-0.273,0.104-0.531,0.246-0.832,0.231c-0.254-0.015-0.385-0.149-0.414-0.439c-0.043-0.451,0.135-0.839,0.264-1.241      c0.076-0.238,0.189-0.46,0.246-0.709c0.029-0.143,0.09-0.052,0.133-0.009c0.375,0.391,0.672,0.82,0.535,1.455      C71.25,97.287,71.258,97.301,71.275,97.361z" fill="#FFFFFF" fill-rule="evenodd"/><path clip-rule="evenodd" d="M69.6,99.095c1.01-0.545,2.029-1.029,3.133-1.387      c-0.09,0.09-0.15,0.165-0.223,0.224c-0.656,0.525-1.328,1.03-2.082,1.346c-0.58,0.24-1.162,0.506-1.797,0.511      c-0.275,0.003-0.369-0.145-0.297-0.454c0.068-0.292,0.229-0.528,0.365-0.781c0.141-0.262,0.309-0.507,0.482-0.742      c0.039-0.051,0.076-0.119,0.137-0.029c0.086,0.126,0.209,0.214,0.287,0.353c0.156,0.278,0.168,0.553,0.027,0.838      c-0.014,0.03-0.027,0.057-0.041,0.088C69.59,99.063,69.594,99.072,69.6,99.095z" fill="#FFFFFF" fill-rule="evenodd"/><path clip-rule="evenodd" d="M67.41,100.526c1.189-0.411,2.338-0.813,3.521-1.076      c-0.162,0.099-0.32,0.199-0.482,0.292c-0.176,0.095-0.355,0.182-0.529,0.278c-0.17,0.093-0.354,0.15-0.529,0.224      c-0.525,0.211-1.053,0.397-1.594,0.539c-0.49,0.131-0.98,0.238-1.486,0.222c-0.084-0.001-0.186,0.014-0.227-0.076      c-0.049-0.098,0.012-0.194,0.068-0.274c0.201-0.3,0.488-0.501,0.725-0.761c0.131-0.145,0.287-0.257,0.412-0.41      c0.074-0.094,0.141-0.089,0.229-0.015c0.262,0.22,0.303,0.572,0.09,0.844C67.557,100.378,67.496,100.432,67.41,100.526z" fill="#FFFFFF" fill-rule="evenodd"/><path clip-rule="evenodd" d="M69.631,82.849c0.525,0.159,0.975,0.501,1.453,0.771      c0.27,0.154,0.506,0.361,0.777,0.59c-0.08-0.399-0.035-0.756,0.027-1.108c0.012-0.073,0.027-0.146,0.047-0.215      c0.027-0.104,0.059-0.135,0.141-0.038c0.139,0.156,0.283,0.309,0.389,0.494c0.223,0.399,0.488,0.777,0.541,1.274      c0.018,0.175,0.016,0.348-0.031,0.518c-0.104,0.373-0.305,0.493-0.627,0.359c-0.398-0.169-0.729-0.466-1.057-0.765      c-0.438-0.404-0.818-0.881-1.232-1.318c-0.158-0.169-0.285-0.375-0.453-0.533C69.615,82.869,69.621,82.857,69.631,82.849z" fill="#FFFFFF" fill-rule="evenodd"/><path clip-rule="evenodd" d="M67.896,81.229c0.82,0.205,1.588,0.564,2.365,1.035      c-0.041-0.271-0.137-0.467-0.16-0.684c-0.014-0.146-0.078-0.352,0.004-0.419c0.096-0.075,0.207,0.107,0.303,0.183      c0.344,0.264,0.658,0.565,0.934,0.92c0.191,0.249,0.326,0.533,0.361,0.858c0.039,0.39-0.154,0.554-0.48,0.437      c-0.324-0.118-0.604-0.332-0.902-0.513c-0.391-0.24-0.748-0.543-1.123-0.812C68.754,81.919,68.367,81.511,67.896,81.229z" fill="#FFFFFF" fill-rule="evenodd"/><path clip-rule="evenodd" d="M66.428,79.772c0.771,0.204,1.502,0.506,2.225,0.864      c0.43,0.214,0.77,0.555,1.143,0.852c0.021,0.02,0.045,0.046,0.059,0.074c0.043,0.079,0.113,0.167,0.057,0.256      c-0.049,0.08-0.141,0.035-0.215,0.013c-0.326-0.105-0.621-0.294-0.916-0.47c-0.465-0.276-0.912-0.589-1.355-0.91      C67.096,80.216,66.756,80.003,66.428,79.772z" fill="#FFFFFF" fill-rule="evenodd"/></g><g><path clip-rule="evenodd" d="M54.5,90.915c0.285-0.888,0.909-1.37,1.528-1.915      c-0.005,0.236-0.07,0.417-0.109,0.602c-0.125,0.585-0.277,1.166-0.496,1.719c-0.09,0.224-0.202,0.439-0.371,0.607      c-0.364,0.354-0.758,0.227-1.05-0.085c-0.403-0.425-0.688-0.95-0.812-1.571c-0.075-0.369-0.097-0.745-0.123-1.118      c-0.004-0.035-0.007-0.072,0.024-0.09c0.033-0.021,0.058,0.011,0.079,0.031c0.045,0.04,0.089,0.087,0.132,0.134      c0.209,0.232,0.423,0.464,0.626,0.706C54.162,90.212,54.309,90.557,54.5,90.915z" fill="#FFFFFF" fill-rule="evenodd"/><path clip-rule="evenodd" d="M52.96,91.293c0.694,0.557,1.351,1.092,1.849,1.856      c0.08-0.12,0.066-0.277,0.121-0.405c0.177-0.421,0.455-0.749,0.747-1.063c0.068-0.074,0.144-0.14,0.217-0.208      c0.046-0.045,0.082-0.144,0.152-0.106c0.056,0.03,0.027,0.124,0.023,0.187c-0.048,0.583-0.011,1.172-0.14,1.743      c-0.066,0.296-0.172,0.575-0.343,0.812c-0.197,0.276-0.634,0.276-1.007-0.001c-0.644-0.481-1.112-1.122-1.379-1.955      C53.116,91.884,53.029,91.617,52.96,91.293z" fill="#FFFFFF" fill-rule="evenodd"/><path clip-rule="evenodd" d="M53.655,86.785c0.422,0.531,0.771,1.088,0.961,1.797      c0.439-0.812,1.125-1.267,1.791-1.802c0,0.142-0.058,0.223-0.091,0.31c-0.214,0.559-0.403,1.134-0.694,1.649      c-0.207,0.372-0.409,0.75-0.744,1.004c-0.383,0.287-0.68,0.164-0.919-0.164c-0.308-0.419-0.508-0.893-0.486-1.469      c0.014-0.384,0.027-0.764,0.109-1.14C53.594,86.913,53.604,86.854,53.655,86.785z" fill="#FFFFFF" fill-rule="evenodd"/><path clip-rule="evenodd" d="M56.55,93.567c0.076,0.605,0.202,1.167,0.202,1.748      c0,0.206-0.021,0.401-0.077,0.595c-0.117,0.408-0.355,0.562-0.725,0.461c-0.203-0.055-0.382-0.164-0.565-0.277      c-0.714-0.433-1.28-1.036-1.724-1.806c-0.124-0.21-0.196-0.44-0.317-0.651c0.024-0.011,0.045-0.029,0.056-0.024      c0.432,0.297,0.884,0.566,1.292,0.901c0.283,0.234,0.597,0.437,0.812,0.77c0.02,0.031,0.048,0.07,0.088,0.048      c0.037-0.021,0.024-0.069,0.024-0.107c0.005-0.413,0.16-0.741,0.396-1.045C56.175,93.967,56.329,93.75,56.55,93.567z" fill="#FFFFFF" fill-rule="evenodd"/><path clip-rule="evenodd" d="M55.19,86.339c0.601-0.76,1.33-1.195,2.056-1.656      c0.032,0.089-0.021,0.123-0.045,0.16c-0.337,0.523-0.646,1.068-0.996,1.583c-0.237,0.348-0.519,0.641-0.794,0.94      c-0.118,0.129-0.278,0.225-0.442,0.28c-0.257,0.091-0.524-0.044-0.665-0.342c-0.282-0.599-0.223-1.208-0.017-1.811      c0.082-0.238,0.193-0.461,0.287-0.692c0.059-0.145,0.109-0.133,0.165,0C54.938,85.278,55.2,85.726,55.19,86.339z" fill="#FFFFFF" fill-rule="evenodd"/><path clip-rule="evenodd" d="M54.14,95.734c0.956,0.466,1.847,0.97,2.719,1.647      c-0.204-0.632,0.069-1.025,0.383-1.4c0.219-0.262,0.216-0.254,0.34,0.083c0.131,0.359,0.266,0.718,0.375,1.087      c0.064,0.218,0.08,0.434,0.067,0.655c-0.018,0.242-0.173,0.399-0.382,0.409c-0.175,0.008-0.341-0.021-0.505-0.076      c-0.842-0.281-1.578-0.773-2.226-1.438c-0.229-0.231-0.434-0.491-0.649-0.737C54.218,95.913,54.169,95.864,54.14,95.734z" fill="#FFFFFF" fill-rule="evenodd"/><path clip-rule="evenodd" d="M55.407,97.729c0.778,0.252,1.511,0.568,2.237,0.932      c0.236,0.115,0.472,0.236,0.704,0.361c0.039,0.022,0.084,0.078,0.127,0.026c0.032-0.042-0.009-0.087-0.025-0.127      c-0.147-0.36-0.092-0.703,0.175-0.964c0.076-0.074,0.104-0.257,0.221-0.219c0.08,0.024,0.135,0.158,0.196,0.248      c0.257,0.383,0.49,0.789,0.686,1.218c0.034,0.069,0.048,0.153,0.058,0.231c0.026,0.229-0.061,0.34-0.264,0.354      c-0.237,0.015-0.471-0.026-0.698-0.099c-0.725-0.223-1.426-0.5-2.088-0.918c-0.356-0.227-0.675-0.511-1.019-0.755      C55.604,97.94,55.466,97.897,55.407,97.729z" fill="#FFFFFF" fill-rule="evenodd"/><path clip-rule="evenodd" d="M57.147,99.433c1.167,0.257,2.3,0.685,3.486,1.063      c-0.073-0.093-0.119-0.15-0.169-0.208c-0.204-0.238-0.117-0.705,0.153-0.842c0.082-0.042,0.144-0.007,0.191,0.052      c0.191,0.22,0.429,0.377,0.608,0.612c0.104,0.139,0.256,0.23,0.383,0.352c0.055,0.049,0.107,0.107,0.144,0.173      c0.055,0.091,0.104,0.197,0.062,0.303c-0.044,0.104-0.146,0.061-0.226,0.066c-0.679,0.017-1.331-0.168-1.98-0.366      c-0.803-0.244-1.584-0.562-2.33-0.988C57.362,99.587,57.266,99.493,57.147,99.433z" fill="#FFFFFF" fill-rule="evenodd"/><path clip-rule="evenodd" d="M57.419,83.31c0.099,0.021,0.17-0.05,0.245-0.097      c0.286-0.175,0.589-0.295,0.905-0.397c-0.115,0.116-0.246,0.22-0.345,0.355c-0.296,0.408-0.653,0.753-0.988,1.116      c-0.402,0.438-0.828,0.856-1.338,1.138c-0.519,0.286-0.756,0.051-0.81-0.543c-0.048-0.541,0.204-0.968,0.448-1.388      c0.153-0.261,0.312-0.521,0.562-0.694c0.164,0.438,0.229,0.889,0.146,1.375c0.099-0.016,0.144-0.103,0.203-0.154      c0.228-0.194,0.471-0.354,0.723-0.5c0.055-0.031,0.129-0.042,0.143-0.133l-0.002,0.003c0.061,0.009,0.107,0.003,0.108-0.082      L57.419,83.31z" fill="#FFFFFF" fill-rule="evenodd"/><path clip-rule="evenodd" d="M57.315,83.388c-0.119-0.032-0.194,0.081-0.294,0.113      c-0.177,0.061-0.373,0.184-0.534,0.005c-0.157-0.176-0.102-0.409-0.042-0.627c0.138-0.493,0.466-0.812,0.784-1.144      c0.193-0.199,0.416-0.352,0.623-0.524c0.04-0.033,0.085-0.103,0.14-0.069c0.062,0.04,0.029,0.123,0.025,0.184      c-0.012,0.305-0.085,0.596-0.18,0.88c-0.015,0.012-0.028,0.022-0.041,0.033c0.022,0.026,0.041,0.01,0.056-0.014      c0.275-0.142,0.55-0.284,0.825-0.427c0.023-0.012,0.029-0.037,0.021-0.065l-0.003,0.002c0.062,0.029,0.113-0.016,0.169-0.037      c0.443-0.179,0.887-0.357,1.33-0.536c0.028-0.012,0.056-0.021,0.128-0.044c-0.234,0.239-0.484,0.367-0.699,0.549      c-0.505,0.43-1.042,0.804-1.558,1.213c-0.16,0.124-0.344,0.206-0.515,0.312c-0.049,0.031-0.115,0.038-0.131,0.119l0.002-0.001      c-0.066-0.028-0.105,0-0.108,0.082L57.315,83.388z" fill="#FFFFFF" fill-rule="evenodd"/><path clip-rule="evenodd" d="M58.698,81.732c-0.142,0.011-0.26,0.125-0.406,0.121      c-0.141-0.006-0.172-0.054-0.107-0.199c0.041-0.097,0.128-0.152,0.195-0.225c0.628-0.677,1.427-0.973,2.205-1.318      c0.271-0.121,0.559-0.164,0.83-0.273c0.032-0.012,0.068,0,0.115,0.028c-0.102,0.068-0.206,0.131-0.308,0.2      c-0.631,0.433-1.259,0.867-1.893,1.29c-0.151,0.103-0.32,0.168-0.48,0.252c-0.058,0.03-0.126,0.046-0.154,0.126L58.698,81.732z" fill="#FFFFFF" fill-rule="evenodd"/></g></g></g><path d="M76.314,52.389c-1.311-1.768-2.346-3.163-2.221-4.37c1.85-18.069-1.562-28.494-2.182-30.201   c0.59-2.017,0.473-3.752-0.381-5.839c0.061-0.009,0.152-0.017,0.301-0.018c0.289-0.001,0.547-0.179,0.65-0.448   c0.098-0.251,0.121-0.309-0.631-3.24c-0.008-0.036-0.02-0.071-0.035-0.104c-1.014-2.349-4.502-2.666-7.779-2.666   c-4.2,0-6.819,0.437-7.779,2.666c-0.015,0.034-0.026,0.068-0.036,0.104c-0.751,2.931-0.728,2.989-0.631,3.24   c0.123,0.313,0.454,0.496,0.779,0.438c0.084-0.015,0.142-0.014,0.188-0.009c-0.866,2.104-0.99,3.848-0.396,5.876   c-0.62,1.707-4.031,12.132-2.18,30.201c0.123,1.207-0.912,2.603-2.223,4.37c-2.294,3.094-5.437,7.331-5.437,14.432v43.649   c0,3.286,0.392,5.615,2.457,8.522c2.189,3.024,8.32,5.057,15.258,5.057c6.937,0,13.068-2.032,15.261-5.062   c2.062-2.902,2.453-5.231,2.453-8.518V66.82C81.752,59.72,78.609,55.482,76.314,52.389z M80.344,102.036   c-0.033,0.055-0.059,0.115-0.059,0.185c0,2.933-7.441,5.409-16.248,5.409c-8.808,0-16.248-2.477-16.248-5.409   c0-0.069-0.025-0.13-0.06-0.185V70.389c1.994,2.433,8.444,4.171,16.308,4.171c7.863,0,14.312-1.738,16.306-4.171V102.036z    M58.022,11.756c-0.036-0.329-0.188-0.638-0.448-0.858c-0.142-0.121-0.304-0.213-0.483-0.274c0.065-0.279,0.148-0.621,0.238-0.982   c1.306,0.914,4.064,1.397,6.709,1.397c2.644,0,5.404-0.483,6.708-1.397c0.094,0.378,0.18,0.734,0.246,1.021   c-0.363,0.122-0.713,0.396-0.893,0.968c-0.008,0.016-0.012,0.029-0.018,0.046c-0.006,0.02-0.016,0.032-0.021,0.054   c-0.002,0.006,0,0.011,0,0.016c-0.098,0.142-0.174,0.309-0.215,0.502c-0.027,0.01-0.055,0.019-0.082,0.028   c-0.291-0.237-0.645-0.331-0.988-0.266c-0.391,0.076-0.717,0.35-0.902,0.746c-0.121,0.022-0.242,0.044-0.367,0.063   c-0.609-0.557-1.604-0.443-2.09,0.226c-0.143,0.009-0.285,0.015-0.429,0.021c-0.527-0.485-1.372-0.485-1.899,0   c-0.145-0.006-0.287-0.012-0.429-0.021c-0.488-0.669-1.48-0.782-2.09-0.226c-0.124-0.02-0.246-0.041-0.367-0.062   c-0.187-0.397-0.513-0.671-0.902-0.747c-0.343-0.07-0.697,0.031-0.987,0.267c-0.028-0.01-0.056-0.02-0.083-0.029   C58.189,12.058,58.115,11.896,58.022,11.756z M64.038,6.909c3.841,0,5.9,0.562,6.466,1.771c0.02,0.074,0.039,0.149,0.059,0.225   c-0.748,0.698-3.098,1.432-6.525,1.432c-3.429,0-5.775-0.733-6.524-1.432c0.02-0.075,0.038-0.151,0.058-0.227   C58.163,7.39,59.927,6.909,64.038,6.909z M57.558,18.1c0.059-0.149,0.065-0.316,0.017-0.47c-0.608-1.929-0.408-3.375,0.153-4.841   c0.021,0.014,0.035,0.035,0.06,0.044c0.161,0.062,0.331,0.121,0.508,0.177c0.135,0.043,0.277,0.001,0.369-0.103   c0.146-0.165,0.332-0.243,0.499-0.208c0.198,0.039,0.366,0.215,0.447,0.473c0.039,0.121,0.142,0.213,0.269,0.237   c0.247,0.049,0.502,0.093,0.764,0.132c0.125,0.02,0.243-0.027,0.321-0.121c0.334-0.398,0.934-0.325,1.187,0.134   c0.059,0.104,0.166,0.173,0.285,0.18c0.257,0.017,0.517,0.032,0.784,0.04c0.11-0.004,0.208-0.042,0.278-0.122   c0.289-0.339,0.788-0.339,1.078,0c0.066,0.077,0.165,0.122,0.267,0.122c0.004,0,0.008,0,0.012,0   c0.266-0.008,0.526-0.023,0.784-0.04c0.119-0.007,0.227-0.075,0.285-0.18c0.254-0.46,0.854-0.531,1.186-0.134   c0.078,0.093,0.193,0.14,0.322,0.121c0.262-0.039,0.518-0.083,0.766-0.133c0.125-0.024,0.227-0.116,0.266-0.237   c0.082-0.257,0.248-0.433,0.447-0.472c0.17-0.031,0.352,0.042,0.5,0.209c0.094,0.104,0.236,0.143,0.369,0.102   c0.176-0.056,0.346-0.115,0.508-0.177c0.023-0.009,0.039-0.03,0.061-0.045c0.561,1.466,0.76,2.913,0.152,4.842   c-0.049,0.153-0.043,0.32,0.016,0.47c0.021,0.051,0.98,2.562,1.752,7.276c-0.479,1.041-3.721,2.101-8.23,2.101   c-4.511,0-7.752-1.06-8.23-2.101C56.578,20.661,57.538,18.15,57.558,18.1z M55.665,26.288c1.405,1.234,4.967,1.892,8.373,1.892   c3.406,0,6.966-0.657,8.373-1.892c0.59,3.979,1.014,9.354,0.701,16.002c-0.023,0.047-0.039,0.097-0.039,0.152   c0,1.229-3.711,2.597-9.035,2.597c-5.325,0-9.035-1.368-9.035-2.597c0-0.056-0.016-0.105-0.039-0.152   C54.65,35.642,55.074,30.268,55.665,26.288z M52.889,53.227c1.492-2.012,2.671-3.602,2.492-5.35   c-0.146-1.421-0.254-2.787-0.336-4.113c1.564,1.291,5.361,1.978,8.992,1.978c3.63,0,7.427-0.687,8.992-1.978   c-0.082,1.326-0.191,2.692-0.336,4.113c-0.18,1.748,1,3.338,2.492,5.35c2.178,2.937,5.158,6.958,5.158,13.594v1.777   c-0.033,0.055-0.059,0.116-0.059,0.185c0,2.45-6.529,5.074-16.248,5.074c-9.72,0-16.248-2.624-16.248-5.074   c0-0.068-0.025-0.13-0.06-0.185V66.82C47.73,60.185,50.712,56.163,52.889,53.227z M78.156,118.169   c-1.611,2.222-6.977,4.473-14.119,4.473c-7.143,0-12.509-2.251-14.115-4.468c-1.854-2.609-2.192-4.642-2.192-7.704v-6.551   c1.994,2.576,8.444,4.415,16.308,4.415c7.863,0,14.312-1.839,16.306-4.415v6.551C80.344,113.532,80.006,115.564,78.156,118.169z" fill="#231F20"/></g></svg>