<?xml version="1.0" ?><svg id="Layer_1" style="enable-background:new 0 0 128 128;" version="1.1" viewBox="0 0 128 128" xml:space="preserve" xmlns="http://www.w3.org/2000/svg" xmlns:xlink="http://www.w3.org/1999/xlink"><style type="text/css">
	.st0{fill:#FFFFFF;stroke:#3A3637;stroke-linecap:round;stroke-linejoin:round;stroke-miterlimit:10;}
	.st1{fill:#EEEFDC;}
	.st2{fill:#F0EA4B;stroke:#3A3637;stroke-miterlimit:10;}
	.st3{fill:#EADB28;}
	.st4{fill:#F9CB64;stroke:#3A3637;stroke-miterlimit:10;}
	.st5{fill:#D29336;}
	.st6{fill:#D2984B;}
	.st7{fill:#EF5194;stroke:#3A3637;stroke-miterlimit:10;}
	.st8{fill:#E973A8;}
	.st9{fill:#00AEEF;stroke:#3A3637;stroke-width:0.25;stroke-miterlimit:10;}
	.st10{fill:#FFF200;stroke:#3A3637;stroke-width:0.25;stroke-miterlimit:10;}
	.st11{fill:#00A651;stroke:#3A3637;stroke-width:0.25;stroke-miterlimit:10;}
	.st12{fill:#6F7381;}
	.st13{fill:#98D8DE;stroke:#3A3637;stroke-linecap:round;stroke-linejoin:round;stroke-miterlimit:10;}
	.st14{fill:#A7DDE2;stroke:#3A3637;stroke-linecap:round;stroke-linejoin:round;stroke-miterlimit:10;}
	.st15{fill:#83D1DA;stroke:#3A3637;stroke-linecap:round;stroke-linejoin:round;stroke-miterlimit:10;}
	.st16{fill:#6F7381;stroke:#3A3637;stroke-linecap:round;stroke-linejoin:round;stroke-miterlimit:10;}
	.st17{fill:#59C6CC;}
	.st18{fill:#3A3637;}
	.st19{fill:#E6E7E8;stroke:#3A3637;stroke-miterlimit:10;}
	.st20{fill:none;stroke:#3A3637;stroke-miterlimit:10;}
	.st21{fill:#ECBA57;stroke:#3A3637;stroke-miterlimit:10;}
	.st22{fill:#D1D3D4;stroke:#3A3637;stroke-miterlimit:10;}
	.st23{fill:#DB904D;stroke:#3A3637;stroke-linecap:round;stroke-linejoin:round;stroke-miterlimit:10;}
	.st24{fill:#ECBA57;stroke:#3A3637;stroke-linejoin:round;stroke-miterlimit:10;}
	.st25{fill:#EEC377;}
	.st26{opacity:0.2;}
	.st27{fill:#010101;}
	.st28{fill:#F2F2F2;}
	.st29{fill:#D53C27;}
	.st30{fill:#E6E7E8;}
	.st31{fill:#E6E7E8;stroke:#3A3637;stroke-linecap:round;stroke-linejoin:round;stroke-miterlimit:10;}
	.st32{fill:#F15A29;}
	.st33{fill:none;stroke:#3A3637;stroke-linecap:round;stroke-linejoin:round;stroke-miterlimit:10;}
	.st34{fill:#FFFFFF;stroke:#3A3637;stroke-miterlimit:10;}
	.st35{fill:#A7DDE2;}
	.st36{fill:#FFCF7A;}
	.st37{fill:#FFDDA6;}
	.st38{fill:#E5B464;}
	.st39{fill:none;stroke:#AF792C;stroke-width:2;stroke-linecap:round;stroke-linejoin:round;stroke-miterlimit:10;}
	.st40{fill:none;stroke:#B9853E;stroke-width:2;stroke-linecap:round;stroke-linejoin:round;stroke-miterlimit:10;}
	.st41{fill:none;stroke:#D1D3D4;stroke-width:0.25;stroke-linecap:round;stroke-miterlimit:10;}
	.st42{fill-rule:evenodd;clip-rule:evenodd;fill:#00301E;}
	.st43{fill-rule:evenodd;clip-rule:evenodd;fill:#0B4830;}
	.st44{fill:none;}
	.st45{fill-rule:evenodd;clip-rule:evenodd;fill:#08402A;}
	.st46{fill:#FFFFFF;}
	.st47{clip-path:url(#SVGID_2_);fill-rule:evenodd;clip-rule:evenodd;fill:#41A548;}
	.st48{clip-path:url(#SVGID_2_);fill-rule:evenodd;clip-rule:evenodd;fill:#C3DB70;}
	.st49{fill-rule:evenodd;clip-rule:evenodd;fill:#E37325;}
	.st50{fill-rule:evenodd;clip-rule:evenodd;fill:#F3DFCE;}
	.st51{fill:#7D9139;}
	.st52{fill:#FBB040;}
	.st53{fill:#F9CF9D;}
	.st54{fill:#EF9C36;}
	.st55{fill:#99A950;}
	.st56{fill:#A12221;}
	.st57{fill:#66AA5A;}
	.st58{fill:#A33D3D;}
	.st59{fill:#3C853F;}
	.st60{fill:#647231;}
	.st61{fill:#BA2C2A;}
	.st62{fill:#9B1F20;}
	.st63{fill:#F2DAC2;}
	.st64{fill:#FCEBE6;}
	.st65{fill:#685345;}
	.st66{fill:#DECFCC;}
	.st67{fill:#C09170;}
	.st68{fill:#C4BDB8;}
	.st69{fill:#DBBDA2;}
	.st70{fill:#FEF074;}
	.st71{fill:#BF2026;}
	.st72{fill:#FCC960;}
	.st73{fill:#961B1F;}
	.st74{fill:#FFF0B1;}
	.st75{fill:#EAD95B;}
	.st76{fill:#F8C585;}
	.st77{fill:#ECB553;}
	.st78{fill:#C2B9BE;}
	.st79{opacity:0.1;fill:#010101;}
	.st80{fill:#71A2D6;}
	.st81{opacity:0.05;fill:#010101;}
	.st82{opacity:0.2;fill:#010101;}
	.st83{fill:#A39DA1;}
	.st84{fill:#CFC5CA;stroke:#3A3637;stroke-miterlimit:10;}
	.st85{fill:#5A5A5A;stroke:#3A3637;stroke-miterlimit:10;}
	.st86{fill:#9ABFDF;}
	.st87{fill:#EFEFEF;}
	.st88{fill:#515151;}
	.st89{fill:#C2B9BE;stroke:#3A3637;stroke-miterlimit:10;}
	.st90{fill:#4F8BB8;}
	.st91{fill:#EEE7DE;}
	.st92{fill:#E5F2F9;}
	.st93{fill:#E07228;}
	.st94{fill:#FFFAF2;}
	.st95{fill:#BC5527;}
	.st96{fill:#F4A269;}
	.st97{fill:#E5D8C3;}
	.st98{fill:#B1DEED;}
	.st99{fill:#39B54A;}
	.st100{fill:#F26726;}
	.st101{fill:#D75427;}
	.st102{fill:#F17F53;}
	.st103{fill:#034C28;}
	.st104{fill:#009444;}
	.st105{fill:#006838;}
	.st106{fill:#036936;}
	.st107{fill:#D2D3D4;}
	.st108{fill:#60402C;}
	.st109{fill:#8B5F3D;}
	.st110{fill:#FFF6EB;}
	.st111{fill:#754929;}
	.st112{fill:#FBC848;}
	.st113{fill:#F7AE33;}
	.st114{fill:none;stroke:#006838;stroke-width:2;stroke-linejoin:round;stroke-miterlimit:10;}
	.st115{fill:#59595A;}
	.st116{fill:#BE202D;}
	.st117{fill:#8E191D;}
	.st118{fill:#E05151;}
	.st119{fill:#F9CC6A;}
	.st120{fill:#F48E21;}
	.st121{fill:#D07528;}
	.st122{fill:#F0F9FE;stroke:#3A3637;stroke-linecap:round;stroke-linejoin:round;stroke-miterlimit:10;}
	.st123{fill:#A97C50;}
	.st124{fill:#E8EA83;}
	.st125{fill:#728C4D;stroke:#3A3637;stroke-miterlimit:10;}
	.st126{fill:#672D26;stroke:#3A3637;stroke-miterlimit:10;}
	.st127{fill:#566833;}
	.st128{fill:#D9A93E;}
	.st129{fill:#C59139;}
	.st130{fill:#71483D;}
	.st131{fill:#663830;}
	.st132{fill:#FFC62E;}
	.st133{fill:#79AF42;}
	.st134{fill:#527D39;}
	.st135{fill:#E51E25;}
	.st136{fill:#F1CD7E;}
	.st137{fill:#B4BAA1;}
	.st138{fill:#B0B990;}
	.st139{fill:#F1F5D0;}
	.st140{fill:#8E221C;}
	.st141{fill:#9B4242;}
	.st142{fill:#57170A;}
</style><g><path class="st112" d="M23.3904781,53.9943771l71.4849014,56.6747971l-6.6592026-88.4930954   c0,0-17.7631989-5.2432003-39.6273994,8.4804001C26.7249775,44.3791771,23.3904781,53.9943771,23.3904781,53.9943771z"/><g><path class="st113" d="M83.5499878,25.7699661c0,0,0.1037598,0.2926598,0.2615967,0.8417282    c0.1595459,0.5445786,0.3418579,1.3648205,0.5726929,2.3702755c0.2167969,1.0072346,0.4387207,2.2294331,0.6983643,3.6069813    c0.2396851,1.3895798,0.5189819,2.8761673,0.864563,4.5533981c0.1693115,0.8368607,0.3116455,1.7764587,0.3762817,2.7643623    c0.0447388,0.9964905,0.026062,2.0307732-0.0713501,3.0765228c-0.196167,2.094162-0.4494019,4.2343597-0.3743896,6.4447021    c0.0374756,2.2049103,0.3200684,4.5422592,0.5464478,6.8741264c0.2501831,2.3306503,0.2196655,4.5934906,0.5407715,6.7735443    c0.133667,1.0934219,0.357605,2.1629562,0.5371704,3.2384491c0.2201538,1.1357193,0.4394531,2.266983,0.6570435,3.3893433    c0.4231567,2.3568954,0.6836548,4.6140976,0.9536133,6.8217316c0.2745361,2.200058,0.4504395,4.3362122,0.6275024,6.3596039    c0.1783447,2.0233078,0.2686157,3.945549,0.3612671,5.7182312c0.1460571,3.5498276,0.1330566,6.5227585-0.0377808,8.6117783    c-0.0801392,1.0442734-0.2025757,1.867424-0.3319092,2.4259033c-0.06604,0.2799225-0.1220093,0.492691-0.1802979,0.6376648    c-0.0505371,0.1426163-0.0765991,0.2162247-0.0765991,0.2162247c-0.0366821,0.1035538-0.1503906,0.1577606-0.2539062,0.1210785    c-0.0887451-0.0314331-0.1412354-0.1194077-0.1313477-0.2090988l0.003479-0.0312958c0,0,0.0075684-0.0692673,0.0223389-0.203476    c0.0214844-0.1291656,0.0274658-0.3336258,0.0291138-0.6003418c-0.0064087-0.5353012-0.0575562-1.3280792-0.1719971-2.3387222    c-0.2366943-2.0217285-0.7001953-4.908638-1.3179321-8.3627853c-0.3130493-1.7264481-0.6522217-3.596756-1.0109863-5.5749741    c-0.3723145-1.9742203-0.7648926-4.0561218-1.1710815-6.209816c-0.4073486-2.1434021-0.8601074-4.3820496-1.3366089-6.5610809    c-0.1948242-0.9572983-0.6627197-2.2049484-0.8581543-3.424942c-0.2342529-1.2259521-0.3441162-2.4855957-0.355957-3.7371407    c-0.0291748-2.5090294,0.1958008-4.9512215,0.7352295-7.2320404c0.5309448-2.2814751,1.0413818-4.4929352,0.9977417-6.6926575    c0.0620728-2.1930313-0.3381348-4.3111229-0.8708496-6.2395706c-0.5229492-1.9412918-1.0725708-3.6202278-1.3773193-5.4035988    c-0.31073-1.7844429-0.4122314-3.5110245-0.3634033-4.9771919c0.0499878-1.4772987,0.185791-2.7499027,0.3548584-3.797102    c0.3371582-2.0777912,0.75177-3.246191,0.75177-3.246191c0.0370483-0.1108074,0.1569214-0.1706104,0.2677002-0.1335754    C83.4802246,25.6609154,83.5281372,25.7128258,83.5499878,25.7699661z"/></g><path class="st114" d="M53.1619797,57.5051765c0,0-5.7876015-4.0214996-0.4434013-6.6991997   c3.6694984-1.8388977,5.5004997,1.5449028,5.5186005,2.118103c0.0873985-2.6445007,0.4540977-7.1328011,5.4678001-4.8232002   c5.8237,2.6825981,2.2621994,6.1239967,0.6776962,6.8055992c2.6421051,0.086998,5.6607056,1.1954002,4.1411057,5.7187996   c-1.5171051,4.5244026-4.9331017,1.8223-5.6220016,1.7881012"/><g><circle class="st18" cx="64.6380768" cy="72.9860764" r="4.1083999"/><circle class="st112" cx="64.6380539" cy="72.9866028" r="1.7444"/><g><path class="st115" d="M63.8619995,70.6536407c0,0-0.2941284,0.0982437-0.7234497,0.3689499     c-0.4119263,0.2675705-0.9429932,0.7062607-1.222168,1.3136368c-0.3030396,0.5961609-0.3065186,1.3176956-0.1790161,1.823822     c0.0385132,0.26194,0.1342163,0.4627533,0.1820679,0.6101456c0.0527344,0.1464157,0.0828247,0.2300797,0.0828247,0.2300797     s-0.0407715-0.0788345-0.1121826-0.2167969c-0.0670166-0.1402664-0.1906128-0.3308487-0.2655029-0.5915833     c-0.1971436-0.4969025-0.3082275-1.268074-0.0564575-1.9947433c0.2275391-0.7348404,0.7651367-1.3172531,1.1931763-1.6825867     c0.4283447-0.3622818,0.7924805-0.5446548,0.7924805-0.5446548l0.0203247-0.01017     c0.1859131-0.093132,0.4121704-0.0178757,0.5053101,0.1680832c0.0931396,0.1859665,0.0178833,0.4122162-0.1680908,0.5053482     C63.895813,70.6409454,63.8779907,70.6481857,63.8619995,70.6536407z"/></g></g><g><ellipse class="st18" cx="68.0108795" cy="37.9829521" rx="4.3875446" ry="4.3874359" transform="matrix(0.9500993 -0.3119476 0.3119476 0.9500993 -8.4549007 23.1112022)"/><ellipse class="st112" cx="68.0111008" cy="37.9822044" rx="1.744392" ry="1.7448039" transform="matrix(0.9500781 -0.3120121 0.3120121 0.9500781 -8.4556656 23.1164322)"/><g><path class="st115" d="M66.0578003,39.3774376c0,0,0.133667,0.2861519,0.4780273,0.6770821     c0.3317261,0.3790817,0.8855591,0.8141022,1.5665283,0.8885155c0.1671753,0.0318489,0.3383789,0.0032806,0.5093994,0.0069656     c0.1655273-0.0392265,0.3365479-0.0605736,0.4951172-0.1113548c0.1569214-0.0621033,0.3085327-0.1221352,0.4523315-0.1790619     c0.135376-0.0794296,0.2633057-0.1545296,0.3814087-0.2238503c0.2457275-0.129715,0.4074707-0.3004494,0.5424194-0.3918495     c0.1287842-0.1004868,0.2023315-0.1579056,0.2023315-0.1579056s-0.064209,0.0674706-0.1765137,0.1855392     c-0.119812,0.1100616-0.2585449,0.3069191-0.4869995,0.4752693c-0.1112061,0.0894547-0.2317505,0.1863632-0.3591919,0.2888641     c-0.1434937,0.0830765-0.2948608,0.1706848-0.451416,0.2613144c-0.1630859,0.0805016-0.3477783,0.1343994-0.5310059,0.2045746     c-0.1924438,0.0280342-0.3916626,0.0871162-0.5949707,0.0814209c-0.8356323,0.0345535-1.6056519-0.3995895-2.0618896-0.7905693     c-0.2336426-0.1971207-0.4116821-0.3800087-0.5286865-0.5184212c-0.1203613-0.1373367-0.187439-0.2374153-0.1825562-0.2282524     c-0.1292725-0.2059097-0.0671997-0.4776611,0.1387329-0.6069756     C65.6567383,39.1094322,65.9285278,39.1715279,66.0578003,39.3774376z"/></g></g><ellipse class="st116" cx="78.5084305" cy="54.0334778" rx="7.5978708" ry="7.5986571" transform="matrix(0.909845 -0.4149483 0.4149483 0.909845 -15.3431721 37.4483299)"/><path class="st117" d="M79.5267792,52.4426765c0,0,2.4813995-2.169899,0-3.7206993   c-2.4810028-1.5517998-4.1875-0.3106003-4.9625015,0.9286995c-0.7749023,1.2411995,0.4654007,2.017601,1.240303,3.2568016   c0.7577972,1.2128983-2.4804993,0.1562996-2.7905045,1.3964996c-0.3096008,1.2402-0.3106003,4.4961014,2.4813995,3.7216988   c2.0918045-0.5811005,1.7056046-2.0165977,1.7056046-2.0165977s-0.658699,2.4150009-0.155304,3.2567978   c0.9301987,1.5498009,2.7910004,0.9297028,3.4115982,0.7754021c0.6206055-0.1553001,2.6358032-1.3955002,1.3945007-3.2558022   c-1.0355988-1.5537987-1.2401962-1.2412987-1.2401962-1.2412987s0.9311981,0.464901,2.4814987-0.3095016   c1.5506973-0.7753983,1.5497971-0.9306984,1.7060013-2.1708984C84.9539795,51.8225784,82.6277771,49.8068771,79.5267792,52.4426765   z"/><g><path class="st118" d="M77.975975,54.4748764c0,0-1.5718002,1.9434013-1.9306946,1.0107002    C75.5662766,54.241478,77.975975,54.4748764,77.975975,54.4748764z"/><path class="st118" d="M79.5315781,54.2727776c0,0,1.9458008-1.5673981,2.0987015-0.5790977    C81.8372803,55.0119781,79.5315781,54.2727776,79.5315781,54.2727776z"/><path class="st118" d="M78.4065781,53.6760788c0,0-1.5410004-1.9658012-0.5522003-2.1084023    C79.1751785,51.3811798,78.4065781,53.6760788,78.4065781,53.6760788z"/><path class="st118" d="M78.8528748,55.1438789c0,0,1.5410004,1.9666977,0.5522995,2.107399    C78.0833817,57.4396782,78.8528748,55.1438789,78.8528748,55.1438789z"/></g><ellipse class="st116" cx="48.4954796" cy="59.0259018" rx="7.5983467" ry="7.5972924" transform="matrix(0.909811 -0.4150229 0.4150229 0.909811 -20.1233406 25.4502201)"/><path class="st117" d="M49.5140762,57.4357796c0,0,2.4809036-2.1709023,0-3.7216034   c-2.4804993-1.5507965-4.1870995-0.3105965-4.9628983,0.930603c-0.7739983,1.2392998,0.4653015,2.014698,1.2411995,3.2558975   c0.7578011,1.2119026-2.4804993,0.1553001-2.7910004,1.3955002c-0.3101006,1.2402-0.3111,4.4971008,2.4808998,3.7217026   c2.0928001-0.580101,1.7056007-2.0157013,1.7056007-2.0157013s-0.658699,2.4151001-0.1543007,3.2559013   c0.9291992,1.5507965,2.7910004,0.9307022,3.4106026,0.7753983c0.6205978-0.1542969,2.6357994-1.3955002,1.3955002-3.2568016   c-1.0356026-1.5527992-1.2412033-1.2402992-1.2412033-1.2402992s0.9326019,0.4668007,2.4824028-0.3094978   c1.5503006-0.7764015,1.5503006-0.9307022,1.7055969-2.1719017C54.9417763,56.8146782,52.6155777,54.8000793,49.5140762,57.4357796   z"/><g><path class="st118" d="M47.9627762,59.4670792c0,0-1.570797,1.9442978-1.9306984,1.0107002    C45.5535774,59.2326775,47.9627762,59.4670792,47.9627762,59.4670792z"/><path class="st118" d="M49.5193787,59.2658768c0,0,1.9463005-1.5663986,2.0986977-0.5800972    C51.8245773,60.0051765,49.5193787,59.2658768,49.5193787,59.2658768z"/><path class="st118" d="M48.3933792,58.6682777c0,0-1.5400009-1.964901-0.5512009-2.1064987    C49.1629791,56.374279,48.3933792,58.6682777,48.3933792,58.6682777z"/><path class="st118" d="M48.8396797,60.1359787c0,0,1.5410995,1.9659004,0.5522995,2.1074982    C48.0711784,62.4309769,48.8396797,60.1359787,48.8396797,60.1359787z"/></g><ellipse class="st116" cx="81.2915039" cy="80.8894501" rx="7.5983467" ry="7.5978508" transform="matrix(0.9098099 -0.4150253 0.4150253 0.9098099 -26.2394753 41.0334549)"/><path class="st117" d="M82.3099747,79.3000793c0,0,2.4814072-2.1708984,0-3.7217026   c-2.4804993-1.5507965-4.1870956-0.3105011-4.9628983,0.9307022c-0.7740021,1.2382965,0.4653015,2.0146027,1.2412033,3.2557983   c0.7577972,1.211998-2.4804993,0.155304-2.7910004,1.3955994c-0.3101044,1.2402039-0.3106003,4.4970016,2.4813995,3.7216034   c2.0923004-0.5810013,1.705101-2.0166016,1.705101-2.0166016s-0.658699,2.4151001-0.1543045,3.256897   c0.9297028,1.550705,2.7910004,0.930603,3.4106064,0.7743988c0.6205978-0.1542969,2.6357956-1.3954926,1.3954926-3.2558975   c-1.0355988-1.5526962-1.2406998-1.2401962-1.2406998-1.2401962s0.932106,0.4657974,2.4819031-0.3096008   c1.5503006-0.7764053,1.5503006-0.930603,1.7055969-2.1719055C87.7376785,78.678978,85.4119797,76.6643753,82.3099747,79.3000793z"/><g><path class="st118" d="M80.7591782,81.3313751c0,0-1.5712967,1.9443054-1.9311981,1.0097046    C78.3494797,81.0969772,80.7591782,81.3313751,80.7591782,81.3313751z"/><path class="st118" d="M82.3152771,81.1291809c0,0,1.9463043-1.5664062,2.0987015-0.5791016    C84.6204758,81.8693771,82.3152771,81.1291809,82.3152771,81.1291809z"/><path class="st118" d="M81.1897812,80.5324783c0,0-1.5400009-1.964798-0.5517044-2.1063995    C81.9593811,78.2385788,81.1897812,80.5324783,81.1897812,80.5324783z"/><path class="st118" d="M81.6355743,82.0002747c0,0,1.5411072,1.9658051,0.552803,2.1074066    C80.8670807,84.2951813,81.6355743,82.0002747,81.6355743,82.0002747z"/></g><path class="st119" d="M25.7234783,50.6262779C46.302578,23.7775784,80.879776,16.7863789,85.9549789,18.8498783   c4.0394974,1.6415997,2.1639862,5.607399,2.1639862,5.607399c-51.3638039,7.137701-59.6781845,31.6465015-61.0790863,33.069397   C24.552578,55.3850784,21.8216782,55.7170792,25.7234783,50.6262779z"/><circle class="st113" cx="58.1253548" cy="67.173851" r="0.69775"/><circle class="st113" cx="55.7993279" cy="41.3557549" r="0.698125"/><circle class="st113" cx="75.5702057" cy="66.941452" r="0.69775"/><circle class="st113" cx="84.8739014" cy="95.0855026" r="0.69775"/><circle class="st113" cx="76.9657059" cy="33.6802025" r="0.69775"/><circle class="st113" cx="35.3309021" cy="55.5439529" r="0.69775"/><path class="st120" d="M20.2122784,53.2180786c19.3057003-30.7021999,64.2577972-37.8428001,69.3134995-35.8194008   c4.0238953,1.6103992-1.142601,5.4433994-1.142601,5.4433994c-51.1665001,7-60.9605026,31.5391026-62.3560028,32.9346008   C24.6316776,57.1721764,16.8440781,58.5754776,20.2122784,53.2180786z"/><path class="st33" d="M94.6253815,110.9191742l-6.6079025-87.8104935c0.0390015-0.0049,0.0765991-0.0117016,0.1156998-0.0166016   c0,0,5.1664963-3.8330002,1.142601-5.4433994c-5.0557022-2.0233994-50.0078011,5.1172009-69.3134995,35.8194008   c-3.2402,5.1543007,3.8407993,4.0508003,5.6264992,2.7168007L94.6253815,110.9191742z"/><g><path class="st121" d="M23.9698486,52.4468842c0,0,0.550354-1.0079994,1.6229858-2.6981163    c1.0804443-1.6808128,2.6541748-4.0993919,5.0794678-6.6340332c0.6154785-0.6226807,1.2826538-1.2496033,2.003479-1.8684196    c0.7459717-0.6089249,1.5-1.1761017,2.3014526-1.7448616c1.5961914-1.143734,3.371521-2.2338562,5.2068481-3.3502541    c1.8679199-1.0721283,3.7249756-2.2433815,5.6105957-3.474411c1.8981934-1.2023907,3.8001099-2.490694,5.8515015-3.5713577    c1.0222168-0.5436172,2.0706787-1.0559502,3.1547852-1.4844131c1.0643311-0.3874722,2.1245117-0.7734261,3.1763306-1.1563396    c2.0758057-0.7651005,4.0952759-1.6223431,6.0619507-2.4493408c3.9337158-1.647049,7.7636108-2.9977036,11.1849365-3.7067566    c1.7087402-0.3509617,3.3032837-0.5665302,4.7254639-0.6155796c1.4200439-0.0550232,2.6591797-0.0337868,3.6687622,0.0999298    c1.0091553,0.1274509,1.7893066,0.2775974,2.3150635,0.404047c0.5219116,0.1386833,0.8002319,0.2126484,0.8002319,0.2126484    l-0.0350342,0.1969032c0,0-0.2841797-0.0125542-0.8170166-0.0360966    c-0.5307007-0.0209961-1.3083496-0.0409946-2.2897949,0.0096703c-0.980896,0.0578632-2.1658325,0.1454353-3.5046997,0.3842297    c-1.3373413,0.240757-2.8313599,0.5784798-4.4342041,1.0607452c-1.609314,0.4559841-3.3213501,1.0726624-5.1343384,1.7395    c-1.8151855,0.6974449-3.7294312,1.4329338-5.7096558,2.1937828c-2.0029907,0.7406082-4.0821533,1.5182686-6.2456055,2.2098961    c-1.0842285,0.3426533-2.2156982,0.6438217-3.2640991,0.9204063c-1.0610352,0.3079472-2.1235962,0.6544247-3.1680298,1.0648537    c-2.0888062,0.8202095-4.1157227,1.8557758-6.0054321,3.0445576c-1.8883057,1.1866798-3.6932983,2.4751053-5.3530884,3.8057899    c-1.6781616,1.3079758-3.2211304,2.6721077-4.7485962,3.8844833c-1.5534668,1.2212753-2.9522095,2.2747345-4.1568604,3.4410553    c-1.2199707,1.1339149-2.2655029,2.2668533-3.2003174,3.2742233c-0.9240723,1.0277786-1.7296753,1.9237938-2.3930664,2.6616859    c-1.3286133,1.4888611-2.1443481,2.30196-2.1443481,2.30196L23.9698486,52.4468842z"/></g></g></svg>