<?xml version="1.0" ?><!DOCTYPE svg  PUBLIC '-//W3C//DTD SVG 1.1//EN'  'http://www.w3.org/Graphics/SVG/1.1/DTD/svg11.dtd'><svg height="25" version="1.1" viewBox="0, 0, 100, 100" width="25" xmlns="http://www.w3.org/2000/svg" xmlns:xlink="http://www.w3.org/1999/xlink"><g id="Layer_2"><g id="Devops0"><path d="M70.899,29.865 C81.187,29.865 91.689,37.781 91.689,50.127 C91.689,62.473 80.535,70.135 72.305,70.135 C62.256,70.135 58.651,65.412 56.202,62.767 C54.521,60.988 52.797,59.251 51.078,57.51 L57.595,50.993 C59.221,52.631 60.847,54.27 62.473,55.908 C62.473,55.908 65.407,60.614 71.484,60.547 C77.705,60.479 82.217,56.24 82.08,49.61 C81.934,42.556 76.883,39.563 71.487,39.447 C67.246,39.356 63.623,42.706 63.623,42.706 C63.623,42.706 63.648,36.214 63.648,36.214 C63.648,36.214 57.129,36.28 57.129,36.28 C57.129,36.28 62.94,29.865 70.899,29.865 z" fill="#ffffff"/><path d="M39.713,38.151 C41.44,38.153 43.167,38.168 44.893,38.194 C46.275,39.587 47.658,40.98 49.04,42.373 L42.522,48.89 C41.103,47.466 39.683,46.042 38.262,44.62 L38.262,38.194 C38.272,38.147 38.263,38.179 38.381,38.171 C38.823,38.142 39.272,38.153 39.713,38.151 z" fill="#ffffff"/><path d="M61.738,38.194 C61.738,38.194 61.738,44.62 61.738,44.62 C61.738,44.62 46.248,60.121 43.798,62.767 C41.349,65.412 37.744,70.135 27.695,70.135 C19.465,70.135 8.311,62.473 8.311,50.127 C8.311,37.781 18.813,29.865 29.101,29.865 C37.06,29.865 42.871,36.28 42.871,36.28 C42.871,36.28 36.352,36.214 36.352,36.214 C36.352,36.214 36.377,42.706 36.377,42.706 C36.377,42.706 32.754,39.356 28.513,39.447 C23.117,39.563 18.066,42.556 17.92,49.61 C17.783,56.24 22.295,60.479 28.516,60.547 C34.593,60.614 37.527,55.908 37.527,55.908 C37.527,55.908 55.107,38.194 55.107,38.194 C55.107,38.194 61.934,38.096 61.738,38.194 z" fill="#ffffff"/></g></g></svg>