<?xml version="1.0" ?><!DOCTYPE svg  PUBLIC '-//W3C//DTD SVG 1.1//EN'  'http://www.w3.org/Graphics/SVG/1.1/DTD/svg11.dtd'><svg enable-background="new 0 0 48 48" id="Layer_1" version="1.1" viewBox="0 0 48 48" xml:space="preserve" xmlns="http://www.w3.org/2000/svg" xmlns:xlink="http://www.w3.org/1999/xlink"><g><path fill="#fff" d="M30.8,0.5H17.2c-0.8,0-1.5,0.7-1.5,1.5v10.1c0,0.8,0.7,1.5,1.5,1.5h13.6c0.8,0,1.5-0.7,1.5-1.5V2   C32.3,1.2,31.7,0.5,30.8,0.5z M29.3,10.6H18.7V3.5h10.6V10.6z"/><path fill="#fff" d="M30.8,17.8H17.2c-0.8,0-1.5,0.7-1.5,1.5v10.1c0,0.8,0.7,1.5,1.5,1.5h13.6c0.8,0,1.5-0.7,1.5-1.5V19.3   C32.3,18.4,31.7,17.8,30.8,17.8z M29.3,27.9H18.7v-7.1h10.6V27.9z"/><path fill="#fff" d="M30.8,34.4H17.2c-0.8,0-1.5,0.7-1.5,1.5V46c0,0.8,0.7,1.5,1.5,1.5h13.6c0.8,0,1.5-0.7,1.5-1.5V35.9   C32.3,35.1,31.7,34.4,30.8,34.4z M29.3,44.5H18.7v-7.1h10.6V44.5z"/><path fill="#fff" d="M46,5.6H35.8c-0.8,0-1.5,0.7-1.5,1.5s0.7,1.5,1.5,1.5h8.7v14.3h-5.4l1-1.2c0.5-0.6,0.5-1.6-0.2-2.1   c-0.6-0.5-1.6-0.5-2.1,0.2l-3.2,3.6c0,0,0,0,0,0c-0.1,0.1-0.2,0.3-0.2,0.4c0,0,0,0,0,0.1c-0.1,0.1-0.1,0.3-0.1,0.5c0,0,0,0,0,0   c0,0.2,0,0.3,0.1,0.5c0,0,0,0,0,0.1c0.1,0.2,0.1,0.3,0.2,0.4c0,0,0,0,0,0l3.2,3.6c0.3,0.3,0.7,0.5,1.1,0.5c0.3,0,0.7-0.1,1-0.4   c0.6-0.5,0.7-1.5,0.2-2.1l-1-1.2H46c0.8,0,1.5-0.7,1.5-1.5V7.1C47.5,6.2,46.8,5.6,46,5.6z"/><path fill="#fff" d="M13.6,42.1c0.1-0.1,0.1-0.3,0.1-0.5c0,0,0,0,0,0c0-0.2,0-0.3-0.1-0.5c0,0,0,0,0-0.1c-0.1-0.2-0.1-0.3-0.2-0.4c0,0,0,0,0,0   L10.2,37c-0.5-0.6-1.5-0.7-2.1-0.2c-0.6,0.5-0.7,1.5-0.2,2.1l1,1.2H3.5V25.8h8.7c0.8,0,1.5-0.7,1.5-1.5c0-0.8-0.7-1.5-1.5-1.5H2   c-0.8,0-1.5,0.7-1.5,1.5v17.3c0,0.8,0.7,1.5,1.5,1.5h6.9l-1,1.2c-0.5,0.6-0.5,1.6,0.2,2.1c0.3,0.2,0.6,0.4,1,0.4   c0.4,0,0.8-0.2,1.1-0.5l3.2-3.6c0,0,0,0,0,0C13.5,42.4,13.5,42.3,13.6,42.1C13.6,42.1,13.6,42.1,13.6,42.1z"/></g></svg>