<svg height="24px" id="Layer_1" style="enable-background:new 0 0 24 24;" version="1.1" viewBox="0 0 24 24" width="24px" xml:space="preserve" xmlns="http://www.w3.org/2000/svg" xmlns:xlink="http://www.w3.org/1999/xlink"><g><polygon fill="#ffffff" points="20.536,15 19.959,14 18.805,14 19.381,15  "/><polygon fill="#ffffff" points="21.113,16 19.958,16 20.535,17 21.689,17  "/><polygon fill="#ffffff" points="18.805,12 17.648,12 18.227,13 19.381,13  "/><polygon fill="#ffffff" points="14.764,7 15.917,7 15.34,6 15.2,6 14.186,6  "/><polygon fill="#ffffff" points="13.607,5 14.764,5 14.186,4 13.029,4  "/><polygon fill="#ffffff" points="15.917,9 17.072,9 16.494,8 15.34,8  "/><polygon fill="#ffffff" points="18.227,11 17.648,10 17.2,10 16.494,10 17.07,11  "/><polygon fill="#ffffff" points="12.779,15 12.202,14 10.874,14 11.451,15  "/><polygon fill="#ffffff" points="8.564,10 9.142,11 10.47,11 9.892,10  "/><polygon fill="#ffffff" points="11.047,12 9.719,12 10.296,13 11.625,13  "/><polygon fill="#ffffff" points="13.184,18 13.761,19 15.089,19 14.512,18  "/><polygon fill="#ffffff" points="21.113,18 21.689,19 22.846,19 22.268,18  "/><polygon fill="#ffffff" points="13.355,16 12.028,16 12.605,17 13.934,17  "/><polygon fill="#ffffff" points="11.94,2.112 12.453,3 13.607,3 13.029,2 10.85,2 10.273,3 11.428,3  "/><polygon fill="#ffffff" points="11.94,0.112 11.428,1 12.453,1  "/><rect fill="#ffffff" height="1" width="1" x="20" y="20"/><rect fill="#ffffff" height="1" width="1" x="18" y="20"/><polygon fill="#ffffff" points="23.423,20 22,20 22,21 24,21  "/><polygon fill="#ffffff" points="8.737,8 7.386,8 6.809,9 9.315,9  "/><rect fill="#ffffff" height="1" width="1" x="16" y="20"/><polygon fill="#ffffff" points="9.695,6 8.541,6 7.964,7 9.118,7  "/><rect fill="#ffffff" height="1" width="1" x="12" y="20"/><rect fill="#ffffff" height="1" width="1" x="14" y="20"/><rect fill="#ffffff" height="1" width="1" x="10" y="20"/><polygon fill="#ffffff" points="10.85,4 9.696,4 9.118,5 10.273,5  "/><polygon fill="#ffffff" points="7.386,10 6.231,10 5.654,11 6.809,11  "/><polygon fill="#ffffff" points="6.231,12 5.077,12 4.5,13 5.654,13  "/><polygon fill="#ffffff" points="4.498,13.003 0,21.016 9,21 9,20 8.437,20  "/></g></svg>