<svg xmlns="http://www.w3.org/2000/svg" xmlns:xlink="http://www.w3.org/1999/xlink" viewBox="0 0 3150.93 3407.91"><defs><style>.cls-2{fill:#dbf8ff}.cls-3{fill:#c7f1ff}.cls-4{fill:#fff}.cls-10,.cls-5{fill:#a7d2f2}.cls-5{mix-blend-mode:multiply}.cls-6{fill:#ffcc5e}.cls-11{fill:#92a5eb}.cls-12{fill:#857aff}.cls-13{fill:#788acb}.cls-14{fill:#b52448}.cls-15{fill:#ff525d}.cls-16{fill:#f48e6e}.cls-17{fill:#df5d31}.cls-18{fill:#0059b0}.cls-19{fill:#008bf2}.cls-20{fill:#ffc391}.cls-21{fill:#ffa16e}.cls-22{fill:#e56d45}.cls-23{fill:#5e64a6}.cls-24{fill:#454563}</style><linearGradient id="_ÂÁ_Ï_ÌÌ_È_ËÂÌÚ_30" x1="-945.46" y1="2596.93" x2="3748.34" y2="2596.93" gradientUnits="userSpaceOnUse"><stop offset="0" stop-color="#dbf8ff"/><stop offset="1" stop-color="#92a5eb"/></linearGradient><linearGradient id="_ÂÁ_Ï_ÌÌ_È_ËÂÌÚ_30-2" x1="287.68" y1="2876.69" x2="2458.04" y2="2876.69" xlink:href="#_ÂÁ_Ï_ÌÌ_È_ËÂÌÚ_30"/><linearGradient id="_ÂÁ_Ï_ÌÌ_È_ËÂÌÚ_30-3" x1="413.19" y1="2042.27" x2="2583.55" y2="2042.27" xlink:href="#_ÂÁ_Ï_ÌÌ_È_ËÂÌÚ_30"/><linearGradient id="linear-gradient" x1="2055.48" y1="2209.26" x2="2046" y2="2192.18" gradientUnits="userSpaceOnUse"><stop offset="0" stop-color="#dee8ff"/><stop offset="1" stop-color="#788acb"/></linearGradient><linearGradient id="linear-gradient-2" x1="2227.28" y1="2103.9" x2="2218.57" y2="2088.22" xlink:href="#linear-gradient"/><linearGradient id="linear-gradient-3" x1="2227" y1="2239.11" x2="1916.8" y2="1680.76" xlink:href="#linear-gradient"/><linearGradient id="linear-gradient-4" x1="2334.52" y1="2076.33" x2="2311.35" y2="2076.33" gradientUnits="userSpaceOnUse"><stop offset="0" stop-color="#fff"/><stop offset="1" stop-color="#e1e6f0"/></linearGradient><linearGradient id="linear-gradient-5" x1="2541.15" y1="2213.42" x2="2541.07" y2="2213.42" xlink:href="#linear-gradient-4"/><linearGradient id="linear-gradient-6" x1="2446.3" y1="1977.61" x2="2184.95" y2="1977.61" gradientUnits="userSpaceOnUse"><stop offset="0" stop-color="#788acb"/><stop offset="1" stop-color="#dee8ff"/></linearGradient><linearGradient id="_ÂÁ_Ï_ÌÌ_È_ËÂÌÚ_30-4" x1="764.74" y1="984.64" x2="2201.64" y2="984.64" xlink:href="#_ÂÁ_Ï_ÌÌ_È_ËÂÌÚ_30"/><linearGradient id="_ÂÁ_Ï_ÌÌ_È_ËÂÌÚ_30-5" x1="764.74" y1="984.64" x2="2201.64" y2="984.64" xlink:href="#_ÂÁ_Ï_ÌÌ_È_ËÂÌÚ_30"/><linearGradient id="_ÂÁ_Ï_ÌÌ_È_ËÂÌÚ_30-6" x1="-464.09" y1="1813.16" x2="1614.88" y2="1813.16" xlink:href="#_ÂÁ_Ï_ÌÌ_È_ËÂÌÚ_30"/><linearGradient id="_ÂÁ_Ï_ÌÌ_È_ËÂÌÚ_30-7" x1="-150.33" y1="1884" x2="1286.57" y2="1884" xlink:href="#_ÂÁ_Ï_ÌÌ_È_ËÂÌÚ_30"/><linearGradient id="_ÂÁ_Ï_ÌÌ_È_ËÂÌÚ_30-8" x1="841.36" y1="1801.02" x2="1437.61" y2="1801.02" xlink:href="#_ÂÁ_Ï_ÌÌ_È_ËÂÌÚ_30"/><linearGradient id="_ÂÁ_Ï_ÌÌ_È_ËÂÌÚ_30-9" x1="1059.49" y1="1850.51" x2="1209.38" y2="1850.51" xlink:href="#_ÂÁ_Ï_ÌÌ_È_ËÂÌÚ_30"/><linearGradient id="_ÂÁ_Ï_ÌÌ_È_ËÂÌÚ_30-10" x1="896.32" y1="1900.21" x2="1492.56" y2="1900.21" xlink:href="#_ÂÁ_Ï_ÌÌ_È_ËÂÌÚ_30"/><linearGradient id="_ÂÁ_Ï_ÌÌ_È_ËÂÌÚ_30-11" x1="1114.44" y1="1949.7" x2="1264.33" y2="1949.7" xlink:href="#_ÂÁ_Ï_ÌÌ_È_ËÂÌÚ_30"/><linearGradient id="_ÂÁ_Ï_ÌÌ_È_ËÂÌÚ_30-12" x1="951.27" y1="1999.41" x2="1547.52" y2="1999.41" xlink:href="#_ÂÁ_Ï_ÌÌ_È_ËÂÌÚ_30"/><linearGradient id="_ÂÁ_Ï_ÌÌ_È_ËÂÌÚ_30-13" x1="1169.39" y1="2048.89" x2="1319.28" y2="2048.89" xlink:href="#_ÂÁ_Ï_ÌÌ_È_ËÂÌÚ_30"/><linearGradient id="_ÂÁ_Ï_ÌÌ_È_ËÂÌÚ_30-14" x1="1006.22" y1="2098.6" x2="1602.47" y2="2098.6" xlink:href="#_ÂÁ_Ï_ÌÌ_È_ËÂÌÚ_30"/><linearGradient id="_ÂÁ_Ï_ÌÌ_È_ËÂÌÚ_30-15" x1="1224.34" y1="2148.09" x2="1374.23" y2="2148.09" xlink:href="#_ÂÁ_Ï_ÌÌ_È_ËÂÌÚ_30"/><linearGradient id="_ÂÁ_Ï_ÌÌ_È_ËÂÌÚ_30-16" x1="1061.17" y1="2197.79" x2="1657.42" y2="2197.79" xlink:href="#_ÂÁ_Ï_ÌÌ_È_ËÂÌÚ_30"/><linearGradient id="_ÂÁ_Ï_ÌÌ_È_ËÂÌÚ_30-17" x1="1279.29" y1="2247.28" x2="1429.18" y2="2247.28" xlink:href="#_ÂÁ_Ï_ÌÌ_È_ËÂÌÚ_30"/><linearGradient id="_ÂÁ_Ï_ÌÌ_È_ËÂÌÚ_30-18" x1="1116.12" y1="2296.99" x2="1712.37" y2="2296.99" xlink:href="#_ÂÁ_Ï_ÌÌ_È_ËÂÌÚ_30"/><linearGradient id="_ÂÁ_Ï_ÌÌ_È_ËÂÌÚ_30-19" x1="1334.24" y1="2346.47" x2="1484.13" y2="2346.47" xlink:href="#_ÂÁ_Ï_ÌÌ_È_ËÂÌÚ_30"/><linearGradient id="_ÂÁ_Ï_ÌÌ_È_ËÂÌÚ_30-20" x1="1171.07" y1="2396.18" x2="1767.32" y2="2396.18" xlink:href="#_ÂÁ_Ï_ÌÌ_È_ËÂÌÚ_30"/><linearGradient id="_ÂÁ_Ï_ÌÌ_È_ËÂÌÚ_30-21" x1="1389.19" y1="2445.67" x2="1539.09" y2="2445.67" xlink:href="#_ÂÁ_Ï_ÌÌ_È_ËÂÌÚ_30"/><linearGradient id="_ÂÁ_Ï_ÌÌ_È_ËÂÌÚ_30-22" x1="1833.1" y1="2250.85" x2="2429.35" y2="2250.85" xlink:href="#_ÂÁ_Ï_ÌÌ_È_ËÂÌÚ_30"/><linearGradient id="_ÂÁ_Ï_ÌÌ_È_ËÂÌÚ_30-23" x1="2051.22" y1="2300.34" x2="2201.11" y2="2300.34" xlink:href="#_ÂÁ_Ï_ÌÌ_È_ËÂÌÚ_30"/><linearGradient id="_ÂÁ_Ï_ÌÌ_È_ËÂÌÚ_30-24" x1="1888.05" y1="2350.04" x2="2484.3" y2="2350.04" xlink:href="#_ÂÁ_Ï_ÌÌ_È_ËÂÌÚ_30"/><linearGradient id="_ÂÁ_Ï_ÌÌ_È_ËÂÌÚ_30-25" x1="2106.17" y1="2399.53" x2="2256.06" y2="2399.53" xlink:href="#_ÂÁ_Ï_ÌÌ_È_ËÂÌÚ_30"/><linearGradient id="_ÂÁ_Ï_ÌÌ_È_ËÂÌÚ_30-26" x1="2050.61" y1="2626.58" x2="2646.86" y2="2626.58" xlink:href="#_ÂÁ_Ï_ÌÌ_È_ËÂÌÚ_30"/><linearGradient id="_ÂÁ_Ï_ÌÌ_È_ËÂÌÚ_30-27" x1="2268.73" y1="2676.07" x2="2418.62" y2="2676.07" xlink:href="#_ÂÁ_Ï_ÌÌ_È_ËÂÌÚ_30"/><linearGradient id="_ÂÁ_Ï_ÌÌ_È_ËÂÌÚ_30-28" x1="2105.56" y1="2725.77" x2="2701.81" y2="2725.77" xlink:href="#_ÂÁ_Ï_ÌÌ_È_ËÂÌÚ_30"/><linearGradient id="_ÂÁ_Ï_ÌÌ_È_ËÂÌÚ_30-29" x1="2323.68" y1="2775.26" x2="2473.57" y2="2775.26" xlink:href="#_ÂÁ_Ï_ÌÌ_È_ËÂÌÚ_30"/><linearGradient id="_ÂÁ_Ï_ÌÌ_È_ËÂÌÚ_30-30" x1="2160.51" y1="2824.97" x2="2756.76" y2="2824.97" xlink:href="#_ÂÁ_Ï_ÌÌ_È_ËÂÌÚ_30"/><linearGradient id="_ÂÁ_Ï_ÌÌ_È_ËÂÌÚ_30-31" x1="2378.63" y1="2874.45" x2="2528.52" y2="2874.45" xlink:href="#_ÂÁ_Ï_ÌÌ_È_ËÂÌÚ_30"/><linearGradient id="_ÂÁ_Ï_ÌÌ_È_ËÂÌÚ_30-32" x1="2222.67" y1="2919.02" x2="2818.92" y2="2919.02" xlink:href="#_ÂÁ_Ï_ÌÌ_È_ËÂÌÚ_30"/><linearGradient id="_ÂÁ_Ï_ÌÌ_È_ËÂÌÚ_30-33" x1="2440.79" y1="2968.51" x2="2590.68" y2="2968.51" xlink:href="#_ÂÁ_Ï_ÌÌ_È_ËÂÌÚ_30"/><linearGradient id="_ÂÁ_Ï_ÌÌ_È_ËÂÌÚ_30-34" x1="-1565.64" y1="1141.78" x2="-969.39" y2="1141.78" gradientTransform="matrix(-1 0 0 1 47.74 0)" xlink:href="#_ÂÁ_Ï_ÌÌ_È_ËÂÌÚ_30"/><linearGradient id="_ÂÁ_Ï_ÌÌ_È_ËÂÌÚ_30-35" x1="-1347.52" y1="1191.26" x2="-1197.62" y2="1191.26" gradientTransform="matrix(-1 0 0 1 47.74 0)" xlink:href="#_ÂÁ_Ï_ÌÌ_È_ËÂÌÚ_30"/><linearGradient id="_ÂÁ_Ï_ÌÌ_È_ËÂÌÚ_30-36" x1="-1510.69" y1="1240.97" x2="-914.44" y2="1240.97" gradientTransform="matrix(-1 0 0 1 47.74 0)" xlink:href="#_ÂÁ_Ï_ÌÌ_È_ËÂÌÚ_30"/><linearGradient id="_ÂÁ_Ï_ÌÌ_È_ËÂÌÚ_30-37" x1="-1292.56" y1="1290.46" x2="-1142.67" y2="1290.46" gradientTransform="matrix(-1 0 0 1 47.74 0)" xlink:href="#_ÂÁ_Ï_ÌÌ_È_ËÂÌÚ_30"/><linearGradient id="_ÂÁ_Ï_ÌÌ_È_ËÂÌÚ_30-38" x1="-1455.74" y1="1340.16" x2="-859.49" y2="1340.16" gradientTransform="matrix(-1 0 0 1 47.74 0)" xlink:href="#_ÂÁ_Ï_ÌÌ_È_ËÂÌÚ_30"/><linearGradient id="_ÂÁ_Ï_ÌÌ_È_ËÂÌÚ_30-39" x1="-1237.61" y1="1389.65" x2="-1087.72" y2="1389.65" gradientTransform="matrix(-1 0 0 1 47.74 0)" xlink:href="#_ÂÁ_Ï_ÌÌ_È_ËÂÌÚ_30"/><linearGradient id="_ÂÁ_Ï_ÌÌ_È_ËÂÌÚ_30-40" x1="-1400.78" y1="1439.36" x2="-804.54" y2="1439.36" gradientTransform="matrix(-1 0 0 1 47.74 0)" xlink:href="#_ÂÁ_Ï_ÌÌ_È_ËÂÌÚ_30"/><linearGradient id="_ÂÁ_Ï_ÌÌ_È_ËÂÌÚ_30-41" x1="-1182.66" y1="1488.84" x2="-1032.77" y2="1488.84" gradientTransform="matrix(-1 0 0 1 47.74 0)" xlink:href="#_ÂÁ_Ï_ÌÌ_È_ËÂÌÚ_30"/><linearGradient id="linear-gradient-7" x1="92.07" y1="1612.04" x2="237.62" y2="1612.04" xlink:href="#linear-gradient"/><linearGradient id="linear-gradient-8" x1="92.07" y1="1580.66" x2="237.62" y2="1580.66" xlink:href="#linear-gradient"/></defs><g style="isolation:isolate"><g id="Layer_2" data-name="Layer 2"><g id="_1" data-name="1"><path class="cls-2" d="M2982.07 2778.13l-676.94-390.83c-19.75-11.46-19.71-11.38-29.89-17.25l-104.43-59.8a156 156 0 0 0-155.83 0l-863.24 539c-35.48 20.45-35.48 71.58 0 92L1929 3390c48.21 27.79 115.73 21.31 164-6.48l889.17-513.37c35.38-20.43 35.38-71.56-.1-92.02z"/><path class="cls-3" d="M2149.15 3199.44L1963 3092.12a20.46 20.46 0 0 1-10.34-17.88v-46.93L2179.42 3158v49.5a60.58 60.58 0 0 1-30.27-8.06zm246.73-107.32l-186.19 107.32a60.55 60.55 0 0 1-30.27 8.1V3158l226.8-130.73v46.93a20.44 20.44 0 0 1-10.34 17.92z"/><path class="cls-4" d="M2395.88 3045.19l-186.19 107.32a60.61 60.61 0 0 1-60.54 0L1963 3045.19a20.63 20.63 0 0 1 0-35.76l186.19-107.33a60.61 60.61 0 0 1 60.54 0l186.19 107.33a20.63 20.63 0 0 1-.04 35.76z"/><path class="cls-5" d="M2395.88 3045.19l-186.19 107.32a60.61 60.61 0 0 1-60.54 0L1963 3045.19a20.63 20.63 0 0 1 0-35.76l186.19-107.33a60.61 60.61 0 0 1 60.54 0l186.19 107.33a20.63 20.63 0 0 1-.04 35.76z"/><path class="cls-3" d="M2149.15 3123.13L1963 3015.81a20.46 20.46 0 0 1-10.34-17.88V2951l226.8 130.73v49.5a60.58 60.58 0 0 1-30.31-8.1z"/><path class="cls-3" d="M2395.88 3015.81l-186.19 107.32a60.55 60.55 0 0 1-30.27 8.1v-49.5l226.8-130.73v46.93a20.44 20.44 0 0 1-10.34 17.88z"/><path class="cls-4" d="M2395.88 2968.87l-186.19 107.33a60.61 60.61 0 0 1-60.54 0L1963 2968.87a20.62 20.62 0 0 1 0-35.75l186.19-107.33a60.61 60.61 0 0 1 60.54 0l186.19 107.33a20.62 20.62 0 0 1-.04 35.75z"/><path class="cls-5" d="M2395.88 2968.87l-186.19 107.33a60.61 60.61 0 0 1-60.54 0L1963 2968.87a20.62 20.62 0 0 1 0-35.75l186.19-107.33a60.61 60.61 0 0 1 60.54 0l186.19 107.33a20.62 20.62 0 0 1-.04 35.75z"/><path class="cls-3" d="M2149.15 3046.82L1963 2939.5a20.46 20.46 0 0 1-10.34-17.88v-46.94l226.8 130.74v49.5a60.58 60.58 0 0 1-30.31-8.1z"/><path class="cls-3" d="M2395.88 2939.5l-186.19 107.32a60.55 60.55 0 0 1-30.27 8.1v-49.5l226.8-130.74v46.94a20.44 20.44 0 0 1-10.34 17.88z"/><path class="cls-4" d="M2395.88 2892.56l-186.19 107.33a60.61 60.61 0 0 1-60.54 0L1963 2892.56a20.62 20.62 0 0 1 0-35.75l186.19-107.33a60.61 60.61 0 0 1 60.54 0l186.19 107.33a20.62 20.62 0 0 1-.04 35.75z"/><path class="cls-6" d="M2130.54 3023.17c5.33-3.08 6.23-11.47 2-18.76s-11.95-10.7-17.28-7.63-6.24 11.47-2 18.76 11.95 10.7 17.28 7.63zm-35.94-20.72c5.33-3.07 6.24-11.47 2-18.75s-11.95-10.71-17.28-7.63-6.23 11.47-2 18.75 11.95 10.71 17.28 7.63z"/><ellipse class="cls-6" cx="2051.04" cy="2968.55" rx="11.14" ry="15.24" transform="rotate(-30.13 2051.066 2968.586)"/><path class="cls-6" d="M2130.54 3098.88c5.33-3.08 6.23-11.47 2-18.76s-11.95-10.7-17.28-7.63-6.24 11.47-2 18.76 11.95 10.75 17.28 7.63zm-35.94-20.72c5.33-3.07 6.24-11.47 2-18.75s-11.95-10.71-17.28-7.63-6.23 11.47-2 18.75 11.95 10.71 17.28 7.63z"/><ellipse class="cls-6" cx="2122.91" cy="3161.55" rx="11.14" ry="15.24" transform="matrix(.86 -.5 .5 .86 -1300.17 1492.82)"/><ellipse class="cls-6" cx="2051.04" cy="3120.12" rx="11.14" ry="15.24" transform="rotate(-30.13 2051.088 3120.156)"/><path d="M1421.93 3131.15l1703.84-983.72a49.74 49.74 0 0 0 25.16-43.5V2043L1348.27 3083.68v67.17a147.38 147.38 0 0 0 73.66-19.7z" fill="url(#_ÂÁ_Ï_ÌÌ_È_ËÂÌÚ_30)"/><path d="M539.9 2707l734.72 424.19a147.35 147.35 0 0 0 73.65 19.7v-67.17l-833.52-481.19v60.93A49.74 49.74 0 0 0 539.9 2707z" fill="url(#_ÂÁ_Ï_ÌÌ_È_ËÂÌÚ_30-2)"/><path d="M665.42 1872.54l734.71 424.19a147.36 147.36 0 0 0 73.65 19.71v-67.18l-833.52-481.15V1829a49.72 49.72 0 0 0 25.16 43.54z" fill="url(#_ÂÁ_Ï_ÌÌ_È_ËÂÌÚ_30-3)"/><path class="cls-4" d="M3125.77 1996.36l-1402.9-810a147.53 147.53 0 0 0-147.31 0L673.09 1717c-33.54 19.33-33.54 67.67 0 87l593.61 342.71-726.8 410.87c-33.54 19.34-33.54 67.68 0 87l734.72 424.19c45.58 26.27 109.41 20.14 155-6.13l1696.16-979.28c33.53-19.36 33.53-67.66-.01-87z"/><path class="cls-3" d="M948.94 2352.82l71.98 41.56v-24.49l-71.98-41.56v24.49z"/><path class="cls-10" d="M1012.16 2316.31l71.99 41.56v-85.22l-71.99-41.57v85.23z"/><path class="cls-11" d="M1084.15 2357.87l-71.99-41.56-63.22 36.51 71.98 41.56 63.23-36.51z"/><path class="cls-10" d="M1012.16 2231.08l71.99 41.57v-85.23l-71.99-41.56v85.22z"/><path class="cls-11" d="M1084.15 2272.65l-71.99-41.57-63.22 36.51 71.98 41.56 63.23-36.5z"/><path class="cls-10" d="M1012.16 2145.86l71.99 41.56v-85.23l-71.99-41.56v85.23z"/><path class="cls-11" d="M1084.15 2187.42l-71.99-41.56-63.22 36.5 71.98 41.56 63.23-36.5z"/><path class="cls-10" d="M1012.16 2060.63l71.99 41.56v-85.23l-71.99-41.56v85.23z"/><path class="cls-11" d="M1084.15 2102.19l-71.99-41.56-63.22 36.5 71.98 41.57 63.23-36.51z"/><path class="cls-10" d="M1012.16 1975.4l71.99 41.56v-85.23l-71.99-41.56v85.23z"/><path class="cls-11" d="M1084.15 2016.96l-71.99-41.56-63.22 36.5 71.98 41.57 63.23-36.51z"/><path class="cls-10" d="M948.94 2352.82l71.98 41.56v-85.23l-71.98-41.56v85.23z"/><path class="cls-11" d="M1020.92 2394.38l-71.98-41.56-63.23 36.5 71.99 41.56 63.22-36.5z"/><path class="cls-10" d="M948.94 2267.59l71.98 41.56v-85.23l-71.98-41.56v85.23z"/><path class="cls-11" d="M1020.92 2309.15l-71.98-41.56-63.23 36.5 71.99 41.57 63.22-36.51z"/><path class="cls-10" d="M948.94 2182.36l71.98 41.56v-85.22l-71.98-41.57v85.23z"/><path class="cls-11" d="M1020.92 2223.92l-71.98-41.56-63.23 36.5 71.99 41.57 63.22-36.51z"/><path class="cls-10" d="M948.94 2097.13l71.98 41.57v-85.23l-71.98-41.57v85.23z"/><path class="cls-11" d="M1020.92 2138.7l-71.98-41.57-63.23 36.51 71.99 41.56 63.22-36.5z"/><path class="cls-10" d="M948.94 2011.9l71.98 41.57v-85.23l-71.98-41.56v85.22z"/><path class="cls-11" d="M1020.92 2053.47l-71.98-41.57-63.23 36.51 71.99 41.56 63.22-36.5z"/><path class="cls-10" d="M885.71 2389.32l71.99 41.56v-85.22l-71.99-41.57v85.23z"/><path class="cls-11" d="M957.7 2430.88l-71.99-41.56-63.23 36.5 71.99 41.57 63.23-36.51z"/><path class="cls-10" d="M885.71 2304.09l71.99 41.57v-85.23l-71.99-41.57v85.23z"/><path class="cls-11" d="M957.7 2345.66l-71.99-41.57-63.23 36.51 71.99 41.56 63.23-36.5z"/><path class="cls-10" d="M885.71 2218.86l71.99 41.57v-85.23l-71.99-41.56v85.22z"/><path class="cls-11" d="M957.7 2260.43l-71.99-41.57-63.23 36.51 71.99 41.56 63.23-36.5z"/><path class="cls-3" d="M928.87 2417.73l23.65 13.65v-32.17l-23.65-13.65v32.17z"/><path class="cls-12" d="M928.87 2385.56l-7.55 4.36 23.65 13.65 7.55-4.36-23.65-13.65z"/><path class="cls-3" d="M944.97 2403.57v32.17l7.55-4.36v-32.17l-7.55 4.36z"/><path class="cls-13" d="M921.32 2422.09l23.65 13.65v-32.17l-23.65-13.65v32.17z"/><path class="cls-3" d="M919.14 2423.35l23.64 13.65v-51.89l-23.64-13.65v51.89z"/><path class="cls-14" d="M915.96 2425.18l23.65 13.65v-51.89l-23.65-13.65v51.89z"/><path class="cls-12" d="M919.14 2371.46l-3.18 1.83 23.65 13.65 3.17-1.83-23.64-13.65z"/><path class="cls-15" d="M939.61 2386.94v51.89l3.17-1.83v-51.89l-3.17 1.83z"/><path class="cls-3" d="M906.95 2430.38l23.65 13.66v-46.33l-23.65-13.65v46.32z"/><path class="cls-3" d="M914.51 2426.02l23.64 13.65v-46.32l-23.64-13.65v46.32z"/><path class="cls-12" d="M914.51 2379.7l-7.56 4.36 23.65 13.65 7.55-4.36-23.64-13.65z"/><path class="cls-10" d="M930.6 2397.71v46.33l7.55-4.37v-46.32l-7.55 4.36z"/><path class="cls-3" d="M898.17 2435.45l23.65 13.66v-46.33l-23.65-13.65v46.32z"/><path class="cls-3" d="M905.73 2431.09l23.64 13.65v-46.32l-23.64-13.65v46.32z"/><path class="cls-12" d="M905.73 2384.77l-7.56 4.36 23.65 13.65 7.55-4.36-23.64-13.65z"/><path class="cls-10" d="M921.82 2402.78v46.33l7.55-4.37v-46.32l-7.55 4.36z"/><path class="cls-3" d="M890.14 2440.91l23.64 13.65 6.81-39.8-23.64-13.66-6.81 39.81z"/><path class="cls-12" d="M896.95 2401.1h-6.81l23.64 13.66h6.81l-23.64-13.66z"/><path class="cls-16" d="M913.78 2414.76l-6.75 40.3 6.75-.5 6.81-39.8h-6.81z"/><path class="cls-17" d="M883.38 2441.41l23.65 13.65 6.75-40.3-23.64-13.66-6.76 40.31z"/><path class="cls-3" d="M993.4 2040.66l23.65 13.65v-32.17l-23.65-13.65v32.17z"/><path class="cls-12" d="M993.4 2008.49l-7.55 4.36 23.64 13.65 7.56-4.36-23.65-13.65z"/><path class="cls-3" d="M1009.49 2026.5v32.17l7.56-4.36v-32.17l-7.56 4.36z"/><path class="cls-13" d="M985.85 2045.02l23.64 13.65v-32.17l-23.64-13.65v32.17z"/><path class="cls-3" d="M983.66 2046.28l23.65 13.65v-51.89l-23.65-13.65v51.89z"/><path class="cls-14" d="M980.49 2048.11l23.65 13.65v-51.89l-23.65-13.65v51.89z"/><path class="cls-12" d="M983.66 1994.39l-3.17 1.83 23.65 13.65 3.17-1.83-23.65-13.65z"/><path class="cls-15" d="M1004.14 2009.87v51.89l3.17-1.83v-51.89l-3.17 1.83z"/><path class="cls-3" d="M971.48 2053.31l23.65 13.66v-46.33l-23.65-13.65v46.32z"/><path class="cls-3" d="M979.03 2048.95l23.65 13.65v-46.32l-23.65-13.65v46.32z"/><path class="cls-12" d="M979.03 2002.63l-7.55 4.36 23.65 13.65 7.55-4.36-23.65-13.65z"/><path class="cls-10" d="M995.13 2020.64v46.33l7.55-4.37v-46.32l-7.55 4.36z"/><path class="cls-3" d="M962.7 2058.38l23.65 13.65v-46.32l-23.65-13.65v46.32z"/><path class="cls-3" d="M970.25 2054.02l23.65 13.65v-46.32l-23.65-13.65v46.32z"/><path class="cls-12" d="M970.25 2007.7l-7.55 4.36 23.65 13.65 7.55-4.36-23.65-13.65z"/><path class="cls-10" d="M986.35 2025.71v46.32l7.55-4.36v-46.32l-7.55 4.36z"/><path class="cls-3" d="M954.67 2063.84l23.64 13.65 6.81-39.81-23.65-13.65-6.8 39.81z"/><path class="cls-12" d="M961.47 2024.03h-6.8l23.64 13.65h6.81l-23.65-13.65z"/><path class="cls-16" d="M978.31 2037.68l-6.76 40.31 6.76-.5 6.81-39.81h-6.81z"/><path class="cls-17" d="M947.91 2064.34l23.64 13.65 6.76-40.31-23.64-13.65-6.76 40.31z"/><path class="cls-3" d="M994.23 2123.76l23.64 13.65v-32.17l-23.64-13.65v32.17z"/><path class="cls-12" d="M994.23 2091.59l-7.56 4.36 23.65 13.66 7.55-4.37-23.64-13.65z"/><path class="cls-3" d="M1010.32 2109.61v32.17l7.55-4.37v-32.17l-7.55 4.37z"/><path class="cls-13" d="M986.67 2128.12l23.65 13.66v-32.17l-23.65-13.66v32.17z"/><path class="cls-3" d="M984.49 2129.38l23.64 13.65v-51.89l-23.64-13.65v51.89z"/><path class="cls-14" d="M981.32 2131.22l23.64 13.65v-51.89l-23.64-13.66v51.9z"/><path class="cls-12" d="M984.49 2077.49l-3.17 1.83 23.64 13.66 3.17-1.84-23.64-13.65z"/><path class="cls-15" d="M1004.96 2092.98v51.89l3.17-1.84v-51.89l-3.17 1.84z"/><path class="cls-3" d="M974.1 2136.85l23.64 13.65 6.81-39.8-23.65-13.66-6.8 39.81z"/><path class="cls-12" d="M980.9 2097.04h-6.8l23.64 13.66h6.81l-23.65-13.66z"/><path class="cls-10" d="M997.74 2110.7l-6.75 40.3 6.75-.5 6.81-39.8h-6.81z"/><path class="cls-2" d="M967.34 2137.35l23.65 13.65 6.75-40.3-23.64-13.66-6.76 40.31z"/><path class="cls-10" d="M885.71 2133.64l71.99 41.56v-85.23l-71.99-41.56v85.23z"/><path class="cls-11" d="M957.7 2175.2l-71.99-41.56-63.23 36.5 71.99 41.56 63.23-36.5z"/><path class="cls-10" d="M885.71 2048.41l71.99 41.56v-85.23l-71.99-41.56v85.23z"/><path class="cls-11" d="M957.7 2089.97l-71.99-41.56-63.23 36.5 71.99 41.57 63.23-36.51z"/><path class="cls-10" d="M822.48 2425.82l71.99 41.57v-85.23l-71.99-41.56v85.22z"/><path class="cls-11" d="M894.47 2467.39l-71.99-41.57-63.23 36.51 71.99 41.56 63.23-36.5z"/><path class="cls-3" d="M928.04 2246.35l23.65 13.65v-32.17l-23.65-13.65v32.17z"/><path class="cls-12" d="M928.04 2214.18l-7.55 4.36 23.64 13.65 7.56-4.36-23.65-13.65z"/><path class="cls-3" d="M944.13 2232.19v32.17l7.56-4.36v-32.17l-7.56 4.36z"/><path class="cls-13" d="M920.49 2250.71l23.64 13.65v-32.17l-23.64-13.65v32.17z"/><path class="cls-3" d="M918.3 2251.97l23.65 13.65v-51.89l-23.65-13.65v51.89z"/><path class="cls-14" d="M915.13 2253.8l23.65 13.65v-51.89l-23.65-13.65v51.89z"/><path class="cls-12" d="M918.3 2200.08l-3.17 1.83 23.65 13.65 3.17-1.83-23.65-13.65z"/><path class="cls-15" d="M938.78 2215.56v51.89l3.17-1.83v-51.89l-3.17 1.83z"/><path class="cls-3" d="M897.34 2264.07l23.65 13.65v-46.32l-23.65-13.65v46.32z"/><path class="cls-3" d="M904.89 2259.71l23.65 13.65v-46.32l-23.65-13.65v46.32z"/><path class="cls-12" d="M904.89 2213.39l-7.55 4.36 23.65 13.65 7.55-4.36-23.65-13.65z"/><path class="cls-10" d="M920.99 2231.4v46.32l7.55-4.36v-46.32l-7.55 4.36z"/><path class="cls-3" d="M889.3 2269.53l23.65 13.65 6.81-39.81-23.65-13.65-6.81 39.81z"/><path class="cls-12" d="M896.11 2229.72h-6.81l23.65 13.65h6.81l-23.65-13.65z"/><path class="cls-18" d="M912.95 2243.37l-6.76 40.31 6.76-.5 6.81-39.81h-6.81z"/><path class="cls-19" d="M882.55 2270.03l23.64 13.65 6.76-40.31-23.65-13.65-6.75 40.31z"/><path class="cls-10" d="M822.48 2340.6l71.99 41.56v-85.23l-71.99-41.56v85.23z"/><path class="cls-11" d="M894.47 2382.16l-71.99-41.56-63.23 36.5 71.99 41.56 63.23-36.5z"/><path class="cls-10" d="M822.48 2255.37l71.99 41.56v-85.23l-71.99-41.56v85.23z"/><path class="cls-11" d="M894.47 2296.93l-71.99-41.56-63.23 36.5 71.99 41.57 63.23-36.51z"/><path class="cls-10" d="M822.48 2170.14l71.99 41.56v-85.22l-71.99-41.57v85.23z"/><path class="cls-11" d="M894.47 2211.7l-71.99-41.56-63.23 36.51 71.99 41.56 63.23-36.51z"/><path class="cls-10" d="M822.48 2084.91l71.99 41.57v-85.23l-71.99-41.56v85.22z"/><path class="cls-11" d="M894.47 2126.48l-71.99-41.57-63.23 36.51 71.99 41.56 63.23-36.5z"/><path class="cls-3" d="M759.25 2462.33l71.99 41.56v-426.14l-71.99-41.56v426.14z"/><path class="cls-11" d="M1084.15 1931.73l-71.99-41.56-252.91 146.02 71.99 41.56 252.91-146.02z"/><path class="cls-3" d="M867.72 2111.57l23.65 13.66v-46.32l-23.65-13.66v46.32z"/><path class="cls-12" d="M867.72 2065.25l-7.55 4.36 23.64 13.66 7.56-4.36-23.65-13.66z"/><path class="cls-15" d="M883.81 2083.27v46.32l7.56-4.36v-46.32l-7.56 4.36z"/><path class="cls-14" d="M860.17 2115.94l23.64 13.65v-46.32l-23.64-13.66v46.33z"/><path class="cls-3" d="M852.13 2121.39l23.65 13.66 6.81-39.81-23.65-13.65-6.81 39.8z"/><path class="cls-12" d="M858.94 2081.59h-6.81l23.65 13.65h6.81l-23.65-13.65z"/><path class="cls-16" d="M875.78 2095.24l-6.76 40.31 6.76-.5 6.81-39.81h-6.81z"/><path class="cls-17" d="M845.38 2121.9l23.64 13.65 6.76-40.31-23.65-13.65-6.75 40.31z"/><ellipse class="cls-5" cx="1138.16" cy="2497.58" rx="73.36" ry="45.32"/><path class="cls-20" d="M1019.44 2075.35a8 8 0 0 1-7.72-5.89c-3.51-12.86-6.79-22.43-6.82-22.52a8 8 0 1 1 15.13-5.19c.14.4 3.48 10.14 7.13 23.49a8 8 0 0 1-5.61 9.82 7.67 7.67 0 0 1-2.11.29z"/><path class="cls-21" d="M1138.16 2158.78a8 8 0 0 1-7.52-5.28l-11.42-31.56a8 8 0 1 1 15-5.44l11.42 31.56a8 8 0 0 1-4.8 10.24 7.84 7.84 0 0 1-2.68.48z"/><path class="cls-15" d="M1138.16 2276.79a12.5 12.5 0 0 1-4.46-24.18c21.57-8.24 41.12-16.41 43.52-25.84 2.34-9.22-7.44-26.69-29.07-51.95a12.5 12.5 0 0 1 19-16.26c28.76 33.58 39 55.82 34.31 74.36-5.38 21.16-27.77 31.18-58.83 43a12.48 12.48 0 0 1-4.47.87z"/><path class="cls-22" d="M1105.32 2533.67l28.91-1.15a11.83 11.83 0 0 0 11.29-13.14 11.84 11.84 0 0 0-14.6-10.17l-28.08 6.93c-10.41 2.57-8.23 17.95 2.48 17.53zm48.53-60.38l24.87 14.77a11.83 11.83 0 0 0 16.63-4.88 11.83 11.83 0 0 0-6.71-16.48l-27.33-9.47c-10.13-3.51-16.68 10.58-7.46 16.06z"/><path class="cls-23" d="M1130.24 2525.46a10 10 0 0 1-10-9.1l-2.76-30.45a10 10 0 1 1 19.92-1.81l2.76 30.45a10 10 0 0 1-9 10.86c-.31.03-.62.05-.92.05zm53.76-40.2a10 10 0 0 1-9.55-7l-9-29.21a10 10 0 1 1 19.1-5.92l9 29.21a10 10 0 0 1-6.59 12.51 10.25 10.25 0 0 1-2.96.41z"/><path class="cls-24" d="M1128.47 2502.12a12.51 12.51 0 0 1-12.48-12l-7.65-181a12.5 12.5 0 0 1 25-1l7.65 181a12.5 12.5 0 0 1-12 13zm49.99-32.35a12.5 12.5 0 0 1-12.23-10c-1.21-5.85-2.35-11.32-3.42-16.46-11.8-56.48-15.77-75.51-15.08-156.21a12.5 12.5 0 0 1 12.49-12.39h.11a12.5 12.5 0 0 1 12.4 12.61c-.67 78 2.86 94.9 14.55 150.88 1.08 5.16 2.22 10.64 3.43 16.52a12.5 12.5 0 0 1-9.71 14.77 13 13 0 0 1-2.54.28z"/><path class="cls-24" d="M1152.34 2285.99l-31.51 22.67v-40.81l30.32-6.23 1.19 24.37z"/><path class="cls-24" d="M1120.83 2321.16a12.51 12.51 0 0 1-12.5-12.5v-40.81a12.51 12.51 0 0 1 10-12.25l30.32-6.23a12.5 12.5 0 0 1 15 11.64l1.2 24.37a12.51 12.51 0 0 1-5.19 10.75l-31.51 22.67a12.51 12.51 0 0 1-7.32 2.36zm12.5-43.12v6.22l6.19-4.45-.14-3z"/><path class="cls-15" d="M1102.24 2290.64c0-55.28-.18-70.16-.18-109 0-50.88 64.21-43.93 69.18-15 4.46 25.92 2.67 99.69 2.67 114.9 0 4.26-5.61 8.59-13.68 12.14-2.3 1-12.69 4.42-15.44 5.08-19.85 4.84-42.55 4.48-42.55-8.12z"/><path class="cls-15" d="M1119.27 2175.06c-20.07 0-42.89-9.91-63.7-27.89-23.66-20.44-40.79-47.68-48.24-76.72a12.5 12.5 0 0 1 24.22-6.21c13 50.5 61.22 89.27 91.65 85.6a12.5 12.5 0 1 1 3 24.81 56.57 56.57 0 0 1-6.93.41z"/><circle class="cls-20" cx="1009.44" cy="2038.81" r="17.04"/><path class="cls-20" d="M1160.82 2105.92a29.22 29.22 0 1 0-36.43 19.5 29.23 29.23 0 0 0 36.43-19.5z"/><path class="cls-24" d="M1161.31 2078.63c-19-24.76-49.06-15.74-52.22-5.56-3 9.59 6 14.59 6 14.59s9.28 6.64 5.62 15.63-13.63 7.45-13.63 7.45a29.14 29.14 0 0 0 7.3 9.44s8.25-3.7 12.4-11.67c2.19-4.21 7.39-5.47 10.29-1.75 2 2.56 1.13 6.84-1.31 8.94-9.72 8.35 4.77 10.59 4.77 10.59l1.63-.28c14.14-2.43 24.88-14.53 24.9-28.88-.06-7.63-2.31-14.02-5.75-18.5z"/><ellipse class="cls-5" cx="732.02" cy="2545.39" rx="73.36" ry="45.32"/><path class="cls-19" d="M816.17 2314.67h-.63a12.5 12.5 0 0 1-11.87-13.1c1.22-24.75.7-27.59-5.59-62.25-1.87-10.31-4.2-23.13-7.12-40a12.5 12.5 0 0 1 24.64-4.32c2.9 16.78 5.21 29.54 7.08 39.8 6.34 35 7.32 40.33 6 68a12.5 12.5 0 0 1-12.51 11.87z"/><path class="cls-22" d="M775.16 2567.55L759.93 2543a11.83 11.83 0 0 0-17-3.36 11.83 11.83 0 0 0-1.67 17.71l19.86 21c7.36 7.79 19.68-1.68 14.04-10.8zM710 2550.17l-.7-28.92a11.83 11.83 0 0 0-13-11.49 11.82 11.82 0 0 0-10.39 14.43l6.5 28.2c2.38 10.44 17.8 8.5 17.59-2.22z"/><path class="cls-23" d="M749.11 2554.23a10 10 0 0 1-10-9.1l-2.77-30.45a10 10 0 0 1 19.92-1.81l2.77 30.45a10 10 0 0 1-9.06 10.87c-.25.03-.56.04-.86.04zm-47.95-24.83a10 10 0 0 1-7.53-16.58l19-21.81a10 10 0 0 1 15.07 13.15l-19 21.82a10 10 0 0 1-7.54 3.42z"/><path class="cls-24" d="M747.35 2530.89h-.15a12.5 12.5 0 0 1-12.35-12.65l2.15-183.56a12.5 12.5 0 0 1 12.5-12.35h.15A12.5 12.5 0 0 1 762 2335l-2.13 183.55a12.5 12.5 0 0 1-12.52 12.34z"/><path class="cls-24" d="M710.68 2521a12.5 12.5 0 0 1-10.27-19.61c52.46-75.81 56.1-98.34 64.9-152.78 1.85-11.48 4-24.5 6.77-39.58a12.5 12.5 0 0 1 24.58 4.58c-2.76 14.79-4.84 27.65-6.67 39-9.16 56.68-13.34 82.55-69 163a12.51 12.51 0 0 1-10.31 5.39z"/><path class="cls-24" d="M780.99 2312.16l-31.51 22.67v-40.81l30.32-6.23 1.19 24.37z"/><path class="cls-24" d="M749.48 2347.33a12.51 12.51 0 0 1-12.5-12.5V2294a12.49 12.49 0 0 1 10-12.24l30.31-6.23a12.49 12.49 0 0 1 15 11.63l1.2 24.37a12.51 12.51 0 0 1-5.19 10.76L756.78 2345a12.5 12.5 0 0 1-7.3 2.33zm12.5-43.11v6.22l6.2-4.46-.15-3z"/><path class="cls-18" d="M728.31 2322.33c-.16-60.29 1.6-65.47 5.72-108.44 4.86-50.65 84.86-45.1 82.05-15.89-3.38 35.22-11.54 95.3-16.1 115.27-1 4.15-5.61 8.59-13.69 12.13-2.3 1-12.69 4.43-15.43 5.09-19.86 4.8-42.52 4.43-42.55-8.16z"/><path class="cls-19" d="M766.76 2321.05a12.38 12.38 0 0 1-5.83-1.46c-30.29-16-44.53-29.08-49.17-45.11-5.94-20.51 5.31-40.12 22.34-69.8q2.19-3.82 4.52-7.91a12.5 12.5 0 1 1 21.72 12.38q-2.34 4.13-4.56 8c-13.85 24.14-23 40.09-20 50.41 2.45 8.44 14.15 18 36.84 30a12.51 12.51 0 0 1-5.85 23.56z"/><ellipse class="cls-20" cx="783.42" cy="2187.55" rx="16.65" ry="9.17"/><path class="cls-21" d="M781 2193.43a8 8 0 0 1-7.64-10.39l6.87-22a8 8 0 0 1 15.27 4.78l-6.87 22a8 8 0 0 1-7.63 5.61z"/><path class="cls-20" d="M823 2158.25a29.21 29.21 0 1 0-36.43 19.5 29.22 29.22 0 0 0 36.43-19.5zm-17.62 178.12a8 8 0 0 1-3.35-.74c-1-.46-24.91-11.5-38.1-19.28a8 8 0 0 1 8.13-13.78c12.5 7.37 36.43 18.42 36.67 18.53a8 8 0 0 1-3.35 15.27z"/><path class="cls-17" d="M826.12 2153.71c-.56 4.09-21 16.5-45.13 2 0 0-8.61 9-13 10.25s-9.81-14.67-4.4-34.45c6.68-24.38 69.97-32.29 62.53 22.2z"/><path class="cls-10" d="M804.99 2325.1l42.79-14.68 9.21-16.6-42.8 16.65-9.2 14.63z"/><path class="cls-17" d="M762.99 2313.47l42.39-16.1 42.4 13.05-42.79 14.68-42-11.63z"/><path class="cls-21" d="M804.45 2324.4c-9.41 0-16.49-12.18-16.5-2.77a17 17 0 1 0 34.07 0c-.02-9.39-8.16 2.78-17.57 2.77z"/><ellipse class="cls-13" cx="1328.67" cy="2897.08" rx="47.17" ry="24.71"/><ellipse class="cls-24" cx="1328.67" cy="2907.61" rx="47.17" ry="24.71"/><path class="cls-10" d="M1328.67 2865.57c-33.22 0-60.16 14.11-60.16 31.51s26.94 31.51 60.16 31.51 60.17-14.11 60.17-31.51-26.94-31.51-60.17-31.51zm0 56.22c-26.05 0-47.17-11.06-47.17-24.71s21.12-24.71 47.17-24.71 47.17 11.07 47.17 24.71-21.11 24.71-47.17 24.71z"/><path class="cls-3" d="M1328.67 2928.59c-33.22 0-60.16-14.11-60.16-31.51v123.25c0 17.4 26.94 31.51 60.16 31.51s60.17-14.11 60.17-31.51v-123.25c0 17.4-26.94 31.51-60.17 31.51z"/><path class="cls-5" d="M1407.5 2490.23l47.26 27.24a15.35 15.35 0 0 0 15.37 0l218.68-126.21a5.24 5.24 0 0 0 0-9.07l-47.26-27.25a15.4 15.4 0 0 0-15.37 0l-218.68 126.22a5.23 5.23 0 0 0 0 9.07z"/><path d="M2053.67 2208.06a23.17 23.17 0 0 1 .89-2.54 23.17 23.17 0 0 0-.89 2.54z" fill="url(#linear-gradient)"/><path d="M2278.2 2073.43a65.35 65.35 0 0 0-13.81 6l-89.8 51.76 89.8-51.76a65.35 65.35 0 0 1 13.81-6z" fill="url(#linear-gradient-2)"/><path d="M2297 2070.67a65.25 65.25 0 0 0-32.59 8.72l-89.8 51.76-110.61 63.78a22 22 0 0 0-9.39 10.59 23.17 23.17 0 0 0-.89 2.54c-.08.29-.15.57-.22.86a22.12 22.12 0 0 0 10.5 24.5l21.56 12.44L2297 2124z" fill="url(#linear-gradient-3)"/><path d="M2315.18 2073.27a64.94 64.94 0 0 1 14.38 6.12 64.94 64.94 0 0 0-14.38-6.12z" fill="url(#linear-gradient-4)"/><path d="M2541.08 2212.66c0 .5.05 1 .05 1.52 0-.51-.02-1.02-.05-1.52z" fill="url(#linear-gradient-5)"/><path class="cls-2" d="M2530 2194.93l-200.44-115.54a65.48 65.48 0 0 0-32.58-8.72V2124l211.46 121.9 21.56-12.44a22 22 0 0 0 11.13-19.24c0-.51 0-1-.05-1.52a22 22 0 0 0-11.08-17.77z"/><path class="cls-10" d="M2329.56 2349l190-109.52-190-109.53a65.27 65.27 0 0 0-65.17 0l-190 109.53 190 109.52a65.23 65.23 0 0 0 65.17 0z"/><path d="M2858.86 1998h-36.42l-197.5-113.84-112.82-65a44 44 0 0 0-43.9 0L2313.94 1908h-35.74v18.88a16 16 0 0 0 8.1 14l338.64 195.21a44 44 0 0 0 43.9 0l181.92-104.87a16 16 0 0 0 8.09-14.41z" fill="url(#linear-gradient-6)"/><path class="cls-4" d="M2286.3 1922l338.64 195.2a44 44 0 0 0 43.9 0l181.92-104.86a16.18 16.18 0 0 0 0-28l-338.64-195.2a44 44 0 0 0-43.9 0L2286.3 1894a16.18 16.18 0 0 0 0 28z"/><ellipse class="cls-11" cx="2487.28" cy="1803.93" rx="14.39" ry="9.29"/><path class="cls-10" d="M2339.11 1937.15l227.21 131a36.65 36.65 0 0 0 36.63 0l164.34-94.73a14.32 14.32 0 0 0 0-24.82l-227.21-131a36.69 36.69 0 0 0-36.63 0l-164.34 94.73a14.32 14.32 0 0 0 0 24.82z"/><path class="cls-11" d="M2546 2043.69l27.87 16.06a17.7 17.7 0 0 0 17.68 0l30.78-17.74a9.63 9.63 0 0 0 0-16.69l-28-16.15a17.67 17.67 0 0 0-17.68 0L2546 2026.8a9.75 9.75 0 0 0 0 16.89zm57.35-34.69l27.87 16.06a17.72 17.72 0 0 0 17.68 0l30.79-17.75a9.63 9.63 0 0 0 0-16.68l-28.05-16.16a17.74 17.74 0 0 0-17.69 0l-30.6 17.64a9.74 9.74 0 0 0 0 16.89z"/><path class="cls-4" d="M2712.71 2064.76l-.18-.11a17.69 17.69 0 0 0 17.69 0l30.78-17.74a9.63 9.63 0 0 0 0-16.69 17.7 17.7 0 0 0-17.68 0l-30.61 17.64a9.74 9.74 0 0 0 0 16.9z"/><path class="cls-11" d="M2721.37 2069.51a20.17 20.17 0 0 1-9.91-2.59h-.06l-.12-.07a12.25 12.25 0 0 1 .18-21.12l30.61-17.64a20.25 20.25 0 0 1 20.18 0 12.13 12.13 0 0 1 0 21l-30.79 17.75a20.23 20.23 0 0 1-10.09 2.67zm-7.51-7a15.25 15.25 0 0 0 15.11 0l30.78-17.75a7.13 7.13 0 0 0 0-12.35 15.24 15.24 0 0 0-15.18 0L2714 2050a7.25 7.25 0 0 0-.1 12.5z"/><path class="cls-15" d="M2660 1974.74l27.87 16.06a17.72 17.72 0 0 0 17.68 0l30.78-17.75a9.62 9.62 0 0 0 0-16.68l-28-16.16a17.72 17.72 0 0 0-17.68 0l-30.65 17.65a9.74 9.74 0 0 0 0 16.88z"/><path class="cls-11" d="M2490.07 2011.39l27.87 16a17.67 17.67 0 0 0 17.68 0l30.78-17.74a9.63 9.63 0 0 0 0-16.69l-28.05-16.16a17.7 17.7 0 0 0-17.68 0l-30.61 17.64a9.75 9.75 0 0 0 .01 16.95zm57.33-34.67l27.87 16.06a17.7 17.7 0 0 0 17.68 0l30.79-17.74a9.64 9.64 0 0 0 0-16.69l-28-16.15a17.69 17.69 0 0 0-17.69 0l-30.6 17.64a9.74 9.74 0 0 0-.05 16.88z"/><path class="cls-15" d="M2604.07 1942.44l27.87 16.06a17.72 17.72 0 0 0 17.68 0l30.78-17.75a9.62 9.62 0 0 0 0-16.68l-28.05-16.16a17.72 17.72 0 0 0-17.68 0l-30.61 17.64a9.75 9.75 0 0 0 .01 16.89z"/><path class="cls-11" d="M2434.12 1979.08l27.87 16.06a17.72 17.72 0 0 0 17.68 0l30.78-17.75a9.62 9.62 0 0 0 0-16.68l-28-16.16a17.72 17.72 0 0 0-17.68 0l-30.61 17.65a9.74 9.74 0 0 0-.04 16.88zm57.33-34.66l27.87 16a17.67 17.67 0 0 0 17.68 0l30.79-17.74a9.64 9.64 0 0 0 0-16.69l-28.05-16.16a17.71 17.71 0 0 0-17.69 0l-30.6 17.64a9.74 9.74 0 0 0 0 16.95z"/><path class="cls-23" d="M2548.12 1910.14l27.88 16.06a17.7 17.7 0 0 0 17.68 0l30.78-17.74a9.63 9.63 0 0 0 0-16.69l-28-16.15a17.67 17.67 0 0 0-17.68 0l-30.61 17.64a9.75 9.75 0 0 0-.05 16.88zm-169.95 36.64l27.87 16.06a17.72 17.72 0 0 0 17.68 0l30.78-17.75a9.62 9.62 0 0 0 0-16.68l-28.05-16.16a17.7 17.7 0 0 0-17.68 0l-30.61 17.64a9.75 9.75 0 0 0 .01 16.89z"/><path class="cls-11" d="M2435.5 1912.11l27.87 16.06a17.72 17.72 0 0 0 17.68 0l30.79-17.75a9.63 9.63 0 0 0 0-16.68l-28.05-16.16a17.74 17.74 0 0 0-17.69 0l-30.6 17.65a9.74 9.74 0 0 0 0 16.88zm56.67-34.27l27.87 16.05a17.67 17.67 0 0 0 17.68 0l30.78-17.74a9.63 9.63 0 0 0 0-16.69l-28.05-16.16a17.7 17.7 0 0 0-17.68 0l-30.61 17.7a9.75 9.75 0 0 0 .01 16.84z"/><path class="cls-2" d="M2722.8 2570.25l7.46-12.91 81-46.69 95.48-55a18 18 0 0 0 9-15.57v-113.29l7.33-12.67-11.5-6.63a6.59 6.59 0 0 0-6.65 0l-188.09 108.42a18 18 0 0 0-9 15.56v126.33a6.54 6.54 0 0 0 3.47 5.82z"/><path class="cls-10" d="M2916.42 2314.12l-188.09 108.42a18 18 0 0 0-9 15.56v126.33a6.65 6.65 0 0 0 10 5.75l188.08-108.42a18 18 0 0 0 9-15.57v-126.32a6.65 6.65 0 0 0-9.99-5.75z"/><path class="cls-23" d="M2894.87 2332.83l-142.39 82.07a15 15 0 0 0-7.51 13v118a5.88 5.88 0 0 0 8.82 5.09l142.39-82.08a15 15 0 0 0 7.51-13v-118a5.88 5.88 0 0 0-8.82-5.08z"/><path class="cls-13" d="M2836.35 2457.61c0-3.56-2.17-5.19-4.85-3.65l-63.14 36.39c-2.67 1.55-4.84 5.68-4.84 9.25s2.17 5.2 4.84 3.65l63.15-36.39c2.67-1.55 4.84-5.68 4.84-9.25zm31.58-92.12l-42.69 24.61a21 21 0 0 0-10.51 18.17V2437a7.18 7.18 0 0 0 10.77 6.21l42.69-24.61a21 21 0 0 0 10.51-18.17v-28.7a7.18 7.18 0 0 0-10.77-6.24zm-60.52 37.1c0-2-1.2-2.87-2.68-2l-34.93 20.13a6.43 6.43 0 0 0-2.68 5.12c0 2 1.2 2.87 2.68 2l34.93-20.13a6.42 6.42 0 0 0 2.68-5.12zm0 27.26c0-2-1.2-2.87-2.68-2L2769.8 2448a6.43 6.43 0 0 0-2.68 5.12c0 2 1.2 2.87 2.68 2l34.93-20.13a6.43 6.43 0 0 0 2.68-5.14zm0 13.96c0-2-1.2-2.88-2.68-2L2783.6 2454a6.4 6.4 0 0 0-2.68 5.11c0 2 1.2 2.88 2.68 2l21.13-12.18a6.4 6.4 0 0 0 2.68-5.12zm-18.87-16.14c0-2-1.2-2.87-2.68-2l-15.14 8.72a6.36 6.36 0 0 0-2.67 5.11c0 2 1.2 2.88 2.68 2l15.13-8.73a6.4 6.4 0 0 0 2.68-5.1zm18.87-11.12c0-2-1.2-2.88-2.68-2l-9.59 5.52a6.43 6.43 0 0 0-2.68 5.12c0 2 1.2 2.87 2.68 2l9.59-5.53a6.4 6.4 0 0 0 2.68-5.11z"/><path d="M1540.57 1157.57l453-261.14a49.75 49.75 0 0 0 25.16-43.5V792l-551.85 318.1v67.18a147.37 147.37 0 0 0 73.69-19.71z" fill="url(#_ÂÁ_Ï_ÌÌ_È_ËÂÌÚ_30-4)"/><path d="M940.23 896.43l453 261.14a147.36 147.36 0 0 0 73.65 19.71v-67.18L915.07 792v60.93a49.75 49.75 0 0 0 25.16 43.5z" fill="url(#_ÂÁ_Ï_ÌÌ_È_ËÂÌÚ_30-5)"/><path class="cls-4" d="M940.23 835.51l453 261.14a147.53 147.53 0 0 0 147.31 0l453-261.14c33.54-19.34 33.54-67.68 0-87l-453-261.14a147.48 147.48 0 0 0-147.31 0l-453 261.14c-33.55 19.32-33.55 67.66 0 87z"/><path class="cls-5" d="M1782.08 553h-31l-168.18-96.94 10.54 6.07a37.46 37.46 0 0 0-37.38 0L1072 741.48h-30.44V769a13.66 13.66 0 0 0 6.9 11.94l181.75 104.76a37.42 37.42 0 0 0 37.38 0l507.61-292.92a13.65 13.65 0 0 0 6.89-12.27z"/><path class="cls-2" d="M1048.44 753.42l181.75 104.77a37.46 37.46 0 0 0 37.38 0l507.61-292.93a13.77 13.77 0 0 0 0-23.88l-181.75-104.76a37.42 37.42 0 0 0-37.38 0l-507.61 292.92a13.77 13.77 0 0 0 0 23.88z"/><ellipse class="cls-5" cx="1187.74" cy="700.83" rx="22.14" ry="13.68"/><path class="cls-5" d="M1212.67 683.09l71.47-41.26-9.3-5.37-71.61 41.34 9.44 5.29zm14.03 7.92l35.67-20.63-9.3-5.37-35.81 20.71 9.44 5.29z"/><ellipse class="cls-5" cx="1528.57" cy="533.77" rx="22.14" ry="13.68"/><path class="cls-5" d="M1553.5 516.03l71.47-41.27-9.3-5.36-71.61 41.34 9.44 5.29zm14.03 7.92l35.66-20.63-9.29-5.37-35.81 20.71 9.44 5.29zM1138.1 779.79l30.21 17.41 31.06-17.9-30.21-17.41-31.06 17.9zm38.82-22.38l30.21 17.42 31.06-17.91-30.21-17.41-31.06 17.9zm38.82-22.37l30.21 17.41 31.06-17.9-30.21-17.42-31.06 17.91zm38.82-22.38l30.21 17.41 31.06-17.9-30.21-17.41-31.06 17.9zm38.82-22.38l30.21 17.42 31.06-17.91-30.21-17.41-31.06 17.9zm38.82-22.38l30.21 17.42 31.06-17.9-30.21-17.42-31.06 17.9zm-156.33 133.66l30.21 17.41 31.05-17.9-30.21-17.42-31.05 17.91zm38.82-22.38l30.2 17.41 31.06-17.9-30.21-17.41-31.05 17.9zm38.82-22.38l30.2 17.42 31.06-17.9-30.21-17.42-31.05 17.9zm38.82-22.38l30.21 17.42 31.05-17.9-30.21-17.42-31.05 17.9zm38.82-22.37l30.21 17.41 31.05-17.9-30.21-17.41-31.05 17.9zm38.82-22.38l30.21 17.42 31.05-17.91-30.21-17.41-31.05 17.9zm-156.34 133.65l30.21 17.42 31.05-17.9-30.21-17.42-31.05 17.9zm38.82-22.37l30.21 17.41 31.05-17.9-30.21-17.42-31.05 17.91zm38.82-22.38l30.21 17.41 31.05-17.9-30.21-17.41-31.05 17.9zm38.82-22.38l30.21 17.42 31.05-17.91-30.21-17.41-31.05 17.9zm38.82-22.37l30.21 17.41 31.05-17.9-30.21-17.42-31.05 17.91zm38.82-22.38l30.21 17.41 31.05-17.9-30.21-17.41-31.05 17.9zm127.34-153.2l30.21 17.41 31.06-17.9-30.21-17.41-31.06 17.9zm38.82-22.38l30.21 17.42 31.05-17.9-30.21-17.42-31.05 17.9zm-1.06 44.15l30.21 17.41 31.06-17.9-30.21-17.41-31.06 17.9zm38.82-22.38l30.21 17.41 31.06-17.9-30.21-17.41-31.06 17.9zm-1.06 44.14l30.21 17.42 31.06-17.9-30.21-17.42-31.06 17.9zm38.82-22.37l30.21 17.41 31.06-17.9-30.21-17.41-31.06 17.9z"/><ellipse class="cls-5" cx="1466.91" cy="982.07" rx="68.8" ry="42.51"/><path class="cls-22" d="M1458.63 1016.77a12.14 12.14 0 0 1-6.81-2.09L1426 997.22a9 9 0 0 1 8.46-15.7l28.76 11.93a12.12 12.12 0 0 1-1.93 23 11.86 11.86 0 0 1-2.66.32zm2.16-15.33z"/><path class="cls-20" d="M1459.35 1008.8a10 10 0 0 1-10-10v-30.58a10 10 0 1 1 20 0v30.58a10 10 0 0 1-10 10z"/><path class="cls-22" d="M1504.46 986.85a12.17 12.17 0 0 1-6.81-2.09l-25.77-17.46a9 9 0 0 1 8.46-15.71l28.76 11.93a12.13 12.13 0 0 1-1.93 23 11.8 11.8 0 0 1-2.71.33zm2.17-15.33z"/><path class="cls-20" d="M1504.87 981.4a10 10 0 0 1-10-10v-30.57a10 10 0 1 1 20 0v30.57a10 10 0 0 1-10 10z"/><path class="cls-24" d="M1459.35 991.35h-.22a12.51 12.51 0 0 1-12.28-12.72l3.4-194.11a12.5 12.5 0 0 1 12.49-12.28h.23a12.5 12.5 0 0 1 12.28 12.76l-3.4 194.12a12.5 12.5 0 0 1-12.5 12.23zm45.5-26.28a12.49 12.49 0 0 1-12.46-11.8l-10.61-190.51a12.5 12.5 0 0 1 25-1.39l10.61 190.51a12.5 12.5 0 0 1-11.79 13.17c-.28.02-.51.02-.75.02z"/><path class="cls-24" d="M1494.26 762.07l-31.51 22.67v-40.81l30.32-6.23 1.19 24.37z"/><path class="cls-24" d="M1450.25 809.13v-75.39l54.59-11.22 2.24 45.73zm25-55v6.22l6.19-4.45-.15-3z"/><path class="cls-20" d="M1372 695.15a112.29 112.29 0 0 1-38.24-6.37 8 8 0 0 1 5.41-15.06c68.71 24.7 160.23-43.8 161.15-44.49A8 8 0 0 1 1510 642a324.69 324.69 0 0 1-58.31 33.68c-29.09 12.96-55.69 19.47-79.69 19.47z"/><path class="cls-4" d="M1417.34 689.92a10 10 0 0 1-3.13-19.5c32.8-10.8 61.39-25.21 85-42.83a10 10 0 0 1 12 16c-25.32 18.92-55.84 34.33-90.69 45.81a10.08 10.08 0 0 1-3.18.52z"/><circle class="cls-20" cx="1336.5" cy="681.79" r="17.04" transform="rotate(-13.28 1336.754 681.886)"/><path class="cls-21" d="M1479 629.54a8 8 0 0 1-7.57-5.39l-19.35-56.1a8 8 0 1 1 15.13-5.21l19.35 56.09a8 8 0 0 1-7.56 10.61z"/><path class="cls-20" d="M1330.74 775.7a8 8 0 0 1-3.29-15.29c53.52-24.15 68.22-41.49 68.37-41.66a8 8 0 0 1 11.21-1.28 8.05 8.05 0 0 1 1.28 11.28c-.64.8-16.32 20.09-74.28 46.24a8 8 0 0 1-3.29.71z"/><path class="cls-4" d="M1399.71 735.52a10 10 0 0 1-7.51-16.59c19-21.71 42.5-50.38 54.74-79.58a10 10 0 0 1 18.44 7.74c-13.36 31.86-38.09 62.18-58.15 85a10 10 0 0 1-7.52 3.43z"/><circle class="cls-20" cx="1459.66" cy="565.44" r="27.05" transform="rotate(-9.22 1459.228 565.344)"/><circle class="cls-20" cx="1330.74" cy="767.7" r="17.04" transform="rotate(-13.28 1331.018 767.805)"/><path class="cls-4" d="M1444.16 766.72c0-55.28-.18-70.16-.18-109 0-50.88 64.2-43.93 69.18-15 4.46 25.92 2.67 99.69 2.67 114.9s-71.67 31.48-71.67 9.1z"/><path class="cls-22" d="M1460.77 561.47c8.68 8.26-5.86 32.54 7 41.13 8.74 5.85 13.91 5.1 18.06 10.5 6.81 8.86-12.54 20.81-7.68 39.77 4.22 16.47 24.12 14.17 30.62 31.07 8.08 21-18.17 36.48-12.34 58.5 5.57 21 38.72 41.73 62.6 30.16 24.28-11.77 27.18-51.14 14.17-69.46-10.8-15.22-29-10.88-34.27-24.68-6.9-18 9.38-29.21 2.19-45.06-6.21-13.7-26.62-7.5-35.92-23.49-7.61-13.08.91-25.58 0-46.61-.93-21.38-22-38.41-44-36.1-17.37 1.83-33.42 16.32-31.53 23.76 1.41 5.48 23.77 3.55 31.1 10.51z"/><path class="cls-24" d="M1531.85 595.18c-16-35.51-17.37 6.06-38 15.34s-52.65-17.23-36.64 18.28 18-4.6 38.62-13.89 52.02 15.78 36.02-19.73z"/><ellipse class="cls-5" cx="1640.78" cy="874.51" rx="68.8" ry="42.51"/><ellipse class="cls-5" cx="1762.95" cy="827.41" rx="44.02" ry="27.2"/><path class="cls-11" d="M1764.54 850.44a5 5 0 0 1-5-5V702.15a5 5 0 0 1 10 0v143.29a5 5 0 0 1-5 5zm31.24-18.03a5 5 0 0 1-5-5v-143.3a5 5 0 1 1 10 0v143.3a5 5 0 0 1-5 5zm-62.49-1.41a5 5 0 0 1-5-5V682.65a5 5 0 0 1 10 0V826a5 5 0 0 1-5 5z"/><path class="cls-10" d="M1718.93 676.27v13.6c0 15 19.71 27.2 44 27.2s44-12.18 44-27.2v-13.6z"/><ellipse class="cls-2" cx="1762.95" cy="676.27" rx="44.02" ry="27.2"/><circle class="cls-24" cx="1769.61" cy="510.28" r="28"/><path class="cls-22" d="M1737.63 816.15a9 9 0 0 1-8.83-10.65l5.82-30.58a12.12 12.12 0 1 1 23.12 6.88l-11.84 28.79a8.93 8.93 0 0 1-8.27 5.56zm.87-8.6z"/><path class="cls-20" d="M1743.64 785.54a10 10 0 0 1-5.81-1.87L1713 765.86a10 10 0 1 1 11.65-16.26l24.85 17.81a10 10 0 0 1-5.83 18.13z"/><path class="cls-24" d="M1715.18 770.23a12.46 12.46 0 0 1-6.35-1.74c-28.66-17-48.79-30.73-61.53-42.09-9.34-8.32-21.43-21-18.61-35.27 3-15.25 20.82-20.32 26.67-22 10.73-3 24.21-5 38.48-7 15.36-2.2 31.25-4.47 44.37-8.25a12.5 12.5 0 0 1 6.91 24c-14.78 4.25-31.54 6.65-47.74 9-11.58 1.65-22.52 3.22-31.18 5.28-7.29 1.74-10.79 3.35-12.37 4.3 1.12 2.09 4.4 6.67 13.8 14.46 11.63 9.64 29.78 21.77 53.93 36.06a12.5 12.5 0 0 1-6.38 23.26z"/><path class="cls-22" d="M1629.05 896.57a9 9 0 0 1-6.34-15.31l22-22a12.12 12.12 0 1 1 15.29 18.65l-26 17.17a9 9 0 0 1-4.95 1.49zm-3.86-14.85z"/><path class="cls-20" d="M1654 874.39a10 10 0 0 1-10-10v-30.58a10 10 0 0 1 20 0v30.58a10 10 0 0 1-10 10z"/><path class="cls-24" d="M1780.55 657.59l-7.69 19.31-31.19-11.01 5.55-27.54 33.33 19.24z"/><path class="cls-24" d="M1772.86 689.4a12.59 12.59 0 0 1-4.16-.71l-31.2-11a12.49 12.49 0 0 1-8.09-14.25l5.56-27.54a12.51 12.51 0 0 1 18.5-8.36l33.33 19.25a12.49 12.49 0 0 1 5.36 15.45l-7.69 19.31a12.49 12.49 0 0 1-11.61 7.85z"/><path class="cls-24" d="M1654 846.31a12.5 12.5 0 0 1-12.48-12c-2.21-52.28 17.06-97.29 55.73-130.17 13.69-11.64 37-27.78 70.2-38.58l.21-.06a12.54 12.54 0 1 1 8.95 23.37l-1.43.47c-34 11.06-112.77 47.22-108.69 143.91a12.49 12.49 0 0 1-12 13z"/><path class="cls-20" d="M1673.18 536.1a7.94 7.94 0 0 1-4.78-1.6l-35.24-26.35a8 8 0 0 1 9.58-12.81l35.26 26.35a8 8 0 0 1-4.8 14.41z"/><path class="cls-11" d="M1758.27 570.17a13.3 13.3 0 0 1-2-.15c-18.58-3-29.57-4-36.84-4.66-17.42-1.61-19.42-2.74-35.66-14.45-4.47-3.22-10-7.23-17.7-12.53a12.5 12.5 0 0 1 14.2-20.57c7.88 5.44 13.8 9.71 18.12 12.82 6.47 4.67 10 7.24 12.37 8.2 1.88.77 4.56 1 11 1.64 7.59.71 19.07 1.77 38.45 4.86a12.5 12.5 0 0 1-2 24.84z"/><circle class="cls-20" cx="1637.95" cy="501.75" r="15.08" transform="rotate(-20.95 1637.996 501.753)"/><path class="cls-23" d="M1747.22 638.35l11.03-80.68 24.94 2.61 22.41 22.02-25.05 75.29-33.33-19.24z"/><path class="cls-23" d="M1780.55 670.09a12.48 12.48 0 0 1-6.25-1.67l-33.3-19.25a12.51 12.51 0 0 1-6.14-12.52l11-80.67a12.49 12.49 0 0 1 13.68-10.74l24.94 2.6a12.54 12.54 0 0 1 7.46 3.52l22.41 22a12.49 12.49 0 0 1 3.1 12.86l-25 75.29a12.48 12.48 0 0 1-11.86 8.55zm-19.81-38.37l12.79 7.38 17.75-53.35-13.73-13.5-8.55-.89z"/><path class="cls-21" d="M1781.69 565.67a8 8 0 0 1-7.56-5.39l-14.51-42.09a8 8 0 0 1 15.13-5.22l14.5 42.1a8 8 0 0 1-5 10.17 8.25 8.25 0 0 1-2.56.43z"/><circle class="cls-20" cx="1767.19" cy="515.58" r="23.93" transform="rotate(-27.94 1766.982 515.577)"/><path class="cls-24" d="M1753.56 496.52c.71 12.2 19.58 20 42.56 10s-18.16-28.43-33.5-22c-3.28 1.33-9.29 8.07-9.06 12z"/><path class="cls-20" d="M1751.12 661.26a8 8 0 0 1-3.29-.71l-40.1-18.09a8 8 0 0 1 6.57-14.59l40.11 18.13a8 8 0 0 1-3.29 15.3z"/><path class="cls-11" d="M1773.37 670.89q-12 0-26.95-6a12.5 12.5 0 1 1 9.41-23.16c8 3.24 18.71 6.3 24.6 2.47 10.48-6.79 11.45-35.34 12.23-58.28.08-2.15.15-4.3.23-6.42a12.5 12.5 0 1 1 25 .93q-.12 3.15-.22 6.35c-1.08 31.71-2.2 64.51-23.61 78.4a37.2 37.2 0 0 1-20.69 5.71z"/><circle class="cls-20" cx="1711.01" cy="635.17" r="15.08"/><circle class="cls-24" cx="1782.95" cy="479.03" r="20"/><path class="cls-6" d="M1517.75 47.58L1235.2 210.44c-17.57 10.13-23.83 22.89-23.83 37.74v225.59a14.23 14.23 0 0 0 21.34 12.3l282.55-162.87a41.57 41.57 0 0 0 20.82-36V61.6c0-10.93-6.73-20.71-18.33-14.02z"/><path class="cls-2" d="M1183.42 242.78l-124.93 72a28.57 28.57 0 0 0-14.3 24.74v76.94a9.77 9.77 0 0 0 14.66 8.45l124.92-72a28.56 28.56 0 0 0 14.31-24.74v-76.94a9.78 9.78 0 0 0-14.66-8.45zm0 281.66L1125.28 558a28.57 28.57 0 0 0-14.28 24.69v39.08a9.78 9.78 0 0 0 14.66 8.45l58.14-33.51a28.59 28.59 0 0 0 14.28-24.71v-39.11a9.77 9.77 0 0 0-14.66-8.45z"/><path class="cls-4" d="M1243.89 388.86l69.21-22.13 49.29-58.12 40.11 18.21 36.69-130.44h71.72v-4.39h-75.05l-36.2 128.71-38.48-17.45-50.63 59.69-68 21.75 1.34 4.17z"/><path class="cls-4" d="M1251.69 390.62c-3 6.68-9.3 10.37-14 8.25s-6-9.26-3-15.94 9.29-10.37 14-8.25 6.04 9.26 3 15.94zm68.6-21.94c-3 6.68-9.29 10.37-14 8.25s-6-9.26-3-15.94 9.29-10.37 14-8.25 6.04 9.26 3 15.94z"/><ellipse class="cls-4" cx="1361.79" cy="305.93" rx="13.29" ry="9.3" transform="rotate(-65.46 1361.693 305.96)"/><path class="cls-6" d="M1367.09 308.33c-1.91 4.18-5.82 6.49-8.75 5.17s-3.75-5.8-1.85-10 5.82-6.49 8.74-5.17 3.77 5.82 1.86 10z"/><path class="cls-4" d="M1409.55 327.6c-3 6.68-9.3 10.38-14 8.26s-6-9.26-3-15.94 9.3-10.37 14-8.25 6.04 9.25 3 15.93z"/><ellipse class="cls-4" cx="1437.52" cy="194.19" rx="42.15" ry="29.5" transform="rotate(-65.46 1437.43 194.23)"/><ellipse class="cls-23" cx="1437.52" cy="194.19" rx="36.56" ry="25.58" transform="rotate(-65.46 1437.43 194.23)"/><path class="cls-4" d="M1443 196.69c-2 4.35-6 6.75-9.09 5.37s-3.91-6-1.93-10.37 6-6.75 9.09-5.37 3.93 6.02 1.93 10.37zm-24.35-13.58c-2 4.35-6.05 6.75-9.09 5.37s-3.91-6-1.93-10.37 6-6.75 9.1-5.37 3.9 6.02 1.92 10.37zM1457 226.2c-2.54 5.58-7.76 8.67-11.67 6.9s-5-7.74-2.48-13.32 7.77-8.66 11.68-6.89 4.99 7.73 2.47 13.31zm62.38-28.2c-3.05 6.68-9.3 10.37-14 8.25s-6-9.26-3-15.93 9.3-10.38 14-8.26 6.04 9.29 3 15.94z"/><path class="cls-10" d="M1197.3 369.54c0-2.68-1.63-3.91-3.65-2.75l-47.56 27.41c-2 1.16-3.65 4.28-3.65 7s1.64 3.92 3.66 2.76l47.55-27.42c2.02-1.2 3.65-4.32 3.65-7z"/><path class="cls-2" d="M1171.6 403.69c0-2.69-1.63-3.92-3.65-2.76l-47.56 27.42c-2 1.16-3.64 4.28-3.64 7s1.63 3.91 3.65 2.75l47.6-27.45c2-1.16 3.6-4.28 3.6-6.96zm24.7 20.17c0-7.44-4.53-10.85-10.12-7.63l-131.87 76c-5.59 3.22-10.12 11.86-10.12 19.3s4.54 10.86 10.13 7.64l131.86-76c5.59-3.23 10.12-11.87 10.12-19.31zm169.17-315.36c0-7.43-4.54-10.85-10.13-7.63l-301 173.52c-5.59 3.22-10.12 11.87-10.12 19.31s4.54 10.85 10.13 7.63l301-173.52c5.59-3.22 10.12-11.87 10.12-19.31zm172.88-99.65c0-7.44-4.53-10.86-10.12-7.64l-137.94 79.51c-5.59 3.23-10.12 11.87-10.12 19.31s4.54 10.85 10.12 7.63l137.94-79.51c5.59-3.22 10.12-11.86 10.12-19.3zM1196.3 464.48c0-7.44-4.53-10.86-10.12-7.64l-131.87 76c-5.59 3.22-10.12 11.86-10.12 19.3s4.54 10.86 10.13 7.64l131.86-76c5.59-3.22 10.12-11.86 10.12-19.3zm-59.85-59.86c0-2.69-1.63-3.92-3.65-2.76l-13.06 7.53c-2 1.16-3.65 4.28-3.65 7s1.64 3.92 3.65 2.76l13.06-7.53c2.02-1.2 3.65-4.32 3.65-7z"/><path class="cls-10" d="M1324.23 99.08c0-2.68-1.64-3.91-3.65-2.75L1273 123.74c-2 1.16-3.65 4.28-3.65 7s1.64 3.92 3.65 2.76l47.58-27.5c2.01-1.12 3.65-4.23 3.65-6.92z"/><path class="cls-2" d="M1263.38 134.16c0-2.68-1.64-3.92-3.65-2.75l-13.06 7.52c-2 1.16-3.65 4.28-3.65 7s1.63 3.92 3.65 2.76l13.06-7.53c2.01-1.16 3.65-4.32 3.65-7z"/><path class="cls-4" d="M1355.34 114.79c0-2.69-1.63-3.92-3.65-2.76l-23.77 13.71c-2 1.16-3.65 4.28-3.65 7s1.63 3.92 3.65 2.75l23.77-13.7c2.02-1.2 3.65-4.32 3.65-7z"/><path class="cls-2" d="M1071.42 247.22c0-2.68-1.64-3.92-3.65-2.75l-13.06 7.53c-2 1.16-3.65 4.28-3.65 7s1.64 3.92 3.65 2.76l13.06-7.53c2.02-1.23 3.65-4.33 3.65-7.01zm125.88 141.32c0-2.68-1.63-3.91-3.65-2.75l-13.06 7.53c-2 1.16-3.65 4.27-3.65 7s1.64 3.91 3.65 2.75l13.06-7.53c2.02-1.2 3.65-4.31 3.65-7zM1101 575c0-2.68-1.63-3.91-3.65-2.75l-47.56 27.41c-2 1.16-3.64 4.28-3.64 7s1.63 3.92 3.65 2.76l47.55-27.42c2.02-1.23 3.65-4.35 3.65-7zm0 37.09c0-2.68-1.63-3.92-3.65-2.75l-47.56 27.41c-2 1.16-3.64 4.28-3.64 7s1.63 3.92 3.65 2.76l47.55-27.42c2.02-1.2 3.65-4.32 3.65-7z"/><path class="cls-10" d="M1101 631.09c0-2.68-1.63-3.91-3.65-2.75l-28.77 16.59c-2 1.16-3.65 4.27-3.65 7s1.63 3.91 3.65 2.75l28.77-16.59c2.02-1.2 3.65-4.31 3.65-7z"/><path class="cls-2" d="M1075.3 609.12c0-2.69-1.63-3.92-3.65-2.76l-20.6 11.88c-2 1.16-3.65 4.28-3.65 7s1.64 3.92 3.65 2.76l20.61-11.88c2.01-1.2 3.64-4.32 3.64-7z"/><path class="cls-10" d="M1101 594c0-2.68-1.63-3.91-3.65-2.75l-13.06 7.53c-2 1.16-3.64 4.27-3.64 7s1.63 3.91 3.65 2.75l13-7.53c2.07-1.23 3.7-4.34 3.7-7z"/><path class="cls-2" d="M1458.11 368.05L1400 401.56a28.56 28.56 0 0 0-14.31 24.74v39.07a9.77 9.77 0 0 0 14.66 8.45l58.14-33.51a28.55 28.55 0 0 0 14.3-24.74V376.5a9.77 9.77 0 0 0-14.68-8.45z"/><path class="cls-10" d="M1375.7 418.58c0-2.69-1.63-3.92-3.65-2.76l-47.56 27.42c-2 1.16-3.65 4.28-3.65 7s1.64 3.91 3.65 2.75l47.56-27.41c2.02-1.2 3.65-4.32 3.65-7z"/><path class="cls-2" d="M1375.7 455.7c0-2.69-1.63-3.92-3.65-2.76l-47.56 27.42c-2 1.16-3.65 4.27-3.65 7s1.64 3.91 3.65 2.75l47.56-27.41c2.02-1.2 3.65-4.32 3.65-7zm0 19c0-2.68-1.63-3.92-3.65-2.76l-28.78 16.59c-2 1.16-3.64 4.28-3.64 7s1.63 3.92 3.65 2.76l28.77-16.59c2.02-1.2 3.65-4.32 3.65-7z"/><path class="cls-10" d="M1350 452.72c0-2.68-1.63-3.91-3.65-2.75l-20.6 11.88c-2 1.16-3.65 4.27-3.65 7s1.63 3.91 3.65 2.75l20.6-11.88c2.02-1.2 3.65-4.31 3.65-7z"/><path class="cls-2" d="M1375.7 437.58c0-2.68-1.63-3.92-3.65-2.76l-13.05 7.53c-2 1.16-3.65 4.28-3.65 7s1.64 3.92 3.65 2.76l13.06-7.53c2.01-1.2 3.64-4.32 3.64-7zm-204.1 74.57c0-2.68-1.63-3.91-3.65-2.75l-47.56 27.41c-2 1.17-3.64 4.28-3.64 7s1.63 3.92 3.65 2.76l47.6-27.45c2-1.12 3.6-4.28 3.6-6.97zm25.7-15.15c0-2.68-1.63-3.92-3.65-2.75l-13.06 7.52c-2 1.16-3.65 4.28-3.65 7s1.64 3.92 3.65 2.76l13.06-7.53c2.02-1.19 3.65-4.31 3.65-7z"/><path class="cls-4" d="M1248.31 335.06V254.7l-13.11 7.56v80.36l13.11-7.56zm21.73-17.37v-53.17l-13.11 7.56v53.17l13.11-7.56zm21.73-12.52v-34.85l-13.11 7.56v34.85l13.11-7.56zm21.73-12.53v-22.33l-13.11 7.56v22.33l13.11-7.56zm21.73-12.52v-9.66l-13.11 7.56v9.66l13.11-7.56z"/><path d="M625.5 2056.93l699.62-402.81a49.75 49.75 0 0 0 25.15-43.51v-60.92l-798.43 459.77v67.18a147.37 147.37 0 0 0 73.66-19.71z" fill="url(#_ÂÁ_Ï_ÌÌ_È_ËÂÌÚ_30-6)"/><path d="M25.16 1795.79l453 261.14a147.36 147.36 0 0 0 73.65 19.71v-67.18L0 1691.36v60.93a49.75 49.75 0 0 0 25.16 43.5z" fill="url(#_ÂÁ_Ï_ÌÌ_È_ËÂÌÚ_30-7)"/><path class="cls-4" d="M25.16 1734.87l453 261.14a147.53 147.53 0 0 0 147.31 0l699.62-402.82c33.54-19.34 33.54-67.67 0-87L872.08 1245a147.53 147.53 0 0 0-147.31 0L25.16 1647.86c-33.55 19.33-33.55 67.67 0 87.01z"/><ellipse class="cls-5" cx="757.58" cy="1854.24" rx="44.02" ry="27.2"/><path class="cls-11" d="M759.17 1877.28a5 5 0 0 1-5-5V1729a5 5 0 0 1 10 0v143.3a5 5 0 0 1-5 4.98zm31.25-18.04a5 5 0 0 1-5-5v-143.3a5 5 0 0 1 10 0v143.3a5 5 0 0 1-5 5zm-62.49-1.46a5 5 0 0 1-5-5v-143.3a5 5 0 0 1 10 0v143.3a5 5 0 0 1-5 5z"/><path class="cls-10" d="M713.56 1703.1v13.6c0 15 19.71 27.2 44 27.2s44-12.18 44-27.2v-13.6z"/><ellipse class="cls-2" cx="757.58" cy="1703.1" rx="44.02" ry="27.2"/><ellipse class="cls-5" cx="532.89" cy="1949.78" rx="44.02" ry="27.2"/><path class="cls-11" d="M534.48 1972.82a5 5 0 0 1-5-5v-135.3a5 5 0 0 1 10 0v135.3a5 5 0 0 1-5 5zm31.24-18.04a5 5 0 0 1-5-5v-135.3a5 5 0 0 1 10 0v135.3a5 5 0 0 1-5 5zm-62.49-1.45a5 5 0 0 1-5-5V1813a5 5 0 0 1 10 0v135.3a5 5 0 0 1-5 5.03z"/><path class="cls-10" d="M488.87 1806.65v13.59c0 15 19.71 27.2 44 27.2s44-12.18 44-27.2v-13.59z"/><ellipse class="cls-2" cx="532.89" cy="1806.65" rx="44.02" ry="27.2"/><ellipse class="cls-5" cx="649.9" cy="1806.01" rx="68.8" ry="42.51"/><path class="cls-22" d="M682.11 1805.14h-.53a12.21 12.21 0 0 1-8.7-4.25l-20.18-23.71a9 9 0 0 1 12.35-12.88l24.53 19.17a12.12 12.12 0 0 1-7.47 21.68zm3-14.64zm-20.19-23.71z"/><path class="cls-20" d="M680 1798.45a10 10 0 0 1-10-10v-30.58a10 10 0 0 1 20 0v30.58a10 10 0 0 1-10 10z"/><path class="cls-13" d="M680 1773.61a12.5 12.5 0 0 1-12.45-11.52c-2.94-37.39 4.44-62.92 22.57-78 18.63-15.55 46.4-18.16 84.89-8a12.5 12.5 0 1 1-6.38 24.17c-29.68-7.84-50.7-6.83-62.5 3-11.29 9.43-15.88 28.56-13.65 56.89a12.5 12.5 0 0 1-11.48 13.42c-.36.03-.69.04-1 .04z"/><path class="cls-11" d="M739.3 1668a6.19 6.19 0 0 0-4.86 9c3.11 5.94 7.21 13.51 9.53 16.8 6.71 9.51 21.44 5.15 26.49-2.68 2.66-4.13 2.48-9.21 1.34-13.78a14.89 14.89 0 0 0-16-11.06z"/><path class="cls-11" d="M754.87 1711.7a25.38 25.38 0 0 1-21.11-10.7c-.82-1.16-3.31-4.68-10.39-18.21a18.69 18.69 0 0 1 14.63-27.28l16.49-1.69a27.52 27.52 0 0 1 29.41 20.47c2.82 11.31 0 19.06-3 23.58-5.28 8.18-15.29 13.61-25.5 13.83zm-4.93-32.28c2.55 4.61 3.76 6.47 4.24 7.16l.08.09c1.07.46 4.71-.82 5.69-2.34.1-.19.36-1.42-.28-4a2.39 2.39 0 0 0-2.61-1.65z"/><path class="cls-20" d="M719.37 1493.23a8 8 0 0 1-7.88-6.71l-7.1-43.42a8 8 0 1 1 15.79-2.58l7.1 43.42a8 8 0 0 1-6.61 9.19 8.13 8.13 0 0 1-1.3.1z"/><path class="cls-19" d="M758.63 1580.65a12.52 12.52 0 0 1-10-5c-8.7-11.54-14.92-19.3-19.46-25-13.45-16.77-14.43-18.87-17.42-37.32-1-5.89-2.26-14-4.63-25.68a12.5 12.5 0 0 1 24.51-5c2.46 12.21 3.82 20.55 4.8 26.64 1.21 7.46 1.74 10.58 2.81 12.84 1.22 2.6 4.14 6.24 9.43 12.84 4.64 5.79 11 13.72 19.92 25.55a12.5 12.5 0 0 1-10 20z"/><circle class="cls-20" cx="712.29" cy="1441.81" r="15.08" transform="rotate(-13.19 712.554 1442.268)"/><path class="cls-20" d="M658.23 1687.89a8 8 0 0 1-5.2-14.09l33.46-28.58a8 8 0 1 1 10.39 12.17L663.43 1686a8 8 0 0 1-5.2 1.89z"/><path class="cls-20" d="M666.44 1667.24a15.08 15.08 0 1 0 4.44 20.85 15.07 15.07 0 0 0-4.44-20.85z"/><path class="cls-22" d="M637.37 1842.75a12.16 12.16 0 0 1-5.85-1.5l-27.28-15a9 9 0 0 1 7-16.42L641 1819a12.13 12.13 0 0 1 .21 23.1 12.27 12.27 0 0 1-3.84.65zm1.86-15.52zm-27.29-15z"/><path class="cls-20" d="M635.46 1834.36a10 10 0 0 1-10-10v-30.58a10 10 0 1 1 20 0v30.58a10 10 0 0 1-10 10z"/><path class="cls-11" d="M635.45 1806.28a12.5 12.5 0 0 1-12.48-12c-1.8-42.64 6.6-72.18 25.69-90.31 24.26-23 58.86-19.79 79.54-17.84 5.25.49 11.8 1.11 13.89.71a12.5 12.5 0 1 1 4.61 24.57c-5.55 1-12.3.41-20.84-.4-18.56-1.74-44-4.13-60 11.08-13.36 12.69-19.39 36.62-17.93 71.13a12.51 12.51 0 0 1-12 13z"/><path class="cls-19" d="M720.11 1686.77c0-50.86-.17-64.55-.17-100.24 0-46.81 59.07-40.41 63.65-13.8 4.11 23.85 2.46 91.72 2.46 105.71 0 3.92-5.16 7.9-12.59 11.16-2.12.93-11.68 4.07-14.2 4.68-18.26 4.42-39.15 4.08-39.15-7.51z"/><path class="cls-19" d="M778.4 1560.34c0 12.91-6.5 36.15-19.41 36.15s-31.07-20.4-31.07-33.31a23.37 23.37 0 0 1 23.37-23.37c12.91 0 27.11 7.62 27.11 20.53z"/><ellipse class="cls-23" cx="753.16" cy="1551.48" rx="15.66" ry="9.13"/><path class="cls-21" d="M747.38 1556.49a8 8 0 0 1-7.82-6.39l-8.23-39.94a8 8 0 0 1 15.68-3.23l8.22 40a8 8 0 0 1-6.23 9.45 8.09 8.09 0 0 1-1.62.11z"/><path class="cls-20" d="M761.28 1525a23.93 23.93 0 1 0-31.28 13 23.93 23.93 0 0 0 31.28-13z"/><path class="cls-19" d="M691.68 1663.81a12.51 12.51 0 0 1-9.55-20.56c24-28.5 32.28-40 37.86-66.89a12.5 12.5 0 0 1 24.48 5.07c-7 33.87-19 49.19-43.23 77.94a12.46 12.46 0 0 1-9.56 4.44z"/><path class="cls-24" d="M719.4 1496.08a3.6 3.6 0 0 0 4 5.21c4.33-1 9.18-.94 9.55 4.53.22 3.29 2.32 17.26 3.49 12.38 3.85-16.13 24.1 3.5 3.72 7-5.09.87 5.86 11.18 12.49 11.06 13.13-.24 26.48-12.6 20.14-35.53-6.58-23.98-42.52-24.86-53.39-4.65z"/><ellipse class="cls-5" cx="424.46" cy="1884" rx="68.8" ry="42.51"/><path class="cls-20" d="M432.67 1702.55a15.08 15.08 0 1 0 4.43 20.85 15.08 15.08 0 0 0-4.43-20.85z"/><path class="cls-20" d="M457.15 1684.37a15.08 15.08 0 1 0 4.44 20.85 15.07 15.07 0 0 0-4.44-20.85z"/><path class="cls-22" d="M431 1893.43l16.77 19.07a10.58 10.58 0 0 0 15.47.43 10.58 10.58 0 0 0-1.17-15.85l-20.26-15.3c-7.69-5.78-17.18 4.43-10.81 11.65z"/><path class="cls-23" d="M455.51 1910.41h-.22a10 10 0 0 1-9.78-10.22l.89-40.34a10 10 0 0 1 10-9.78h.22a10 10 0 0 1 9.78 10.21l-.89 40.34a10 10 0 0 1-10 9.79z"/><path class="cls-22" d="M423.73 1859.78a12 12 0 0 1-5.85-1.5l-27.29-15a9 9 0 0 1 7-16.42l29.74 9.2a12.12 12.12 0 0 1 .22 23.1 12 12 0 0 1-3.82.62zm1.85-15.52z"/><path class="cls-23" d="M427.84 1853.13a10 10 0 0 1-8.3-15.57l17-25.41a10 10 0 1 1 16.62 11.13l-17 25.41a10 10 0 0 1-8.32 4.44z"/><path class="cls-11" d="M441.17 1833.85a12.33 12.33 0 0 1-5.88-1.48 12.5 12.5 0 0 1-5.14-16.91c18.36-34.34 26.35-48.42 39.93-51.83 11.32-2.85 20.41 3.2 33 11.57 6.72 4.48 15.09 10 26.09 16a12.5 12.5 0 0 1-11.85 22 328.74 328.74 0 0 1-28.09-17.2c-5-3.36-10.7-7.12-13.22-7.93-4.8 3.6-15.74 24.06-23.81 39.15a12.5 12.5 0 0 1-11.03 6.63z"/><path class="cls-11" d="M455.51 1885.57h-.3a12.5 12.5 0 0 1-12.2-12.79c.21-9.1.32-17.39.42-24.7.48-36.4.71-54.67 13.64-64.27s30-4.8 67.27 5.89l7 2a12.5 12.5 0 1 1-6.87 24l-7-2c-14.4-4.13-25.76-7.4-34-9s-10.8-1-11.43-.83c-.37.53-1.61 2.86-2.42 10.75-.82 8.06-1 19.4-1.15 33.76-.1 7.37-.21 15.73-.43 25a12.5 12.5 0 0 1-12.53 12.19z"/><path class="cls-11" d="M521.23 1772.37a6.2 6.2 0 0 0-6.29 8.1c2.09 6.37 4.88 14.52 6.62 18.16 5.05 10.48 20.29 8.62 26.57 1.73 3.31-3.63 4-8.67 3.6-13.36a14.88 14.88 0 0 0-14-13.56z"/><path class="cls-11" d="M534.41 1818.52a30.36 30.36 0 0 1-4.47-.33A25.42 25.42 0 0 1 510.3 1804c-.62-1.27-2.49-5.16-7.24-19.68a18.7 18.7 0 0 1 19-24.46l16.54 1.06a27.52 27.52 0 0 1 25.6 25.08c.91 11.61-3.21 18.79-6.83 22.76a31.45 31.45 0 0 1-22.96 9.76zm-4.58-33.07c1.82 5.17 2.71 7.16 3 7.76a.34.34 0 0 0 .06.1c1 .64 4.78 0 6-1.36.13-.17.59-1.34.38-4a2.41 2.41 0 0 0-2.3-2.07z"/><path class="cls-21" d="M536.1 1689a8 8 0 0 1-7.83-6.39l-8.22-39.94a8 8 0 0 1 15.67-3.23l8.22 39.94a8 8 0 0 1-6.22 9.45 8.18 8.18 0 0 1-1.62.17z"/><circle class="cls-20" cx="527.89" cy="1648.4" r="23.93" transform="rotate(-23.88 527.852 1648.32)"/><rect class="cls-13" x="419.22" y="1681.27" width="34.67" height="48.81" rx="5.74" ry="5.74" transform="rotate(-38.18 436.6 1705.732)"/><path class="cls-20" d="M486 1716c-21.88 0-34.56-10.31-35.4-11a8 8 0 0 1 10.29-12.26c1 .78 25.6 19.93 68.06-7.4a8 8 0 1 1 8.66 13.45C517.15 1712 499.73 1716 486 1716zm-33.56 34.05a39.4 39.4 0 0 1-12.43-2c-16.8-5.55-22.79-21-23-21.63a8 8 0 0 1 15-5.65c.13.31 3.73 9.1 13.28 12.15s22.38-.49 37.39-10.15a8 8 0 0 1 8.65 13.46c-14.33 9.21-27.33 13.82-38.89 13.82z"/><path class="cls-24" d="M475.33 1748.75a12.5 12.5 0 0 1-8.07-22c8.17-6.92 16.71-12.84 26.58-19.7 7-4.82 14.81-10.29 23.73-16.92a12.5 12.5 0 1 1 14.93 20.05c-9.25 6.88-17.3 12.47-24.4 17.4-9.35 6.5-17.43 12.11-24.7 18.26a12.47 12.47 0 0 1-8.07 2.91z"/><path class="cls-24" d="M503.65 1785.66c0-49.92-.12-34.5-.12-69.53 0-46 57.94-39.14 62.43-13 4 23.41 2.41 60.64 2.41 74.38 0 3.84-5.06 7.75-12.36 11-2.07.92-11.46 4-13.93 4.6-17.93 4.25-38.43 3.89-38.43-7.45z"/><path class="cls-6" d="M585.25 1697.25c-6.29-14.48-22.94-12.76-28.14-28.25-4-11.86 4.4-17 .09-29-4.07-11.36-17.37-23.17-31.89-21-12.74 2-24.19 14.37-22.39 23.12 2.07 10.07 20 7 27.11 19.53 9.09 15.93-13.16 32.64-6.47 53.5 5.53 17.25 29.43 33 46.41 25.6 14.84-6.48 21.42-29.38 15.28-43.5z"/><ellipse class="cls-5" cx="899.04" cy="1681.03" rx="68.8" ry="42.51"/><ellipse class="cls-5" cx="960.19" cy="1745.5" rx="44.02" ry="27.2"/><path class="cls-11" d="M961.78 1768.54a5 5 0 0 1-5-5v-135.3a5 5 0 0 1 10 0v135.3a5 5 0 0 1-5 5zM993 1750.5a5 5 0 0 1-5-5v-135.3a5 5 0 0 1 10 0v135.3a5 5 0 0 1-5 5zm-62.47-1.5a5 5 0 0 1-5-5v-135.3a5 5 0 0 1 10 0V1744a5 5 0 0 1-5 5z"/><path class="cls-10" d="M916.17 1602.36V1616c0 15 19.71 27.2 44 27.2s44-12.18 44-27.2v-13.6z"/><ellipse class="cls-2" cx="960.19" cy="1602.36" rx="44.02" ry="27.2"/><path class="cls-22" d="M895.57 1670.62l20.85 14.5a10.57 10.57 0 0 0 15.12-3.29 10.56 10.56 0 0 0-4.93-15.1l-23.34-10c-8.84-3.8-15.61 8.4-7.7 13.89z"/><path class="cls-23" d="M921.34 1685a10 10 0 0 1-9.3-6.32l-10.73-27a10 10 0 1 1 18.6-7.38l10.72 27a10 10 0 0 1-9.29 13.69z"/><path class="cls-24" d="M910.61 1660.47a12.51 12.51 0 0 1-11.81-8.39c-15.45-44.44-20.52-68-7.55-81.73 14.11-14.92 41.18-8.13 84.19 4.17a12.5 12.5 0 1 1-6.88 24c-15.92-4.55-32.25-9-43.84-10.82-11.25-1.76-14.64-.5-15.28-.18-.28.63-1.38 4 .55 14.22 1.79 9.56 5.63 22.54 12.43 42.09a12.49 12.49 0 0 1-11.81 16.61z"/><path class="cls-22" d="M854.66 1691.87l16.78 19.07a10.57 10.57 0 0 0 15.46.43 10.57 10.57 0 0 0-1.16-15.85l-20.27-15.3c-7.68-5.8-17.17 4.43-10.81 11.65z"/><path class="cls-23" d="M879.19 1708.85H879a10 10 0 0 1-9.78-10.22l.89-40.34a10 10 0 0 1 10-9.78h.22a10 10 0 0 1 9.78 10.21l-.89 40.34a10 10 0 0 1-10.03 9.79z"/><path class="cls-24" d="M879.19 1684h-.3a12.49 12.49 0 0 1-12.2-12.79c.21-9.1.32-17.39.41-24.7.48-36.4.72-54.67 13.65-64.27s30-4.8 67.27 5.89l7 2a12.5 12.5 0 1 1-6.88 24l-7-2c-14.4-4.13-25.77-7.4-34-9s-10.8-1-11.43-.83c-.37.53-1.62 2.86-2.42 10.75-.82 8.06-1 19.4-1.16 33.76-.09 7.37-.2 15.73-.42 25a12.51 12.51 0 0 1-12.52 12.19z"/><path class="cls-24" d="M958.08 1615.33a31.75 31.75 0 0 1-4.46-.32 25.43 25.43 0 0 1-19.62-14.15 16.21 16.21 0 0 1 .32-14.67c-1.63-7.1 1.4-14.34 5-18.94s8.41-7.45 13.42-7.88l7.82-1.71 1.76.12a27.5 27.5 0 0 1 25.61 25c.92 11.62-3.21 18.79-6.83 22.76-5.65 6.2-14.32 9.79-23.02 9.79zm1.27-31.82a19.88 19.88 0 0 1-.05 6.7 6.36 6.36 0 0 0 3.27-1.45c.13-.17.58-1.35.38-4a2.27 2.27 0 0 0-1.29-1.79z"/><path class="cls-21" d="M932.59 1511a8 8 0 0 1-4.2-1.2l-22.52-13.91a8 8 0 1 1 8.4-13.61l22.53 13.91a8 8 0 0 1-4.21 14.81z"/><circle class="cls-20" cx="896.37" cy="1478.63" r="23.93" transform="rotate(-55.7 896.349 1478.617)"/><path class="cls-21" d="M892.08 1579.48a8 8 0 0 1-6.27-3c-14.3-18-8.78-58.13-8.11-62.65a8 8 0 0 1 15.83 2.37c-2.15 14.42-2.74 40.84 4.8 50.33a8 8 0 0 1-6.25 13z"/><path class="cls-15" d="M896.79 1588.26c-5.65 0-13.11-2.72-18.23-14.88a12.5 12.5 0 0 1 18.15-15.44c5.38-11 11.92-31.66 15.12-41.75 1.15-3.63 2.22-7 3.21-10a12.5 12.5 0 1 1 23.74 7.81c-.95 2.91-2 6.21-3.12 9.75-13.73 43.28-22 63.75-38.06 64.49z"/><path class="cls-15" d="M927.33 1582.47c-6-12.22-11.36-33-13.67-56.7-4.47-45.73 42.9-47 62.43-13 11.83 20.6 15.95 47.81 15.95 61.55 0 3.84-5.06 7.75-12.35 11-2.08.91-11.46 4-13.94 4.59-17.92 4.26-33.41 2.77-38.42-7.44z"/><path class="cls-21" d="M889.74 1499.66c-7.65-3.29-12.7-13.24-16-5.59a15.08 15.08 0 0 0 27.7 11.91c3.29-7.65-4.05-2.98-11.7-6.32z"/><path class="cls-24" d="M882.13 1491.42s11.67-5.33 7.33 8.67c0 0 5 3.72 13.53 2 11.38-2.23 17.42-5.86 20.36-17.56 6.58-26.12-25.57-43.06-47-23.43-4.09 3.9 1.36 28.4 5.78 30.32z"/><circle class="cls-24" cx="916.17" cy="1510.72" r="16.13" transform="rotate(-29.76 916.23 1510.773)"/><path class="cls-11" d="M930.53 1717.49a5 5 0 0 1-5-5V1648a5 5 0 0 1 10 0v64.52a5 5 0 0 1-5 4.97z"/><path class="cls-5" d="M324.29 1626.09l158.78-91.68-108.17-62.45-156.71 92.87 106.1 61.26z"/><path class="cls-11" d="M483.06 1539.41a5 5 0 0 1-5-4.48l-48.85-473.19c0-.32-.05-.49-.54-.49-.48 0-.5.17-.53.48l-46.22 412a5 5 0 1 1-9.94-1.11l46.22-412a10.4 10.4 0 0 1 10.48-9.37h.05a10.4 10.4 0 0 1 10.44 9.46L488 1533.9a5 5 0 0 1-4.46 5.49 4.52 4.52 0 0 1-.48.02z"/><path class="cls-24" d="M277.03 1168.34L434.08 1078l33.77 309-157.21 90.77-33.61-309.43z"/><path class="cls-11" d="M324.28 1631.09a5 5 0 0 1-5-4.49l-48.85-473.19c0-.31 0-.49-.54-.49s-.51.17-.54.49l-46.23 412a5 5 0 1 1-9.93-1.12l46.22-412a10.4 10.4 0 0 1 10.47-9.37 10.41 10.41 0 0 1 10.45 9.46l48.85 473.19a5 5 0 0 1-4.46 5.49z"/><path class="cls-4" d="M337 1420.09a3.5 3.5 0 0 1-3.47-3.06l-8.25-65.14a3.5 3.5 0 0 1 5.47-3.32l23.25 16.12-13.78-62.37a3.5 3.5 0 0 1 4.77-4l15.05 6.32 9.69-118.38a3.5 3.5 0 0 1 4.85-2.94l18.5 7.77 25.27-73.45a3.5 3.5 0 0 1 6.62 2.27l-26.49 77a3.49 3.49 0 0 1-4.66 2.09l-17.5-7.35-9.68 118.35a3.51 3.51 0 0 1-4.85 3l-13.27-5.58 14.25 64.48a3.5 3.5 0 0 1-5.41 3.64l-24.16-16.74 7.27 57.36a3.5 3.5 0 0 1-3 3.91 3.25 3.25 0 0 1-.47.02z"/><ellipse class="cls-4" cx="373.23" cy="1186.56" rx="23.25" ry="16.27" transform="rotate(-72.67 373.278 1186.593)"/><ellipse class="cls-4" cx="363.15" cy="1309.76" rx="9.7" ry="6.79" transform="rotate(-72.67 363.196 1309.797)"/><ellipse class="cls-4" cx="343.65" cy="1301.57" rx="9.7" ry="6.79" transform="matrix(.3 -.95 .95 .3 -1001.2 1241.98)"/><ellipse class="cls-4" cx="359.68" cy="1369.47" rx="9.7" ry="6.79" transform="rotate(-72.67 359.723 1369.51)"/><path class="cls-4" d="M335.23 1353.45c-1.59 5.12-5.78 8.37-9.36 7.26s-5.2-6.15-3.61-11.27 5.78-8.36 9.36-7.25 5.2 6.15 3.61 11.26zm8.25 65.15c-1.59 5.11-5.78 8.36-9.36 7.25s-5.2-6.15-3.61-11.26 5.78-8.37 9.36-7.26 5.2 6.15 3.61 11.27zm84.67-297.8c-1.59 5.12-5.78 8.36-9.36 7.26s-5.19-6.16-3.6-11.27 5.78-8.36 9.36-7.26 5.19 6.16 3.6 11.27z"/><ellipse class="cls-5" cx="622.73" cy="1489.03" rx="68.8" ry="42.51"/><path class="cls-20" d="M684 1283.57a17 17 0 1 1-.91 24.08 17 17 0 0 1 .91-24.08z"/><path class="cls-4" d="M690.3 1295.67a8 8 0 0 1-7.59-5.5c-5.77-17.5-8.72-28-8.76-31.13l16-.2a2.58 2.58 0 0 0 0-.67c0 .2.74 5 8 27a8 8 0 0 1-5.09 10.1 8.12 8.12 0 0 1-2.56.4z"/><path class="cls-23" d="M678.53 1271.18a12.5 12.5 0 0 1-11.43-7.43c-14.35-32.3-21.51-52.36-27.82-70-4.69-13.12-9.11-25.51-15.91-41.4a12.5 12.5 0 1 1 23-9.84c7.1 16.6 11.65 29.34 16.47 42.84 6.47 18.12 13.16 36.86 27.13 68.3a12.51 12.51 0 0 1-11.42 17.58z"/><path class="cls-22" d="M612 1525.59a8.94 8.94 0 0 1-5.6-2l-24.32-19.44A12.13 12.13 0 1 1 599 1487l19.91 23.93a9 9 0 0 1-6.89 14.71z"/><path class="cls-23" d="M589.3 1500.2a10 10 0 0 1-10-10v-30.58a10 10 0 0 1 20 0v30.58a10 10 0 0 1-10 10z"/><path class="cls-22" d="M663.66 1485.26a9.76 9.76 0 0 1-1.69-.16l-30.59-5.81a12.13 12.13 0 1 1 6.87-23.13l28.8 11.84a9 9 0 0 1-3.39 17.26zm-2.69-2.47z"/><path class="cls-23" d="M634.82 1472.81a10 10 0 0 1-10-10v-30.58a10 10 0 0 1 20 0v30.58a10 10 0 0 1-10 10z"/><path class="cls-24" d="M589.31 1482.75h-.61a12.5 12.5 0 0 1-11.88-13.09l8.74-180.91a12.5 12.5 0 0 1 25 1.21l-8.74 180.91a12.5 12.5 0 0 1-12.51 11.88zm45.5-26.28a12.5 12.5 0 0 1-12.49-12.13L617.06 1267a12.5 12.5 0 0 1 25-.74l5.26 177.3a12.5 12.5 0 0 1-12.12 12.87z"/><path class="cls-24" d="M629.55 1266.67l-31.51 22.67v-40.8l30.32-6.24 1.19 24.37z"/><path class="cls-24" d="M585.54 1313.73v-75.39l54.59-11.22 2.24 45.73zm25-55v6.27l6.2-4.45-.15-3z"/><path class="cls-23" d="M579.46 1271.33c0-55.29-.19-70.17-.19-109 0-50.88 64.21-43.92 69.19-15 4.46 25.93 2.66 99.7 2.66 114.91 0 4.25-5.6 8.59-13.68 12.13-2.3 1-7.89-34.94-7.89-34.94s-4.8 39.37-7.54 40c-19.85 4.86-42.55 4.49-42.55-8.1z"/><path class="cls-23" d="M493.56 1271.36a12.5 12.5 0 0 1-6-23.45c32.53-17.92 81-76.06 94.14-103.07a12.5 12.5 0 0 1 22.47 11c-14.8 30.34-66.36 93-104.55 114a12.47 12.47 0 0 1-6.06 1.52z"/><path class="cls-4" d="M466 1281.31a8 8 0 0 1-3.4-15.25c12-5.64 20.95-10.5 21-10.55a8 8 0 0 1 7.68 14c-.38.2-9.41 5.14-21.94 11a8 8 0 0 1-3.34.8z"/><circle class="cls-21" cx="466.03" cy="1273.64" r="17.04" transform="rotate(-64.69 465.959 1273.589)"/><path class="cls-4" d="M625.71 1131.36c6.56 15.49 3.67 67.17 3.67 67.17s-25.78-47.79-25.06-65.25c.14-3.31 4.06-8.42 10.22-8.42s9.91 3.53 11.17 6.5z"/><path class="cls-21" d="M615.38 1139.46a8 8 0 0 1-7.72-10.11l7.84-28.7a8 8 0 0 1 15.44 4.22l-7.85 28.7a8 8 0 0 1-7.71 5.89z"/><circle class="cls-20" cx="625.09" cy="1087.4" r="27.05"/><path class="cls-24" d="M651.48 1056.4a10 10 0 0 0-1.34.1 10.31 10.31 0 0 0-9-5.26 10.88 10.88 0 0 0-2.23.24 10.3 10.3 0 0 0-13.56-1.27 10.32 10.32 0 0 0-14.74 2.76 10.15 10.15 0 0 0-3.79-.73 10.33 10.33 0 0 0-10.29 9.33 10.33 10.33 0 0 0-7.88 17 10.32 10.32 0 0 0 4.74 19.13 10.33 10.33 0 1 0 20 5s.23-1.17.57-3a25.55 25.55 0 0 1 6.89-15.29 6.82 6.82 0 0 0-2.49-5.28 6.83 6.83 0 0 0 4.4-6.38 7.46 7.46 0 0 0-.08-1 6.76 6.76 0 0 0 3.48 1 6.84 6.84 0 0 0 4.67-1.85 6.82 6.82 0 0 0 4.66 1.85 6.71 6.71 0 0 0 3-.71 50.7 50.7 0 0 1 7.63 3.44 10.33 10.33 0 1 0 5.38-19.15z"/><path class="cls-13" d="M484.34 1296.42a3 3 0 0 1-2.16-.92l-111.77-115.6a3 3 0 0 1 4.31-4.17l111.78 115.6a3 3 0 0 1-.07 4.24 3 3 0 0 1-2.09.85z"/><path class="cls-20" d="M449 1273.3c0 9.41 11.21-10 17.87-1.43 5.78 7.42 16.21 10.84 16.21 1.43a17 17 0 0 0-34.08 0z"/><path d="M1140.42 1868.55l218.68-126.22a5.17 5.17 0 0 0 2.62-4.53v-6.36l-229 132.15v7a15.39 15.39 0 0 0 7.7-2.04z" fill="url(#_ÂÁ_Ï_ÌÌ_È_ËÂÌÚ_30-8)"/><path d="M1077.79 1841.31l47.26 27.24a15.38 15.38 0 0 0 7.68 2v-7l-57.56-33.18v6.36a5.19 5.19 0 0 0 2.62 4.58z" fill="url(#_ÂÁ_Ï_ÌÌ_È_ËÂÌÚ_30-9)"/><path class="cls-2" d="M1077.79 1835l47.26 27.24a15.4 15.4 0 0 0 15.37 0L1359.1 1736a5.24 5.24 0 0 0 0-9.08l-47.26-27.24a15.4 15.4 0 0 0-15.37 0l-218.68 126.21a5.25 5.25 0 0 0 0 9.11z"/><path d="M1195.37 1967.74l218.68-126.21a5.19 5.19 0 0 0 2.62-4.54v-6.36l-229 132.16v7a15.39 15.39 0 0 0 7.7-2.05z" fill="url(#_ÂÁ_Ï_ÌÌ_È_ËÂÌÚ_30-10)"/><path d="M1132.74 1940.5l47.26 27.24a15.4 15.4 0 0 0 7.69 2.06v-7l-57.57-33.18v6.38a5.2 5.2 0 0 0 2.62 4.5z" fill="url(#_ÂÁ_Ï_ÌÌ_È_ËÂÌÚ_30-11)"/><path class="cls-2" d="M1132.74 1934.14l47.26 27.24a15.35 15.35 0 0 0 15.37 0l218.68-126.21a5.23 5.23 0 0 0 0-9.07l-47.26-27.24a15.33 15.33 0 0 0-15.36 0l-218.69 126.21a5.24 5.24 0 0 0 0 9.07z"/><path d="M1250.32 2066.93L1469 1940.72a5.19 5.19 0 0 0 2.63-4.54v-6.35l-229 132.15v7a15.39 15.39 0 0 0 7.69-2.05z" fill="url(#_ÂÁ_Ï_ÌÌ_È_ËÂÌÚ_30-12)"/><path d="M1187.7 2039.69l47.25 27.24a15.4 15.4 0 0 0 7.69 2.06v-7l-57.57-33.18v6.35a5.19 5.19 0 0 0 2.63 4.53z" fill="url(#_ÂÁ_Ï_ÌÌ_È_ËÂÌÚ_30-13)"/><path class="cls-2" d="M1187.7 2033.34l47.25 27.24a15.4 15.4 0 0 0 15.37 0L1469 1934.37a5.24 5.24 0 0 0 0-9.08l-47.26-27.24a15.38 15.38 0 0 0-15.36 0l-218.68 126.21a5.24 5.24 0 0 0 0 9.08z"/><path d="M1305.27 2166.13L1524 2039.91a5.18 5.18 0 0 0 2.63-4.53V2029l-229 132.15v7a15.38 15.38 0 0 0 7.64-2.02z" fill="url(#_ÂÁ_Ï_ÌÌ_È_ËÂÌÚ_30-14)"/><path d="M1242.65 2138.89l47.26 27.24a15.35 15.35 0 0 0 7.68 2v-7L1240 2128v6.36a5.2 5.2 0 0 0 2.65 4.53z" fill="url(#_ÂÁ_Ï_ÌÌ_È_ËÂÌÚ_30-15)"/><path class="cls-2" d="M1242.65 2132.53l47.26 27.24a15.38 15.38 0 0 0 15.36 0L1524 2033.56a5.24 5.24 0 0 0 0-9.08l-47.25-27.24a15.4 15.4 0 0 0-15.37 0l-218.68 126.21a5.24 5.24 0 0 0-.05 9.08z"/><path d="M1360.22 2265.32l218.68-126.21a5.2 5.2 0 0 0 2.63-4.54v-6.36l-229 132.16v7a15.36 15.36 0 0 0 7.69-2.05z" fill="url(#_ÂÁ_Ï_ÌÌ_È_ËÂÌÚ_30-16)"/><path d="M1297.6 2238.08l47.26 27.24a15.36 15.36 0 0 0 7.68 2.06v-7l-57.54-33.19v6.35a5.19 5.19 0 0 0 2.6 4.54z" fill="url(#_ÂÁ_Ï_ÌÌ_È_ËÂÌÚ_30-17)"/><path class="cls-2" d="M1297.6 2231.72l47.26 27.24a15.33 15.33 0 0 0 15.36 0l218.68-126.21a5.23 5.23 0 0 0 0-9.07l-47.25-27.25a15.4 15.4 0 0 0-15.37 0l-218.68 126.22a5.23 5.23 0 0 0 0 9.07z"/><path d="M1415.17 2364.51l218.69-126.21a5.18 5.18 0 0 0 2.62-4.54v-6.35l-229 132.15v7a15.36 15.36 0 0 0 7.69-2.05z" fill="url(#_ÂÁ_Ï_ÌÌ_È_ËÂÌÚ_30-18)"/><path d="M1352.55 2337.27l47.26 27.24a15.36 15.36 0 0 0 7.68 2.06v-7l-57.56-33.18v6.35a5.18 5.18 0 0 0 2.62 4.53z" fill="url(#_ÂÁ_Ï_ÌÌ_È_ËÂÌÚ_30-19)"/><path class="cls-2" d="M1352.55 2330.92l47.26 27.24a15.38 15.38 0 0 0 15.36 0L1633.86 2232a5.25 5.25 0 0 0 0-9.08l-47.26-27.24a15.4 15.4 0 0 0-15.37 0l-218.68 126.21a5.24 5.24 0 0 0 0 9.03z"/><path d="M1470.13 2463.71l218.68-126.22a5.17 5.17 0 0 0 2.62-4.53v-6.36l-229 132.15v7a15.39 15.39 0 0 0 7.7-2.04z" fill="url(#_ÂÁ_Ï_ÌÌ_È_ËÂÌÚ_30-20)"/><path d="M1407.5 2436.47l47.26 27.24a15.38 15.38 0 0 0 7.68 2.05v-7l-57.56-33.18v6.36a5.19 5.19 0 0 0 2.62 4.53z" fill="url(#_ÂÁ_Ï_ÌÌ_È_ËÂÌÚ_30-21)"/><path class="cls-2" d="M1407.5 2430.11l47.26 27.24a15.4 15.4 0 0 0 15.37 0l218.68-126.21a5.25 5.25 0 0 0 0-9.08l-47.26-27.24a15.4 15.4 0 0 0-15.37 0L1407.5 2421a5.24 5.24 0 0 0 0 9.11z"/><path d="M2132.15 2318.38l218.68-126.22a5.19 5.19 0 0 0 2.63-4.54v-6.35l-229 132.15v7a15.35 15.35 0 0 0 7.69-2.04z" fill="url(#_ÂÁ_Ï_ÌÌ_È_ËÂÌÚ_30-22)"/><path d="M2069.53 2291.13l47.26 27.25a15.35 15.35 0 0 0 7.68 2v-7l-57.57-33.18v6.36a5.18 5.18 0 0 0 2.63 4.57z" fill="url(#_ÂÁ_Ï_ÌÌ_È_ËÂÌÚ_30-23)"/><path class="cls-2" d="M2069.53 2284.78l47.26 27.24a15.38 15.38 0 0 0 15.36 0l218.68-126.21a5.24 5.24 0 0 0 0-9.08l-47.25-27.24a15.4 15.4 0 0 0-15.37 0l-218.68 126.21a5.24 5.24 0 0 0 0 9.08z"/><path d="M2187.1 2417.57l218.69-126.21a5.22 5.22 0 0 0 2.62-4.54v-6.36l-229 132.16v7a15.35 15.35 0 0 0 7.69-2.05z" fill="url(#_ÂÁ_Ï_ÌÌ_È_ËÂÌÚ_30-24)"/><path d="M2124.48 2390.33l47.26 27.24a15.35 15.35 0 0 0 7.68 2v-7l-57.56-33.19v6.36a5.19 5.19 0 0 0 2.62 4.59z" fill="url(#_ÂÁ_Ï_ÌÌ_È_ËÂÌÚ_30-25)"/><path class="cls-2" d="M2124.48 2384l47.26 27.24a15.38 15.38 0 0 0 15.36 0L2405.79 2285a5.25 5.25 0 0 0 0-9.08l-47.26-27.24a15.4 15.4 0 0 0-15.37 0l-218.68 126.22a5.23 5.23 0 0 0 0 9.1z"/><path d="M2349.66 2694.11l218.68-126.22a5.18 5.18 0 0 0 2.63-4.53V2557l-229 132.15v7a15.38 15.38 0 0 0 7.69-2.04z" fill="url(#_ÂÁ_Ï_ÌÌ_È_ËÂÌÚ_30-26)"/><path d="M2287 2666.87l47.26 27.24a15.35 15.35 0 0 0 7.68 2v-7l-57.53-33.11v6.36a5.2 5.2 0 0 0 2.59 4.51z" fill="url(#_ÂÁ_Ï_ÌÌ_È_ËÂÌÚ_30-27)"/><path class="cls-3" d="M2287 2660.51l47.26 27.24a15.38 15.38 0 0 0 15.36 0l218.68-126.21a5.24 5.24 0 0 0 0-9.08l-47.25-27.24a15.4 15.4 0 0 0-15.37 0L2287 2651.43a5.24 5.24 0 0 0 0 9.08z"/><path d="M2404.61 2793.3l218.68-126.21a5.2 5.2 0 0 0 2.63-4.54v-6.36l-229 132.16v7a15.36 15.36 0 0 0 7.69-2.05z" fill="url(#_ÂÁ_Ï_ÌÌ_È_ËÂÌÚ_30-28)"/><path d="M2342 2766.06l47.26 27.24a15.36 15.36 0 0 0 7.68 2.06v-7l-57.57-33.18v6.35a5.19 5.19 0 0 0 2.63 4.53z" fill="url(#_ÂÁ_Ï_ÌÌ_È_ËÂÌÚ_30-29)"/><path class="cls-3" d="M2342 2759.7l47.26 27.24a15.33 15.33 0 0 0 15.36 0l218.68-126.21a5.23 5.23 0 0 0 0-9.07l-47.3-27.25a15.4 15.4 0 0 0-15.37 0L2342 2750.63a5.23 5.23 0 0 0 0 9.07z"/><path d="M2459.56 2892.49l218.69-126.21a5.18 5.18 0 0 0 2.62-4.54v-6.35l-229 132.15v7a15.36 15.36 0 0 0 7.69-2.05z" fill="url(#_ÂÁ_Ï_ÌÌ_È_ËÂÌÚ_30-30)"/><path d="M2396.94 2865.25l47.26 27.24a15.36 15.36 0 0 0 7.68 2.06v-7l-57.56-33.18v6.35a5.18 5.18 0 0 0 2.62 4.53z" fill="url(#_ÂÁ_Ï_ÌÌ_È_ËÂÌÚ_30-31)"/><path class="cls-3" d="M2396.94 2858.9l47.26 27.24a15.38 15.38 0 0 0 15.36 0l218.69-126.21a5.25 5.25 0 0 0 0-9.08l-47.25-27.24a15.4 15.4 0 0 0-15.37 0l-218.68 126.21a5.24 5.24 0 0 0-.01 9.08z"/><path d="M2521.72 2986.55l218.68-126.22a5.18 5.18 0 0 0 2.63-4.53v-6.36l-229 132.15v7a15.38 15.38 0 0 0 7.69-2.04z" fill="url(#_ÂÁ_Ï_ÌÌ_È_ËÂÌÚ_30-32)"/><path d="M2459.1 2959.31l47.26 27.24a15.35 15.35 0 0 0 7.68 2v-7l-57.57-33.18v6.36a5.2 5.2 0 0 0 2.63 4.58z" fill="url(#_ÂÁ_Ï_ÌÌ_È_ËÂÌÚ_30-33)"/><path class="cls-3" d="M2459.1 2953l47.26 27.24a15.38 15.38 0 0 0 15.36 0L2740.4 2854a5.24 5.24 0 0 0 0-9.08l-47.25-27.24a15.4 15.4 0 0 0-15.37 0l-218.68 126.19a5.24 5.24 0 0 0 0 9.13z"/><path class="cls-5" d="M1218.47 2641.24l212.4 122.38a38.24 38.24 0 0 0 38.16 0l117.36-67.62a13 13 0 0 0 0-22.54L1374 2551.05a38.19 38.19 0 0 0-38.16 0l-117.36 67.65a13 13 0 0 0-.01 22.54z"/><path class="cls-2" d="M1469 2715.34l117.36-67.65a12.9 12.9 0 0 0 6.52-11.27v-29.58l-143 82.4v31.2a38.19 38.19 0 0 0 19.12-5.1z"/><path class="cls-2" d="M1218.47 2593l212.4 122.38a38.22 38.22 0 0 0 19.08 5.1v-31.2l-238-137.13v29.58a12.9 12.9 0 0 0 6.52 11.27z"/><path class="cls-4" d="M1219.1 2563.38l212.41 122.38a38.24 38.24 0 0 0 38.16 0l117.33-67.65a13 13 0 0 0 0-22.54l-212.4-122.38a38.19 38.19 0 0 0-38.16 0l-117.36 67.65a13 13 0 0 0 .02 22.54z"/><path class="cls-5" d="M1216.23 1531.61l-47.23 27.24a15.4 15.4 0 0 1-15.37 0l-218.71-126.21a5.24 5.24 0 0 1 0-9.08l47.26-27.24a15.38 15.38 0 0 1 15.36 0l218.69 126.21a5.25 5.25 0 0 1 0 9.08z"/><path class="cls-17" d="M1409.77 2440.86c15.29-3.19 29.57 7.52 35.52 17.61 5.15 8.73 1.62 12.89 7.72 21.18 7.42 10.07 14.68 6.72 21 15.65 7.37 10.37-.29 17.85 7 30.67 6.06 10.59 13.35 9.07 16.59 18.1 3.58 10-.79 24.55-11 30.66-14.67 8.78-35.28-3.48-41.44-16.65-4.15-8.84 1.15-11.86-1.35-25.48-2.93-16-14.5-35.1-31.17-40.71-8.91-3-13.38-.16-19.15-5.13-6.71-5.77-8.47-16.31-6.54-24.52 2.78-11.51 12.95-19.33 22.82-21.38z"/><ellipse class="cls-5" cx="1276.15" cy="2750.38" rx="87.49" ry="54.05"/><path class="cls-20" d="M1358.58 2610a8 8 0 0 1-6.8-12.21c6.92-11.2 12.16-19 16.77-25.9 10.26-15.3 17-25.41 32.22-57.74a8 8 0 1 1 14.48 6.81c-15.7 33.41-23.12 44.5-33.4 59.84-4.54 6.77-9.69 14.45-16.45 25.4a8 8 0 0 1-6.82 3.8z"/><path class="cls-22" d="M1312.28 2755.5a9 9 0 0 1-3.72-17.12l28.28-13a12.13 12.13 0 1 1 7.82 22.83l-30.32 7.07a9.12 9.12 0 0 1-2.06.22zm.24-8z"/><path class="cls-20" d="M1340.58 2741.63a10 10 0 0 1-9.68-7.55l-8-31.63a10 10 0 1 1 19.38-4.91l8 31.64a10 10 0 0 1-9.7 12.45z"/><path class="cls-19" d="M1405.09 2674c23.9-5.12 39.32-13.93 54.83-36.84 17.84-26.32 26.15-155.16-45-139.21-51.1 11.46 25.78 88-46.38 103.91-37.39 8.21-.04 79.94 36.55 72.14z"/><ellipse class="cls-24" cx="1383.06" cy="2639.75" rx="15.93" ry="31.89" transform="rotate(-35.77 1383.202 2639.891)"/><path class="cls-24" d="M1332.59 2712.5a12.5 12.5 0 0 1-12-8.94c-12.36-41.56-12.72-66.44-1.16-80.69 11.19-13.8 28.65-12.38 41.39-11.34 2.85.23 5.55.45 7.8.47a12.5 12.5 0 0 1-.13 25h-.14c-3.14 0-6.4-.3-9.56-.56-8-.65-17.06-1.38-19.94 2.17-2 2.43-7.39 13.79 5.7 57.82a12.51 12.51 0 0 1-12 16.07z"/><path class="cls-22" d="M1218.35 2782.9a9 9 0 0 1-5.24-16.24l25.23-18.24a12.13 12.13 0 1 1 12.09 20.88l-28.38 12.8a9 9 0 0 1-3.7.8z"/><path class="cls-20" d="M1245.3 2767.81a10 10 0 0 1-8.55-15.17l15.8-26.18a10 10 0 0 1 17.12 10.34l-15.8 26.18a10 10 0 0 1-8.57 4.83z"/><path class="cls-24" d="M1261.11 2744.13a12.5 12.5 0 0 1-11.2-18c31.42-63.56 87.39-79.56 120.84-89.12 2.27-.65 4.47-1.27 6.56-1.89a12.5 12.5 0 0 1 7 24l-6.74 1.94c-33.25 9.5-78.78 22.51-105.3 76.16a12.49 12.49 0 0 1-11.16 6.91z"/><ellipse class="cls-20" cx="1425.83" cy="2511.65" rx="19" ry="10.33"/><path class="cls-21" d="M1423.82 2517a8 8 0 0 1-7.72-5.95l-7.1-26.65a8 8 0 0 1 15.46-4.1l7.08 26.67a8 8 0 0 1-5.68 9.78 8.15 8.15 0 0 1-2.04.25z"/><circle class="cls-20" cx="1415.42" cy="2472.76" r="23.93" transform="rotate(-32.58 1415.575 2472.91)"/><path class="cls-20" d="M1409.42 2619.45a216.31 216.31 0 0 1-29.7-2.47 8 8 0 1 1 2.23-15.84c32.08 4.52 50.23 2.38 58.84-6.93 7.94-8.59 9.17-25.58 3.66-50.52a8 8 0 0 1 15.62-3.45c6.81 30.79 4.34 52-7.53 64.83-10.19 11.02-26 14.38-43.12 14.38z"/><path class="cls-17" d="M1389.26 2466c2.17 5.14 12.4 6.28 18.73 5.61 6.77-.72 7.36-3.33 11.43-2.78 10.32 1.39 13.15 19 19.17 18.33 3.51-.36 5.68-6.65 6.33-10 2.16-11-5.54-23.1-15.66-28.83-2.33-1.32-13.3-7.11-24.84-2.33-9.37 3.85-17.64 14.12-15.16 20z"/><path class="cls-13" d="M1315.39 2573.1l28.05 13.89 36.89-6.51 21.46 27.78-37.08 5.22-36.03-18.68-13.29-21.7z"/><path class="cls-23" d="M1343.44 2586.99l36.89-6.51 21.46 27.78-37.08 5.22-21.27-26.49z"/><path d="M1314.33 1209.3l-218.68-126.21a5.19 5.19 0 0 1-2.63-4.54v-6.35l229 132.15v7a15.39 15.39 0 0 1-7.69-2.05z" fill="url(#_ÂÁ_Ï_ÌÌ_È_ËÂÌÚ_30-34)"/><path d="M1377 1182.06l-47.26 27.24a15.36 15.36 0 0 1-7.68 2.06v-7l57.57-33.18v6.35a5.19 5.19 0 0 1-2.63 4.53z" fill="url(#_ÂÁ_Ï_ÌÌ_È_ËÂÌÚ_30-35)"/><path class="cls-2" d="M1377 1175.71l-47.31 27.29a15.38 15.38 0 0 1-15.36 0l-218.68-126.21a5.24 5.24 0 0 1 0-9.08l47.25-27.24a15.4 15.4 0 0 1 15.37 0L1377 1166.63a5.24 5.24 0 0 1 0 9.08z"/><path d="M1259.38 1308.5l-218.68-126.22a5.18 5.18 0 0 1-2.63-4.53v-6.36l229 132.15v7a15.35 15.35 0 0 1-7.69-2.04z" fill="url(#_ÂÁ_Ï_ÌÌ_È_ËÂÌÚ_30-36)"/><path d="M1322 1281.26l-47.26 27.24a15.35 15.35 0 0 1-7.68 2v-7l57.57-33.18v6.36a5.2 5.2 0 0 1-2.63 4.58z" fill="url(#_ÂÁ_Ï_ÌÌ_È_ËÂÌÚ_30-37)"/><path class="cls-2" d="M1322 1274.9l-47.26 27.24a15.38 15.38 0 0 1-15.36 0l-218.68-126.21a5.24 5.24 0 0 1 0-9.08l47.25-27.24a15.4 15.4 0 0 1 15.37 0L1322 1265.82a5.24 5.24 0 0 1 0 9.08z"/><path d="M1204.43 1407.69l-218.69-126.21a5.19 5.19 0 0 1-2.62-4.54v-6.36l229 132.16v7a15.35 15.35 0 0 1-7.69-2.05z" fill="url(#_ÂÁ_Ï_ÌÌ_È_ËÂÌÚ_30-38)"/><path d="M1267.05 1380.45l-47.26 27.24a15.38 15.38 0 0 1-7.68 2v-7l57.56-33.19v6.36a5.18 5.18 0 0 1-2.62 4.59z" fill="url(#_ÂÁ_Ï_ÌÌ_È_ËÂÌÚ_30-39)"/><path class="cls-2" d="M1267.05 1374.09l-47.26 27.24a15.33 15.33 0 0 1-15.36 0l-218.69-126.21a5.24 5.24 0 0 1 0-9.07l47.26-27.25a15.4 15.4 0 0 1 15.37 0l218.68 126.2a5.23 5.23 0 0 1 0 9.09z"/><path d="M1149.47 1506.88l-218.68-126.21a5.18 5.18 0 0 1-2.62-4.54v-6.35l229 132.15v7a15.4 15.4 0 0 1-7.7-2.05z" fill="url(#_ÂÁ_Ï_ÌÌ_È_ËÂÌÚ_30-40)"/><path d="M1212.1 1479.64l-47.26 27.24a15.39 15.39 0 0 1-7.68 2.06v-7l57.56-33.18v6.35a5.18 5.18 0 0 1-2.62 4.53z" fill="url(#_ÂÁ_Ï_ÌÌ_È_ËÂÌÚ_30-41)"/><path class="cls-2" d="M1212.1 1473.29l-47.26 27.24a15.4 15.4 0 0 1-15.37 0l-218.68-126.22a5.24 5.24 0 0 1 0-9.07l47.26-27.24a15.4 15.4 0 0 1 15.37 0l218.68 126.21a5.24 5.24 0 0 1 0 9.08z"/><path class="cls-5" d="M61.13 1699.77l80.1 46.17a43.18 43.18 0 0 0 43.12 0l83.58-48.17a14.69 14.69 0 0 0 0-25.47l-80.11-46.18a43.18 43.18 0 0 0-43.12 0l-83.57 48.18a14.69 14.69 0 0 0 0 25.47z"/><path class="cls-2" d="M186.09 1709.16l83.57-48.16a14.56 14.56 0 0 0 7.37-12.73v-33.43l-112.5 64.85v35.26a43.21 43.21 0 0 0 21.56-5.79z"/><path class="cls-2" d="M62.86 1663l80.14 46.16a43.18 43.18 0 0 0 21.56 5.77v-35.26l-109-62.85v33.43a14.55 14.55 0 0 0 7.3 12.75z"/><path class="cls-4" d="M62.86 1629.56l80.14 46.17a43.18 43.18 0 0 0 43.12 0l83.57-48.17a14.69 14.69 0 0 0 0-25.47l-80.1-46.18a43.18 43.18 0 0 0-43.12 0l-83.58 48.18a14.69 14.69 0 0 0-.03 25.47z"/><path d="M212 1581.76c-12.83-7.4-29.44-11.86-47.58-11.86s-34.75 4.46-47.58 11.86H90.73v22.36c0 27.65 33 50.07 73.65 50.07 20.34 0 38.75-5.6 52.07-14.66S238 1618 238 1604.12v-22.36z" fill="url(#linear-gradient-7)"/><path d="M216.45 1546.34c-13.32-9.06-31.73-14.66-52.07-14.66-40.67 0-73.65 22.42-73.65 50.08h73.65z" fill="#dce7f2"/><path class="cls-6" d="M216.45 1527.32c-13.32-9.06-31.73-14.67-52.07-14.67-40.67 0-73.65 22.42-73.65 50.08h73.65z"/><path class="cls-4" d="M90.73 1581.76c0 27.65 33 50.07 73.65 50.07 20.34 0 38.75-5.6 52.07-14.66l-52.07-35.41z"/><path d="M238 1581.76c0-13.83-8.24-26.35-21.57-35.42l-52.07 35.42 52.07 35.41c13.35-9.07 21.57-21.59 21.57-35.41z" fill="#4d81ff"/><path fill="#e36f6f" d="M90.73 1562.73h73.64v19.02H90.73z"/><path class="cls-23" d="M164.38 1544.15v37.61l52.07 35.41v-37.61l-52.07-35.41z"/><path fill="url(#linear-gradient-8)" d="M238.02 1544.15v59.97l-21.57 13.05v-49.62l21.57-23.4z"/><path class="cls-10" d="M238 1544.15c0-13.83-8.24-26.35-21.57-35.41l-52.07 35.41 52.07 35.41c13.35-9.06 21.57-21.56 21.57-35.41z"/><path class="cls-11" d="M238 1544.15c0-13.83-8.24-26.35-21.57-35.41l-52.07 35.41 52.07 35.41c13.35-9.06 21.57-21.56 21.57-35.41z"/><path class="cls-4" d="M2085.51 2245.86l131.36 75.71 54 31.2c15.25 6 31.93 7.07 50.93 0l40.72-22.82 52.93 44.12-236.06 93-140.27-158.33z"/><ellipse class="cls-13" cx="1273.4" cy="1442.46" rx="47.17" ry="24.71"/><ellipse class="cls-24" cx="1273.4" cy="1452.99" rx="47.17" ry="24.71"/><path class="cls-10" d="M1273.4 1411c-33.23 0-60.17 14.11-60.17 31.51s26.94 31.51 60.17 31.51 60.16-14.11 60.16-31.51-26.94-31.51-60.16-31.51zm0 56.22c-26.05 0-47.17-11.06-47.17-24.71s21.12-24.71 47.17-24.71 47.17 11.07 47.17 24.71-21.12 24.66-47.17 24.66z"/><path class="cls-3" d="M1273.4 1474c-33.23 0-60.17-14.11-60.17-31.51v123.25c0 17.4 26.94 31.51 60.17 31.51s60.16-14.11 60.16-31.51v-123.28c0 17.4-26.94 31.54-60.16 31.54z"/><path d="M2072.88 2955.93L1963 2892.56a20.62 20.62 0 0 1 0-35.75l186.19-107.33a60.61 60.61 0 0 1 60.54 0l109.92 63.36z" style="mix-blend-mode:multiply" fill="#c7f1ff"/><path d="M2271.84 1851.64l-344.59 198.74a75.48 75.48 0 0 1-75.34 0L1439 1808.83a25.67 25.67 0 0 1 0-44.5l344.59-198.74a75.48 75.48 0 0 1 75.34 0l412.94 241.55a25.68 25.68 0 0 1-.03 44.5z" style="mix-blend-mode:multiply" fill="#dbf8ff"/><path class="cls-23" d="M1891.4 1748.06a4.93 4.93 0 0 1-2.5-.67l-204.42-118a5 5 0 0 1 0-8.66l150.07-86.64a5 5 0 0 1 5 0l204.42 118a5 5 0 0 1 0 8.66l-150.07 86.64a5 5 0 0 1-2.5.67zM1697 1625l194.42 112.25 140.07-80.87-194.42-112.25z"/><path class="cls-23" d="M1891.4 1896.22a5 5 0 0 1-5-5v-148.16a5 5 0 0 1 10 0v148.16a5 5 0 0 1-5 5zm150.07-86.65a5 5 0 0 1-5-5v-148.15a5 5 0 0 1 10 0v148.15a5 5 0 0 1-5 5zm-204.42-118.02a5 5 0 0 1-5-5V1538.4a5 5 0 0 1 10 0v148.15a5 5 0 0 1-5 5zM1687 1778.2a5 5 0 0 1-5-5V1625a5 5 0 0 1 10 0v148.2a5 5 0 0 1-5 5z"/><ellipse class="cls-10" cx="1837.05" cy="1534.4" rx="17.4" ry="10.05"/><ellipse class="cls-10" cx="1686.98" cy="1621.04" rx="17.4" ry="10.05"/><ellipse class="cls-10" cx="1891.4" cy="1739.06" rx="17.4" ry="10.05"/><ellipse class="cls-10" cx="2041.47" cy="1652.42" rx="17.4" ry="10.05"/><path class="cls-11" d="M2240.58 1793.17a5 5 0 0 1-5-5v-143.3a5 5 0 0 1 10 0v143.3a5 5 0 0 1-5 5zm31.24-18.04a5 5 0 0 1-5-5v-143.3a5 5 0 0 1 10 0v143.3a5 5 0 0 1-5 5zm-62.49-1.46a5 5 0 0 1-5-5v-143.3a5 5 0 0 1 10 0v143.3a5 5 0 0 1-5 5z"/><path class="cls-10" d="M2195 1619v13.6c0 15 19.71 27.2 44 27.2s44-12.18 44-27.2V1619z"/><ellipse class="cls-2" cx="2238.99" cy="1618.99" rx="44.02" ry="27.2"/><path class="cls-22" d="M2160.13 1780.19a11.83 11.83 0 0 1-3-.38l-30.15-7.76a9 9 0 0 1 2.68-17.64l31.1 1.55a12.12 12.12 0 0 1-.62 24.23z"/><path class="cls-20" d="M2159.56 1773.26a10 10 0 0 1-9-5.66l-13.3-27.53a10 10 0 1 1 18-8.7l13.3 27.54a10 10 0 0 1-9 14.35z"/><path class="cls-24" d="M2146.27 1748.22a12.5 12.5 0 0 1-10.48-5.67c-27.75-42.5-36.39-72.92-27.21-95.72 11.26-28 45.59-35.88 78.8-43.54 9-2.07 18.23-4.21 26.87-6.7a12.5 12.5 0 0 1 6.91 24c-9.27 2.67-18.88 4.88-28.16 7-28.2 6.5-54.84 12.65-61.22 28.52-5.71 14.16 2.69 38.62 24.94 72.72a12.49 12.49 0 0 1-10.45 19.33z"/><path class="cls-22" d="M2105.09 1839.29a9 9 0 0 1-6.34-15.31l22-22a12.13 12.13 0 1 1 15.27 18.68l-26 17.17a9 9 0 0 1-4.93 1.46zm-3.86-14.85z"/><path class="cls-20" d="M2130.05 1817.11a10 10 0 0 1-10-10v-30.58a10 10 0 1 1 20 0v30.58a10 10 0 0 1-10 10z"/><path class="cls-24" d="M2256.59 1600.31l-7.69 19.31-31.2-11.01 5.56-27.54 33.33 19.24z"/><path class="cls-24" d="M2248.9 1632.12a12.59 12.59 0 0 1-4.16-.71l-31.2-11a12.5 12.5 0 0 1-8.09-14.26l5.56-27.53a12.51 12.51 0 0 1 18.5-8.36l33.33 19.25a12.5 12.5 0 0 1 5.36 15.45l-7.69 19.31a12.49 12.49 0 0 1-11.61 7.85z"/><path class="cls-24" d="M2130 1789a12.5 12.5 0 0 1-12.48-12c-2.2-52.28 17.07-97.29 55.75-130.18 13.69-11.63 37-27.78 70.19-38.57l.21-.06a12.54 12.54 0 1 1 8.95 23.37l-1.43.47c-34 11.06-112.77 47.22-108.69 143.91a12.5 12.5 0 0 1-12 13zm-470-537.18c-12.23-13.25-50.17-5.66-55.9 32.37-7.43 49.32 26.6 38.78 29 26.36 3.16-16.73-9.57-43.48 27-53z"/><path class="cls-22" d="M1626.8 1715.78a8.94 8.94 0 0 1-5.6-2l-24.32-19.44a12.13 12.13 0 1 1 16.9-17.23l19.91 23.93a9 9 0 0 1-6.89 14.71zm-5.41-4.47z"/><path class="cls-23" d="M1601.6 1691.92h-.6a10 10 0 0 1-9.43-10.54l11.25-202.38a10 10 0 0 1 20 1.11l-11.21 202.39a10 10 0 0 1-10.01 9.42z"/><path class="cls-15" d="M2281.62 1597.34c0-55.49.15-38.34.15-77.28 0-51.07-64.41-43.51-69.4-14.48-4.48 26-2.68 67.4-2.68 82.67 0 4.27 5.63 8.62 13.73 12.18 2.31 1 12.74 4.44 15.5 5.11 19.92 4.81 42.7 4.46 42.7-8.2z"/><path class="cls-22" d="M1678.42 1675.45a9 9 0 0 1-1.7-.16l-30.58-5.81a12.13 12.13 0 1 1 6.87-23.13l28.8 11.84a9 9 0 0 1-3.39 17.26z"/><path class="cls-23" d="M1650 1663.75a10 10 0 0 1-10-9.71l-5.65-196.89a10 10 0 1 1 20-.57l5.66 196.88a10 10 0 0 1-9.71 10.29z"/><path class="cls-15" d="M1607.23 1413.32l54.75 12.5s-4.66 43 0 89.25c4.48 44.31-80.45 45.84-80 23.5.65-31.94 25.25-125.25 25.25-125.25z"/><path class="cls-10" d="M2271.84 1643.54L1858.9 1402a75.43 75.43 0 0 0-75.34 0L1439 1600.73a25.44 25.44 0 0 0-12.9 22.27v10.84a25.45 25.45 0 0 1 12.87-22.25l344.59-198.73a75.43 75.43 0 0 1 75.34 0l412.94 241.55a25.42 25.42 0 0 1 12.86 22.25v-10.85a25.43 25.43 0 0 0-12.86-22.27z"/><path class="cls-11" d="M1439 1656.07l412.94 241.55a75.43 75.43 0 0 0 75.34 0l344.59-198.73a25.44 25.44 0 0 0 12.86-22.25v-10.85a25.43 25.43 0 0 1-12.86 22.25l-344.59 198.74a75.49 75.49 0 0 1-75.34 0L1439 1645.23a25.45 25.45 0 0 1-12.9-22.23v10.84a25.43 25.43 0 0 0 12.9 22.23z"/><path d="M2271.84 1688l-344.59 198.74a75.48 75.48 0 0 1-75.34 0L1439 1645.23a25.67 25.67 0 0 1 0-44.5L1783.56 1402a75.43 75.43 0 0 1 75.34 0l412.94 241.55a25.68 25.68 0 0 1 0 44.45z" opacity=".5" fill="#dbf8ff"/><circle class="cls-20" cx="1734.99" cy="1484.26" r="17.04" transform="rotate(-40.54 1735.003 1484.269)"/><circle class="cls-20" cx="1640.28" cy="1537.02" r="17.04"/><path class="cls-4" d="M1732.82 1485.86a8 8 0 0 1-7.6-5.49c-8-24.33-10.64-30.83-10.66-30.89a8 8 0 0 1 14.81-6.06c.1.26 2.74 6.75 11 31.94a8 8 0 0 1-7.59 10.5zm-92.55 54.84a8 8 0 0 1-7.81-6.32c-5.42-25.16-7.29-37.6-7.37-38.12a8 8 0 0 1 15.83-2.35c0 .12 1.89 12.53 7.18 37.1a8 8 0 0 1-6.14 9.51 8.16 8.16 0 0 1-1.69.18z"/><path class="cls-24" d="M1589.3 1450.36c13.71-53.56 10-55.58 19.66-93.17 12.61-49.29 80.27-39.07 77.92-9.82-2.1 26.22-22.13 97.25-25.9 112-1.06 4.12-7.56 6.93-16.26 8.36-2.48.41 1-21.26 1-21.26s-14.41 22.4-17.24 22.36c-20.4-.28-42.3-6.27-39.18-18.47z"/><path class="cls-24" d="M1634.84 1515.09a12.51 12.51 0 0 1-12.11-9.46c-11.53-45.89-23.3-109-13.92-148.92a12.5 12.5 0 1 1 24.34 5.72c-6.42 27.35-1.51 76 13.83 137.11a12.51 12.51 0 0 1-9.08 15.17 12.88 12.88 0 0 1-3.06.38zm88.32-53.46a12.5 12.5 0 0 1-11.43-7.43c-24.61-55.38-24.61-55.38-49.16-104.48a12.5 12.5 0 1 1 22.35-11.18c24.82 49.6 24.82 49.6 49.65 105.52a12.48 12.48 0 0 1-6.35 16.49 12.29 12.29 0 0 1-5.06 1.08z"/><path class="cls-4" d="M1669.29 1335.23c2.51 16.63-12 59-12 59s-14.25-45.75-9.23-62.48c1-3.17 6-7.15 12-5.62s8.75 5.87 9.23 9.1z"/><path class="cls-21" d="M1660 1341.51a8.18 8.18 0 0 1-2.12-.28 8 8 0 0 1-5.6-9.83l7.84-28.7a8 8 0 0 1 15.44 4.22l-7.85 28.7a8 8 0 0 1-7.71 5.89z"/><circle class="cls-20" cx="1669.58" cy="1290.46" r="27.05" transform="rotate(-13.28 1669.918 1290.65)"/><circle class="cls-15" cx="1661.98" cy="1261.18" r="11.44" transform="rotate(-45 1661.985 1261.173)"/><path class="cls-24" d="M1647 1308.74s-10.7-6.92-8-27c4.11-30 54.75-32 57.56-4.69 0 0 16.23 3.67 11.42 15.47-7.88 19.29-26-1.45-43.5-2.08-17.04-.6-10.29 22.19-17.48 18.3z"/><path class="cls-15" d="M2244 1613c-6.53 0-13.85-1.9-22.09-5.69a12.5 12.5 0 0 1 10.45-22.71c8.3 3.82 12.4 3.68 13.52 3 .47-.28 2.87-2.18 4.62-11.7 1.58-8.53 2-19.68 2.48-31.47.36-9.37.74-19 1.72-28.62a12.5 12.5 0 0 1 24.87 2.54c-.9 8.79-1.26 18.07-1.61 27.06-1.12 28.5-2.08 53.12-19 63.5A28 28 0 0 1 2244 1613z"/><path class="cls-20" d="M2227.16 1604a8 8 0 0 1-3.29-.71l-40.11-18.09a8 8 0 0 1 6.58-14.59l40.11 18.09a8 8 0 0 1-3.29 15.3z"/><circle class="cls-20" cx="2187.05" cy="1577.89" r="15.08" transform="rotate(-18.36 2186.87 1577.782)"/><path class="cls-3" d="M2090.06 1562.1l43.71 25.24-61.73 35.64-43.71-25.24 61.73-35.64z"/><path class="cls-6" d="M1957.16 1559.43l100.79 58.19-142.34 82.18-100.79-58.19 142.34-82.18z"/><path class="cls-20" d="M2102.8 1559a8 8 0 0 1-1.26-15.9l43.45-7a8 8 0 1 1 2.53 15.8l-43.44 7a8 8 0 0 1-1.28.1z"/><path class="cls-15" d="M2146.24 1556.52a12.5 12.5 0 0 1-2.42-24.76c11.91-2.37 19.82-3.65 25.59-4.58 5.23-.84 8.69-1.4 10.09-2 1.2-.54 3.32-2.36 6.82-5.39 5.24-4.52 14-12.08 30-24.07a12.5 12.5 0 1 1 15 20c-15.3 11.47-23.34 18.4-28.66 23-11.13 9.61-13.32 10.59-29.26 13.16-5.58.9-13.23 2.14-24.69 4.42a13 13 0 0 1-2.47.22z"/><ellipse class="cls-20" cx="2246.24" cy="1497.21" rx="19.83" ry="12.33"/><path class="cls-20" d="M2116.41 1544.46a15.08 15.08 0 1 0-7.08 20.11 15.09 15.09 0 0 0 7.08-20.11z"/><path class="cls-21" d="M2246.24 1502.21a8 8 0 0 1-7.56-5.4l-14.51-42.09a8 8 0 1 1 15.13-5.21l14.5 42.09a8 8 0 0 1-7.56 10.61z"/><path class="cls-20" d="M2254.61 1465.16a23.93 23.93 0 1 0-29.9 15.85 23.93 23.93 0 0 0 29.9-15.85z"/><path class="cls-24" d="M2204.68 1456.34h17.5l4.66-9.5.75 9.5s27.34 6.5 7.09 32c0 0 20.62-.41 27.14-15.76 17.71-41.67-49.44-67.44-57.14-16.24z"/><path class="cls-15" d="M1966.82 1660.44l26.66 15.52-23.24 13.54-26.66-15.52 23.24-13.54z"/><circle class="cls-20" cx="1784.99" cy="1986.5" r="15.08" transform="rotate(-24.61 1784.79 1986.349)"/><path class="cls-20" d="M1703.48 2219.35a10 10 0 0 1-9.47-13.22c22.56-66.45 21.63-159 21.62-159.94a10 10 0 0 1 9.87-10.13h.13a10 10 0 0 1 10 9.87c0 3.92 1 96.88-22.68 166.63a10 10 0 0 1-9.47 6.79z"/><path class="cls-22" d="M1761.27 2239a11.79 11.79 0 0 1-2.43-.25 12.12 12.12 0 0 1-2.81-22.81l28.07-13.45a9 9 0 0 1 9.3 15.22l-24.8 18.82a12.11 12.11 0 0 1-7.33 2.47zm26.29-29.3z"/><path class="cls-20" d="M1762.79 2230.28a10 10 0 0 1-10-9.72l-5.66-196.88a10 10 0 0 1 20-.58l5.65 196.89a10 10 0 0 1-9.71 10.28z"/><path class="cls-21" d="M1751 1905a8.56 8.56 0 0 1-1.12-.08 8 8 0 0 1-6.81-9l3.38-24a8 8 0 0 1 15.85 2.23l-3.38 24a8 8 0 0 1-7.92 6.85z"/><path class="cls-2" d="M1802.29 1969.29l33.78-51.73a17 17 0 0 0-5.15-23.5 17 17 0 0 0-23.52 5.16l-33.78 51.78c-9.98 14 14.08 36.81 28.67 18.29z"/><path class="cls-23" d="M1782.53 2101c0-55.49.14-132.51.14-171.46 0-51.07-64.4-43.5-69.4-14.47-4.47 26-2.67 161.57-2.67 176.84 0 4.27 5.62 8.62 13.73 12.18 2.31 1 12.74 4.44 15.49 5.11 19.93 4.8 42.71 4.44 42.71-8.2z"/><path class="cls-23" d="M1792.88 1996.48a12.5 12.5 0 0 1-5.1-23.92c11.86-5.28 16.17-10.14 16.25-12.68 0-1.3-.88-13.33-46.31-37.35a12.5 12.5 0 0 1 11.69-22.1c41.88 22.15 60.27 40.74 59.61 60.28-.47 14-10.92 25.71-31.06 34.69a12.58 12.58 0 0 1-5.08 1.08zM1736 2008a12.47 12.47 0 0 1-7.41-2.43c-16.57-12.22-32.19-26.32-34.24-46.62-1.65-16.35 5.82-33.46 22.84-52.3a12.5 12.5 0 1 1 18.55 16.76c-11.85 13.12-17.4 24.23-16.51 33 1 10 10.4 18.84 24.19 29A12.5 12.5 0 0 1 1736 2008z"/><path class="cls-20" d="M1778.42 1871.46a23.93 23.93 0 1 0-29.91 15.85 24 24 0 0 0 29.91-15.85z"/><path class="cls-17" d="M1765.41 1827.24c10.16 5.45 12.69 16.28 14 21.75.94 4 2.88 15.11-2.47 26.5-7.08 15.09-20 15.77-21 27.25-.68 7.52 4.62 9.89 2.75 16.25-2.78 9.5-18 15.75-22.61 11.91-4.38-3.69-.85-18.15 5.9-27.76 5.35-7.62 11-9.54 10.78-15.91-.11-3.77-.61-6.08-3.65-6.7-6.59-1.34-16.63 7.49-17.51 9.35-8.48 17.84-1.38 24.6-6.16 32.75-1.74 3-14.72.56-16.47-11.15-.37-2.47-.89-11.53 6.94-20 6.55-7.06 8.62-9.9 9.61-14.88.82-4.17-9.09-26.09 11.67-47.16 7.11-7.19 19.5-6.88 28.22-2.2z"/><circle class="cls-10" cx="1754.37" cy="1894.23" r="7.67" transform="rotate(-13.28 1754.766 1894.58)"/><circle class="cls-10" cx="1728.36" cy="1886.56" r="7.67" transform="rotate(-13.28 1728.714 1886.89)"/><path class="cls-2" d="M1779 2005.57l23.27-36.28a17 17 0 0 0-5.15-23.5l-14.33-9.17-32.47 50.61c-9.96 14.08 14.11 36.86 28.68 18.34z"/><ellipse class="cls-13" cx="1765.69" cy="1995.54" rx="13.02" ry="13"/><path class="cls-22" d="M1700.68 2249.31h-.3a8.93 8.93 0 0 1-8.65-8.35l-2.15-31.06a12.12 12.12 0 1 1 24.11.78l-4.13 30.86a9 9 0 0 1-8.88 7.77zm1-8.84z"/><ellipse class="cls-5" cx="2038.92" cy="2051.16" rx="44.02" ry="27.2"/><path class="cls-11" d="M2040.51 2074.2a5 5 0 0 1-5-5v-135.3a5 5 0 0 1 10 0v135.3a5 5 0 0 1-5 5zm31.24-18.04a5 5 0 0 1-5-5v-135.3a5 5 0 1 1 10 0v135.3a5 5 0 0 1-5 5zm-62.49-1.45a5 5 0 0 1-5-5v-135.3a5 5 0 0 1 10 0v135.3a5 5 0 0 1-5 5z"/><path class="cls-10" d="M1994.9 1908v13.59c0 15 19.71 27.2 44 27.2s44-12.18 44-27.2V1908z"/><ellipse class="cls-2" cx="2038.92" cy="1908.03" rx="44.02" ry="27.2"/><path class="cls-22" d="M1974.3 1976.29l20.85 14.49a10.57 10.57 0 0 0 15.12-3.28 10.58 10.58 0 0 0-4.93-15.11l-23.34-10c-8.84-3.8-15.61 8.4-7.7 13.9z"/><path class="cls-23" d="M2000.07 1990.67a10 10 0 0 1-9.3-6.31l-10.72-27a10 10 0 0 1 18.59-7.37l10.72 27a10 10 0 0 1-9.29 13.68z"/><path class="cls-24" d="M1989.34 1966.14a12.52 12.52 0 0 1-11.81-8.4c-15.45-44.43-20.52-68-7.55-81.72 14.11-14.92 41.18-8.14 84.19 4.16a12.5 12.5 0 0 1-6.88 24c-15.92-4.56-32.25-9-43.84-10.83-11.25-1.75-14.64-.5-15.28-.17-.28.62-1.38 4 .55 14.22 1.79 9.56 5.63 22.54 12.43 42.09a12.52 12.52 0 0 1-11.81 16.61z"/><path class="cls-22" d="M1933.39 1997.54l16.78 19.06a10.56 10.56 0 0 0 15.46.43 10.56 10.56 0 0 0-1.16-15.84l-20.27-15.31c-7.68-5.8-17.2 4.43-10.81 11.66z"/><path class="cls-23" d="M1957.92 2014.51h-.23a10 10 0 0 1-9.77-10.22l.88-40.33a10 10 0 0 1 10-9.78h.22a10 10 0 0 1 9.78 10.22l-.89 40.33a10 10 0 0 1-9.99 9.78z"/><path class="cls-24" d="M1957.92 1989.67h-.3a12.5 12.5 0 0 1-12.2-12.79c.21-9.11.32-17.39.42-24.7.47-36.41.71-54.68 13.64-64.28s30-4.8 67.27 5.9l7 2a12.5 12.5 0 0 1-6.87 24l-7-2c-14.4-4.14-25.77-7.4-34-9s-10.8-1-11.43-.83c-.37.54-1.62 2.86-2.42 10.76-.82 8.06-1 19.4-1.16 33.75-.09 7.38-.2 15.73-.42 25a12.5 12.5 0 0 1-12.53 12.19z"/><path class="cls-24" d="M2036.81 1921a30.31 30.31 0 0 1-4.46-.32 25.41 25.41 0 0 1-19.64-14.15 16.19 16.19 0 0 1 .32-14.66c-1.63-7.1 1.4-14.35 5-18.95s8.4-7.44 13.41-7.87l7.82-1.71 1.76.11a27.5 27.5 0 0 1 25.61 25c.92 11.62-3.2 18.8-6.82 22.77a31.49 31.49 0 0 1-23 9.78zm1.27-31.82a19.69 19.69 0 0 1 0 6.71 6.36 6.36 0 0 0 3.27-1.46c.13-.17.59-1.34.38-4a2.25 2.25 0 0 0-1.29-1.79z"/><path class="cls-21" d="M2015.86 1772.66a8 8 0 0 1-5.25-2l-13.69-11.9a8 8 0 0 1 10.49-12.07l13.7 11.9a8 8 0 0 1-5.25 14z"/><circle class="cls-20" cx="1988.84" cy="1736.12" r="23.93"/><path class="cls-21" d="M1967.88 1837.38h-.6a8 8 0 0 1-7.39-8.57c2.23-30.28 13.34-65.12 13.81-66.58a8 8 0 0 1 15.24 4.89c-.11.35-11 34.52-13.09 62.86a8 8 0 0 1-7.97 7.4z"/><path class="cls-19" d="M1976.61 1849.66a16.8 16.8 0 0 1-4.4-.6c-13.36-3.65-17.54-20.93-12.77-52.85a12.5 12.5 0 1 1 24.72 3.69c-.65 4.36-1.06 8.16-1.31 11.46 4.24-7.66 9.91-19.37 17.11-37.2a12.5 12.5 0 0 1 23.18 9.37c-8.77 21.69-16.69 38-23.54 48.56-3.29 5.05-11.44 17.57-22.99 17.57z"/><path class="cls-21" d="M1983.67 1758.3c-7.64-3.29-12.7-13.24-16-5.59a15.08 15.08 0 0 0 27.7 11.91c3.3-7.62-4.05-3.04-11.7-6.32z"/><path class="cls-24" d="M1974.6 1748.92s11.67-5.34 7.33 8.66c0 0 5 3.72 13.53 2.05 11.38-2.23 17.42-5.86 20.36-17.56 6.58-26.12-25.57-43.07-47-23.43-4.09 3.8 1.36 28.36 5.78 30.28z"/><path class="cls-19" d="M2009.08 1886.27c-10-72.89-5.59-45.68-12.81-84.62-9.32-50.21 46.49-60 60.88-25.57 10.18 24.36 23.87 85.83 23.87 101.09 0 4.27-5.63 8.62-13.74 12.18-2.31 1-12.73 4.44-15.49 5.11-19.92 4.81-40.98 4.33-42.71-8.19z"/><path class="cls-11" d="M2009.26 2023.15a5 5 0 0 1-5-5v-64.52a5 5 0 0 1 10 0v64.52a5 5 0 0 1-5 5z"/></g></g></g></svg>