<svg id="_ÎÓÈ_1" data-name="—ÎÓÈ_1" xmlns="http://www.w3.org/2000/svg" viewBox="0 0 780 840"><defs><style>.cls-1{fill:#f8f7ff}.cls-2{fill:#ddd6ff}.cls-4{fill:#40327a}.cls-5{fill:#a796f2}.cls-6{fill:#7760db}.cls-7{fill:#ff95a9}.cls-8{fill:#fff}</style></defs><path class="cls-1" d="M185.22 727.42H558.3C672 661.27 690 578.89 674.62 541.09c-26.65-65.41-49.43-64-87.23-89.93-45.45-31.19 2.16-86.66-5.82-129.3-12.65-67.68-94.52-88.33-190.3 81-40.37 71.38-95.73-61.93-140.87-77.6-41.91-14.54-168.4 51.17-37.56 199.12 41.66 47.1-163.72 66.93-27.62 203.04z"/><path class="cls-2" d="M169.2 175.54h2v5.61h-2zm0 33.66h2v5.61h-2z"/><path class="cls-2" transform="rotate(-30 161.772 180.587)" d="M160.78 177.79h2v5.61h-2z"/><path class="cls-2" transform="rotate(-30 178.601 209.736)" d="M177.61 206.94h2v5.61h-2z"/><path class="cls-2" transform="rotate(-60 155.627 186.766)" d="M154.62 183.95h2v5.61h-2z"/><path class="cls-2" transform="rotate(-60 184.77 203.59)" d="M183.77 200.78h2v5.61h-2z"/><path class="cls-2" d="M150.56 194.17h5.61v2h-5.61zm33.66 0h5.61v2h-5.61z"/><path class="cls-2" transform="rotate(-30 155.612 203.576)" d="M152.82 202.59h5.61v2h-5.61z"/><path class="cls-2" transform="rotate(-30 184.761 186.747)" d="M181.97 185.76h5.61v2h-5.61z"/><path class="cls-2" transform="rotate(-60.01 161.767 209.74)" d="M158.98 208.75h5.61v2h-5.61z"/><path class="cls-2" transform="rotate(-60.01 178.597 180.595)" d="M175.81 179.6h5.61v2h-5.61z"/><path d="M642.71 299.6h-2a11.27 11.27 0 0 0-11.25-11.26v-2a11.27 11.27 0 0 0 11.25-11.25h2A11.27 11.27 0 0 0 654 286.34v2a11.27 11.27 0 0 0-11.29 11.26zm-8.2-12.26a13.32 13.32 0 0 1 7.2 7.21 13.34 13.34 0 0 1 7.21-7.21 13.32 13.32 0 0 1-7.21-7.2 13.3 13.3 0 0 1-7.2 7.2zM133.3 489.07a7.05 7.05 0 1 1 7-7.05 7.06 7.06 0 0 1-7 7.05zm0-12.1a5 5 0 1 0 5 5 5.06 5.06 0 0 0-5-4.97z" fill="#eeebff"/><path class="cls-1" d="M227.88 142.39c1.26-11.36 4.57-19.1 12.43-23.36 23.32-12.64 81.82 7.87 106.15 39.51 33.92 44.14 3 112-30 116.33-38.31 5.04-95.06-73.87-88.58-132.48zm399.77 238.36c18.4-9.26 39.47 13 40.76 28 1.81 20.86-20.77 33-33.07 30.79-23.64-4.28-27.51-48.82-7.69-58.79z"/><path class="cls-4" transform="rotate(-43.2 395.509 629.431)" d="M340.03 627.44h110.95v4H340.03z"/><path class="cls-5" d="M441.13 588.3a8.44 8.44 0 1 1-3.13-11.52 8.44 8.44 0 0 1 3.13 11.52z"/><path class="cls-5" d="M426.5 579.89l63.46-110.39 20.05 11.52-68.88 107.28-14.63-8.41z"/><path class="cls-4" d="M443.52 601.21l-22-12.65 5-8.67 14.64 8.41 5.77 9.42a2.5 2.5 0 0 1 0 2.56 2.51 2.51 0 0 1-3.41.93z"/><path class="cls-6" d="M397.61 726.41a99 99 0 1 1 99-99 99.11 99.11 0 0 1-99 99zm0-190a91 91 0 1 0 91 91 91.1 91.1 0 0 0-91-91z"/><path class="cls-6" d="M397.61 713.41a86 86 0 1 1 86-86 86.1 86.1 0 0 1-86 86zm0-170a84 84 0 1 0 84 84 84.09 84.09 0 0 0-84-84z"/><path class="cls-2" d="M288.92 593l-1.9-.6a115.55 115.55 0 0 1 6.74-16.63l1.79.89a114.33 114.33 0 0 0-6.63 16.34zm-1.49 5.1l-1.93-.51c.25-1 .51-1.9.79-2.84l1.92.57c-.27.92-.53 1.85-.78 2.78zm4.63 19.47l-2-.18A106.67 106.67 0 0 1 304 573.65l1.73 1a104.69 104.69 0 0 0-13.67 42.92z"/><path class="cls-6" d="M397.61 726.41a99 99 0 1 1 99-99 99.11 99.11 0 0 1-99 99zm0-190a91 91 0 1 0 91 91 91.1 91.1 0 0 0-91-91z"/><path class="cls-4" d="M394.61 494.98h6v138.73h-6z"/><path class="cls-4" d="M377.1 500.86l47.1-6.41a7.68 7.68 0 0 0 6.64-7.61h-62.46v6.41a7.68 7.68 0 0 0 8.72 7.61z"/><path class="cls-7" d="M552.36 406.33a8 8 0 1 1-6.24-9.43 8 8 0 0 1 6.24 9.43z"/><path class="cls-7" d="M536.3 405.11a6 6 0 1 0-7.08 4.68 6 6 0 0 0 7.08-4.68z"/><path class="cls-7" d="M543.85 396.76l-13.94 1.17-.69 11.86 13.71 2.79.92-15.82z"/><path class="cls-5" d="M532.07 409.67l-2.18-11.74-4 .35-6 .52-59.57 5.2L433 354.36l-32.88 22.45 42 50.3a13.66 13.66 0 0 0 14.24 4.36h.09z"/><path class="cls-6" d="M456.5 431.44l-.7-1.87.14-.05 52.16-15.02.56 1.92-52.16 15.02z"/><path class="cls-8" d="M529.89 397.93l2.18 11.74-10.96 3.16-1.23-14.03 5.97-.52 4.04-.35z"/><path class="cls-7" d="M529.9 397.93l2.17 11.75-5.09 1.46-1.12-12.86 4.04-.35z"/><path class="cls-5" d="M428.32 379.33a20 20 0 1 1 2.52-28.17 20 20 0 0 1-2.52 28.17z"/><path class="cls-7" d="M225.83 359.87a8 8 0 1 0 8-8 8 8 0 0 0-8 8z"/><path class="cls-7" d="M241.83 361.78a6 6 0 1 1 6 6 6 6 0 0 1-6-6z"/><path class="cls-7" d="M236.04 352.13l13.45 3.85-1.62 11.77-13.99.08 2.16-15.7z"/><circle class="cls-5" cx="311.12" cy="409.17" r="13.64" transform="rotate(-14.09 311.187 409.258)"/><path class="cls-5" d="M372.81 383.11l-53.92 37.28-17.54-20.73 45.74-46.95 25.72 30.4z"/><path class="cls-5" d="M301.93 419.25l-58.13-53.06 7.15-9.56 3.47 2.1 5.12 3.12 58.66 35.65-16.27 21.75z"/><path class="cls-8" d="M252.22 373.87l-8.42-7.68 7.15-9.56 3.47 2.1 5.12 3.12-7.32 12.02z"/><path class="cls-7" d="M250.95 356.63l-7.16 9.56 3.92 3.57 6.7-11.03-3.46-2.1z"/><circle class="cls-5" cx="361.43" cy="366.66" r="20" transform="rotate(-66.31 361.448 366.66)"/><path class="cls-5" d="M415.26 459.54L500 463.7v23.13l-84.74.01v-27.3z"/><circle class="cls-5" cx="370.99" cy="473.2" r="13.65" transform="rotate(-21.6 371.06 473.256)"/><circle class="cls-5" cx="415.26" cy="473.19" r="13.65"/><path class="cls-5" d="M429.5 358l.1 105-72.87-1.6-9.82-99.3a14 14 0 0 1 13.24-15.36l54.66-2.74a14 14 0 0 1 14.69 14z"/><path class="cls-5" d="M429.6 459.56l-.67 13.65v.67a13.66 13.66 0 0 1-13.64 13H371a13.66 13.66 0 0 1-13.64-13v-.67l-.67-13.65z"/><path class="cls-5" d="M383.04 466.8l39.78 74.82-20.43 10.86-43.45-72.87 24.1-12.81z"/><path class="cls-6" transform="rotate(-28 400.666 502.158)" d="M399.73 479.35h2v45.71h-2z"/><path class="cls-5" d="M361.28 664.15a8.44 8.44 0 1 1-3.28-11.46 8.43 8.43 0 0 1 3.28 11.46z"/><path class="cls-8" d="M376.49 345.89l21.55 71.09 10.19-51.58-1.04-21.03-30.7 1.52z"/><path class="cls-8" d="M407.19 344.37l1.04 21.03-4.25 21.49-5.94 30.09-8.9-29.35-12.65-41.74 30.7-1.52z"/><path class="cls-5" d="M510 481a11.56 11.56 0 1 1-4.26-15.79A11.55 11.55 0 0 1 510 481zm-87.27 71.63a11.57 11.57 0 1 1-4.55-15.71 11.56 11.56 0 0 1 4.55 15.71z"/><path class="cls-5" d="M346.51 656.01l55.96-114.54 20.26 11.16-61.44 111.53-14.78-8.15z"/><path class="cls-4" d="M403.98 386.89l-5.94 30.09-8.9-29.35 4.56-37.81 2-.09 8.28 37.16zM363.9 677l-22.23-12.24 4.83-8.76 14.79 8.15 5.94 9.31a2.48 2.48 0 0 1 .08 2.56 2.51 2.51 0 0 1-3.41.98z"/><path class="cls-7" transform="rotate(-2.84 387.97 331.534)" d="M375.8 318.2h25v27.09h-25z"/><path d="M220.64 280.44l11.73 9.78 20.82 2.78a7.2 7.2 0 1 1-4.64 13.33l-18-10.79-15.27.37A60.94 60.94 0 0 1 172.69 280a7.78 7.78 0 0 1-2.05-8.3 7.84 7.84 0 0 1 6.87-5.24 61 61 0 0 1 43.13 13.98z" fill="#ffc359"/><path class="cls-6" d="M252.23 307.34a7.16 7.16 0 0 1-3.68-1l-18-10.79-12.23.3-.05-2 12.81-.31 18.53 11.08a5.19 5.19 0 0 0 7.58-2.76 5.18 5.18 0 0 0 .18-2.81l1.95-.43a7.1 7.1 0 0 1-.24 3.9 7.21 7.21 0 0 1-6.85 4.82z"/><path class="cls-8" d="M211.42 281.1c-.6-.39-1.21-.77-1.83-1.13l1-1.72q1 .56 1.89 1.17zm-3.82-2.26a55.11 55.11 0 0 0-28.78-6.46l-.1-2a57 57 0 0 1 29.83 6.7z"/><path class="cls-6" d="M197.31 293.66A61.19 61.19 0 0 1 172.69 280a7.74 7.74 0 0 1-2.05-8.3 7.83 7.83 0 0 1 6.87-5.24 61.69 61.69 0 0 1 8.27 0l-.14 2a59.33 59.33 0 0 0-8 0 5.83 5.83 0 0 0-5.11 3.9 5.74 5.74 0 0 0 1.47 6.14 59.1 59.1 0 0 0 23.81 13.23zm5.2 1.22c-.94-.18-1.89-.38-2.82-.6l.46-1.95c.9.21 1.82.41 2.73.58z"/><path d="M443.53 137.52l-11.26 10.32-5.51 20.27a7.2 7.2 0 1 1-12.59-6.37l13.09-16.44 1.66-15.19a60.94 60.94 0 0 1 21.45-40.05 7.78 7.78 0 0 1 8.5-.93 7.83 7.83 0 0 1 4.27 7.51 60.9 60.9 0 0 1-19.61 40.88z" fill="#ff809f"/><path class="cls-8" d="M447.93 100.84l-1.52-1.3c.17-.2.34-.38.51-.57l1.53 1.28zm.52-.59L447 98.92a57.51 57.51 0 0 1 4.89-4.86l1.32 1.51a54.86 54.86 0 0 0-4.76 4.68zm-13.3 28.51l-2-.28c.09-.6.18-1.19.29-1.79l2 .35c-.11.57-.21 1.15-.29 1.72zm.69-3.8l-1.95-.42a56.14 56.14 0 0 1 10.8-22.93l1.58 1.24A54 54 0 0 0 435.84 125z"/><path class="cls-6" d="M419.8 173.43a7.07 7.07 0 0 1-3.24-.78 7.17 7.17 0 0 1-3.79-4.9 7.25 7.25 0 0 1 0-3l2 .4a5 5 0 0 0 0 2.15 5.18 5.18 0 0 0 2.73 3.53 5.08 5.08 0 0 0 2.34.57 5.22 5.22 0 0 0 5-3.84l5.67-20.83 4.94-4.54 1.35 1.48-4.52 4.14-5.51 20.27a7.23 7.23 0 0 1-6.97 5.35zM439.7 141l-1.35-1.47 3.83-3.52a59 59 0 0 0 18.48-34.89l2 .28a61 61 0 0 1-19.11 36.09zM463 98.65l-2-.2c.06-.65.11-1.3.16-2l2 .14c-.06.72-.16 1.41-.16 2.06z"/><path class="cls-5" d="M573.9 358.77l-15.12 2.13-16 13.58A7.2 7.2 0 1 1 536 362.1l20.08-6.1 10-11.57a60.94 60.94 0 0 1 40.36-20.86 7.78 7.78 0 0 1 7.54 4 7.83 7.83 0 0 1-.67 8.54 61 61 0 0 1-39.41 22.66z"/><path class="cls-8" d="M567.69 351.69l-1.51-1.31 1.41-1.63 1.51 1.3zm2.68-3.11l-1.51-1.31.22-.26A56.78 56.78 0 0 1 594 330.23l.64 1.89a54.85 54.85 0 0 0-24 16.19zm26.47-17.15l-.55-1.92a55.17 55.17 0 0 1 7.55-1.64l.29 2a56.35 56.35 0 0 0-7.29 1.56z"/><path class="cls-6" d="M538.1 376.19a7.21 7.21 0 0 1-7.19-6.63l2-.16a5 5 0 0 0 .62 2.08 5.21 5.21 0 0 0 7.93 1.48l6-5.06 1.29 1.53-6 5.05a7.1 7.1 0 0 1-4.65 1.71zm12.61-8.46l-1.29-1.52 8.51-7.21 15.69-2.21a58.46 58.46 0 0 0 32.74-16l1.39 1.44a60.47 60.47 0 0 1-33.85 16.53l-15.12 2.13zm58.77-27.24l-1.48-1.38c1.28-1.34 2.52-2.77 3.67-4.24a5.5 5.5 0 0 0 .61-.95l1.78.9a7.22 7.22 0 0 1-.82 1.29 55.695 55.695 0 0 1-3.76 4.38z"/><path class="cls-8" d="M403.61 627.41a6 6 0 1 1-6-6 6 6 0 0 1 6 6z"/><path class="cls-4" d="M397.61 635.41a8 8 0 1 1 8-8 8 8 0 0 1-8 8zm0-12a4 4 0 1 0 4 4 4 4 0 0 0-4-4z"/><path class="cls-2" d="M215.66 229.68l-1.66-1.09a208.9 208.9 0 0 1 136.84-91.07l.36 2a206.91 206.91 0 0 0-135.54 90.16zm371.99 60.19a206.88 206.88 0 0 0-101.34-129l.95-1.75a208.86 208.86 0 0 1 102.33 130.2z"/><path class="cls-2" d="M294.92 167.59l-.94-1.76a198.25 198.25 0 0 1 56.87-20.16l.38 2a196.36 196.36 0 0 0-56.31 19.92zm-11.51 6.69l-1.06-1.7c2.88-1.8 5.83-3.55 8.78-5.2l1 1.75c-2.94 1.63-5.87 3.36-8.72 5.15zm-94.27 186.88c-.59-6.26-.89-12.63-.89-18.94a201.29 201.29 0 0 1 2.12-29.22l2 .29a198.81 198.81 0 0 0-2.1 28.89c0 6.25.29 12.56.88 18.75zm.54 5.08c-.1-.83-.19-1.67-.28-2.5l2-.22c.09.83.19 1.66.29 2.48zm386.06 45.94l-1.88-.7a195.8 195.8 0 0 0 9.25-33.43l2 .36a199.52 199.52 0 0 1-9.37 33.77zm2.17-127.27a197.84 197.84 0 0 0-22.67-49.18l1.68-1.08a199.36 199.36 0 0 1 22.9 49.68zM553.48 233c-1.59-2.41-3.28-4.82-5-7.18l1.61-1.18c1.74 2.38 3.44 4.82 5 7.26z"/><path class="cls-4" d="M407.73 292.6l-3.42 1.25-8.42-23.05 3.41-1.25a12.28 12.28 0 0 1 15.7 7.31 12.27 12.27 0 0 1-7.27 15.74z"/><path class="cls-4" d="M366.73 309.29h18.17v19h-9.09a9.09 9.09 0 0 1-9.09-9.09v-10l.01.09z" transform="rotate(-20 379.773 321.784)"/><path class="cls-4" d="M389.91 262.23h8.82a10.91 10.91 0 0 1 10.91 10.91v10.81a9.86 9.86 0 0 1-9.86 9.86h-9.87v-31.58z" transform="rotate(-20.08 399.841 278.054)"/><path class="cls-7" d="M413.42 325l-30.31 11.08L370.63 302a20 20 0 0 1 11.93-25.67 20 20 0 0 1 25.31 11l10.8 25.67a9.09 9.09 0 0 1-5.25 12z"/><path d="M414.58 303.27l-6.71-15.93z" fill="none"/><path class="cls-4" d="M376.61 278.79h2.72V313h-20.9v-16a18.18 18.18 0 0 1 18.18-18.21z" transform="rotate(-20.08 368.946 295.943)"/><path class="cls-7" d="M375.5 315.32l5.12-1.87-1.87-5.12a5.44 5.44 0 0 0-7-3.25 5.44 5.44 0 0 0-3.25 7 5.45 5.45 0 0 0 7 3.24z"/><path class="cls-4" d="M408.66 281.19l-19.45 7.11a15.31 15.31 0 0 1-19.62-9.12 7.27 7.27 0 0 1 13.66-5 .75.75 0 0 0 1 .45l19.45-7.11z"/><path class="cls-4" d="M398.91 277l-9.68 3.54a7.27 7.27 0 0 1-5-13.66l9.67-3.53a7.27 7.27 0 1 1 5 13.65zm22.63 42.76a7.29 7.29 0 0 1-4.21 9.66l-13.57 5a14.54 14.54 0 0 1-18.65-8.66l-5.85-16 5.12-1.87a6.06 6.06 0 0 0 7.77 3.61l22.43-8.2z"/><path class="cls-8" d="M401.53 312.59a5.5 5.5 0 0 0 10.36-3.72z"/><path class="cls-2" d="M227.37 742.42h167.88v2H227.37zm-19 15.24h69.28v2h-69.28zm113.89 0h144.76v2H322.26zm-167.76-15h43.83v2H154.5zm274.28-.24h129.25v2H428.78z"/><path fill="#c4b8ff" d="M107.38 726.41h524.07v2H107.38z"/><path class="cls-4" d="M302.61 726.41h151.73v2H302.61zm161.73 0h22.5v2h-22.5zm-199.93 0h11.25v2h-11.25z"/><path class="cls-6" transform="rotate(-34.64 328.422 412.665)" d="M327.05 411.62h2.63v2h-2.63z"/><path class="cls-6" transform="rotate(-34.64 345.242 401.039)" d="M329 400h32.35v2H329z"/><path class="cls-6" d="M452.66 432a13.63 13.63 0 0 1-10.46-4.9l-.54-.63-9.3-11.12 1.54-1.28 9.85 11.77a11.63 11.63 0 0 0 8.92 4.18zm-15.57 52.84h50.31v2h-50.31z"/></svg>