<?xml version="1.0" encoding="iso-8859-1"?>
<!-- Generator: Adobe Illustrator 18.1.1, SVG Export Plug-In . SVG Version: 6.00 Build 0)  -->
<svg version="1.1" id="Capa_1" xmlns="http://www.w3.org/2000/svg" xmlns:xlink="http://www.w3.org/1999/xlink" x="0px" y="0px"
	 viewBox="0 0 26 26" style="enable-background:new 0 0 26 26;" xml:space="preserve">
<g>
	<path style="fill:none;stroke:#030104;stroke-width:2;stroke-linecap:round;stroke-linejoin:round;stroke-miterlimit:10;" d="M17,6
		c0-1.904-0.096-5-4-5S9,4.048,9,6"/>
	<path style="fill:#030104;" d="M22.677,8.768C22.622,8.342,22.239,8,21.82,8H4.178C3.761,8,3.377,8.342,3.322,8.768L0.165,24.702
		C0.074,25.412,0.448,26,1,26h24c0.551,0,0.925-0.588,0.834-1.298L22.677,8.768z M8.5,12C7.672,12,7,11.328,7,10.5S7.672,9,8.5,9
		S10,9.672,10,10.5S9.328,12,8.5,12z M17.5,12c-0.828,0-1.5-0.672-1.5-1.5S16.673,9,17.5,9S19,9.672,19,10.5S18.328,12,17.5,12z"/>
</g>
<g>
</g>
<g>
</g>
<g>
</g>
<g>
</g>
<g>
</g>
<g>
</g>
<g>
</g>
<g>
</g>
<g>
</g>
<g>
</g>
<g>
</g>
<g>
</g>
<g>
</g>
<g>
</g>
<g>
</g>
</svg>
