<?xml version="1.0" encoding="iso-8859-1"?>
<!-- Generator: Adobe Illustrator 17.1.0, SVG Export Plug-In . SVG Version: 6.00 Build 0)  -->
<!DOCTYPE svg PUBLIC "-//W3C//DTD SVG 1.1//EN" "http://www.w3.org/Graphics/SVG/1.1/DTD/svg11.dtd">
<svg version="1.1" id="Capa_1" xmlns="http://www.w3.org/2000/svg" xmlns:xlink="http://www.w3.org/1999/xlink" x="0px" y="0px"
	 viewBox="0 0 430.957 430.957" style="enable-background:new 0 0 430.957 430.957;" xml:space="preserve">
<path id="XMLID_128_" d="M286.304,373.835v12.522c0,4.418-3.582,8-8,8h-52.768c-4.418,0-8-3.582-8-8v-45.102c0-4.418,3.582-8,8-8
	s8,3.582,8,8v37.102h36.768v-4.522c0-4.418,3.582-8,8-8S286.304,369.417,286.304,373.835z M225.537,97.7c4.418,0,8-3.582,8-8v-14.55
	h36.766V89.7c0,4.418,3.582,8,8,8s8-3.582,8-8V44.598c0-4.418-3.582-8-8-8s-8,3.582-8,8v14.552h-36.766V44.598c0-4.418-3.582-8-8-8
	s-8,3.582-8,8V89.7C217.537,94.118,221.119,97.7,225.537,97.7z M278.303,274.365c4.418,0,8-3.582,8-8s-3.582-8-8-8h-52.766
	c-4.418,0-8,3.582-8,8v45.103c0,4.418,3.582,8,8,8h52.766c4.418,0,8-3.582,8-8s-3.582-8-8-8h-44.766v-6.551h18.383
	c4.418,0,8-3.582,8-8s-3.582-8-8-8h-18.383v-6.552H278.303z M339.367,23.195v384.566c0,12.79-10.406,23.196-23.196,23.196H190.952
	c-12.79,0-23.195-10.406-23.195-23.196v-57.344h-60.165v28.112c0,4.418-3.582,8-8,8s-8-3.582-8-8v-35.931
	c-0.001-0.06-0.002-0.12-0.002-0.181s0-0.121,0.002-0.181v-35.93c0-4.418,3.582-8,8-8s8,3.582,8,8v28.111h60.165V96.537h-60.165
	v28.112c0,4.418-3.582,8-8,8s-8-3.582-8-8V88.717c-0.001-0.06-0.002-0.12-0.002-0.181s0-0.121,0.002-0.181v-35.93
	c0-4.418,3.582-8,8-8s8,3.582,8,8v28.111h60.165V23.195C167.757,10.405,178.163,0,190.952,0H316.17
	C328.961,0,339.367,10.405,339.367,23.195z M323.367,23.195c0-3.967-3.229-7.195-7.196-7.195H190.952
	c-3.967,0-7.195,3.228-7.195,7.195v384.566c0,3.968,3.228,7.196,7.195,7.196H316.17c3.968,0,7.196-3.228,7.196-7.196V23.195z
	 M286.304,137.872c0,16.846-13.705,30.552-30.551,30.552h-7.667c-16.846,0-30.55-13.706-30.55-30.552
	c0-16.846,13.705-30.55,30.55-30.55h7.667C272.599,107.321,286.304,121.026,286.304,137.872z M270.304,137.872
	c0-8.023-6.527-14.55-14.551-14.55h-7.667c-8.023,0-14.55,6.527-14.55,14.55c0,8.024,6.527,14.552,14.55,14.552h7.667
	C263.777,152.423,270.304,145.896,270.304,137.872z M278.304,183.862h-52.768c-4.418,0-8,3.582-8,8s3.582,8,8,8h18.384v37.102
	c0,4.418,3.582,8,8,8s8-3.582,8-8v-37.102h18.384c4.418,0,8-3.582,8-8S282.723,183.862,278.304,183.862z"/>
<g>
</g>
<g>
</g>
<g>
</g>
<g>
</g>
<g>
</g>
<g>
</g>
<g>
</g>
<g>
</g>
<g>
</g>
<g>
</g>
<g>
</g>
<g>
</g>
<g>
</g>
<g>
</g>
<g>
</g>
</svg>
