<?xml version="1.0" encoding="iso-8859-1"?>
<!-- Generator: Adobe Illustrator 19.0.0, SVG Export Plug-In . SVG Version: 6.00 Build 0)  -->
<svg version="1.1" id="Layer_1" xmlns="http://www.w3.org/2000/svg" xmlns:xlink="http://www.w3.org/1999/xlink" x="0px" y="0px"
	 viewBox="0 0 450.606 450.606" style="enable-background:new 0 0 450.606 450.606;" xml:space="preserve">
<g>
	<path d="M322.832,301.619c-6.536,7.585-13.628,14.677-21.213,21.213l127.774,127.775l21.213-21.213L322.832,301.619z"/>
	<path d="M170.743,204.827c-25.019,0-46.177,16.854-52.717,39.803h105.433C216.92,221.681,195.762,204.827,170.743,204.827z"/>
	<path d="M170.743,116.658c10.974,0,19.901-8.928,19.901-19.902s-8.928-19.902-19.901-19.902s-19.901,8.928-19.901,19.902
		S159.769,116.658,170.743,116.658z"/>
	<path d="M170.743,0C76.595,0,0,76.595,0,170.743s76.595,170.743,170.743,170.743c94.147,0,170.742-76.595,170.742-170.743
		S264.89,0,170.743,0z M170.743,46.855c27.516,0,49.901,22.386,49.901,49.902s-22.386,49.902-49.901,49.902
		s-49.901-22.386-49.901-49.902S143.227,46.855,170.743,46.855z M255.546,274.63H85.94v-15c0-46.761,38.042-84.803,84.803-84.803
		s84.803,38.042,84.803,84.803V274.63z"/>
</g>
<g>
</g>
<g>
</g>
<g>
</g>
<g>
</g>
<g>
</g>
<g>
</g>
<g>
</g>
<g>
</g>
<g>
</g>
<g>
</g>
<g>
</g>
<g>
</g>
<g>
</g>
<g>
</g>
<g>
</g>
</svg>
