<?xml version="1.0"?>
<svg xmlns="http://www.w3.org/2000/svg" id="outline" viewBox="0 0 512 512" width="512" height="512"><path d="M488,176H435.2002a103.81249,103.81249,0,0,1-91.76465-55.05859L333.647,102.58789A87.85219,87.85219,0,0,0,288,62.002V48a32,32,0,0,0-64,0V62.002a87.85457,87.85457,0,0,0-45.64746,40.58594l-9.7876,18.35352A103.81381,103.81381,0,0,1,76.7998,176H24a8.00008,8.00008,0,0,0-8,8v32a8.00008,8.00008,0,0,0,8,8H76.57812L50.39624,296H40a8.00008,8.00008,0,0,0-8,8,64,64,0,0,0,128,0,8.00008,8.00008,0,0,0-8-8H141.60376l-26.18188-72h19.51367a95.96823,95.96823,0,0,0,63.21631-23.75293l21.05371-18.42285A55.85554,55.85554,0,0,1,224,178.08691V390.11133L211.05566,416H192a7.99927,7.99927,0,0,0-6.3999,3.2002L164.00024,448H128a8.00008,8.00008,0,0,0-8,8v32a8.00008,8.00008,0,0,0,8,8H384a8.00008,8.00008,0,0,0,8-8V456a8.00008,8.00008,0,0,0-8-8H347.99976L326.3999,419.2002A7.99927,7.99927,0,0,0,320,416H300.94434L288,390.11133V178.08691a55.85554,55.85554,0,0,1,4.79443,3.73731H292.794l21.05419,18.42285A95.96823,95.96823,0,0,0,377.06445,224h19.51367l-26.18188,72H360a8.00008,8.00008,0,0,0-8,8,64,64,0,0,0,128,0,8.00008,8.00008,0,0,0-8-8H461.60376l-26.18188-72H488a8.00008,8.00008,0,0,0,8-8V184A8.00008,8.00008,0,0,0,488,176ZM240,48a16,16,0,0,1,32,0v9.46777a87.941,87.941,0,0,0-32,0ZM96,352a48.07871,48.07871,0,0,1-47.3335-40h94.667A48.07871,48.07871,0,0,1,96,352Zm28.57812-56H67.42188l26.18188-72h4.79248ZM376,480H136V464H376Zm-48-32H184l12-16H316Zm-55.15527-52.42188L283.05566,416H228.94434l10.21093-20.42188A7.99934,7.99934,0,0,0,240,392V170.35352a55.56338,55.56338,0,0,1,32,0V392A7.99934,7.99934,0,0,0,272.84473,395.57812ZM416,352a48.07871,48.07871,0,0,1-47.3335-40h94.667A48.07871,48.07871,0,0,1,416,352Zm28.57812-56H387.42188l26.18188-72h4.79248ZM480,208H377.06445a79.97228,79.97228,0,0,1-52.68017-19.79395l-21.0542-18.42285h-.00049a71.87558,71.87558,0,0,0-94.65967,0l-21.0542,18.42285A79.97228,79.97228,0,0,1,134.93555,208H32V192H76.7998a119.78374,119.78374,0,0,0,105.88282-63.5293l9.78759-18.35351a72.00063,72.00063,0,0,1,127.05909,0l9.78857,18.35351A119.78241,119.78241,0,0,0,435.2002,192H480Z"/><path d="M256,88a24,24,0,1,0,24,24A24.02718,24.02718,0,0,0,256,88Zm0,32a8,8,0,1,1,8-8A8.00917,8.00917,0,0,1,256,120Z"/></svg>
