<?xml version="1.0" encoding="iso-8859-1"?>
<!-- Generator: Adobe Illustrator 19.0.0, SVG Export Plug-In . SVG Version: 6.00 Build 0)  -->
<svg version="1.1" id="Capa_1" xmlns="http://www.w3.org/2000/svg" xmlns:xlink="http://www.w3.org/1999/xlink" x="0px" y="0px"
	 viewBox="0 0 512 512" style="enable-background:new 0 0 512 512;" xml:space="preserve">
<g>
	<g>
		<path d="M0,490.667v10.667C0,507.224,4.776,512,10.667,512h490.667c5.891,0,10.667-4.776,10.667-10.667v-10.667H0z"/>
	</g>
</g>
<g>
	<g>
		<path d="M202.667,192H32c-5.891,0-10.667,4.776-10.667,10.667v298.667C21.333,507.224,26.109,512,32,512h170.667
			c5.891,0,10.667-4.776,10.667-10.667V202.667C213.333,196.776,208.558,192,202.667,192z M192,490.667H42.667V213.333H192V490.667z
			"/>
	</g>
</g>
<g>
	<g>
		<path d="M480,64H309.333c-5.891,0-10.667,4.776-10.667,10.667v426.667c0,5.891,4.776,10.667,10.667,10.667H480
			c5.891,0,10.667-4.776,10.667-10.667V74.667C490.667,68.776,485.891,64,480,64z M469.333,490.667H320V85.333h149.333V490.667z"/>
	</g>
</g>
<g>
	<g>
		<path d="M405.333,0h-288c-5.891,0-10.667,4.776-10.667,10.667v160H128V21.333h266.667v21.333H416v-32
			C416,4.776,411.224,0,405.333,0z"/>
	</g>
</g>
<g>
	<g>
		<rect x="64" y="234.667" width="21.333" height="192"/>
	</g>
</g>
<g>
	<g>
		<rect x="106.667" y="234.667" width="21.333" height="192"/>
	</g>
</g>
<g>
	<g>
		<rect x="149.333" y="234.667" width="21.333" height="192"/>
	</g>
</g>
<g>
	<g>
		<rect x="309.333" y="117.333" width="117.333" height="21.333"/>
	</g>
</g>
<g>
	<g>
		<rect x="309.333" y="170.667" width="117.333" height="21.333"/>
	</g>
</g>
<g>
	<g>
		<rect x="309.333" y="224" width="117.333" height="21.333"/>
	</g>
</g>
<g>
	<g>
		<rect x="309.333" y="277.333" width="117.333" height="21.333"/>
	</g>
</g>
<g>
	<g>
		<rect x="309.333" y="330.667" width="117.333" height="21.333"/>
	</g>
</g>
<g>
	<g>
		<rect x="309.333" y="384" width="117.333" height="21.333"/>
	</g>
</g>
<g>
	<g>
		<rect x="160" y="53.333" width="21.333" height="32"/>
	</g>
</g>
<g>
	<g>
		<rect x="160" y="117.333" width="21.333" height="32"/>
	</g>
</g>
<g>
	<g>
		<rect x="202.667" y="117.333" width="21.333" height="32"/>
	</g>
</g>
<g>
	<g>
		<rect x="202.667" y="53.333" width="21.333" height="32"/>
	</g>
</g>
<g>
	<g>
		<rect x="245.333" y="53.333" width="21.333" height="32"/>
	</g>
</g>
<g>
	<g>
		<rect x="245.333" y="117.333" width="21.333" height="32"/>
	</g>
</g>
<g>
	<g>
		<rect x="245.333" y="181.333" width="21.333" height="32"/>
	</g>
</g>
<g>
	<g>
		<rect x="245.333" y="245.333" width="21.333" height="32"/>
	</g>
</g>
<g>
	<g>
		<rect x="245.333" y="309.333" width="21.333" height="32"/>
	</g>
</g>
<g>
	<g>
		<rect x="245.333" y="373.333" width="21.333" height="32"/>
	</g>
</g>
<g>
	<g>
		<path d="M405.333,437.333H352c-5.891,0-10.667,4.776-10.667,10.667v53.333h21.333v-42.667h32v42.667H416V448
			C416,442.109,411.224,437.333,405.333,437.333z"/>
	</g>
</g>
<g>
	<g>
		<path d="M160,448H74.667C68.776,448,64,452.776,64,458.667v42.667h21.333v-32h64v32h21.333v-42.667
			C170.667,452.776,165.891,448,160,448z"/>
	</g>
</g>
<g>
</g>
<g>
</g>
<g>
</g>
<g>
</g>
<g>
</g>
<g>
</g>
<g>
</g>
<g>
</g>
<g>
</g>
<g>
</g>
<g>
</g>
<g>
</g>
<g>
</g>
<g>
</g>
<g>
</g>
</svg>
