<?xml version="1.0" encoding="iso-8859-1"?>
<!-- Generator: Adobe Illustrator 16.0.0, SVG Export Plug-In . SVG Version: 6.00 Build 0)  -->
<!DOCTYPE svg PUBLIC "-//W3C//DTD SVG 1.1//EN" "http://www.w3.org/Graphics/SVG/1.1/DTD/svg11.dtd">
<svg version="1.1" id="Capa_1" xmlns="http://www.w3.org/2000/svg" xmlns:xlink="http://www.w3.org/1999/xlink" x="0px" y="0px"
	 width="44.275px" height="44.275px" viewBox="0 0 44.275 44.275" style="enable-background:new 0 0 44.275 44.275;"
	 xml:space="preserve">
<g>
	<path d="M36.637,33.041c-1.717,0-3.254,0.775-4.285,1.992l-17.233-2.98l12.36-6.751c0.9,0.615,1.988,0.976,3.158,0.976
		c3.098,0,5.617-2.521,5.617-5.619c0-3.097-2.521-5.618-5.617-5.618c-0.516,0-1.014,0.076-1.487,0.206l-7.6-7.393
		c0.299-0.686,0.467-1.441,0.467-2.236C22.017,2.52,19.496,0,16.398,0s-5.619,2.52-5.619,5.617c0,3.097,2.521,5.618,5.618,5.618
		c0.446,0,0.879-0.058,1.296-0.157l7.725,7.513c-0.256,0.641-0.399,1.336-0.399,2.067c0,0.095,0.01,0.188,0.015,0.281l-14.496,7.917
		c-0.848-0.514-1.838-0.815-2.9-0.815c-3.098,0-5.618,2.521-5.618,5.618c0,3.097,2.521,5.617,5.618,5.617
		c1.996,0,3.748-1.049,4.745-2.623l18.78,3.248c0.567,2.5,2.805,4.375,5.475,4.375c3.099,0,5.619-2.521,5.619-5.617
		C42.256,35.561,39.733,33.041,36.637,33.041z M33.254,20.659c0,1.445-1.174,2.619-2.617,2.619s-2.618-1.174-2.618-2.619
		c0-1.444,1.175-2.618,2.618-2.618S33.254,19.215,33.254,20.659z M13.779,5.617c0-1.444,1.175-2.618,2.618-2.618
		s2.618,1.174,2.618,2.618c0,1.444-1.175,2.618-2.618,2.618S13.779,7.061,13.779,5.617z M7.636,36.277
		c-1.443,0-2.618-1.174-2.618-2.619c0-1.443,1.175-2.617,2.618-2.617c1.443,0,2.618,1.174,2.618,2.617
		C10.254,35.104,9.08,36.277,7.636,36.277z M36.637,41.277c-1.443,0-2.618-1.174-2.618-2.619c0-1.443,1.175-2.617,2.618-2.617
		s2.617,1.174,2.617,2.617C39.254,40.104,38.08,41.277,36.637,41.277z"/>
</g>
<g>
</g>
<g>
</g>
<g>
</g>
<g>
</g>
<g>
</g>
<g>
</g>
<g>
</g>
<g>
</g>
<g>
</g>
<g>
</g>
<g>
</g>
<g>
</g>
<g>
</g>
<g>
</g>
<g>
</g>
</svg>
