<?xml version="1.0" ?><!DOCTYPE svg  PUBLIC '-//W3C//DTD SVG 1.1//EN'  'http://www.w3.org/Graphics/SVG/1.1/DTD/svg11.dtd'><svg enable-background="new 0 0 64 64" id="Layer_1" version="1.1" viewBox="0 0 64 64" xml:space="preserve" xmlns="http://www.w3.org/2000/svg" xmlns:xlink="http://www.w3.org/1999/xlink"><g><rect height="1.5" width="1.5" x="39.6" y="48.1"/><rect height="1.5" width="1.5" x="39.6" y="51.5"/><rect height="7.2" width="1.5" x="26.4" y="47"/><path d="M45.6,26.3v-0.9c0-1.8-1.5-3.3-3.3-3.3c-0.9,0-1.6,0.3-2.2,0.9c-0.5-1-1.6-1.8-2.9-1.8c-1,0-2,0.5-2.6,1.2   c-0.6-0.8-1.5-1.2-2.6-1.2c-1.1,0-2,0.5-2.6,1.3c-0.6-0.8-1.6-1.3-2.6-1.3c-1.7,0-3.2,1.4-3.2,3.2v1.9H0l2.7,6.9h3.4l2.2,5.4h3.3   l2.2,5.4h8.4l1.5,1v13h1.5V44.4l-4.5-3.1C20.2,41,20,40.5,20,40V30c0-1.2,1-2.2,2.2-2.2h9.1c-0.3,1.5-1.5,3-3.7,3h-5.2v1.5h1.3V36   h1.5v-3.8l3.7-0.1c0.3,1.6,1.6,2.7,3.2,2.7c1,0,2-0.5,2.6-1.2c0.6,0.8,1.5,1.2,2.6,1.2c1,0,2-0.5,2.6-1.2c0.6,0.8,1.5,1.2,2.6,1.2   c0.7,0,1.3-0.2,1.8-0.6v6.2c0,0.4-0.1,0.9-0.3,1.3l-0.9,1.9c-0.3,0.7-0.5,1.5-0.5,2.3v9.4h1.5v-9.4c0-0.6,0.1-1.2,0.4-1.7l0,0h6   l2.2-5.4h3.3l2.2-5.4h3.4l2.7-6.9H45.6z M3.7,31.8l-1.6-4h17.2c-0.5,0.6-0.7,1.4-0.7,2.2v1.8H3.7z M9.2,37.2l-1.6-4h10.9v4H9.2z    M20.1,42.7h-5.4l-1.6-4h5.4V40c0,1,0.5,1.9,1.3,2.4L20.1,42.7z M28.8,26.3h-3.7v-1.9c0-0.9,0.8-1.7,1.7-1.7c1.1,0,2,0.9,2,2V26.3z    M33.9,31.5c0,1-0.8,1.8-1.8,1.8c-1,0-1.8-0.8-1.8-1.8c1.7-0.9,2.5-2.7,2.5-4.5v-0.7h-2.5v-1.7v-0.1c0-1,0.8-1.8,1.8-1.8   c1,0,1.8,0.8,1.8,1.8V31.5z M39,25.4v6.1c0,1-0.8,1.8-1.8,1.8c-1,0-1.8-0.8-1.8-1.8v-7c0-1,0.8-1.8,1.8-1.8c1,0,1.8,0.8,1.8,1.8   V25.4z M44.1,29.2v2.3c0,1-0.8,1.8-1.8,1.8s-1.8-0.8-1.8-1.8v-6.1c0-1,0.8-1.8,1.8-1.8c1,0,1.8,0.8,1.8,1.8V29.2z M49.3,42.7H45   l0.2-0.4c0.3-0.6,0.4-1.2,0.4-1.9v-1.7h5.3L49.3,42.7z M54.8,37.2h-9.2v-4h10.8L54.8,37.2z M60.3,31.8H45.6v-4h16.3L60.3,31.8z"/><rect height="6.9" transform="matrix(0.5001 0.866 -0.866 0.5001 44.0797 -35.1766)" width="1.4" x="51.8" y="17.1"/><rect height="6.9" transform="matrix(0.866 0.5001 -0.5001 0.866 12.0964 -20.4746)" width="1.4" x="43.5" y="8.9"/><rect height="6.9" width="1.5" x="32.2" y="5.9"/><rect height="1.4" transform="matrix(0.4999 0.8661 -0.8661 0.4999 21.5243 -12.6155)" width="6.9" x="18.2" y="11.6"/><rect height="1.4" transform="matrix(0.866 0.5 -0.5 0.866 12.093 -3.9559)" width="6.9" x="10" y="19.9"/></g></svg>