<?xml version="1.0" ?><!DOCTYPE svg  PUBLIC '-//W3C//DTD SVG 1.1//EN'  'http://www.w3.org/Graphics/SVG/1.1/DTD/svg11.dtd'><svg enable-background="new 0 0 64 64" id="Layer_1" version="1.1" viewBox="0 0 64 64" xml:space="preserve" xmlns="http://www.w3.org/2000/svg" xmlns:xlink="http://www.w3.org/1999/xlink"><g><rect height="5.8" width="1.5" x="31.6" y="0"/><rect height="1.5" transform="matrix(0.5 0.866 -0.866 0.5 15.0794 -13.1055)" width="5.8" x="16" y="5.8"/><rect height="1.5" transform="matrix(0.866 0.5 -0.5 0.866 9.3792 -2.3456)" width="5.8" x="6.2" y="15.6"/><rect height="5.8" transform="matrix(0.5 0.866 -0.866 0.5 41.9125 -39.9412)" width="1.5" x="54.8" y="13.4"/><rect height="5.8" transform="matrix(0.866 0.5001 -0.5001 0.866 9.3812 -21.9938)" width="1.5" x="45" y="3.6"/><rect height="1.7" width="1.5" x="52.3" y="60.2"/><rect height="1.7" width="1.5" x="49.4" y="60.2"/><path d="M62.6,24.9c-0.7-0.6-1.7-0.9-2.9-0.7c-1.6,0.3-2.6,1.8-2.6,4v11h1.5v-11c0-1.4,0.5-2.4,1.4-2.5c0.5-0.1,1.1-0.1,1.6,0.3   c0.5,0.4,0.7,1.2,0.7,2.2v16.6c0,1.1-0.4,2.1-1.2,2.8l-6.7,6.7c-0.7,0.7-1,1.5-1,2.5v0.5H42v-4.6c0-1.2,0.5-2.4,1.4-3.2l8.9-8.6   c0.4-0.4,0.9-0.6,1.4-0.6c0.5,0,1,0.2,1.4,0.6c0.8,0.8,0.7,2,0,2.8l-4.2,4.1l1,1.1l4.2-4.1c0.7-0.6,1-1.5,1.1-2.4   c0-0.9-0.3-1.8-1-2.5c-0.6-0.7-1.5-1-2.4-1.1c-0.9,0-1.8,0.3-2.5,1l-8.9,8.6c-1.2,1.1-1.8,2.7-1.8,4.3v4.6h-2V64H40v-5.2h15.6V64   h1.5v-6.7H55v-0.5c0-0.5,0.2-1,0.6-1.4l6.7-6.7c1-1,1.6-2.4,1.6-3.9V28.2C63.9,26.4,63.2,25.4,62.6,24.9z"/><rect height="1.7" width="1.5" x="10.2" y="60.2"/><rect height="1.7" width="1.5" x="13.1" y="60.2"/><path d="M24,64h1.5v-6.7h-2v-4.6c0-1.6-0.7-3.2-1.8-4.3l-8.9-8.6c-0.7-0.6-1.5-1-2.5-1c-0.9,0-1.8,0.4-2.4,1.1   c-1.3,1.4-1.3,3.6,0.1,4.9l4.2,4.1l1-1.1L9,43.6c-0.8-0.8-0.8-2,0-2.8c0.4-0.4,0.9-0.6,1.4-0.6c0.5,0,1,0.2,1.4,0.6l8.9,8.6   c0.9,0.8,1.4,2,1.4,3.2v4.6H10.5v-0.5c0-0.9-0.4-1.8-1-2.5l-6.7-6.7c-0.7-0.7-1.2-1.8-1.2-2.8V28.2c0-1,0.3-1.8,0.7-2.2   c0.5-0.4,1.2-0.4,1.6-0.3c0.8,0.1,1.4,1.1,1.4,2.5v11h1.5v-11c0-2.2-1-3.7-2.6-4c-1.1-0.2-2.1,0.1-2.9,0.7   c-0.6,0.5-1.3,1.5-1.3,3.3v16.6c0,1.5,0.6,2.8,1.6,3.9l6.7,6.7C8.8,55.8,9,56.3,9,56.8v0.5H6.9V64h1.5v-5.2H24V64z"/><path d="M31.9,42.6l0.4,0.2l0.4-0.2c0.7-0.4,16.6-9.5,16.6-21.3c0-5.3-4.3-9.5-9.5-9.5c-2.9,0-5.6,1.3-7.4,3.5   c-1.8-2.2-4.5-3.5-7.4-3.5c-5.3,0-9.5,4.3-9.5,9.5C15.4,33.1,31.3,42.2,31.9,42.6z M24.9,13.3c2.7,0,5.3,1.4,6.8,3.7l0.6,1l0.6-1   c1.5-2.3,4-3.7,6.8-3.7c4.4,0,8,3.6,8,8c0,10-13.1,18.3-15.4,19.8c-2.4-1.4-15.4-9.8-15.4-19.8C16.9,16.9,20.5,13.3,24.9,13.3z"/></g></svg>