<?xml version="1.0" ?><svg id="Layer_1" style="enable-background:new 0 0 512 512;" version="1.0" viewBox="0 0 512 512" xml:space="preserve" xmlns="http://www.w3.org/2000/svg" xmlns:xlink="http://www.w3.org/1999/xlink"><style type="text/css">
	.st0{fill:none;}
</style><g><path d="M256,222.5l12.1,26.8l25.5,2.2l-18.8,18.6l5,28.5L256,285.7l-23.8,12.9l5-28.5l-18.8-18.6l25.5-2.2L256,222.5 M256,176   l-17.5,38.5l-7.5,16.5l-14.3,1.3l-41.4,3.6l29.6,29.2l11.7,11.5l-3.2,18.6l-6.8,39.1l34.9-18.9l14.6-7.9l14.6,7.9l34.9,18.9   l-6.8-39.1l-3.2-18.6l11.7-11.5l29.6-29.2l-41.4-3.6l-14.3-1.3l-7.5-16.5L256,176L256,176z"/></g><g><path d="M256,96.3c15.5,15.5,42.1,33.8,81,33.8c25.9,0,46.5-7.2,61.8-15.9l0,160.7c0,24-6.6,46.5-19,65   c-23.6,35.2-57.2,58.5-81.2,71.9c-18.7,10.4-34.7,16.6-42.7,19.4c-19.1-6.7-84.8-33.1-123.8-91.4c-12.4-18.5-19-41-19-65V114.3   c15.3,8.7,35.9,15.9,61.8,15.9C213.9,130.2,240.5,111.8,256,96.3 M256,65.9c0,0-25.7,45-81,45c-55.3,0-81-38.2-81-38.2v202.1   c0,26.8,7.3,53.4,22.2,75.7C166.4,425.5,256,451.5,256,451.5s89.6-25.9,139.8-100.9c14.9-22.3,22.2-48.9,22.2-75.7l0-202.1   c0,0-25.7,38.2-81,38.2C281.7,111,256,65.9,256,65.9L256,65.9z"/></g><rect class="st0" height="512" width="512" x="1" y="0"/></svg>