<?xml version="1.0" encoding="utf-8"?>
<!-- Generator: Adobe Illustrator 19.0.0, SVG Export Plug-In . SVG Version: 6.00 Build 0)  -->
<svg version="1.1" id="Layer_1" xmlns="http://www.w3.org/2000/svg" xmlns:xlink="http://www.w3.org/1999/xlink" x="0px" y="0px"
	 viewBox="0 0 601 366.8" style="enable-background:new 0 0 601 366.8;" xml:space="preserve">
<style type="text/css">
	.st0{filter:url(#Adobe_OpacityMaskFilter);}
	.st1{filter:url(#Adobe_OpacityMaskFilter_1_);}
	.st2{mask:url(#Path_1_1_);fill:url(#Path_1_3_);}
	.st3{opacity:0.5;fill:url(#Path_1_4_);enable-background:new    ;}
	.st4{opacity:0.5;fill:#CFD8EE;enable-background:new    ;}
	.st5{fill:#B1B2D9;}
	.st6{fill:url(#Rectangle_2_1_);}
	.st7{fill:#5670A6;}
	.st8{fill:#CFD8EE;}
	.st9{fill:#F16382;}
	.st10{fill:#FEC414;}
	.st11{fill:#36B990;}
	.st12{fill:#F3F7FC;}
	.st13{fill:#DCE3F3;}
	.st14{fill:url(#Hair_1_);}
	.st15{fill:#6065A3;}
	.st16{fill:#FFFFFF;}
	.st17{fill:#2C152C;}
	.st18{fill:#1D2554;}
	.st19{fill:#FAC09D;}
	.st20{fill:#801437;}
	.st21{fill:#F19482;}
	.st22{fill:#C72D42;}
	.st23{fill:#10A074;}
	.st24{fill:#BCE2D9;}
	.st25{fill:url(#Path_69_1_);}
	.st26{filter:url(#Adobe_OpacityMaskFilter_2_);}
	.st27{filter:url(#Adobe_OpacityMaskFilter_3_);}
	.st28{mask:url(#Path_78_1_);fill:url(#Path_78_3_);}
	.st29{fill:#525799;}
	.st30{filter:url(#Adobe_OpacityMaskFilter_4_);}
	.st31{filter:url(#Adobe_OpacityMaskFilter_5_);}
	.st32{mask:url(#Path_83_1_);fill:url(#Path_83_3_);}
	.st33{fill:#2D3549;}
	.st34{fill:#424F6F;}
	.st35{fill:#B7C0E2;}
	.st36{fill:none;stroke:#FFFFFF;stroke-linecap:round;stroke-miterlimit:10;}
	.st37{fill:#36405A;}
	.st38{fill:#DF7B26;}
	.st39{fill:#F69C20;}
	.st40{fill:url(#Ellipse_16_1_);}
	.st41{filter:url(#Adobe_OpacityMaskFilter_6_);}
	.st42{filter:url(#Adobe_OpacityMaskFilter_7_);}
	.st43{mask:url(#Path_128_1_);fill:url(#Path_128_3_);}
	.st44{filter:url(#Adobe_OpacityMaskFilter_8_);}
	.st45{filter:url(#Adobe_OpacityMaskFilter_9_);}
	.st46{mask:url(#Path_129_1_);fill:url(#Path_129_3_);}
	.st47{filter:url(#Adobe_OpacityMaskFilter_10_);}
	.st48{filter:url(#Adobe_OpacityMaskFilter_11_);}
	.st49{mask:url(#Path_88_1_);fill:url(#Path_88_3_);}
	.st50{opacity:0.5;fill:url(#Path_88_4_);enable-background:new    ;}
	.st51{fill:#8F9BC1;}
</style>
<g>
	<defs>
		<filter id="Adobe_OpacityMaskFilter" filterUnits="userSpaceOnUse" x="1" y="327.8" width="600" height="39">
			<feFlood  style="flood-color:white;flood-opacity:1" result="back"/>
			<feBlend  in="SourceGraphic" in2="back" mode="normal"/>
		</filter>
	</defs>
	<mask maskUnits="userSpaceOnUse" x="1" y="327.8" width="600" height="39" id="Path_1_1_">
		<g class="st0">
			<defs>
				<filter id="Adobe_OpacityMaskFilter_1_" filterUnits="userSpaceOnUse" x="1" y="327.8" width="600" height="39">
					<feFlood  style="flood-color:white;flood-opacity:1" result="back"/>
					<feBlend  in="SourceGraphic" in2="back" mode="normal"/>
				</filter>
			</defs>
			<mask maskUnits="userSpaceOnUse" x="1" y="327.8" width="600" height="39" id="Path_1_1_">
				<g class="st1">
				</g>
			</mask>
			
				<linearGradient id="Path_1_3_" gradientUnits="userSpaceOnUse" x1="-381.5016" y1="567.2928" x2="-381.5016" y2="566.1483" gradientTransform="matrix(600.002 0 0 -52 229202.7188 29806.9141)">
				<stop  offset="0" style="stop-color:#FFFFFF"/>
				<stop  offset="1" style="stop-color:#000000"/>
			</linearGradient>
			<path id="Path_1_2_" class="st2" d="M601,329.3c-0.1,0.1-0.2,0.1-0.3,0.2c-29.8,21.3-152.6,37.3-299.7,37.3s-269.9-16-299.7-37.3
				c-0.1-0.1-0.2-0.1-0.3-0.2c9.5-0.8,140.2-1.5,300-1.5S591.5,328.5,601,329.3z"/>
		</g>
	</mask>
	
		<linearGradient id="Path_1_4_" gradientUnits="userSpaceOnUse" x1="-381.5016" y1="567.2928" x2="-381.5016" y2="566.1483" gradientTransform="matrix(600.002 0 0 -52 229202.7188 29806.9141)">
		<stop  offset="0" style="stop-color:#CFD8EE"/>
		<stop  offset="1" style="stop-color:#CFD8EE"/>
	</linearGradient>
	<path id="Path_1" class="st3" d="M601,329.3c-0.1,0.1-0.2,0.1-0.3,0.2c-29.8,21.3-152.6,37.3-299.7,37.3s-269.9-16-299.7-37.3
		c-0.1-0.1-0.2-0.1-0.3-0.2c9.5-0.8,140.2-1.5,300-1.5S591.5,328.5,601,329.3z"/>
	<path id="Path_2" class="st4" d="M601,330c0,0.2-0.3,0.3-0.8,0.4c-11.6,3-141.3,5.4-299.7,5.4s-288-2.4-299.7-5.4
		C0.3,330.2,0,330.1,0,330c0-0.2,0.2-0.2,0.6-0.4c9.5-3,140.2-5.4,300-5.4s290.5,2.4,299.9,5.4C600.8,329.7,601,329.8,601,330z"/>
	<path id="Path_11" class="st4" d="M426.7,253.2c0,6.2,0.8,12.4,2.3,18.4c22.9-24.7,38.2-55.3,44.4-88.4
		C445.1,195,426.7,222.6,426.7,253.2z"/>
	<g>
		<path id="Path_12" class="st4" d="M350.2,5l-11.3-4.8l-5.3,10.5c-3.7-0.7-7.5-0.7-11.2-0.1L317.3,0L306,4.6l3.7,11.2
			c-3.1,2.1-5.8,4.8-8,7.8l-11.1-3.9l-4.8,11.3l10.5,5.3c-0.7,3.7-0.7,7.5-0.1,11.2l-10.6,5.1l4.6,11.4l11.2-3.7
			c2.1,3.1,4.8,5.8,7.8,8l-3.9,11.1l11.3,4.8l5.3-10.5c3.7,0.7,7.5,0.7,11.2,0.1l5.1,10.6l11.4-4.6l-3.7-11.2c3.1-2.1,5.8-4.8,8-7.8
			l11.1,3.9l4.8-11.3l-10.5-5.3c0.7-3.7,0.7-7.5,0.1-11.2l10.6-5.1l-4.6-11.4l-11.2,3.7c-2.1-3.1-4.8-5.8-7.8-8L350.2,5z
			 M342.7,48.6c-3.5,8.3-13.1,12.1-21.4,8.6c-8.3-3.5-12.1-13.1-8.6-21.4c3.5-8.3,13.1-12.1,21.4-8.6l0,0
			C342.4,30.7,346.2,40.3,342.7,48.6C342.7,48.6,342.7,48.6,342.7,48.6z"/>
		<path id="Path_13" class="st4" d="M254.7,36.8h-8.9l-0.5,8.6c-2.7,0.6-5.2,1.6-7.5,3.1l-6.4-5.7l-6.3,6.3l5.7,6.4
			c-1.5,2.3-2.5,4.8-3.1,7.5l-8.6,0.5v8.9l8.6,0.5c0.6,2.7,1.6,5.2,3.1,7.5L225,87l6.3,6.3l6.4-5.7c2.3,1.5,4.8,2.5,7.5,3.1l0.5,8.6
			h8.9l0.5-8.6c2.7-0.6,5.2-1.6,7.5-3.1l6.4,5.7l6.3-6.3l-5.7-6.4c1.5-2.3,2.5-4.8,3.1-7.5l8.6-0.5v-8.9l-8.6-0.5
			c-0.6-2.7-1.6-5.2-3.1-7.5l5.7-6.4l-6.3-6.3l-6.4,5.7c-2.3-1.5-4.8-2.5-7.5-3.1L254.7,36.8z M262.1,68c0,6.5-5.3,11.8-11.8,11.8
			c-6.5,0-11.8-5.3-11.8-11.8c0-6.5,5.3-11.8,11.8-11.8l0,0l0,0C256.8,56.2,262.1,61.5,262.1,68L262.1,68z"/>
	</g>
	<g id="Monitor">
		<path id="Rectangle_1" class="st5" d="M149.5,124h302.2c5.5,0,10,4.5,10,10v194.9l0,0H139.5l0,0V134
			C139.5,128.5,144,124,149.5,124z"/>
		
			<linearGradient id="Rectangle_2_1_" gradientUnits="userSpaceOnUse" x1="-381.2177" y1="568.1207" x2="-380.0437" y2="568.9927" gradientTransform="matrix(0 191.4 308.812 0 -175200.3281 73146.8672)">
			<stop  offset="0" style="stop-color:#F3F7FC"/>
			<stop  offset="1" style="stop-color:#CFD8EE"/>
		</linearGradient>
		<path id="Rectangle_2" class="st6" d="M455,146.1v176.1l0,0H146.2l0,0V146.1c0-8.4,6.8-15.3,15.3-15.3h0h278.3
			C448.2,130.8,455,137.7,455,146.1L455,146.1z"/>
		<g id="_404" transform="translate(82.315 55.535)">
			<path id="Path_14" class="st7" d="M191.3,166h-8.1v10.4h-15V166h-28.7v-10l24.4-33.9h15.9l-22.1,31.7h11v-9.2h14.5v9.2h8.1
				L191.3,166z"/>
			<path id="Path_15" class="st7" d="M194.4,149.3c0-17.9,10.1-28.2,24-28.2c13.8,0,23.9,10.3,23.9,28.2s-10.1,28.2-23.9,28.2
				C204.5,177.5,194.4,167.2,194.4,149.3z M226.8,149.3c0-11.4-3.6-15.7-8.5-15.7c-5,0-8.5,4.3-8.5,15.7c0,11.4,3.6,15.7,8.5,15.7
				C223.2,164.9,226.8,160.7,226.8,149.3z"/>
			<path id="Path_16" class="st7" d="M298.7,166h-8.1v10.4h-15V166H247v-10l24.4-33.9h15.9l-22.1,31.7h11v-9.2h14.5v9.2h8.1
				L298.7,166z"/>
		</g>
		<path id="Path_17" class="st8" d="M448.1,130.8h-295c-3.8,0-6.9,3.1-6.9,6.9v9.9H455v-9.9C455,133.9,451.9,130.8,448.1,130.8z"/>
		<g id="Group_4" transform="translate(20.224 12.062)">
			<circle id="Ellipse_1" class="st9" cx="142.7" cy="127.2" r="3.1"/>
			<circle id="Ellipse_2" class="st10" cx="154.2" cy="127.2" r="3.1"/>
			<circle id="Ellipse_3" class="st11" cx="165.8" cy="127.2" r="3.1"/>
		</g>
		<path id="Rectangle_3" class="st12" d="M219.9,135.9h161.5c1.9,0,3.4,1.5,3.4,3.4l0,0c0,1.9-1.5,3.4-3.4,3.4H219.9
			c-1.9,0-3.4-1.5-3.4-3.4l0,0C216.5,137.4,218,135.9,219.9,135.9z"/>
		<path id="Rectangle_4" class="st12" d="M404.6,135.9h34.6c1.9,0,3.4,1.5,3.4,3.4l0,0c0,1.9-1.5,3.4-3.4,3.4h-34.6
			c-1.9,0-3.4-1.5-3.4-3.4l0,0C401.2,137.4,402.7,135.9,404.6,135.9z"/>
	</g>
	<path id="Path_18" class="st13" d="M482.5,67.9c2-3.4,0.9-7.8-2.4-9.8c-1.1-0.7-2.4-1-3.7-1c0-7.9-6.4-14.3-14.3-14.3
		c-7.9,0-14.3,6.4-14.3,14.3l0,0c-3.9,0-7.1,3.2-7.1,7.1c0,1.3,0.3,2.6,1,3.7c-9.7,0.5-16,1.3-16,2.2c0,1.5,16.3,2.6,36.4,2.6
		c20.1,0,36.4-1.2,36.4-2.6C498.5,69.2,492.2,68.4,482.5,67.9z"/>
	<path id="Path_19" class="st13" d="M557.8,138c1.2-2,0.6-4.6-1.5-5.8c-0.7-0.4-1.4-0.6-2.2-0.6c0-4.7-3.8-8.5-8.5-8.5
		c-4.7,0-8.5,3.8-8.5,8.5c-2.3,0-4.2,1.9-4.2,4.2c0,0.8,0.2,1.5,0.6,2.2c-5.7,0.3-9.5,0.8-9.5,1.3c0,0.9,9.7,1.6,21.6,1.6
		c11.9,0,21.6-0.7,21.6-1.6C567.3,138.8,563.5,138.3,557.8,138z"/>
	<path id="Path_20" class="st13" d="M66,163c0.9-1.5,0.4-3.4-1.1-4.2c-0.5-0.3-1-0.4-1.6-0.4c0-3.4-2.8-6.2-6.2-6.2
		c-3.4,0-6.2,2.8-6.2,6.2c-1.7,0-3.1,1.4-3.1,3.1c0,0.6,0.2,1.1,0.4,1.6c-4.2,0.2-6.9,0.6-6.9,0.9c0,0.6,7.1,1.1,15.8,1.1
		S73,164.6,73,164C73,163.6,70.2,163.2,66,163z"/>
	<path id="Path_21" class="st13" d="M127.9,92.1c1.4-2.4,0.7-5.4-1.7-6.9c-0.8-0.5-1.7-0.7-2.6-0.7c0-5.5-4.5-10-10-10
		c-5.5,0-10,4.5-10,10c-2.8,0-5,2.2-5,5c0,0.9,0.2,1.8,0.7,2.6C92.5,92.4,88,93,88,93.6c0,1,11.4,1.8,25.5,1.8
		c14.1,0,25.5-0.8,25.5-1.8C139.1,93,134.7,92.4,127.9,92.1z"/>
	<g id="Woman" transform="translate(644.732 395.734)">
		
			<linearGradient id="Hair_1_" gradientUnits="userSpaceOnUse" x1="-1026.2343" y1="170.6264" x2="-1026.2343" y2="171.3494" gradientTransform="matrix(58.7129 0 0 -60.6997 59911.1875 10260.877)">
			<stop  offset="0" style="stop-color:#2C152C"/>
			<stop  offset="1" style="stop-color:#801437"/>
		</linearGradient>
		<path id="Hair" class="st14" d="M-365.2-87.1c0,0-7.7-5.7-5.8-17.4c1.9-11.7,13.5-7.6,14.2-20.3c0.7-12.7,4.6-20.1,13-20.7
			c8.5-0.5,9.8,4.9,9.8,4.9s4.2-3.3,7.8,1.9c3.7,5.2-0.9,17.1,7.6,24c8.6,6.9,7.6,19.6-1.3,26.5C-328.7-81.4-365.2-87.1-365.2-87.1z
			"/>
		<g id="Body" transform="translate(0 34.078)">
			<ellipse id="Ellipse_4" class="st4" cx="-344.1" cy="-81.6" rx="45" ry="4.8"/>
			<g id="Body-2" transform="translate(21.701)">
				<path id="Path_24" class="st15" d="M-342.4-144.3c-2.5-1.4-5.2-2.5-8-3.2c-2-0.5-4.1-1-6.2-1.3h-11.7c-2.1,0.3-4.1,0.8-6.2,1.3
					c-2.8,0.7-5.5,1.8-8,3.2c-5.2,3.2-6.8,29.7-6.7,33.7c0.1,4,10,8.9,11.3,9.4c5,1.5,10.2,2.3,15.4,2.3h0.1
					c5.2,0,10.4-0.8,15.4-2.3c1.3-0.5,11.2-5.4,11.3-9.4C-335.6-114.6-337.2-141.1-342.4-144.3z"/>
				<circle id="Ellipse_5" class="st16" cx="-362.1" cy="-135.7" r="0.9"/>
				<circle id="Ellipse_6" class="st16" cx="-362.1" cy="-124.8" r="0.9"/>
			</g>
			<g id="Legs" transform="translate(9.971 43.68)">
				<path id="Path_23" class="st17" d="M-365-143c0,0,1.8,11.3,15.6,8.5c13.7-2.8,10.1-10.2,9.8-10.4C-339.9-145.2-365-143-365-143z
					"/>
				<path id="Path_27" class="st18" d="M-377.1-147.9l36.2,18.2l-2,5.2l-39.4-9.5c-3.9-0.9-6.7-4.4-6.8-8.4c0-3.1,1.6-6.2,7.6-6.5
					C-380-148.9-378.5-148.6-377.1-147.9z"/>
				<path id="Path_28" class="st18" d="M-342.9-124.5l3.3,0.8c0,0,1.4,2.2,6.7,2.7c5.3,0.6,8.7-1.3,8.7-4.5c0-3.2-2.6-2.3-6.5-1.9
					c-2.2,0.1-4.3-0.2-6.4-0.9c-1.3-0.4-2.6-0.9-3.9-1.4L-342.9-124.5z"/>
				<path id="Path_29" class="st19" d="M-342.9-124.5l3.3,0.8c0,0,2.6-0.3,2.6-4.6c-1.3-0.4-2.6-0.9-3.9-1.4L-342.9-124.5z"/>
				<path id="Path_30" class="st20" d="M-338-124.7c1.3,0.6,2.6,0.9,4,1.1c4,0.5,4.6-1,2.6-1.6c-1.3-0.4-3.9-1-5.7-1.5
					C-337.3-126-337.6-125.3-338-124.7z"/>
				<path id="Path_31" class="st18" d="M-327.5-147.9l-36.2,18.2l2,5.2l39.4-9.5c3.9-0.9,6.7-4.4,6.8-8.4c0-3.1-1.6-6.2-7.6-6.5
					C-324.7-148.9-326.2-148.6-327.5-147.9z"/>
				<path id="Path_32" class="st18" d="M-361.7-124.5l-3.3,0.8c0,0-1.4,2.2-6.7,2.7c-5.3,0.6-8.7-1.3-8.7-4.5c0-3.2,2.6-2.3,6.5-1.9
					c2.2,0.1,4.3-0.2,6.4-0.9c1.3-0.4,2.6-0.9,3.9-1.4L-361.7-124.5z"/>
				<path id="Path_33" class="st19" d="M-361.7-124.5l-3.3,0.8c0,0-2.6-0.3-2.6-4.6c1.3-0.4,2.6-0.9,3.9-1.4L-361.7-124.5z"/>
				<path id="Path_34" class="st20" d="M-366.6-124.7c-1.3,0.6-2.6,0.9-4,1.1c-4,0.5-4.6-1-2.6-1.6c1.3-0.4,3.9-1,5.7-1.5
					C-367.3-126-367.1-125.3-366.6-124.7z"/>
			</g>
			<g id="Laptop" transform="translate(29.628 29.889)">
				<path id="Rectangle_5" class="st8" d="M-383.7-148.8h26.8c3,0,5.4,2.4,5.4,5.4l0,0v18.1l0,0h-37.6l0,0v-18.1
					C-389.1-146.4-386.7-148.8-383.7-148.8z"/>
				<circle id="Ellipse_7" class="st12" cx="-370.3" cy="-137.1" r="3.5"/>
			</g>
			<g id="Collar" transform="translate(36.399)">
				<path id="Path_25" class="st16" d="M-377.1-148.8v6.5l-1.7,3.7c-0.2,0.5-0.9,0.8-1.4,0.5c-0.1-0.1-0.2-0.1-0.3-0.2l-8.6-9.2
					c2-0.5,4.1-1,6.2-1.3L-377.1-148.8z"/>
				<path id="Path_26" class="st16" d="M-377.1-148.8v6.5l1.7,3.7c0.2,0.5,0.9,0.8,1.4,0.5c0.1-0.1,0.2-0.1,0.3-0.2l8.6-9.2
					c-2-0.5-4.1-1-6.2-1.3L-377.1-148.8z"/>
			</g>
		</g>
		<g id="Head" transform="translate(32.522)">
			<g id="Head-2" transform="translate(4.074 15.246)">
				<path id="Path_35" class="st19" d="M-368.3-140c0,0-0.5,4.8-3.3,7.9v2.3l-5.7,6.2l-5.9-6.5v-2c0,0-2.5-2-3.2-8.1
					c0,0-3.1,0.3-2.7-2.8c0.4-3.1,2.9-2.2,2.9-2.2s1.3,3.4,6.2,3.5c4.9,0.1,11.7-7.2,11.7-7.2v4c0.7-0.8,1.9-0.9,2.7-0.2
					c0.2,0.2,0.4,0.4,0.5,0.7C-363.6-142-368.3-140-368.3-140z"/>
				<path id="Path_36" class="st21" d="M-371.5-132.1v2.3l-5.7,6.2l-5.9-6.5v-2c1.3,1.7,3.3,2.7,5.5,2.7
					C-375.4-129.5-373.2-130.4-371.5-132.1z"/>
			</g>
			<g id="Headset">
				<g id="Group_9" transform="translate(1.699)">
					<path id="Path_37" class="st17" d="M-374.9-148.8c-7.8,0-14.2,6.6-14.2,14.7c0,0.5,0,0.9,0.1,1.4c0.3,3.2,1.6,6.3,3.8,8.7
						c0.4,0.5,0.9,0.9,1.4,1.3v-2.6c-0.5-0.6-1-1.2-1.4-1.8c-1.1-1.7-1.8-3.7-2-5.8c0-0.4-0.1-0.8-0.1-1.2
						c-0.3-6.8,5.1-12.6,11.9-12.8c6.8-0.3,12.6,5.1,12.8,11.9c0,0.3,0,0.6,0,0.9c0,0.4,0,0.8-0.1,1.2c-0.2,2-0.8,3.9-1.9,5.6
						c-0.4,0.7-0.9,1.3-1.4,1.8v2.6c0.5-0.4,0.9-0.9,1.4-1.3c2.1-2.4,3.4-5.4,3.7-8.6c0-0.4,0.1-0.9,0.1-1.3
						C-360.7-142.2-367.1-148.8-374.9-148.8z"/>
				</g>
				<g id="Group_10" transform="translate(0 16.402)">
					<rect id="Rectangle_6" x="-383.5" y="-148.8" class="st16" width="1.4" height="11"/>
					<path id="Rectangle_7" class="st22" d="M-383.6-148.8h0.1l0,0v11l0,0h-0.1c-3,0-5.5-2.5-5.5-5.5l0,0
						C-389.1-146.4-386.7-148.8-383.6-148.8z"/>
				</g>
				<g id="Group_11" transform="translate(24.901 16.402)">
					<rect id="Rectangle_8" x="-389.1" y="-148.8" class="st16" width="1.4" height="11"/>
					<path id="Rectangle_9" class="st22" d="M-387.6-137.8h-0.1l0,0v-11l0,0h0.1c3,0,5.5,2.5,5.5,5.5l0,0
						C-382.1-140.3-384.6-137.8-387.6-137.8z"/>
				</g>
			</g>
		</g>
		<g id="Question_Mark" transform="translate(76.53 10.503)">
			<path id="Path_38" class="st22" d="M-380.8-142.6c0.4-1.2-0.4-2.2-2-2.7c-1.4-0.5-2.9-0.2-4,0.7l-2.3-2.6
				c1.9-1.5,4.5-2.1,7.7-1.1c3.6,1.1,5.5,3.5,4.6,6.3c-1.2,3.8-5.3,3-6.1,5.5l-3.6-1.1C-385.4-141-381.5-140.6-380.8-142.6z
				 M-388.1-134c0.5-1.2,1.9-1.8,3.1-1.3c1.1,0.4,1.7,1.6,1.4,2.8c-0.5,1.2-1.8,1.9-3.1,1.4C-387.8-131.6-388.4-132.8-388.1-134z"/>
		</g>
	</g>
	<g id="Plant_2" transform="translate(450.632)">
		<g id="Group_13">
			<path id="Path_39" class="st23" d="M69.1,197c0,0,25.4,35.8-3.1,84.9c-6.6,6.2-49.5,22.7-56.7,29.5L6,266.5
				C6,266.5,11.7,208.9,69.1,197z"/>
			<path id="Path_40" class="st24" d="M38.6,281.5l1.1,0.7c0.2-0.4,22.8-36,23.7-70.1l-1.3,0C61.2,245.9,38.8,281.2,38.6,281.5z"/>
		</g>
		<g id="Group_14" transform="translate(3.185 60.443)">
			<path id="Path_41" class="st11" d="M99.6,209.1c0,0-6.3,43.5-60.8,59.3c-9.1-0.1-18.6-0.1-28.6-0.2L6,216
				C6,216,49.9,178.2,99.6,209.1z"/>
			<path id="Path_42" class="st23" d="M8.4,245.1c7.4-0.5,56-4.4,77.2-26.2l-0.9-0.9c-20.9,21.5-69.2,25.3-76.3,25.8L8.4,245.1z"/>
		</g>
	</g>
	<g id="Plant_1" transform="translate(0 1.907)">
		<path id="Path_43" class="st23" d="M141.5,257.8c0,0-34.6-15.8-40.7,11.2s-34.1,7.9-47.8,27.3s-10.8,31.8-32.4,31.8h119.2v-70.3"
			/>
		<g id="Group_15" transform="translate(0 53.135)">
			<path id="Path_44" class="st24" d="M64.1,274.9c0,0-60.9-17.5-58-59S62.2,204.5,64.1,274.9z"/>
			<path id="Path_45" class="st11" d="M64.1,274.9L64.1,274.9c0-0.3,0-0.6,0-1c-43.8-45.8-45.4-69.9-45.4-70.1l-1.3,0.1
				c0,1,1.6,24.6,45.5,70.7C63.7,274.8,64.1,274.9,64.1,274.9z"/>
		</g>
		<g id="Group_24" transform="translate(27.608 24.22)">
			<g id="Group_16" transform="translate(7.708 13.757)">
				<path id="Path_46" class="st10" d="M42.3,281.3l1.8-1.8c-0.1-0.1-8-8-16.3-22.1c-7.6-13-18.6-33.9-20.7-60.5L6,197
					c1.8,21.8,8.5,42.9,19.6,61.8C34.1,273.1,41.9,281,42.3,281.3z"/>
			</g>
			<g id="Group_23">
				<path id="Path_47" class="st10" d="M14.8,210.7c0,0,5.9-4.2-1.1-13.8c0,0-5.6,8.1,0,13.8L14.8,210.7z"/>
				<g id="Group_17" transform="translate(0 13.757)">
					<path id="Path_48" class="st10" d="M15,207.4c0,0,7.1,1.2,9-10.5C24,197,15.1,199.4,15,207.4z"/>
					<path id="Path_49" class="st10" d="M15,207.4c0,0-7.1,1.2-9-10.5C6,197,14.9,199.4,15,207.4z"/>
				</g>
				<g id="Group_18" transform="translate(1.499 23.984)">
					<path id="Path_50" class="st10" d="M16.3,208.5c0,0,7.2,0.2,7.5-11.6C23.8,197,15.4,200.5,16.3,208.5z"/>
					<path id="Path_51" class="st10" d="M16.3,208.5c0,0-6.9,2.1-10.3-9.2C6,199.3,15.1,200.6,16.3,208.5z"/>
				</g>
				<g id="Group_19" transform="translate(3.888 34.04)">
					<path id="Path_52" class="st10" d="M16.3,208.5c0,0,7.2,0.2,7.5-11.6C23.8,197,15.4,200.5,16.3,208.5z"/>
					<path id="Path_53" class="st10" d="M16.3,208.5c0,0-6.9,2.1-10.3-9.2C6,199.3,15.1,200.6,16.3,208.5z"/>
				</g>
				<g id="Group_20" transform="translate(6.81 43.599)">
					<path id="Path_54" class="st10" d="M17.9,209.7c0,0,7.1-1.1,5.2-12.8C23.1,197,15.4,202.1,17.9,209.7L17.9,209.7z"/>
					<path id="Path_55" class="st10" d="M17.9,209.7c0,0-6.4,3.4-11.8-7.1C6,202.6,15.2,202.1,17.9,209.7z"/>
				</g>
				<g id="Group_21" transform="translate(11.655 53.904)">
					<path id="Path_56" class="st10" d="M18,209.8c0,0,7.1-1.3,4.9-12.9C22.9,197,15.4,202.2,18,209.8z"/>
					<path id="Path_57" class="st10" d="M18,209.8c0,0-6.3,3.5-12-6.9C6,203,15.2,202.3,18,209.8z"/>
				</g>
				<g id="Group_22" transform="translate(18.105 66.357)">
					<path id="Path_58" class="st10" d="M18.4,210.1c0,0,7-1.7,4.2-13.2C22.6,197,15.4,202.7,18.4,210.1L18.4,210.1z"/>
					<path id="Path_59" class="st10" d="M18.4,210.1c0,0-6.1,3.9-12.4-6.2C6,204,15.1,202.7,18.4,210.1z"/>
				</g>
			</g>
		</g>
		<g id="Group_26" transform="translate(53.692)">
			<path id="Path_60" class="st11" d="M29.6,327.2c0,0-21-17.1-7.2-34c13.8-16.8-26.6-32-13.8-49.2S-4.2,198.4,16,197
				c20.2-1.4,26.3,13.5,17.3,28.5c-9,15,23.3,24,16.3,51.1C42.6,303.8,25.9,304.7,29.6,327.2z"/>
			<g id="Group_25" transform="translate(13.225 13.519)">
				<path id="Path_61" class="st24" d="M15.8,314c-0.1-0.1-9-12.7-0.1-31c8.9-18.2,4.2-36.4-3.8-45.6c-8.5-9.7-6.6-33.1-2-40.5
					l1.1,0.7c-4.3,6.9-6.1,29.8,1.9,39c8.3,9.6,13.2,28.4,4,47c-8.6,17.5-0.1,29.5-0.1,29.6L15.8,314z"/>
			</g>
		</g>
	</g>
	<g id="Man_2" transform="translate(822.949 306.127)">
		<g id="Head-3" transform="translate(27.798)">
			
				<linearGradient id="Path_69_1_" gradientUnits="userSpaceOnUse" x1="-1231.9783" y1="257.3104" x2="-1232.6853" y2="258.1174" gradientTransform="matrix(20.1003 0 0 -21.0913 24389.1816 5292.5669)">
				<stop  offset="0" style="stop-color:#2C152C"/>
				<stop  offset="1" style="stop-color:#801437"/>
			</linearGradient>
			<path id="Path_69" class="st25" d="M-375-127.7c1.2-1.5,2.5-3,4-4.3c2.3-2.2,2.7-5.9,0.8-8.5c-1.4-1.7-2.5-1-2.5-1
				s0.5-4.2-3.4-4.2c-3.9,0-4-1.1-5-1.2s-1.9,0.6-3.6,0.4c-1.7-0.2-1.5-2.2-3.1-2.3c-1.6,0-1.6,3.9-0.6,7c1,3.1,4.8,5.3,4.8,5.3
				L-375-127.7z"/>
			<path id="Path_70" class="st19" d="M-383.2-122.1v-2.6c0,0-2.7,0.1-2.9-2.3c-0.1-2.4,1-13.5,1-13.5c1.8,0.4,3.6,0.7,5.4,0.8
				c2.8,0.2,3.7-0.7,4.1-0.3c0.5,0.4-0.3,4.6,0.8,5.7c0,0,1.4-1.4,2.2,0.1c0.6,1.3,0,2.7-1.2,3.3c-0.1,0.1-0.3,0.1-0.5,0.2
				c0,0-0.1,2.7-0.4,4.7c-0.2,1.5-0.3,2.9-0.3,4.4c0.5,1.2,0,2.5-1.1,3.1c-0.2,0.1-0.3,0.1-0.5,0.2c-2.6,0.8-7.6-0.5-7.6-0.5
				L-383.2-122.1z"/>
			<path id="Path_72" class="st21" d="M-380-137.1l-5.6,2.6c-0.2,2.1-0.4,4.4-0.4,5.9l4-3.6c0,0,3.1-0.4,3.4-2.4
				C-378.4-135.7-379-136.8-380-137.1z"/>
			<path id="Path_73" class="st21" d="M-381.6-118.9l3.7-7c-1.6,0.9-3.4,1.3-5.2,1.2v2.6l-0.6,2L-381.6-118.9z"/>
		</g>
		<g id="Legs-2" transform="translate(13.792 83.798)">
			<path id="Path_71" class="st18" d="M-382.3-147.7c0,0,0.2,20.6,1.4,43.9c1.2,23.3,3.3,35.4,3.3,35.4h4.6c0,0,4.1-26.9,6.1-50
				s1.8-28.1,1.8-28.1L-382.3-147.7z"/>
			<path id="Path_75" class="st18" d="M-370.4-148.8c0,0,4.3,50.2,9.8,80.4h4.9c0,0,2.9-44.6,4.6-58.2s0-21.1,0-21.1L-370.4-148.8z"
				/>
			<path id="Path_84" class="st18" d="M-377.6-68.4v1.9l-11.5,5.4h16.1v-7.4L-377.6-68.4z"/>
			<path id="Path_85" class="st18" d="M-360.6-68.4v1.9l-11.3,5.4h16.1v-7.4H-360.6z"/>
		</g>
		<g id="Body-3" transform="translate(0 8.286)">
			<path id="Path_63" class="st21" d="M-335.9-82.3c-0.3,0.5-0.7,0.8-1.3,0.9c-0.9,0.2-0.9,2.6,0.5,2.7c1.4,0.1,2.7-1.5,2.7-1.5
				l-0.8-2.5L-335.9-82.3z"/>
			<path id="Path_64" class="st19" d="M-369.6-140.8c-0.4,0.8-1,1.6-1.7,2.2c-0.9,0.6-1.6,0.5-2,0.8c-0.3,0.5-0.5,1-0.5,1.6
				l-4.6-1.2l1.2-3.4l6.7-1.7L-369.6-140.8z"/>
			<path id="Path_67" class="st19" d="M-375-148c0,0,1.6,0.8,2.3,0.5c0.7-0.3,1.5,0.8,2.3,0.7c0.8-0.2,0.2-1.1-0.7-1.6
				c-0.9-0.4-1-0.2-2.2-0.3S-375-148.7-375-148z"/>
			<path id="Path_76" class="st15" d="M-330.2-98.5c0.7-3.2-6.2-7.6-6.2-7.6s-0.8,18-0.7,23.4c0.1,4,0.3,7.5,0.4,9.1
				c0,0.4,0.3,0.8,0.6,1c0,0,0,0,0.1,0c0.6,0.4,0.7,1.2,0.3,1.8c-0.2,0.3-0.5,0.5-0.9,0.5c-5.8,0.7-11.7,1-17.6,0.9
				c-13.2,0-17-1.3-14.7-4.6c0.6-6.2,0.9-12.4,0.9-18.6c0.1-12.2,0.1-22.6,0.1-22.6s-9.6,2.8-15.6,2.8c-6,0-5.9-3-5.4-5.9
				c0.5-2.9,9.8-20.3,9.8-20.3l5.9,1.8c0,0-3.5,11.1-3.5,12.4c0.1,1.2,6.5-1.6,9.7-3.3c0.4-0.2,0.8-0.4,1.2-0.6
				c0.2-0.1,0.4-0.2,0.6-0.3c1.6-0.9,3-1.5,6.7-1.7c0.2,0,0.4,0,0.7,0c0.3,0,0.7,0,1.1,0c0.2,0,0.4,0,0.7,0c0.2,0,0.4,0,0.6,0
				c0,0,0.5,2.5,3.9,2.6c3.3,0.1,4.4-2.1,4.4-2.1s0.6,0.2,1.7,0.5l0.7,0.2c3.1,1,6.1,2.2,8.9,3.8c4.1,2.6,13.2,16.1,15.1,21.5
				c1.9,5.4-9.5,25.1-9.5,25.1l-5.6-3.6C-335.9-82.3-330.9-95.3-330.2-98.5z"/>
			<defs>
				<filter id="Adobe_OpacityMaskFilter_2_" filterUnits="userSpaceOnUse" x="-345.7" y="-112" width="10.2" height="42.3">
					<feFlood  style="flood-color:white;flood-opacity:1" result="back"/>
					<feBlend  in="SourceGraphic" in2="back" mode="normal"/>
				</filter>
			</defs>
			<mask maskUnits="userSpaceOnUse" x="-345.7" y="-112" width="10.2" height="42.3" id="Path_78_1_">
				<g class="st26">
					<defs>
						<filter id="Adobe_OpacityMaskFilter_3_" filterUnits="userSpaceOnUse" x="-345.7" y="-112" width="10.2" height="42.3">
							<feFlood  style="flood-color:white;flood-opacity:1" result="back"/>
							<feBlend  in="SourceGraphic" in2="back" mode="normal"/>
						</filter>
					</defs>
					<mask maskUnits="userSpaceOnUse" x="-345.7" y="-112" width="10.2" height="42.3" id="Path_78_1_">
						<g class="st27">
						</g>
					</mask>
					
						<linearGradient id="Path_78_3_" gradientUnits="userSpaceOnUse" x1="-1201.2701" y1="251.682" x2="-1205.5601" y2="251.518" gradientTransform="matrix(10.1996 0 0 -42.336 11944.4316 10558.8428)">
						<stop  offset="0" style="stop-color:#FFFFFF"/>
						<stop  offset="1" style="stop-color:#000000"/>
					</linearGradient>
					<path id="Path_78_2_" class="st28" d="M-336-72.5L-336-72.5c-0.4-0.3-0.6-0.6-0.7-1.1c-0.1-1.5-0.3-5.1-0.4-9.1
						c-0.2-5.4,0.7-23.4,0.7-23.4l-9.3-5.9c0,0,5.3,17.8,5.9,25.2c0.6,7.4,0.4,8.5-1.2,10.1s0.1,4.4,1.8,3.9
						c1.6-0.5,2.8,2.7-2.6,3.2c2.4-0.2,4.2-0.4,5.3-0.5c0.7-0.1,1.2-0.7,1.1-1.4C-335.5-72-335.7-72.3-336-72.5z"/>
				</g>
			</mask>
			<path id="Path_78" class="st29" d="M-336-72.5L-336-72.5c-0.4-0.3-0.6-0.6-0.7-1.1c-0.1-1.5-0.3-5.1-0.4-9.1
				c-0.2-5.4,0.7-23.4,0.7-23.4l-9.3-5.9c0,0,5.3,17.8,5.9,25.2c0.6,7.4,0.4,8.5-1.2,10.1s0.1,4.4,1.8,3.9c1.6-0.5,2.8,2.7-2.6,3.2
				c2.4-0.2,4.2-0.4,5.3-0.5c0.7-0.1,1.2-0.7,1.1-1.4C-335.5-72-335.7-72.3-336-72.5z"/>
			<path id="Path_82" class="st19" d="M-335.2-81.9c-0.4,1-1,1.9-1.7,2.8c-1.1,1.2-3.4,2.8-2.7,3.9c0.7,1.2,3.8,0.9,5.8-0.2
				c1.4-0.9,2.4-2.2,3-3.7L-335.2-81.9z"/>
			<defs>
				<filter id="Adobe_OpacityMaskFilter_4_" filterUnits="userSpaceOnUse" x="-389.1" y="-122.7" width="21.2" height="10.4">
					<feFlood  style="flood-color:white;flood-opacity:1" result="back"/>
					<feBlend  in="SourceGraphic" in2="back" mode="normal"/>
				</filter>
			</defs>
			<mask maskUnits="userSpaceOnUse" x="-389.1" y="-122.7" width="21.2" height="10.4" id="Path_83_1_">
				<g class="st30">
					<defs>
						<filter id="Adobe_OpacityMaskFilter_5_" filterUnits="userSpaceOnUse" x="-389.1" y="-122.7" width="21.2" height="10.4">
							<feFlood  style="flood-color:white;flood-opacity:1" result="back"/>
							<feBlend  in="SourceGraphic" in2="back" mode="normal"/>
						</filter>
					</defs>
					<mask maskUnits="userSpaceOnUse" x="-389.1" y="-122.7" width="21.2" height="10.4" id="Path_83_1_">
						<g class="st31">
						</g>
					</mask>
					
						<linearGradient id="Path_83_3_" gradientUnits="userSpaceOnUse" x1="-1203.351" y1="242.3881" x2="-1204.6659" y2="244.9201" gradientTransform="matrix(21.2003 0 0 -10.432 25156.0586 2431.9866)">
						<stop  offset="0" style="stop-color:#FFFFFF"/>
						<stop  offset="1" style="stop-color:#000000"/>
					</linearGradient>
					<path id="Path_83_2_" class="st32" d="M-367.9-115v-7.6c0,0-6.8,4.7-13.5,5.7c-5.2,0.8-6.5-1.7-6-5.2c-0.6,1.3-1.2,2.6-1.5,4
						c-0.5,2.9-0.5,5.9,5.4,5.9C-377.5-112.2-367.9-115-367.9-115z"/>
				</g>
			</mask>
			<path id="Path_83" class="st29" d="M-367.9-115v-7.6c0,0-6.8,4.7-13.5,5.7c-5.2,0.8-6.5-1.7-6-5.2c-0.6,1.3-1.2,2.6-1.5,4
				c-0.5,2.9-0.5,5.9,5.4,5.9C-377.5-112.2-367.9-115-367.9-115z"/>
		</g>
		<path id="Path_77" class="st20" d="M-355.8-122.1c-0.1,0-0.2,0-0.2,0c-0.2,0-0.5,0-0.7,0c-0.4,0-0.7,0-1.1,0l-0.4,0l0.9,3
			c-0.3,0.3-0.7,0.5-1,0.7c-1.6,0.6-3.5,0.1-4.6-1.3c-0.4-0.4-0.7-0.9-0.9-1.4l0,0c-0.2,0.1-0.4,0.2-0.6,0.3c0.3,0.6,0.6,1.1,1,1.5
			c1,1.1,2.3,1.7,3.8,1.8c0.5,0,1.1-0.1,1.6-0.3c0.4-0.1,0.7-0.3,1-0.6l0.1,0.5l0.4-0.1c0.2-0.1,0.4-0.7,0.6-1.5
			c0.1,0.2,0.2,0.4,0.4,0.5c1.4,1.8,3.5,2.9,5.8,2.9c0.6,0,1.2-0.1,1.8-0.3c1.7-0.5,2.7-2.6,3.3-4.6l0,0l-0.6-0.2
			c-0.5,1.8-1.4,3.8-2.8,4.2c-2.6,0.7-5.3-0.3-6.9-2.4c-0.2-0.3-0.4-0.6-0.6-0.9c0.2-0.6,0.4-1.2,0.4-1.8l0,0c0-0.1,0-0.1,0-0.1
			C-355.5-122.1-355.7-122.1-355.8-122.1L-355.8-122.1z"/>
		<g id="Binoculars" transform="translate(8.607 8.315)">
			<path id="Path_62" class="st33" d="M-375.1-139.8h-1.2l0.6,1.7h1.3l0.6-1.7H-375.1z"/>
			<path id="Path_66" class="st34" d="M-384.7-148.5l10,1.5c0.7,0.1,1.4,0.5,1.9,1.1c0.3,0.4,0.5,1,0.5,1.5c0,0.6-0.1,1.1-0.4,1.6
				c-0.4,0.8-1.2,1.3-2,1.4l-9.9,1.6V-148.5z"/>
			<g id="Group_29" transform="translate(0 0.339)">
				<circle id="Ellipse_8" class="st35" cx="-384.7" cy="-144.5" r="4.4"/>
				<circle id="Ellipse_9" class="st34" cx="-384.7" cy="-144.5" r="3.3"/>
				<circle id="Ellipse_10" class="st33" cx="-384.7" cy="-144.5" r="3"/>
				<path id="Path_68" class="st36" d="M-382.4-144.5c0,1.3-1,2.3-2.3,2.3"/>
				<circle id="Ellipse_11" class="st16" cx="-386.2" cy="-145.8" r="0.8"/>
			</g>
			<path id="Path_74" class="st37" d="M-367.2-140.8h-1.2l0.6,1.7h1.3l0.6-1.7H-367.2z"/>
			<g id="Group_31" transform="translate(9.003)">
				<path id="Path_79" class="st37" d="M-373-146.5h1.9c1.4,0,2.5,1.1,2.5,2.5c0,0.3-0.1,0.7-0.2,1c0,0,0,0.1,0,0.1
					c-0.4,0.9-1.3,1.4-2.2,1.4h-3.8L-373-146.5z"/>
				<path id="Path_80" class="st34" d="M-384.3-148.8l11,1.6c0.8,0.1,1.6,0.5,2,1.2c0.3,0.5,0.5,1.1,0.5,1.7c0,0.6-0.2,1.2-0.4,1.8
					c-0.5,0.8-1.3,1.4-2.3,1.6l-10.8,1.8V-148.8z"/>
				<g id="Group_30" transform="translate(0 0)">
					<circle id="Ellipse_12" class="st35" cx="-384.3" cy="-144" r="4.8"/>
					<circle id="Ellipse_13" class="st34" cx="-384.3" cy="-144" r="3.6"/>
					<circle id="Ellipse_14" class="st33" cx="-384.3" cy="-144" r="3.3"/>
					<path id="Path_81" class="st36" d="M-381.7-144c0,1.4-1.1,2.6-2.6,2.6"/>
					<circle id="Ellipse_15" class="st16" cx="-385.9" cy="-145.5" r="0.9"/>
				</g>
			</g>
			<g id="Group_32" transform="translate(13.682 10.753)">
				<path id="Path_86" class="st38" d="M-381-134.1c-0.5,0.2-1,0.3-1.6,0.3c-1.4,0-2.8-0.7-3.8-1.8c-0.8-1-1.4-2.2-1.7-3.5
					c-0.8-3.2-1.1-6.5-1-9.8l0.7,0c-0.1,3.2,0.3,6.3,0.9,9.4c0.3,1.2,0.8,2.4,1.6,3.4c1.1,1.3,2.9,1.9,4.6,1.3
					c1.5-0.6,2.4-2.3,2.3-4.4l-0.1-2.1c0.2,0,0.4,0,0.7,0l0.1,2C-378.2-136.7-379.2-134.8-381-134.1z"/>
			</g>
			<g id="Group_33" transform="translate(21.606 9.742)">
				<path id="Path_87" class="st39" d="M-375-139c-0.3,1.9-1.3,6.6-3.9,7.3c-0.6,0.2-1.2,0.3-1.8,0.3c-2.3,0-4.4-1.1-5.8-2.9
					c-1.2-1.7-2-3.7-2.1-5.9c-0.1-0.8-0.2-1.7-0.2-2.4c-0.2-2.1-0.2-4.3-0.2-6.3h0.7c0,2,0,4.1,0.2,6.2c0.1,0.8,0.1,1.7,0.3,2.5
					c0.2,2,0.9,3.9,2,5.5c1.6,2.1,4.3,3.1,6.9,2.4c2.2-0.6,3.2-5.2,3.4-6.9L-375-139z"/>
			</g>
		</g>
	</g>
	<g id="Man_1" transform="translate(470.467 334.705)">
		<g id="Legs-3" transform="translate(26.095 66.563)">
			<path id="Path_92" class="st18" d="M-378.6-79.4v1.6l10.7,5.4H-384v-7.1H-378.6z"/>
			<path id="Path_93" class="st18" d="M-363.6-79.4v1.6l10.7,5.4h-16.1v-7.1H-363.6z"/>
			<path id="Path_94" class="st18" d="M-357.6-140.2c0,0,7.1,22.8,8.1,29.8c0.9,7-14.1,31-14.1,31h-5.4c0,0,4.9-18.4,5.4-23
				c0.5-4.6-7.5-21.8-7.5-21.8l-3.7-14.2l3.5-4.2L-357.6-140.2z"/>
			<path id="Path_95" class="st18" d="M-386.9-148.8c0,0-2.9,5.7-2,15.6c0.9,9.8,11.2,20.9,11.5,24.9c0.3,4-6.6,29-6.6,29h5.4
				c0,0,12.5-22.2,16-29.3c3.6-7.1-8.6-25.1-9.3-38L-386.9-148.8z"/>
		</g>
		<g id="Head-4" transform="translate(54.089)">
			
				<linearGradient id="Ellipse_16_1_" gradientUnits="userSpaceOnUse" x1="-906.1633" y1="229.4813" x2="-905.7783" y2="230.7013" gradientTransform="matrix(29.88 0 0 -26.138 26698.8184 5871.2075)">
				<stop  offset="0" style="stop-color:#2C152C"/>
				<stop  offset="1" style="stop-color:#801437"/>
			</linearGradient>
			<ellipse id="Ellipse_16" class="st40" cx="-374.2" cy="-135.8" rx="14.9" ry="13.1"/>
			<path id="Path_90" class="st19" d="M-384.2-122l3.7-6.8c0,0-2.2-0.9-1.2-3.8c1-2.8,4.9-1.2,4.6,1.7c1.4-0.4,2.5-1.4,2.9-2.8
				c0.6-2.3,1.1-2.6,1.6-2.2c0.5,0.3,1.9,4.5,4.3,5c2.4,0.4,3.1-0.2,3.1,0.7s-3.8,8.2-5.7,10.1c-1,1.1-2.5,1.6-4,1.3l-1.6,3.3
				l-6.5,1.5C-383.2-114.1-387.5-119.5-384.2-122z"/>
			<path id="Path_91" class="st21" d="M-380-122l0.7,7l2.6-0.6l1.6-3.3C-375-118.9-379-119.6-380-122z"/>
		</g>
		<g id="Body-4" transform="translate(0 26.837)">
			<path id="Path_96" class="st15" d="M-360.6-111.5c-1.2,0.8-1.8,2.3-1.4,3.7c0.5,2.6,22,9.8,27.1,10.3c4.1,0.4,5.3-0.6,5.3-1.4
				c0-1,0.2-2,0.6-3l6.4-19.6c0,0,3.5,10.8,6.8,14.3c3.3,3.4,20.1-10.4,20.1-10.4l-1.4-5.8c0,0-11.1,6.1-12.9,6.2
				c-1.8,0.1-2.6-10.7-2.8-15.4c-0.2-4.8-0.5-6.1-1.6-7.3c-1.1-1.2-7.1-4.3-7.1-4.3c-1.3,1.5-3.4,2-5.2,1.4c-3.3-1.1-3.3-6-3.3-6
				s-12.4,0-16.5,0c-4.1,0-20.7,13.3-24.6,17.6c-3.9,4.3-10.6,17.3-10.6,17.3l3.9,3c0,0,11.3-12.2,15.5-15.1c4.2-2.9,12.5-5,12.5-5
				L-360.6-111.5z"/>
			<path id="Path_126" class="st19" d="M-293.5-124.2c0,0,1.2,0,1.3,2.1c0.1,2-1.2,3.9-3.2,4.4c-1.9,0.5-3.2,0.1-2.5-2.4
				c0.5-1.7,1.7-3,3.4-3.6C-294.2-123.7-293.8-123.9-293.5-124.2z"/>
			<path id="Path_127" class="st19" d="M-381.7-113.9c0,0-8,8.6-7.3,10.7s6.7-2.7,7.3-2.9s0.8,1.6,1.9,0.7s0.2-4.3,1.9-5.5
				L-381.7-113.9z"/>
			<defs>
				<filter id="Adobe_OpacityMaskFilter_6_" filterUnits="userSpaceOnUse" x="-362.1" y="-134" width="21.3" height="32.4">
					<feFlood  style="flood-color:white;flood-opacity:1" result="back"/>
					<feBlend  in="SourceGraphic" in2="back" mode="normal"/>
				</filter>
			</defs>
			<mask maskUnits="userSpaceOnUse" x="-362.1" y="-134" width="21.3" height="32.4" id="Path_128_1_">
				<g class="st41">
					<defs>
						<filter id="Adobe_OpacityMaskFilter_7_" filterUnits="userSpaceOnUse" x="-362.1" y="-134" width="21.3" height="32.4">
							<feFlood  style="flood-color:white;flood-opacity:1" result="back"/>
							<feBlend  in="SourceGraphic" in2="back" mode="normal"/>
						</filter>
					</defs>
					<mask maskUnits="userSpaceOnUse" x="-362.1" y="-134" width="21.3" height="32.4" id="Path_128_1_">
						<g class="st42">
						</g>
					</mask>
					
						<linearGradient id="Path_128_3_" gradientUnits="userSpaceOnUse" x1="-852.59" y1="204.2255" x2="-851.7661" y2="203.6655" gradientTransform="matrix(21.3337 0 0 -32.41 17824.3516 6484.5313)">
						<stop  offset="0" style="stop-color:#FFFFFF"/>
						<stop  offset="1" style="stop-color:#000000"/>
					</linearGradient>
					<path id="Path_128_2_" class="st43" d="M-340.8-134l-9.1,3l-10.7,19.5c-1.2,0.8-1.8,2.3-1.4,3.7c0.2,1.3,6.2,3.9,12.6,6.2
						c-9.4-4-7.5-8.5-3.2-15.1C-348.3-123.3-340.8-134-340.8-134z"/>
				</g>
			</mask>
			<path id="Path_128" class="st29" d="M-340.8-134l-9.1,3l-10.7,19.5c-1.2,0.8-1.8,2.3-1.4,3.7c0.2,1.3,6.2,3.9,12.6,6.2
				c-9.4-4-7.5-8.5-3.2-15.1C-348.3-123.3-340.8-134-340.8-134z"/>
			<defs>
				<filter id="Adobe_OpacityMaskFilter_8_" filterUnits="userSpaceOnUse" x="-322.7" y="-134" width="14.2" height="27.4">
					<feFlood  style="flood-color:white;flood-opacity:1" result="back"/>
					<feBlend  in="SourceGraphic" in2="back" mode="normal"/>
				</filter>
			</defs>
			<mask maskUnits="userSpaceOnUse" x="-322.7" y="-134" width="14.2" height="27.4" id="Path_129_1_">
				<g class="st44">
					<defs>
						<filter id="Adobe_OpacityMaskFilter_9_" filterUnits="userSpaceOnUse" x="-322.7" y="-134" width="14.2" height="27.4">
							<feFlood  style="flood-color:white;flood-opacity:1" result="back"/>
							<feBlend  in="SourceGraphic" in2="back" mode="normal"/>
						</filter>
					</defs>
					<mask maskUnits="userSpaceOnUse" x="-322.7" y="-134" width="14.2" height="27.4" id="Path_129_1_">
						<g class="st45">
						</g>
					</mask>
					
						<linearGradient id="Path_129_3_" gradientUnits="userSpaceOnUse" x1="-853.3267" y1="203.8438" x2="-851.8676" y2="203.0628" gradientTransform="matrix(14.197 0 0 -27.3763 11779.665 5441.543)">
						<stop  offset="0" style="stop-color:#FFFFFF"/>
						<stop  offset="1" style="stop-color:#000000"/>
					</linearGradient>
					<path id="Path_129_2_" class="st46" d="M-308.5-108.8c-0.2,0.1-5.4,2-7-2.7c-1.6-4.8-3.2-22.5-3.2-22.5l-4,12.6
						c0,0,3.5,10.8,6.8,14.3C-314.7-106-311.8-107-308.5-108.8z"/>
				</g>
			</mask>
			<path id="Path_129" class="st29" d="M-308.5-108.8c-0.2,0.1-5.4,2-7-2.7c-1.6-4.8-3.2-22.5-3.2-22.5l-4,12.6
				c0,0,3.5,10.8,6.8,14.3C-314.7-106-311.8-107-308.5-108.8z"/>
		</g>
		<g id="Loop" transform="translate(87.548 20.236)">
			<defs>
				<filter id="Adobe_OpacityMaskFilter_10_" filterUnits="userSpaceOnUse" x="-379.1" y="-147.1" width="13.4" height="21.6">
					<feFlood  style="flood-color:white;flood-opacity:1" result="back"/>
					<feBlend  in="SourceGraphic" in2="back" mode="normal"/>
				</filter>
			</defs>
			<mask maskUnits="userSpaceOnUse" x="-379.1" y="-147.1" width="13.4" height="21.6" id="Path_88_1_">
				<g class="st47">
					<defs>
						<filter id="Adobe_OpacityMaskFilter_11_" filterUnits="userSpaceOnUse" x="-379.1" y="-147.1" width="13.4" height="21.6">
							<feFlood  style="flood-color:white;flood-opacity:1" result="back"/>
							<feBlend  in="SourceGraphic" in2="back" mode="normal"/>
						</filter>
					</defs>
					<mask maskUnits="userSpaceOnUse" x="-379.1" y="-147.1" width="13.4" height="21.6" id="Path_88_1_">
						<g class="st48">
						</g>
					</mask>
					
						<linearGradient id="Path_88_3_" gradientUnits="userSpaceOnUse" x1="-938.6539" y1="207.9903" x2="-940.0358" y2="209.3353" gradientTransform="matrix(13.444 0 0 -21.5832 12258.2012 4370.0474)">
						<stop  offset="0" style="stop-color:#FFFFFF"/>
						<stop  offset="1" style="stop-color:#000000"/>
					</linearGradient>
					<path id="Path_88_2_" class="st49" d="M-366.2-136.8c-0.7,3.4-2.4,7.2-5.3,9.6c-0.1,0.1-0.3,0.2-0.4,0.3c0,0,0,0-0.1,0
						c-0.1,0.1-0.2,0.2-0.4,0.3c0,0-0.1,0.1-0.1,0.1c-0.1,0.1-0.2,0.1-0.3,0.2c-0.1,0-0.1,0.1-0.2,0.1l-0.2,0.1
						c-0.1,0-0.1,0.1-0.2,0.1l-0.2,0.1c-0.1,0-0.2,0.1-0.2,0.1c-0.1,0-0.1,0-0.2,0.1c-0.1,0-0.2,0.1-0.3,0.1c0,0-0.1,0-0.1,0
						c-0.1,0-0.2,0.1-0.3,0.1c0,0,0,0,0,0c-0.4-0.1-0.8-0.3-1.2-0.5c-1.6-0.8-2.6-2.3-2.9-4c-0.8-4.3,0.1-10.9,5.3-14.9
						c1.1-0.8,2.3-1.5,3.6-1.9c0.7-0.2,1.5-0.3,2.2-0.3l0,0c0.1,0.2,0.3,0.3,0.4,0.5c0,0,0,0,0,0c0.7,1,1.1,2,1.4,3.2c0,0,0,0,0,0
						c0.1,0.2,0.1,0.4,0.1,0.6c0,0,0,0,0,0c0,0.2,0.1,0.4,0.1,0.6C-365.6-140.3-365.8-138.5-366.2-136.8z"/>
				</g>
			</mask>
			
				<linearGradient id="Path_88_4_" gradientUnits="userSpaceOnUse" x1="-938.6539" y1="207.9903" x2="-940.0358" y2="209.3353" gradientTransform="matrix(13.444 0 0 -21.5832 12258.2012 4370.0474)">
				<stop  offset="0" style="stop-color:#B7C0E2"/>
				<stop  offset="1" style="stop-color:#B7C0E2"/>
			</linearGradient>
			<path id="Path_88" class="st50" d="M-366.2-136.8c-0.7,3.4-2.4,7.2-5.3,9.6c-0.1,0.1-0.3,0.2-0.4,0.3c0,0,0,0-0.1,0
				c-0.1,0.1-0.2,0.2-0.4,0.3c0,0-0.1,0.1-0.1,0.1c-0.1,0.1-0.2,0.1-0.3,0.2c-0.1,0-0.1,0.1-0.2,0.1l-0.2,0.1
				c-0.1,0-0.1,0.1-0.2,0.1l-0.2,0.1c-0.1,0-0.2,0.1-0.2,0.1c-0.1,0-0.1,0-0.2,0.1c-0.1,0-0.2,0.1-0.3,0.1c0,0-0.1,0-0.1,0
				c-0.1,0-0.2,0.1-0.3,0.1c0,0,0,0,0,0c-0.4-0.1-0.8-0.3-1.2-0.5c-1.6-0.8-2.6-2.3-2.9-4c-0.8-4.3,0.1-10.9,5.3-14.9
				c1.1-0.8,2.3-1.5,3.6-1.9c0.7-0.2,1.5-0.3,2.2-0.3l0,0c0.1,0.2,0.3,0.3,0.4,0.5c0,0,0,0,0,0c0.7,1,1.1,2,1.4,3.2c0,0,0,0,0,0
				c0.1,0.2,0.1,0.4,0.1,0.6c0,0,0,0,0,0c0,0.2,0.1,0.4,0.1,0.6C-365.6-140.3-365.8-138.5-366.2-136.8z"/>
			<path id="Path_89" class="st35" d="M-382.3-120.5l2.9-6.1l1.7,0.8l-2.9,6.1L-382.3-120.5z"/>
			<path id="Path_97" class="st34" d="M-387.8-110.4l4.6-9.6l2.7,1.2l-4.6,9.6L-387.8-110.4z"/>
			<path id="Path_98" class="st33" d="M-385.3-107.5l-3.3-1.5c-0.4-0.2-0.6-0.7-0.4-1.1c0,0,0-0.1,0-0.1l0,0
				c0.2-0.4,0.7-0.5,1.1-0.3l3.3,1.5c0.4,0.2,0.6,0.7,0.4,1.1c0,0,0,0.1,0,0.1l0,0C-384.5-107.5-384.9-107.4-385.3-107.5z"/>
			<path id="Path_99" class="st33" d="M-380.3-118.5l-3.3-1.5c-0.4-0.2-0.6-0.7-0.4-1.1c0,0,0-0.1,0-0.1l0,0
				c0.2-0.4,0.7-0.5,1.1-0.3l3.3,1.5c0.4,0.2,0.6,0.7,0.4,1.1c0,0,0,0.1,0,0.1l0,0C-379.5-118.4-379.9-118.3-380.3-118.5z"/>
			<path id="Path_123" class="st51" d="M-379.5-126.5l-2.6,5.4l0,0l4.2-4.4l-0.8-0.8l-0.5-0.2L-379.5-126.5z"/>
			<path id="Path_124" class="st35" d="M-367.8-147.1c-0.8,0-1.5,0.1-2.2,0.3c-1.3,0.4-2.5,1.1-3.6,1.9c-5.2,3.9-6.1,10.6-5.3,14.9
				c0.3,1.7,1.4,3.2,2.9,4c0.4,0.2,0.8,0.4,1.2,0.5c-3.1,0.9-6.5-0.8-7.4-4c-0.1-0.3-0.2-0.6-0.2-0.9c-0.8-4.6,0.1-11.8,5.3-16
				c1.8-1.5,4.4-2.9,6.8-2.2c0.6,0.2,1.2,0.4,1.7,0.8C-368.3-147.6-368-147.4-367.8-147.1z"/>
			<path id="Path_125" class="st51" d="M-366.2-136.8c-0.7,3.4-2.4,7.2-5.3,9.6c-0.1,0.1-0.3,0.2-0.4,0.3c0,0,0,0-0.1,0
				c-0.1,0.1-0.2,0.2-0.4,0.3c0,0-0.1,0.1-0.1,0.1c-0.1,0.1-0.2,0.1-0.3,0.2c-0.1,0-0.1,0.1-0.2,0.1l-0.2,0.1
				c-0.1,0-0.1,0.1-0.2,0.1l-0.2,0.1c-0.1,0-0.2,0.1-0.2,0.1c-0.1,0-0.1,0-0.2,0.1c-0.1,0-0.2,0.1-0.3,0.1c0,0-0.1,0-0.1,0
				c-0.1,0-0.2,0.1-0.3,0.1c0,0,0,0,0,0c-0.4-0.1-0.8-0.3-1.2-0.5c0.7-0.3,1.4-0.8,2-1.2c4.8-3.9,6.1-11.2,5.8-14.8
				c-0.1-1.7-0.8-3.4-1.8-4.8c0.7-0.2,1.5-0.3,2.2-0.3l0,0c0.1,0.2,0.3,0.3,0.4,0.5c0,0,0,0,0,0c0.7,1,1.1,2,1.4,3.2c0,0,0,0,0,0
				c0,0.2,0.1,0.4,0.1,0.6c0,0,0,0,0,0c0,0.2,0.1,0.4,0.1,0.6C-365.6-140.3-365.8-138.5-366.2-136.8z"/>
		</g>
	</g>
</g>
</svg>
