<?xml version="1.0" encoding="utf-8"?>
<!-- Generator: Adobe Illustrator 19.0.0, SVG Export Plug-In . SVG Version: 6.00 Build 0)  -->
<svg version="1.1" id="Layer_1" xmlns="http://www.w3.org/2000/svg" xmlns:xlink="http://www.w3.org/1999/xlink" x="0px" y="0px"
	 viewBox="0 0 37 17" style="enable-background:new 0 0 37 17;" xml:space="preserve">
<style type="text/css">
	.st0{fill:#FFC70E;}
</style>
<g id="Arrow" transform="translate(117.005 553)">
	<g id="Line_16">
		<path class="st0" d="M-81.5-543h-34c-0.8,0-1.5-0.7-1.5-1.5s0.7-1.5,1.5-1.5h34c0.8,0,1.5,0.7,1.5,1.5S-80.7-543-81.5-543z"/>
	</g>
	<g id="Group_60">
		<g id="Line_17">
			<path class="st0" d="M-115.5-543c-0.4,0-0.8-0.1-1.1-0.4c-0.6-0.6-0.6-1.5,0-2.1l7-7c0.6-0.6,1.5-0.6,2.1,0
				c0.6,0.6,0.6,1.5,0,2.1l-7,7C-114.7-543.1-115.1-543-115.5-543z"/>
		</g>
		<g id="Line_18">
			<path class="st0" d="M-108.5-536c-0.4,0-0.8-0.1-1.1-0.4l-7-7c-0.6-0.6-0.6-1.5,0-2.1c0.6-0.6,1.5-0.6,2.1,0l7,7
				c0.6,0.6,0.6,1.5,0,2.1C-107.7-536.1-108.1-536-108.5-536z"/>
		</g>
	</g>
</g>
</svg>
