<?xml version="1.0" encoding="utf-8"?>
<!-- Generator: Adobe Illustrator 19.0.0, SVG Export Plug-In . SVG Version: 6.00 Build 0)  -->
<svg version="1.1" id="Capa_1" xmlns="http://www.w3.org/2000/svg" xmlns:xlink="http://www.w3.org/1999/xlink" x="0px" y="0px"
	 viewBox="-44 191 523 412" style="enable-background:new -44 191 523 412;" xml:space="preserve">
	  <style>
	 	svg path{
	 	fill:#666666;
	 	}
	 </style>
<g>
	<g>
		<g>
			<path d="M320.1,196.5c-18.8,0-34.1,15.3-34.1,34.1v6.2L86.6,316.5c-3.2,1.3-5.4,4.4-5.4,7.9v119.5c0,3.5,2.1,6.6,5.4,7.9
				L286,531.5v6.2c0,18.8,15.3,34.1,34.1,34.1s34.1-15.3,34.1-34.1V230.6C354.3,211.8,339,196.5,320.1,196.5z M337.3,537.8
				c0,9.4-7.7,17.1-17.1,17.1s-17.1-7.7-17.1-17.1v-11.9c0-3.5-2.1-6.6-5.4-7.9L98.3,438.2v-108l199.5-79.7c3.2-1.3,5.4-4.4,5.4-7.9
				v-11.9c0-9.4,7.7-17.1,17.1-17.1s17.1,7.7,17.1,17.1v307.1L337.3,537.8L337.3,537.8z"/>
		</g>
	</g>
	<g>
		<g>
			<path d="M89.8,315.9H30.1c-37.6,0-68.3,30.6-68.3,68.3s30.6,68.3,68.3,68.3h59.7c4.7,0,8.5-3.8,8.5-8.5V324.5
				C98.3,319.8,94.4,315.9,89.8,315.9z M81.3,435.4H30.1c-28.2,0-51.2-23-51.2-51.2s23-51.2,51.2-51.2h51.2V435.4z"/>
		</g>
	</g>
	<g>
		<g>
			<path d="M399.6,350.5l-51.2-17.1c-2.6-0.9-5.5-0.4-7.7,1.2s-3.5,4.2-3.5,6.9v85.3c0,2.7,1.3,5.3,3.5,6.9c1.5,1.1,3.2,1.6,5,1.6
				c0.9,0,1.8-0.1,2.7-0.4l51.2-17.1c3.5-1.2,5.8-4.4,5.8-8.1v-51.2C405.5,354.9,403.1,351.7,399.6,350.5z M388.5,403.6L354.3,415
				v-61.7l34.1,11.4v38.9L388.5,403.6L388.5,403.6z"/>
		</g>
	</g>
	<g>
		<g>
			<path d="M131.7,550.5l-8.6-8.6l-25-100.1c-0.9-3.8-4.4-6.5-8.3-6.5H21.5c-2.6,0-5.1,1.2-6.7,3.2s-2.2,4.7-1.6,7.3L47.4,591
				c0.9,3.9,4.4,6.6,8.3,6.6c0.5,0,1.1-0.1,1.6-0.2l64.1-12.4c0.1,0,0.2,0,0.3-0.1c3.8-0.8,7.2-2.7,9.9-5.4c3.9-3.8,6.1-9,6.1-14.4
				C137.7,559.5,135.6,554.5,131.7,550.5z M119.4,567.4c-0.4,0.4-1,0.7-1.6,0.9L62,579.1L32.3,452.5h50.8l24,95.9
				c0.4,1.5,1.2,2.9,2.2,4l10.2,10.2c0.9,0.9,1,1.9,1,2.4C120.6,565.5,120.4,566.5,119.4,567.4z"/>
		</g>
	</g>
	<g>
		<g>
			<rect x="422.5" y="375.7" width="51.2" height="17.1"/>
		</g>
	</g>
	<g>
		<g>
			<rect x="418.9" y="286" transform="matrix(-0.8574 0.5146 -0.5146 -0.8574 975.969 318.621)" width="49.8" height="17.1"/>
		</g>
	</g>
	<g>
		<g>
			<rect x="435.4" y="448.9" transform="matrix(-0.5145 0.8575 -0.8575 -0.5145 1078.5428 336.8406)" width="17.1" height="49.8"/>
		</g>
	</g>
	<g>
		<g>
			<rect x="286" y="239.1" width="17.1" height="290.1"/>
		</g>
	</g>
	<g>
		<g>
			<rect x="47.1" y="350.1" width="17.1" height="34.1"/>
		</g>
	</g>
	<g>
		<g>
			<rect x="13" y="350.1" width="17.1" height="34.1"/>
		</g>
	</g>
</g>
</svg>
