<?xml version="1.0" encoding="utf-8"?>
<!-- Generator: Adobe Illustrator 19.0.0, SVG Export Plug-In . SVG Version: 6.00 Build 0)  -->
<svg version="1.1" id="Layer_1" xmlns="http://www.w3.org/2000/svg" xmlns:xlink="http://www.w3.org/1999/xlink" x="0px" y="0px"
	 viewBox="-160 200 291 393" style="enable-background:new -160 200 291 393;" xml:space="preserve">
	  <style>
	 	svg path{
	 	fill:#666666;
	 	}
	 </style>
<path d="M64.3,204.5c4.1,2.6,5.4,6.2,5.3,11c-0.2,26.6,0,53.2-0.2,79.9c0,2.3-0.8,5-2.1,6.9c-1.8,2.7-4.9,3.4-8.1,2.3
	c-3.6-1.2-5.4-3.9-5.5-7.7c-0.1-10.1,0-20.2,0-30.4c0-1.6,0-3.2,0-5.1c-63.8,0-127.3,0-191.1,0c0,80,0,159.8,0,239.9
	c63.6,0,127,0,191.1,0c0-1.2,0-2.5,0-3.8c0-9.7,0-19.5,0-29.2c0-5.7,3.2-9.4,7.9-9.4c4.7,0.1,7.8,3.7,7.8,9.5
	c0,36.9,0,73.7,0.1,110.6c0,4.4-2,7.2-5.3,9.5c-70.5,0-141,0-211.5,0c-4.4-2-6-5.4-6-10.2c0.1-121.2,0.1-242.4,0-363.6
	c0-4.8,1.5-8.2,6-10.2C-76.7,204.5-6.2,204.5,64.3,204.5z M53.7,517.5c-63.8,0-127.4,0-190.9,0c0,18.5,0,36.7,0,55.1
	c63.7,0,127.2,0,190.9,0C53.7,554.1,53.7,535.9,53.7,517.5z M53.7,220.4c-63.9,0-127.4,0-190.9,0c0,8.4,0,16.5,0,24.8
	c63.7,0,127.3,0,190.9,0C53.7,236.9,53.7,228.8,53.7,220.4z"/>
<path d="M78,425.3c-0.5,0-0.8-0.1-1-0.1c-2.4,0.7-4.8,1.4-7.5,2.1c0,2.7,0.1,5.4,0,8.1c-0.2,4.9-3.5,8.2-7.9,8.2
	c-4.3-0.1-7.5-3.3-7.7-8c-0.1-2.7,0-5.5,0-8.3c-2.8-0.8-5.4-1.5-8.4-2.3c-1.2,2-2.4,4.1-3.6,6.1c-3,5-7.4,6.6-11.5,4.1
	c-4-2.4-4.8-6.9-2.1-11.8c1.1-2.1,2.3-4.1,3.5-6.3c-2.1-2-4-3.8-6.3-6c-2.1,1.2-4.4,2.6-6.8,3.9c-4.4,2.3-8.9,1.1-11.1-2.7
	c-2.2-3.9-0.9-8.2,3.3-10.9c2.2-1.4,4.5-2.7,6.6-3.9c0.1-0.5,0.2-0.7,0.2-0.9c-2.1-7.5-2.1-7.5-10.1-7.7c-4.9-0.1-8.3-3.4-8.4-7.8
	c0-4.2,3.3-7.5,7.9-7.9c0.2,0,0.5,0,0.7,0c8-0.3,8-0.3,9.9-8.4c-2.2-1.3-4.6-2.6-6.9-4.1c-4.2-2.6-5.5-7.1-3.2-10.9
	c2.3-3.9,6.7-4.9,11.1-2.6c2.3,1.2,4.6,2.6,7,4c2-2,4-4.1,6.1-6.2c-1.3-2.3-2.6-4.5-3.9-6.8c-2.4-4.4-1.4-8.8,2.5-11.1
	c4-2.4,8.4-1.1,11.1,3.4c0.4,0.6,0.8,1.3,1.1,2c1.5,4,3.8,5.4,8.2,3.5c2.3-1,3.2-1.7,3-4c-0.2-2-0.1-4,0-6c0.4-4.2,3.7-7.2,7.7-7.3
	c4.1-0.1,7.5,3.1,7.9,7.5c0.1,1.1,0.2,2.3,0,3.4c-0.7,4.3,0.7,6.5,5.4,7.1c2.4,0.3,3.7,0.3,4.6-2c0.6-1.5,1.6-2.8,2.4-4.2
	c2.7-4.3,7-5.6,10.9-3.4c4,2.2,5.1,6.8,2.6,11.4c-1.2,2.2-2.5,4.3-4.3,7.5c1,0.7,2.3,1.5,3.5,2.4c1.1,0.9,2,1.9,3.1,3
	c2.5-1.4,4.9-2.9,7.5-4.2c4.1-2.1,8.6-0.8,10.7,3c2,3.7,0.9,8-2.8,10.4c-2.4,1.6-4.9,3-7.3,4.4c0,0.6,0,0.9,0.1,1.3
	c2.1,6.9,2.1,6.9,9.5,7.1c5.4,0.2,9,3.5,8.9,8.1c-0.1,4.5-3.7,7.5-8.9,7.6c-7.8,0.1-7.8,0.1-9.6,8.5c2.3,1.3,4.7,2.6,7,4.1
	c4.2,2.7,5.4,7.1,3.1,11c-2.2,3.7-6.6,4.8-10.8,2.6c-2.4-1.3-4.7-2.7-7.1-4c-2,2.1-3.9,4.1-6.1,6.3c1.2,2.1,2.7,4.5,3.9,6.9
	c2.3,4.3,1.1,8.9-2.8,11.1c-3.8,2.1-8.1,0.9-10.7-3.2C80.7,430,79.3,427.6,78,425.3z M61.5,412.2c17.1,0.1,31.1-13.9,31.1-30.9
	s-14.1-31.1-31-31c-16.9,0-30.7,13.8-30.9,30.8C30.5,397.9,44.6,412.1,61.5,412.2z"/>
<path d="M-86,402.9c2.5-2.5,1.8-4.2-0.8-6c-3-2-4.7-4.9-3.9-8.7c1.4-6.3,8.1-8,13.6-3.6c3.4,2.7,3.4,2.7,6.4,0
	c-0.6-1.7-1.2-3.5-1.7-5.3c-1.1-4.1,0.8-8,4.6-9.5s7.9,0.1,9.8,3.9c0.7,1.3,0.9,2.9,1.7,4.1c0.5,0.7,1.8,1.3,2.6,1.2
	c0.8-0.1,1.9-0.9,2.2-1.7c0.6-1.3,0.5-2.9,0.9-4.4c1.1-3.8,4.9-6.2,8.6-5.6c3.9,0.7,6.6,3.8,6.5,7.9c0,1.5-0.6,3-0.5,4.4
	c0.1,1,0.7,2.3,1.5,2.7c0.8,0.4,2.3,0,3.1-0.5c1-0.7,1.6-1.9,2.5-2.8c3-3,7.4-3.3,10.5-0.9c3.3,2.6,4,7,1.5,10.7
	c-1,1.5-2.3,2.9-3.4,4.3c1.1,4.3,3.6,3.1,6.3,2.1c4.3-1.6,7.8-0.5,10,2.7c2,3,1.9,6.8-0.6,9.3c-1.3,1.3-3,2.3-4.7,2.8
	c-2.8,0.9-4,2.3-2.7,5.4c1.2,0.3,2.7,0.6,4.1,0.9c5.2,1.1,8,4.7,7.2,9.2c-0.9,4.6-4.7,6.9-9.9,6.3c-1.7-0.2-4.1-1.9-5.1,1
	c-0.3,0.9-0.1,2.3,0.5,3.1c0.8,1.2,2.3,1.9,3.3,3c2.7,2.9,2.7,7.3,0.3,10.3c-2.5,3-6.8,3.7-10.2,1.5c-1.2-0.7-2.1-1.9-3.3-2.5
	c-0.9-0.4-2.5-0.7-3.1-0.2c-0.8,0.7-1.1,2.2-1.1,3.3c0,1.2,0.9,2.3,1.1,3.5c1,4.2-1.1,8.1-4.8,9.4c-4,1.4-8.1-0.4-9.9-4.5
	c-0.7-1.6-1.3-3.2-1.9-4.9c-1.3,0-2.5,0-4,0c-0.4,1.8-0.7,3.5-1,5.2c-1,4.7-5,7.4-9.4,6.5c-4.2-0.9-6.7-4.9-6-9.4
	c0.2-1.1,0.6-2.3,0.5-3.3c-0.2-0.9-0.9-2-1.7-2.3c-0.7-0.3-2.1,0-2.8,0.5c-1.2,0.9-1.9,2.3-3,3.3c-3,2.8-7.2,2.9-10.2,0.4
	c-3.1-2.5-3.8-7-1.5-10.5c0.8-1.1,1.9-2,2.5-3.3c0.4-0.9,0.5-2.4-0.1-3.1c-0.5-0.7-2-1-3-0.9c-1.3,0.1-2.6,0.9-3.9,1.2
	c-3.9,1-7.8-1-9.1-4.6c-1.5-3.8,0.1-8,3.8-9.8c1.8-0.9,3.7-1.5,5.4-2.2c0.7-3.1-0.4-4.2-3.4-4.8c-2.5-0.5-5.5-1.8-6.8-3.8
	c-1.2-1.9-1.2-5.3-0.5-7.6c0.8-3,3.7-4.3,6.8-4.2C-90.1,402.3-88,402.7-86,402.9z M-27.9,417c0-12.4-10-22.3-22.5-22.2
	c-12.4,0.1-22.4,10.1-22.3,22.5c0.1,12.4,10.2,22.4,22.5,22.3C-37.7,439.4-27.9,429.5-27.9,417z"/>
<path d="M-29.9,544.3c0.1,6.6-5.1,11.9-11.7,11.9c-6.4,0-11.7-5.1-11.8-11.5c-0.1-6.6,4.9-12,11.5-12.1
	C-35.3,532.5-30,537.7-29.9,544.3z"/>
</svg>
