<?xml version="1.0" encoding="utf-8"?>
<!-- Generator: Adobe Illustrator 19.0.0, SVG Export Plug-In . SVG Version: 6.00 Build 0)  -->
<svg version="1.1" id="Layer_1" xmlns="http://www.w3.org/2000/svg" xmlns:xlink="http://www.w3.org/1999/xlink" x="0px" y="0px"
	 viewBox="-94 207 423 380" style="enable-background:new -94 207 423 380;" xml:space="preserve">
	 <style>
	 	svg path{
	 	fill:#666666;
	 	}
	 </style>
<path id="XMLID_396_" d="M73.9,561.4c0-20.9,0-41.1,0-61.8c-1.6,0-3.1,0-4.5,0c-41.4,0-82.8-0.3-124.2,0.1
	c-18.6,0.2-33.6-14.2-33.6-33.8c0-73,0-146.1,0-219.1c0-19.1,14.4-33.7,33.8-33.7c114.4,0.2,228.9,0.3,343.3-0.1
	c21.1-0.1,34.7,15.9,34.6,34.6c-0.1,72.6,0,145.2-0.1,217.8c0,14.6-7.6,27-20.3,31.8c-4.2,1.6-9.1,2.2-13.6,2.2
	c-41.4,0.2-82.8,0.1-124.2,0.1c-1.3,0-2.7,0-4.2,0c0,20.6,0,40.9,0,61.6c1.2,0.1,2.4,0.2,3.6,0.2c11,0,22,0,33,0
	c6.6,0,10.9,3.9,10.8,9.9c0,5.9-4.2,9.8-10.7,9.8c-53.4,0-106.8,0-160.3,0c-6.6,0-11-4-11-9.9c0-6,4.3-9.9,10.9-9.9
	c10.9,0,21.8,0,32.7,0C71.2,561.4,72.4,561.4,73.9,561.4z M117,479.1C117,479,117,479,117,479.1c57.4,0,114.8,0,172.2,0
	c8.8,0,13.3-4.4,13.4-13.4c0.1-6.9,0-13.8,0-20.8c0-65.4,0-130.9,0-196.3c0-10.5-4.1-14.7-14.5-14.7c-114.1,0-228.2,0-342.3,0
	c-9,0-13.4,4.2-13.5,13.2c-0.1,19.5-0.1,39-0.1,58.5c0,38,0,76,0,114c0,15.3-0.1,30.6,0,45.9c0,9.1,4.6,13.5,13.7,13.5
	C2.9,479.1,60,479.1,117,479.1z M140.7,499.9c-15.7,0-31.2,0-46.5,0c0,20.6,0,41,0,61.3c15.6,0,31,0,46.5,0
	C140.7,540.6,140.7,520.4,140.7,499.9z"/>
<path id="XMLID_309_" d="M33.8,418.6c-1.3-0.8-4.4-1.8-6.1-4c-13.9-17.5-27.6-35.1-41.2-52.8c-3-3.9-3-8.3,0.1-12.2
	c13.6-17.2,27.3-34.5,41-51.6c3.6-4.4,9.9-5,14-1.6c4.5,3.7,5.1,9.4,1.3,14.2c-11.2,14.1-22.4,28.2-33.7,42.2c-1.8,2.2-2,3.6-0.1,6
	c11.3,14.3,22.5,28.7,33.7,43.1c2.6,3.4,3.5,7.1,1.5,11.1C42.5,416.6,39.6,418.5,33.8,418.6z"/>
<path id="XMLID_308_" d="M251.2,357c-1,2.3-1.6,4.6-2.9,6.3c-13.5,17.2-27.1,34.3-40.8,51.4c-3.6,4.5-9.7,5.3-13.9,2
	c-4.6-3.6-5.3-9.6-1.4-14.5c11.2-14.2,22.5-28.4,33.9-42.5c1.7-2.1,1.6-3.4,0-5.4c-11.4-14.4-22.6-28.9-33.8-43.4
	c-3.2-4.1-3.3-8.5-0.7-12.3c2.3-3.4,6.8-5.2,10.8-3.8c2,0.7,4.1,2.1,5.4,3.8c13.6,17.2,27.1,34.6,40.5,52
	C249.6,352.3,250.2,354.7,251.2,357z"/>
<path id="XMLID_307_" d="M86.2,411.1c-7.7-0.1-12.1-8.2-8.1-15.3c6.7-11.7,13.6-23.3,20.4-34.9c10.5-17.9,20.9-35.8,31.4-53.7
	c2.6-4.5,6.4-6.2,11.1-5.2c4,0.8,7.5,4.3,7.5,8.6c0,2.5-0.9,5.4-2.2,7.6c-10.5,18.2-21.1,36.2-31.7,54.3
	c-6.2,10.7-12.5,21.3-18.7,32C93.2,409.3,90.5,411.2,86.2,411.1z"/>
</svg>
