<?xml version="1.0" encoding="utf-8"?>
<!-- Generator: Adobe Illustrator 19.0.0, SVG Export Plug-In . SVG Version: 6.00 Build 0)  -->
<svg version="1.1" id="Layer_1" xmlns="http://www.w3.org/2000/svg" xmlns:xlink="http://www.w3.org/1999/xlink" x="0px" y="0px"
	 viewBox="-192 259 226 275" style="enable-background:new -192 259 226 275;" xml:space="preserve">
	  <style>
	 	svg path{
	 	fill:#666666;
	 	}
	 </style>
<path d="M-49,383c-0.9-0.8-1.9-1.5-3.1-2.5c2.7-5.4,5.2-10.8,8-16.1c1.7-3.2,1.4-5.8-0.7-8.7c-9.4-13.1-18.7-26.2-28.1-39.3
	c-3.7-5.2-8.1-5.2-11.7-0.1c-9.5,13.2-18.9,26.4-28.4,39.6c-2,2.7-2.2,5.3-0.6,8.3c2.8,5.3,5.3,10.7,8.1,16.2
	c-1,0.8-1.8,1.5-2.7,2.2c-9.8,8.2-8.5,23.1,2.7,29.4c1.6,0.9,2.8,1.5,2.8,3.8c-0.1,37.1-0.1,74.2-0.1,111.4c0,0.2,0,0.5,0,1.3h12.2
	v-0.3V414.6H-67v113.5c0.1,0.1,0.1,0.2,0.1,0.4h12v-4.1c0-35.7,0-71.5,0-107.2c0-2.4,0.4-3.9,2.9-5.2C-41.1,406-39.7,391.2-49,383z
	 M-100.9,359.8c5-7.3,10.2-14.4,15.9-22.4v22.7h12.1v-21.7l0.8-0.2c5.2,7.2,10.4,14.4,15.5,21.7c0.5,0.7,0.2,2.2-0.3,3
	c-2.1,4.5-4.3,9-6.7,13.3c-0.6,1-2.2,2-3.3,2c-7.9,0.2-15.7,0.2-23.6,0c-1.3,0-3-1.1-3.6-2.2c-2.4-4.2-4.5-8.6-6.6-13
	C-101.2,362.2-101.4,360.5-100.9,359.8z M-61.7,402.4c-5.9,0.1-11.7,0-17.6,0c-5.6,0-11.2,0.1-16.8,0c-4.1,0-6.7-2.4-6.8-5.9
	c-0.1-3.5,2.5-6,6.6-6.1c11.6-0.1,23.2-0.1,34.8,0c4,0,6.7,2.6,6.6,6.1C-54.9,400-57.6,402.4-61.7,402.4z"/>
<path d="M-123.1,288.5c-9.5,0-18.3-0.1-27.2,0.1c-1,0-2.2,1.6-2.9,2.7c-4.1,6.5-10,9.9-17.6,9.1s-12.9-5.2-15.3-12.5
	c-2.8-8.7,1.6-18.1,9.9-21.8c8.4-3.7,18.3-0.5,22.7,7.5c1.3,2.4,2.6,3,5.1,3c16.4-0.1,32.7-0.1,49.1,0c2.1,0,3.5-0.3,4.7-2.5
	c3.3-6.3,8.8-9.5,15.8-9.5c6.9,0.1,12.2,3.3,15.5,9.5c1.1,2,2.2,2.5,4.3,2.5c16.7-0.1,33.5-0.1,50.2,0c1.9,0,3-0.4,4-2.3
	c4.1-7.7,12.1-11.2,20.2-9.1c8,2.1,13.5,9.1,13.5,17.2s-5.5,15.4-13.3,17.4c-8.1,2.1-16.1-1.3-20.4-8.8c-0.6-1.1-2-1.8-3.1-2.5
	c-0.6-0.3-1.5-0.1-2.2-0.1c-8,0-16,0-24.7,0c1,0.9,1.6,1.5,2.2,1.9c21.8,14.9,34.3,35.5,37,61.8c0.2,2.1,0.8,3.5,3,4.6
	c7.6,4,11.1,12.1,9,20.2c-2,7.8-8.9,13.3-16.9,13.5c-8.5,0.2-15.6-5.2-17.8-13.2c-2.2-7.9,1.1-16.2,8.4-20.2c2-1.1,2.7-2.2,2.5-4.6
	c-3.1-28.7-24.3-53.6-52.2-61.4c-2.1-0.6-3.2-0.4-4.6,1.5c-7.6,10.6-21.8,10.4-29.4-0.2c-1.2-1.7-2.2-1.9-4-1.5
	c-27.6,6.9-50.1,33.5-52.8,62.1c-0.2,2.4,0.9,2.9,2.5,3.8c7.4,4.3,10.8,12.8,8.3,20.9s-10.4,13.3-19.1,12.5c-8-0.7-14.7-7.3-16-15.5
	c-1.1-7.2,2.8-14.4,9.3-18.3c1.3-0.8,2.8-2.3,2.9-3.7c2.9-27.2,15.7-48.3,38.4-63.4C-123.9,289.5-123.7,289.2-123.1,288.5z
	 M-168.7,276.5c-3.2-0.1-6,2.5-6.1,5.7s2.4,6,5.6,6.2c3.4,0.2,6.3-2.5,6.3-5.9C-162.8,279.3-165.5,276.6-168.7,276.5z M-78.6,276.5
	c-3.2-0.2-6,2.4-6.3,5.6c-0.2,3.2,2.3,6.1,5.5,6.4c3.3,0.3,6.3-2.4,6.5-5.8C-72.8,279.4-75.3,276.6-78.6,276.5z M11,276.5
	c-3.2,0.1-5.9,2.8-5.9,6s2.7,5.9,5.9,6c3.4,0,6.2-2.8,6.1-6.2C17,279,14.3,276.4,11,276.5z M-150.9,372.3c-0.1-3.2-2.8-5.9-6-5.8
	c-3.2,0-5.9,2.7-5.9,5.9c0,3.4,2.9,6.2,6.2,6C-153.4,378.3-150.8,375.5-150.9,372.3z M5.1,372.4c0-3.2-2.7-5.9-6-5.9
	c-3.2,0-5.9,2.7-6,5.9c-0.1,3.4,2.8,6.2,6.2,6.1C2.5,378.3,5.2,375.6,5.1,372.4z"/>
<rect x="126.6" y="823.1" width="0.5" height="0.7"/>
<rect x="101.9" y="822.8" width="1.1" height="1"/>
</svg>
